<svg width="256" height="74" viewBox="0 0 256 74" fill="none" xmlns="http://www.w3.org/2000/svg">
<path d="M254.578 65.4659C254.578 69.4094 251.319 72.6038 247.288 72.6038H8.7217C4.69264 72.6038 1.42224 69.4094 1.42224 65.4659V8.54346C1.42224 4.60177 4.69264 1.39624 8.7217 1.39624H247.286C251.319 1.39624 254.576 4.60177 254.576 8.54346L254.578 65.4659Z" fill="white"/>
<path d="M246.519 1.48232C250.908 1.48232 254.481 4.96725 254.481 9.25001V64.75C254.481 69.0328 250.908 72.5177 246.519 72.5177H9.48148C5.09156 72.5177 1.51941 69.0328 1.51941 64.75V9.25001C1.51941 4.96725 5.09156 1.48232 9.48148 1.48232H246.519ZM246.519 7.62939e-06H9.48148C4.26904 7.62939e-06 0 4.16482 0 9.25001V64.75C0 69.8352 4.26904 74 9.48148 74H246.519C251.731 74 256 69.8352 256 64.75V9.25001C256 4.16482 251.731 7.62939e-06 246.519 7.62939e-06Z" fill="#006253"/>
<path d="M57.1316 36.6004C57.0766 30.6379 62.1359 27.7371 62.3673 27.602C59.5019 23.5265 55.0608 22.9696 53.5002 22.9252C49.7702 22.5423 46.152 25.1027 44.2519 25.1027C42.3139 25.1027 39.3879 22.9622 36.2344 23.0251C32.1763 23.0862 28.3799 25.3783 26.2978 28.9377C22.0008 36.1953 25.2055 46.8605 29.3224 52.7269C31.3818 55.5999 33.7882 58.8078 36.9379 58.695C40.0194 58.571 41.1705 56.7784 44.8891 56.7784C48.5736 56.7784 49.6545 58.695 52.8668 58.6228C56.1739 58.571 58.2561 55.7368 60.2434 52.8379C62.6232 49.5449 63.579 46.3018 63.6169 46.1353C63.5392 46.1094 57.1942 43.747 57.1316 36.6004Z" fill="black"/>
<path d="M51.0634 19.0661C52.7208 17.0441 53.8548 14.2931 53.54 11.5015C51.1412 11.6051 48.1412 13.1202 46.4137 15.0979C44.8853 16.8406 43.52 19.697 43.8727 22.3832C46.5673 22.5793 49.334 21.0567 51.0634 19.0661Z" fill="black"/>
<path d="M93.0133 18.5168C93.0133 20.6943 92.344 22.3334 91.0071 23.4341C89.7688 24.4498 88.009 24.9585 85.7297 24.9585C84.5995 24.9585 83.6324 24.9104 82.8226 24.8142V12.9169C83.8789 12.7504 85.0167 12.6653 86.2455 12.6653C88.4167 12.6653 90.0532 13.1259 91.1569 14.0472C92.3933 15.0888 93.0133 16.578 93.0133 18.5168ZM90.9179 18.5705C90.9179 17.1589 90.5349 16.0767 89.7688 15.3219C89.0027 14.5689 87.8839 14.1915 86.4104 14.1915C85.7847 14.1915 85.2518 14.2322 84.81 14.3173V23.362C85.0546 23.399 85.5021 23.4156 86.1525 23.4156C87.6734 23.4156 88.8472 23.0031 89.674 22.178C90.5008 21.3529 90.9179 20.1504 90.9179 18.5705Z" fill="black"/>
<path d="M104.124 20.4185C104.124 21.7598 103.731 22.8587 102.946 23.7208C102.123 24.6069 101.033 25.0491 99.6712 25.0491C98.359 25.0491 97.3141 24.6254 96.5348 23.7744C95.7573 22.9253 95.3685 21.8541 95.3685 20.5628C95.3685 19.2123 95.7686 18.1042 96.5727 17.2439C97.3767 16.3837 98.4576 15.9526 99.8191 15.9526C101.131 15.9526 102.186 16.3763 102.984 17.2254C103.743 18.0505 104.124 19.1161 104.124 20.4185ZM102.062 20.4814C102.062 19.6767 101.884 18.9866 101.53 18.4113C101.112 17.7157 100.519 17.3679 99.7471 17.3679C98.9487 17.3679 98.3419 17.7157 97.9247 18.4113C97.5682 18.9866 97.3919 19.6878 97.3919 20.5166C97.3919 21.3213 97.5701 22.0114 97.9247 22.5867C98.3552 23.2823 98.9544 23.6301 99.7281 23.6301C100.487 23.6301 101.082 23.2768 101.511 22.5682C101.879 21.9818 102.062 21.2862 102.062 20.4814Z" fill="black"/>
<path d="M119.021 16.1301L116.224 24.851H114.404L113.245 21.0641C112.951 20.1187 112.712 19.1789 112.526 18.2465H112.49C112.318 19.2048 112.079 20.1428 111.771 21.0641L110.541 24.851H108.699L106.069 16.1301H108.112L109.122 20.276C109.367 21.2565 109.568 22.1907 109.729 23.075H109.765C109.913 22.3461 110.158 21.4174 110.503 20.2945L111.771 16.132H113.391L114.606 20.2057C114.9 21.1991 115.139 22.1556 115.323 23.0769H115.378C115.513 22.1796 115.716 21.2232 115.985 20.2057L117.07 16.132H119.021V16.1301Z" fill="black"/>
<path d="M129.324 24.8511H127.336V19.8561C127.336 18.3169 126.737 17.5473 125.535 17.5473C124.945 17.5473 124.469 17.7582 124.099 18.1818C123.733 18.6055 123.548 19.105 123.548 19.6766V24.8492H121.56V18.6221C121.56 17.8562 121.536 17.0256 121.488 16.1265H123.235L123.328 17.4899H123.383C123.614 17.0663 123.959 16.7166 124.412 16.4373C124.951 16.1117 125.554 15.947 126.214 15.947C127.048 15.947 127.742 16.2097 128.294 16.737C128.98 17.3826 129.324 18.3465 129.324 19.6267V24.8511Z" fill="black"/>
<path d="M134.804 24.8511H132.818V12.1287H134.804V24.8511Z" fill="black"/>
<path d="M146.504 20.4185C146.504 21.7598 146.112 22.8587 145.327 23.7208C144.504 24.6069 143.411 25.0491 142.052 25.0491C140.737 25.0491 139.693 24.6254 138.915 23.7744C138.138 22.9253 137.749 21.8541 137.749 20.5628C137.749 19.2123 138.149 18.1042 138.953 17.2439C139.757 16.3837 140.838 15.9526 142.198 15.9526C143.512 15.9526 144.564 16.3763 145.364 17.2254C146.123 18.0505 146.504 19.1161 146.504 20.4185ZM144.441 20.4814C144.441 19.6767 144.263 18.9866 143.908 18.4113C143.493 17.7157 142.897 17.3679 142.127 17.3679C141.327 17.3679 140.72 17.7157 140.305 18.4113C139.949 18.9866 139.772 19.6878 139.772 20.5166C139.772 21.3213 139.95 22.0114 140.305 22.5867C140.736 23.2823 141.335 23.6301 142.108 23.6301C142.867 23.6301 143.461 23.2768 143.889 22.5682C144.259 21.9818 144.441 21.2862 144.441 20.4814Z" fill="black"/>
<path d="M156.122 24.8511H154.338L154.19 23.8466H154.135C153.524 24.6476 152.654 25.0491 151.524 25.0491C150.68 25.0491 149.997 24.7845 149.483 24.2591C149.017 23.7818 148.783 23.188 148.783 22.4831C148.783 21.4175 149.239 20.6054 150.154 20.043C151.068 19.4806 152.354 19.2049 154.01 19.2179V19.0551C154.01 17.9062 153.391 17.3327 152.153 17.3327C151.271 17.3327 150.494 17.5492 149.823 17.9784L149.419 16.7056C150.249 16.2042 151.275 15.9526 152.485 15.9526C154.821 15.9526 155.993 17.1551 155.993 19.5601V22.7717C155.993 23.6431 156.037 24.3368 156.122 24.8511ZM154.059 21.8541V20.5092C151.867 20.4722 150.771 21.0586 150.771 22.2667C150.771 22.7218 150.896 23.0622 151.152 23.2897C151.408 23.5173 151.734 23.6301 152.123 23.6301C152.559 23.6301 152.967 23.4951 153.338 23.2268C153.712 22.9567 153.941 22.6145 154.027 22.1945C154.048 22.1002 154.059 21.9855 154.059 21.8541Z" fill="black"/>
<path d="M167.415 24.8511H165.651L165.558 23.4507H165.503C164.94 24.5163 163.98 25.0491 162.632 25.0491C161.555 25.0491 160.658 24.6365 159.947 23.8114C159.236 22.9863 158.881 21.9152 158.881 20.5998C158.881 19.1883 159.266 18.045 160.04 17.1718C160.789 16.3578 161.707 15.9508 162.799 15.9508C163.999 15.9508 164.839 16.3448 165.317 17.1348H165.355V12.1287H167.344V22.5016C167.344 23.3508 167.367 24.1333 167.415 24.8511ZM165.355 21.1733V19.7192C165.355 19.4676 165.336 19.2641 165.3 19.1087C165.188 18.6425 164.947 18.2503 164.581 17.934C164.212 17.6176 163.766 17.4585 163.252 17.4585C162.511 17.4585 161.93 17.7453 161.504 18.3206C161.081 18.896 160.867 19.6304 160.867 20.5277C160.867 21.3898 161.07 22.0891 161.477 22.6274C161.908 23.2009 162.488 23.4877 163.214 23.4877C163.867 23.4877 164.388 23.249 164.784 22.7699C165.167 22.3277 165.355 21.7949 165.355 21.1733Z" fill="black"/>
<path d="M184.411 20.4185C184.411 21.7598 184.019 22.8587 183.233 23.7208C182.411 24.6069 181.322 25.0491 179.959 25.0491C178.648 25.0491 177.603 24.6254 176.822 23.7744C176.045 22.9253 175.656 21.8541 175.656 20.5628C175.656 19.2123 176.056 18.1042 176.86 17.2439C177.664 16.3837 178.745 15.9526 180.108 15.9526C181.419 15.9526 182.475 16.3763 183.271 17.2254C184.03 18.0505 184.411 19.1161 184.411 20.4185ZM182.352 20.4814C182.352 19.6767 182.173 18.9866 181.819 18.4113C181.4 17.7157 180.808 17.3679 180.034 17.3679C179.238 17.3679 178.631 17.7157 178.212 18.4113C177.856 18.9866 177.679 19.6878 177.679 20.5166C177.679 21.3213 177.857 22.0114 178.212 22.5867C178.643 23.2823 179.242 23.6301 180.015 23.6301C180.774 23.6301 181.371 23.2768 181.8 22.5682C182.166 21.9818 182.352 21.2862 182.352 20.4814Z" fill="black"/>
<path d="M195.097 24.8511H193.111V19.8561C193.111 18.3169 192.512 17.5473 191.308 17.5473C190.718 17.5473 190.242 17.7582 189.874 18.1818C189.506 18.6055 189.322 19.105 189.322 19.6766V24.8492H187.333V18.6221C187.333 17.8562 187.31 17.0256 187.263 16.1265H189.008L189.101 17.4899H189.156C189.389 17.0663 189.734 16.7166 190.185 16.4373C190.726 16.1117 191.327 15.947 191.989 15.947C192.821 15.947 193.515 16.2097 194.067 16.737C194.755 17.3826 195.097 18.3465 195.097 19.6267V24.8511Z" fill="black"/>
<path d="M208.471 17.5824H206.283V21.8189C206.283 22.8956 206.672 23.434 207.442 23.434C207.798 23.434 208.094 23.4044 208.327 23.3433L208.378 24.8141C207.986 24.9584 207.47 25.0305 206.835 25.0305C206.05 25.0305 205.439 24.7974 204.997 24.3312C204.553 23.865 204.334 23.0806 204.334 21.9799V17.5824H203.027V16.1302H204.334V14.5318L206.281 13.9583V16.1283H208.469V17.5824H208.471Z" fill="black"/>
<path d="M218.992 24.8511H217.003V19.8931C217.003 18.3299 216.403 17.5473 215.203 17.5473C214.281 17.5473 213.652 18.0006 213.307 18.9071C213.248 19.0976 213.214 19.3307 213.214 19.6045V24.8493H211.228V12.1287H213.214V17.3845H213.252C213.878 16.4281 214.774 15.9508 215.937 15.9508C216.76 15.9508 217.441 16.2135 217.981 16.7407C218.654 17.3975 218.992 18.3743 218.992 19.6656V24.8511Z" fill="black"/>
<path d="M229.844 20.0782C229.844 20.426 229.818 20.7183 229.77 20.9569H223.81C223.837 21.819 224.121 22.4758 224.673 22.9309C225.178 23.3379 225.828 23.5414 226.624 23.5414C227.506 23.5414 228.31 23.4045 229.035 23.1288L229.346 24.4756C228.498 24.8345 227.501 25.014 226.346 25.014C224.961 25.014 223.871 24.6162 223.082 23.8207C222.29 23.0252 221.897 21.9578 221.897 20.6184C221.897 19.303 222.263 18.2078 223.001 17.3346C223.771 16.4022 224.812 15.936 226.126 15.936C227.411 15.936 228.388 16.4022 229.048 17.3346C229.581 18.0746 229.844 18.9904 229.844 20.0782ZM227.948 19.5768C227.963 19.0015 227.832 18.5057 227.563 18.0876C227.218 17.5492 226.693 17.2791 225.982 17.2791C225.333 17.2791 224.804 17.5418 224.4 18.0691C224.07 18.489 223.875 18.9904 223.81 19.5768H227.948Z" fill="black"/>
<path d="M101.727 58.2822H97.4203L95.0613 51.0505H86.8617L84.6146 58.2822H80.4219L88.5456 33.6624H93.5632L101.727 58.2822ZM94.3502 48.0165L92.2168 41.5878C91.9912 40.931 91.5683 39.3844 90.9444 36.9498H90.8686C90.6201 37.9969 90.22 39.5435 89.6701 41.5878L87.5747 48.0165H94.3502Z" fill="black"/>
<path d="M122.618 49.1877C122.618 52.2069 121.782 54.5934 120.109 56.3454C118.611 57.9049 116.751 58.6838 114.531 58.6838C112.134 58.6838 110.412 57.8439 109.363 56.1641H109.287V65.5158H105.244V46.3739C105.244 44.4758 105.193 42.5277 105.095 40.5297H108.65L108.876 43.3436H108.952C110.3 41.2235 112.346 40.1653 115.092 40.1653C117.238 40.1653 119.03 40.9922 120.464 42.648C121.901 44.3056 122.618 46.4849 122.618 49.1877ZM118.5 49.332C118.5 47.6041 118.101 46.1796 117.301 45.0585C116.427 43.8893 115.253 43.3047 113.782 43.3047C112.784 43.3047 111.878 43.6303 111.068 44.2723C110.256 44.9198 109.725 45.7652 109.477 46.8123C109.352 47.3007 109.289 47.7003 109.289 48.0148V50.9748C109.289 52.2661 109.695 53.3558 110.507 54.2456C111.318 55.1355 112.373 55.5795 113.67 55.5795C115.192 55.5795 116.378 55.006 117.225 53.8627C118.075 52.7175 118.5 51.2079 118.5 49.332Z" fill="black"/>
<path d="M143.548 49.1877C143.548 52.2069 142.711 54.5934 141.037 56.3454C139.541 57.9049 137.681 58.6838 135.46 58.6838C133.063 58.6838 131.341 57.8439 130.294 56.1641H130.219V65.5158H126.176V46.3739C126.176 44.4758 126.124 42.5277 126.026 40.5297H129.581L129.807 43.3436H129.883C131.229 41.2235 133.275 40.1653 136.023 40.1653C138.168 40.1653 139.96 40.9922 141.397 42.648C142.829 44.3056 143.548 46.4849 143.548 49.1877ZM139.429 49.332C139.429 47.6041 139.029 46.1796 138.229 45.0585C137.354 43.8893 136.184 43.3047 134.711 43.3047C133.712 43.3047 132.807 43.6303 131.995 44.2723C131.184 44.9198 130.655 45.7652 130.406 46.8123C130.283 47.3007 130.219 47.7003 130.219 48.0148V50.9748C130.219 52.2661 130.624 53.3558 131.432 54.2456C132.244 55.1336 133.298 55.5795 134.599 55.5795C136.122 55.5795 137.307 55.006 138.155 53.8627C139.004 52.7175 139.429 51.2079 139.429 49.332Z" fill="black"/>
<path d="M166.948 51.3781C166.948 53.4723 166.203 55.1762 164.707 56.4915C163.062 57.929 160.774 58.6468 157.832 58.6468C155.117 58.6468 152.94 58.1362 151.292 57.1131L152.229 53.8257C154.004 54.8728 155.951 55.3982 158.073 55.3982C159.596 55.3982 160.781 55.0615 161.633 54.3918C162.48 53.7221 162.903 52.823 162.903 51.7019C162.903 50.7029 162.554 49.8611 161.854 49.1785C161.159 48.4958 159.996 47.8613 158.373 47.2748C153.955 45.6672 151.747 43.3121 151.747 40.2152C151.747 38.1913 152.521 36.5319 154.07 35.2406C155.614 33.9474 157.673 33.3018 160.248 33.3018C162.545 33.3018 164.452 33.6921 165.975 34.471L164.964 37.6863C163.542 36.9315 161.934 36.5541 160.135 36.5541C158.712 36.5541 157.601 36.8963 156.805 37.5771C156.131 38.1858 155.794 38.9276 155.794 39.8064C155.794 40.7795 156.179 41.5842 156.953 42.2169C157.626 42.8015 158.849 43.4342 160.624 44.1169C162.795 44.9697 164.39 45.9669 165.416 47.1102C166.438 48.2498 166.948 49.6761 166.948 51.3781Z" fill="black"/>
<path d="M180.315 43.4898H175.859V52.1089C175.859 54.3012 176.644 55.3964 178.218 55.3964C178.94 55.3964 179.539 55.3353 180.013 55.2132L180.125 58.2084C179.329 58.4988 178.28 58.645 176.981 58.645C175.385 58.645 174.137 58.1695 173.236 57.2205C172.339 56.2696 171.888 54.6749 171.888 52.4345V43.4861H169.233V40.5261H171.888V37.2756L175.859 36.1064V40.5261H180.315V43.4898Z" fill="black"/>
<path d="M200.421 49.2597C200.421 51.9885 199.621 54.2288 198.025 55.9808C196.35 57.7845 194.128 58.6836 191.357 58.6836C188.687 58.6836 186.561 57.8197 184.976 56.0918C183.391 54.3639 182.598 52.1827 182.598 49.5539C182.598 46.8029 183.414 44.5496 185.05 42.7977C186.683 41.0439 188.886 40.167 191.657 40.167C194.327 40.167 196.475 41.0309 198.097 42.7607C199.648 44.4386 200.421 46.605 200.421 49.2597ZM196.227 49.3874C196.227 47.7501 195.868 46.346 195.142 45.1749C194.294 43.7578 193.083 43.0511 191.513 43.0511C189.887 43.0511 188.653 43.7597 187.805 45.1749C187.079 46.3478 186.721 47.7742 186.721 49.4614C186.721 51.0986 187.079 52.5028 187.805 53.672C188.68 55.0891 189.901 55.7958 191.477 55.7958C193.02 55.7958 194.232 55.0743 195.106 53.635C195.851 52.4417 196.227 51.0228 196.227 49.3874Z" fill="black"/>
<path d="M213.563 43.9985C213.163 43.9263 212.736 43.8893 212.288 43.8893C210.866 43.8893 209.766 44.4129 208.993 45.4618C208.319 46.3868 207.982 47.556 207.982 48.9676V58.2823H203.941L203.979 46.1204C203.979 44.0743 203.928 42.2114 203.827 40.5316H207.349L207.496 43.9282H207.608C208.035 42.7608 208.708 41.821 209.63 41.1162C210.531 40.4816 211.503 40.1653 212.552 40.1653C212.926 40.1653 213.263 40.1912 213.563 40.2374V43.9985Z" fill="black"/>
<path d="M231.644 48.566C231.644 49.2727 231.596 49.8684 231.496 50.3549H219.367C219.415 52.1087 220.001 53.45 221.127 54.375C222.149 55.2019 223.471 55.6163 225.094 55.6163C226.89 55.6163 228.528 55.337 230.002 54.7764L230.635 57.5144C228.913 58.247 226.88 58.6115 224.535 58.6115C221.713 58.6115 219.498 57.8012 217.886 56.1824C216.278 54.5637 215.472 52.3899 215.472 49.663C215.472 46.9861 216.221 44.7568 217.721 42.979C219.291 41.0809 221.413 40.1318 224.083 40.1318C226.706 40.1318 228.691 41.0809 230.04 42.979C231.107 44.4867 231.644 46.3515 231.644 48.566ZM227.789 47.5429C227.815 46.3737 227.552 45.3636 227.004 44.5108C226.304 43.4137 225.229 42.8661 223.782 42.8661C222.46 42.8661 221.385 43.4008 220.564 44.4738C219.891 45.3266 219.491 46.3497 219.367 47.5411H227.789V47.5429Z" fill="black"/>
</svg>
