<svg width="72" height="72" viewBox="0 0 72 72" fill="none" xmlns="http://www.w3.org/2000/svg">
<rect width="72" height="72" rx="36" fill="#C4E1DA"/>
<path d="M50.8571 28H45.1429V21.1429C45.1429 20.5117 44.6312 20 44 20H21.1429C20.5117 20 20 20.5117 20 21.1429V47.4286C20 49.9533 22.0467 52 24.5714 52H47.4286C49.9533 52 52 49.9533 52 47.4286V29.1428C52 28.5117 51.4883 28 50.8571 28ZM29.1428 25.7143H36C36.6312 25.7143 37.1428 26.2259 37.1428 26.8571C37.1428 27.4883 36.6312 28 36 28H29.1428C28.5116 28 27.9999 27.4883 27.9999 26.8571C27.9999 26.2259 28.5117 25.7143 29.1428 25.7143ZM39.4285 47.4286H25.7143C25.0831 47.4286 24.5714 46.9169 24.5714 46.2857C24.5714 45.6545 25.0831 45.1428 25.7143 45.1428H39.4285C40.0597 45.1428 40.5714 45.6545 40.5714 46.2857C40.5714 46.9169 40.0597 47.4286 39.4285 47.4286ZM39.4285 42.8571H25.7143C25.0831 42.8571 24.5714 42.3454 24.5714 41.7142C24.5714 41.083 25.0831 40.5713 25.7143 40.5713H39.4285C40.0597 40.5713 40.5714 41.083 40.5714 41.7142C40.5714 42.3454 40.0597 42.8571 39.4285 42.8571ZM39.4285 38.2857H25.7143C25.0831 38.2857 24.5714 37.774 24.5714 37.1428C24.5714 36.5116 25.0831 36 25.7143 36H39.4285C40.0597 36 40.5714 36.5116 40.5714 37.1428C40.5714 37.774 40.0597 38.2857 39.4285 38.2857ZM39.4285 33.7143H25.7143C25.0831 33.7143 24.5714 33.2026 24.5714 32.5714C24.5714 31.9402 25.0831 31.4285 25.7143 31.4285H39.4285C40.0597 31.4285 40.5714 31.9402 40.5714 32.5714C40.5714 33.2026 40.0597 33.7143 39.4285 33.7143ZM49.7142 47.4286C49.7142 48.6909 48.6909 49.7142 47.4286 49.7142C46.1662 49.7142 45.1429 48.6909 45.1429 47.4286V30.2857H49.7143V47.4286H49.7142Z" fill="#029875"/>
</svg>
