<svg width="72" height="72" viewBox="0 0 72 72" fill="none" xmlns="http://www.w3.org/2000/svg">
<rect width="72" height="72" rx="36" fill="#C4E1DA"/>
<g clip-path="url(#clip0_84_2804)">
<path d="M51.344 20.004C45.0973 19.892 37.9733 23.1573 33.464 28.2227C29.1547 28.304 24.9587 30.0707 21.8693 33.16C21.6893 33.3373 21.6253 33.6027 21.704 33.8427C21.784 34.084 21.992 34.2587 22.2427 34.2947L27.3813 35.0307L26.7467 35.7414C26.5107 36.0054 26.5227 36.4067 26.7733 36.6574L35.3427 45.2267C35.472 45.356 35.6427 45.4214 35.8147 45.4214C35.9733 45.4214 36.132 45.3654 36.2587 45.252L36.9693 44.6173L37.7053 49.756C37.7413 50.0067 37.9387 50.1907 38.1773 50.2707C38.2387 50.2907 38.3027 50.3 38.368 50.3C38.5573 50.3 38.7507 50.2174 38.884 50.0854C41.9307 47.0387 43.6973 42.8427 43.7787 38.5333C48.8493 34.0147 52.1413 26.8933 51.996 20.6547C51.9867 20.3 51.7 20.0133 51.344 20.004ZM45.2 31.5134C44.5507 32.1627 43.6973 32.488 42.8427 32.488C41.988 32.488 41.1347 32.1627 40.4853 31.5134C39.1867 30.2133 39.1867 28.0987 40.4853 26.7987C41.7853 25.4987 43.9 25.4987 45.2 26.7987C46.5 28.0987 46.5 30.2147 45.2 31.5134Z" fill="#029875"/>
<path d="M23.632 42.5399C22.2053 43.9666 20.2466 50.412 20.028 51.1413C19.9573 51.3759 20.0226 51.6306 20.1946 51.8039C20.3226 51.9319 20.492 51.9999 20.6666 51.9999C20.7306 51.9999 20.7946 51.9906 20.8586 51.9719C21.588 51.7533 28.0333 49.7946 29.46 48.3679C31.0666 46.7613 31.0666 44.1466 29.46 42.5399C27.852 40.9333 25.2386 40.9346 23.632 42.5399Z" fill="#029875"/>
</g>
<defs>
<clipPath id="clip0_84_2804">
<rect width="32" height="32" fill="white" transform="translate(20 20)"/>
</clipPath>
</defs>
</svg>
