<svg width="72" height="72" viewBox="0 0 72 72" fill="none" xmlns="http://www.w3.org/2000/svg">
<rect width="72" height="72" rx="36" fill="#C4E1DA"/>
<path d="M50 25V32C49.9991 32.7954 49.6828 33.5579 49.1204 34.1204C48.5579 34.6828 47.7954 34.9991 47 35H40C39.2046 34.9991 38.4421 34.6828 37.8796 34.1204C37.3172 33.5579 37.0009 32.7954 37 32V25C37.0009 24.2046 37.3172 23.4421 37.8796 22.8796C38.4421 22.3172 39.2046 22.0009 40 22H47C47.7954 22.0009 48.5579 22.3172 49.1204 22.8796C49.6828 23.4421 49.9991 24.2046 50 25ZM32 22H25C24.2046 22.0009 23.4421 22.3172 22.8796 22.8796C22.3172 23.4421 22.0009 24.2046 22 25V32C22.0009 32.7954 22.3172 33.5579 22.8796 34.1204C23.4421 34.6828 24.2046 34.9991 25 35H32C32.7954 34.9991 33.5579 34.6828 34.1204 34.1204C34.6828 33.5579 34.9991 32.7954 35 32V25C34.9991 24.2046 34.6828 23.4421 34.1204 22.8796C33.5579 22.3172 32.7954 22.0009 32 22ZM32 37H25C24.2046 37.0009 23.4421 37.3172 22.8796 37.8796C22.3172 38.4421 22.0009 39.2046 22 40V47C22.0009 47.7954 22.3172 48.5579 22.8796 49.1204C23.4421 49.6828 24.2046 49.9991 25 50H32C32.7954 49.9991 33.5579 49.6828 34.1204 49.1204C34.6828 48.5579 34.9991 47.7954 35 47V40C34.9991 39.2046 34.6828 38.4421 34.1204 37.8796C33.5579 37.3172 32.7954 37.0009 32 37ZM43.5 37C42.2144 37 40.9577 37.3812 39.8888 38.0954C38.8199 38.8097 37.9868 39.8248 37.4948 41.0126C37.0028 42.2003 36.8741 43.5072 37.1249 44.7681C37.3757 46.029 37.9948 47.1872 38.9038 48.0962C39.8128 49.0052 40.971 49.6243 42.2319 49.8751C43.4928 50.1259 44.7997 49.9972 45.9874 49.5052C47.1752 49.0132 48.1903 48.1801 48.9046 47.1112C49.6188 46.0423 50 44.7856 50 43.5C49.998 41.7767 49.3126 40.1246 48.094 38.906C46.8754 37.6874 45.2233 37.002 43.5 37Z" fill="#029875"/>
</svg>
