<svg width="256" height="74" viewBox="0 0 256 74" fill="none" xmlns="http://www.w3.org/2000/svg">
<path d="M246.519 74H9.48148C4.26904 74 0 69.8352 0 64.75V9.25C0 4.16481 4.26904 -9.53674e-07 9.48148 -9.53674e-07H246.519C251.731 -9.53674e-07 256 4.16481 256 9.25V64.75C256 69.8352 251.731 74 246.519 74Z" fill="white"/>
<path d="M246.519 1.48231C250.908 1.48231 254.481 4.96725 254.481 9.25V64.75C254.481 69.0328 250.908 72.5177 246.519 72.5177H9.48148C5.09156 72.5177 1.51941 69.0328 1.51941 64.75V9.25C1.51941 4.96725 5.09156 1.48231 9.48148 1.48231H246.519ZM246.519 -9.53674e-07H9.48148C4.26904 -9.53674e-07 0 4.16481 0 9.25V64.75C0 69.8352 4.26904 74 9.48148 74H246.519C251.731 74 256 69.8352 256 64.75V9.25C256 4.16481 251.731 -9.53674e-07 246.519 -9.53674e-07Z" fill="#006253"/>
<path d="M19.7879 13.9465C19.2308 14.5154 18.9084 15.4011 18.9084 16.5481V57.4608C18.9084 58.6078 19.2308 59.4935 19.7879 60.0624L19.9253 60.1873L43.4252 37.2704V36.7293L19.9253 13.8124L19.7879 13.9465Z" fill="url(#paint0_linear_84_3547)"/>
<path d="M51.2498 44.9133L43.4252 37.2705V36.7294L51.2592 29.0866L51.4347 29.186L60.7123 34.336C63.36 35.7975 63.36 38.2025 60.7123 39.6732L51.4347 44.8139L51.2498 44.9133Z" fill="url(#paint1_linear_84_3547)"/>
<path d="M51.4347 44.8138L43.4252 36.9999L19.7878 60.0625C20.6672 60.9643 22.1013 61.073 23.7321 60.1711L51.4347 44.8138Z" fill="url(#paint2_linear_84_3547)"/>
<path d="M51.4347 29.1861L23.7321 13.8288C22.1013 12.9361 20.6672 13.0448 19.7878 13.9467L43.4252 37L51.4347 29.1861Z" fill="url(#paint3_linear_84_3547)"/>
<path d="M89.9177 18.9509C89.9177 20.4956 89.4436 21.7328 88.5097 22.6555C87.4359 23.7493 86.0374 24.2997 84.3236 24.2997C82.6857 24.2997 81.2871 23.7401 80.1399 22.637C78.9902 21.5178 78.4166 20.1441 78.4166 18.4999C78.4166 16.8558 78.9902 15.4821 80.1399 14.3721C81.2871 13.2598 82.6857 12.7002 84.3236 12.7002C85.139 12.7002 85.9165 12.8644 86.6584 13.1696C87.398 13.4772 88 13.8934 88.4362 14.4068L87.4454 15.3827C86.6845 14.5063 85.6486 14.0738 84.3236 14.0738C83.1289 14.0738 82.0931 14.4808 81.2137 15.3018C80.3437 16.125 79.9076 17.1911 79.9076 18.4999C79.9076 19.8088 80.3437 20.8841 81.2137 21.7074C82.0931 22.5191 83.1289 22.9353 84.3236 22.9353C85.5917 22.9353 86.6584 22.5191 87.4999 21.6981C88.0546 21.1547 88.3698 20.4054 88.4528 19.4481H84.3236V18.1114H89.8323C89.8987 18.4005 89.9177 18.6803 89.9177 18.9509Z" fill="black" stroke="black" stroke-width="0.16" stroke-miterlimit="10"/>
<path d="M98.6572 14.3167H93.4827V17.8316H98.1476V19.1683H93.4827V22.6833H98.6572V24.0453H92.0178V12.9546H98.6572V14.3167Z" fill="black" stroke="black" stroke-width="0.16" stroke-miterlimit="10"/>
<path d="M104.825 24.0453H103.36V14.3167H100.186V12.9546H108.001V14.3167H104.825V24.0453Z" fill="black" stroke="black" stroke-width="0.16" stroke-miterlimit="10"/>
<path d="M113.657 24.0453V12.9546H115.12V24.0453H113.657Z" fill="black" stroke="black" stroke-width="0.16" stroke-miterlimit="10"/>
<path d="M121.602 24.0453H120.149V14.3167H116.964V12.9546H124.788V14.3167H121.602V24.0453Z" fill="black" stroke="black" stroke-width="0.16" stroke-miterlimit="10"/>
<path d="M139.584 22.6185C138.463 23.7401 137.074 24.2997 135.417 24.2997C133.751 24.2997 132.361 23.7401 131.24 22.6185C130.121 21.4993 129.564 20.1256 129.564 18.4999C129.564 16.8743 130.121 15.5006 131.24 14.3814C132.361 13.2598 133.751 12.7002 135.417 12.7002C137.064 12.7002 138.453 13.2598 139.575 14.3906C140.703 15.5191 141.26 16.8835 141.26 18.4999C141.26 20.1256 140.703 21.4993 139.584 22.6185ZM132.324 21.6889C133.167 22.5191 134.194 22.9353 135.417 22.9353C136.631 22.9353 137.666 22.5191 138.501 21.6889C139.342 20.8587 139.769 19.7926 139.769 18.4999C139.769 17.2073 139.342 16.1412 138.501 15.311C137.666 14.4808 136.631 14.0646 135.417 14.0646C134.194 14.0646 133.167 14.4808 132.324 15.311C131.482 16.1412 131.055 17.2073 131.055 18.4999C131.055 19.7926 131.482 20.8587 132.324 21.6889Z" fill="black" stroke="black" stroke-width="0.16" stroke-miterlimit="10"/>
<path d="M143.315 24.0453V12.9546H145.093L150.62 21.5802H150.684L150.62 19.4481V12.9546H152.083V24.0453H150.556L144.768 14.9942H144.704L144.768 17.1356V24.0453H143.315Z" fill="black" stroke="black" stroke-width="0.16" stroke-miterlimit="10"/>
<path d="M129.204 40.2422C124.75 40.2422 121.112 43.5491 121.112 48.1116C121.112 52.6372 124.75 55.9788 129.204 55.9788C133.668 55.9788 137.306 52.6372 137.306 48.1116C137.306 43.5491 133.668 40.2422 129.204 40.2422ZM129.204 52.88C126.76 52.88 124.658 50.9121 124.658 48.1116C124.658 45.2742 126.76 43.341 129.204 43.341C131.648 43.341 133.76 45.2742 133.76 48.1116C133.76 50.9121 131.648 52.88 129.204 52.88ZM111.547 40.2422C107.084 40.2422 103.455 43.5491 103.455 48.1116C103.455 52.6372 107.084 55.9788 111.547 55.9788C116.008 55.9788 119.64 52.6372 119.64 48.1116C119.64 43.5491 116.008 40.2422 111.547 40.2422ZM111.547 52.88C109.101 52.88 106.991 50.9121 106.991 48.1116C106.991 45.2742 109.101 43.341 111.547 43.341C113.991 43.341 116.094 45.2742 116.094 48.1116C116.094 50.9121 113.991 52.88 111.547 52.88ZM90.5363 42.6541V45.998H98.7211C98.4817 47.8665 97.8417 49.2401 96.8604 50.1975C95.6657 51.3538 93.805 52.6372 90.5363 52.6372C85.4992 52.6372 81.5549 48.6713 81.5549 43.7572C81.5549 38.8432 85.4992 34.8772 90.5363 34.8772C93.2598 34.8772 95.2415 35.9155 96.704 37.2614L99.1194 34.905C97.0737 32.9995 94.3526 31.5357 90.5363 31.5357C83.629 31.5357 77.824 37.0186 77.824 43.7572C77.824 50.4958 83.629 55.9788 90.5363 55.9788C94.2696 55.9788 97.0737 54.7855 99.2782 52.547C101.537 50.3432 102.241 47.2445 102.241 44.7423C102.241 43.9653 102.175 43.2508 102.056 42.6541H90.5363ZM176.453 45.2465C175.787 43.4866 173.732 40.2422 169.545 40.2422C165.397 40.2422 161.944 43.4311 161.944 48.1116C161.944 52.5193 165.362 55.9788 169.944 55.9788C173.649 55.9788 175.787 53.775 176.666 52.4915L173.916 50.704C172.999 52.0128 171.75 52.88 169.944 52.88C168.149 52.88 166.862 52.0776 166.037 50.4958L176.825 46.1414L176.453 45.2465ZM165.454 47.8665C165.362 44.8325 167.87 43.2785 169.666 43.2785C171.074 43.2785 172.269 43.9653 172.667 44.9481L165.454 47.8665ZM156.686 55.5001H160.232V32.3751H156.686V55.5001ZM150.879 41.9951H150.76C149.964 41.0747 148.444 40.2422 146.52 40.2422C142.481 40.2422 138.788 43.7017 138.788 48.1371C138.788 52.547 142.481 55.9788 146.52 55.9788C148.444 55.9788 149.964 55.1393 150.76 54.1912H150.879V55.3197C150.879 58.3283 149.231 59.9447 146.574 59.9447C144.408 59.9447 143.064 58.4185 142.509 57.135L139.425 58.3907C140.314 60.4766 142.668 63.0435 146.574 63.0435C150.732 63.0435 154.24 60.657 154.24 54.8503V40.7209H150.879V41.9951ZM146.823 52.88C144.379 52.88 142.334 50.8843 142.334 48.1371C142.334 45.3644 144.379 43.341 146.823 43.341C149.231 43.341 151.13 45.3644 151.13 48.1371C151.13 50.8843 149.231 52.88 146.823 52.88ZM193.055 32.3751H184.574V55.5001H188.11V46.738H193.055C196.982 46.738 200.834 43.9653 200.834 39.5554C200.834 35.1478 196.973 32.3751 193.055 32.3751ZM193.147 43.5213H188.11V35.5918H193.147C195.788 35.5918 197.295 37.7308 197.295 39.5554C197.295 41.3453 195.788 43.5213 193.147 43.5213ZM215.009 40.1983C212.454 40.1983 209.797 41.299 208.704 43.7387L211.842 45.0221C212.518 43.7387 213.76 43.3225 215.073 43.3225C216.908 43.3225 218.769 44.3978 218.797 46.2963V46.5391C218.157 46.1784 216.787 45.6442 215.102 45.6442C211.721 45.6442 208.277 47.4595 208.277 50.8473C208.277 53.9461 211.046 55.9418 214.158 55.9418C216.538 55.9418 217.851 54.8942 218.676 53.6755H218.797V55.4631H222.213V46.5923C222.213 42.4923 219.074 40.1983 215.009 40.1983ZM214.582 52.8708C213.426 52.8708 211.814 52.3111 211.814 50.9121C211.814 49.1222 213.824 48.4354 215.564 48.4354C217.121 48.4354 217.851 48.7707 218.797 49.2124C218.52 51.3538 216.63 52.8708 214.582 52.8708ZM234.657 40.7047L230.592 50.7294H230.471L226.268 40.7047H222.454L228.769 54.7138L225.166 62.5093H228.862L238.592 40.7047H234.657ZM202.778 55.5001H206.324V32.3751H202.778V55.5001Z" fill="black"/>
<defs>
<linearGradient id="paint0_linear_84_3547" x1="41.3387" y1="57.8869" x2="10.3007" y2="26.0722" gradientUnits="userSpaceOnUse">
<stop stop-color="#00A0FF"/>
<stop offset="0.0066" stop-color="#00A1FF"/>
<stop offset="0.2601" stop-color="#00BEFF"/>
<stop offset="0.5122" stop-color="#00D2FF"/>
<stop offset="0.7604" stop-color="#00DFFF"/>
<stop offset="1" stop-color="#00E3FF"/>
</linearGradient>
<linearGradient id="paint1_linear_84_3547" x1="64.16" y1="36.9974" x2="18.2755" y2="36.9974" gradientUnits="userSpaceOnUse">
<stop stop-color="#FFE000"/>
<stop offset="0.4087" stop-color="#FFBD00"/>
<stop offset="0.7754" stop-color="#FFA500"/>
<stop offset="1" stop-color="#FF9C00"/>
</linearGradient>
<linearGradient id="paint2_linear_84_3547" x1="47.0793" y1="32.7521" x2="4.98935" y2="-10.3912" gradientUnits="userSpaceOnUse">
<stop stop-color="#FF3A44"/>
<stop offset="1" stop-color="#C31162"/>
</linearGradient>
<linearGradient id="paint3_linear_84_3547" x1="13.8378" y1="73.674" x2="32.6329" y2="54.4088" gradientUnits="userSpaceOnUse">
<stop stop-color="#32A071"/>
<stop offset="0.0685" stop-color="#2DA771"/>
<stop offset="0.4762" stop-color="#15CF74"/>
<stop offset="0.8009" stop-color="#06E775"/>
<stop offset="1" stop-color="#00F076"/>
</linearGradient>
</defs>
</svg>
