<?xml version="1.0" encoding="UTF-8"?>
<!DOCTYPE svg PUBLIC "-//W3C//DTD SVG 1.1//EN" "http://www.w3.org/Graphics/SVG/1.1/DTD/svg11.dtd">
<svg xmlns="http://www.w3.org/2000/svg" version="1.1" width="80px" height="80px" style="shape-rendering:geometricPrecision; text-rendering:geometricPrecision; image-rendering:optimizeQuality; fill-rule:evenodd; clip-rule:evenodd" xmlns:xlink="http://www.w3.org/1999/xlink">
<g><path style="opacity:0.936" fill="#fdfdfd" d="M 6.5,-0.5 C 28.8333,-0.5 51.1667,-0.5 73.5,-0.5C 75.4752,1.13696 77.4752,2.80363 79.5,4.5C 79.5,27.5 79.5,50.5 79.5,73.5C 77.863,75.4752 76.1964,77.4752 74.5,79.5C 51.8333,79.5 29.1667,79.5 6.5,79.5C 3.83333,77.5 1.5,75.1667 -0.5,72.5C -0.5,50.5 -0.5,28.5 -0.5,6.5C 1.5,3.83333 3.83333,1.5 6.5,-0.5 Z"/></g>
<g><path style="opacity:1" fill="#4f837d" d="M 69.5,1.5 C 73.3237,2.06696 75.9904,4.06696 77.5,7.5C 76.5,7.5 75.5,7.5 74.5,7.5C 74.5,6.5 74.5,5.5 74.5,4.5C 72.8333,4.5 71.1667,4.5 69.5,4.5C 69.5,3.5 69.5,2.5 69.5,1.5 Z"/></g>
<g><path style="opacity:1" fill="#f7ed05" d="M 16.5,8.5 C 21.8333,8.5 27.1667,8.5 32.5,8.5C 32.5,9.5 32.5,10.5 32.5,11.5C 30.5,11.5 28.5,11.5 26.5,11.5C 26.5,16.8333 26.5,22.1667 26.5,27.5C 25.5,27.5 24.5,27.5 23.5,27.5C 22.5119,22.3595 22.1786,17.0262 22.5,11.5C 20.5,11.5 18.5,11.5 16.5,11.5C 16.5,10.5 16.5,9.5 16.5,8.5 Z"/></g>
<g><path style="opacity:1" fill="#fcf001" d="M 38.5,8.5 C 38.5,14.5 38.5,20.5 38.5,26.5C 37.4324,27.4345 36.099,27.7678 34.5,27.5C 34.5,21.1667 34.5,14.8333 34.5,8.5C 35.8333,8.5 37.1667,8.5 38.5,8.5 Z"/></g>
<g><path style="opacity:1" fill="#5e8951" d="M 69.5,1.5 C 69.5,2.5 69.5,3.5 69.5,4.5C 71.1667,4.5 72.8333,4.5 74.5,4.5C 74.5,5.5 74.5,6.5 74.5,7.5C 75.5,7.5 76.5,7.5 77.5,7.5C 78.492,14.9818 78.8254,22.6484 78.5,30.5C 77.1266,30.3433 75.7932,30.51 74.5,31C 76.8075,31.3542 77.1408,32.3542 75.5,34C 75.9054,34.9454 76.572,35.6121 77.5,36C 76.4303,38.8061 75.097,41.4728 73.5,44C 73.9054,44.9454 74.572,45.6121 75.5,46C 74.8906,47.9483 74.224,49.7816 73.5,51.5C 73.5,50.5 73.5,49.5 73.5,48.5C 64.8262,50.4904 62.4928,47.4904 66.5,39.5C 68.7857,38.5804 71.1191,38.5804 73.5,39.5C 73.5,38.1667 73.5,36.8333 73.5,35.5C 70.0977,35.3424 66.7644,35.6758 63.5,36.5C 63.7377,33.5918 62.7377,31.2585 60.5,29.5C 60.7093,28.914 61.0426,28.414 61.5,28C 60.8505,21.4009 60.1838,14.9009 59.5,8.5C 58.1667,8.5 56.8333,8.5 55.5,8.5C 55.6653,12.1817 55.4986,15.8484 55,19.5C 52.6227,15.912 50.1227,12.412 47.5,9C 45.8659,8.50649 44.1992,8.33982 42.5,8.5C 42.5,14.5 42.5,20.5 42.5,26.5C 41.8614,27.0968 41.528,27.9302 41.5,29C 42.6182,31.059 43.2849,33.2257 43.5,35.5C 43.1667,35.5 42.8333,35.5 42.5,35.5C 40.432,32.8443 39.0987,29.8443 38.5,26.5C 38.5,20.5 38.5,14.5 38.5,8.5C 36.9581,7.83652 35.2914,7.16985 33.5,6.5C 32.7542,5.26381 32.4208,3.93047 32.5,2.5C 29.1667,2.5 25.8333,2.5 22.5,2.5C 22.1667,5.5 20.5,7.16667 17.5,7.5C 16.8478,6.27493 15.6811,5.60826 14,5.5C 11.1824,5.9119 8.6824,6.9119 6.5,8.5C 6.84316,6.51676 6.17649,5.18342 4.5,4.5C 5.42925,3.68509 6.42925,2.85175 7.5,2C 28.164,1.50004 48.8306,1.33338 69.5,1.5 Z"/></g>
<g><path style="opacity:1" fill="#f5eb07" d="M 59.5,8.5 C 59.5,14.8333 59.5,21.1667 59.5,27.5C 57.712,27.7852 56.0453,27.4519 54.5,26.5C 52.4887,23.1389 50.4887,19.8056 48.5,16.5C 48.2172,15.7109 47.7172,15.0442 47,14.5C 46.501,18.8206 46.3343,23.1539 46.5,27.5C 44.901,27.7678 43.5676,27.4345 42.5,26.5C 42.5,20.5 42.5,14.5 42.5,8.5C 44.1992,8.33982 45.8659,8.50649 47.5,9C 50.1227,12.412 52.6227,15.912 55,19.5C 55.4986,15.8484 55.6653,12.1817 55.5,8.5C 56.8333,8.5 58.1667,8.5 59.5,8.5 Z"/></g>
<g><path style="opacity:1" fill="#638c4e" d="M 38.5,8.5 C 37.1667,8.5 35.8333,8.5 34.5,8.5C 34.5,14.8333 34.5,21.1667 34.5,27.5C 36.099,27.7678 37.4324,27.4345 38.5,26.5C 39.0987,29.8443 40.432,32.8443 42.5,35.5C 42.3342,40.1785 42.5008,44.8452 43,49.5C 44.045,50.3734 44.8783,51.3734 45.5,52.5C 44.1678,54.1377 42.8345,55.8044 41.5,57.5C 40.5,57.5 39.5,57.5 38.5,57.5C 38.33,56.1779 38.6634,55.0113 39.5,54C 38.4256,51.8189 37.4256,49.6523 36.5,47.5C 37.6479,45.3728 38.6479,43.2061 39.5,41C 37.3808,40.6582 37.0474,39.8249 38.5,38.5C 40.0481,38.1788 40.7148,37.1788 40.5,35.5C 35.8333,35.5 31.1667,35.5 26.5,35.5C 26.5,36.5 26.5,37.5 26.5,38.5C 27.5,38.5 28.5,38.5 29.5,38.5C 25.8703,39.5175 25.537,41.3509 28.5,44C 26.8034,44.3845 25.1368,44.2178 23.5,43.5C 23.59,41.3037 23.9233,39.137 24.5,37C 24.6134,35.3009 23.9468,34.1342 22.5,33.5C 20.86,32.2099 20.36,30.5433 21,28.5C 22.5158,31.0515 23.3491,30.7181 23.5,27.5C 24.5,27.5 25.5,27.5 26.5,27.5C 26.5,22.1667 26.5,16.8333 26.5,11.5C 28.5,11.5 30.5,11.5 32.5,11.5C 32.5,10.5 32.5,9.5 32.5,8.5C 27.1667,8.5 21.8333,8.5 16.5,8.5C 16.5,7.83333 16.8333,7.5 17.5,7.5C 20.5,7.16667 22.1667,5.5 22.5,2.5C 25.8333,2.5 29.1667,2.5 32.5,2.5C 32.4208,3.93047 32.7542,5.26381 33.5,6.5C 35.2914,7.16985 36.9581,7.83652 38.5,8.5 Z"/></g>
<g><path style="opacity:1" fill="#98ae35" d="M 48.5,16.5 C 47.8333,20.1667 47.1667,23.8333 46.5,27.5C 46.3343,23.1539 46.501,18.8206 47,14.5C 47.7172,15.0442 48.2172,15.7109 48.5,16.5 Z"/></g>
<g><path style="opacity:1" fill="#648d4e" d="M 59.5,8.5 C 60.1838,14.9009 60.8505,21.4009 61.5,28C 61.0426,28.414 60.7093,28.914 60.5,29.5C 62.7377,31.2585 63.7377,33.5918 63.5,36.5C 60.2917,40.6735 59.625,45.3402 61.5,50.5C 58.2357,50.2736 57.2357,48.7736 58.5,46C 57.9056,45.5357 57.2389,45.369 56.5,45.5C 56.1866,42.7531 56.52,40.0865 57.5,37.5C 59.5706,36.2138 59.9039,34.5471 58.5,32.5C 57.2776,34.9783 55.2776,35.9783 52.5,35.5C 52.6655,39.5138 52.4988,43.5138 52,47.5C 50.6043,49.5268 48.9376,49.8602 47,48.5C 46.501,44.1794 46.3343,39.8461 46.5,35.5C 45.5,35.5 44.5,35.5 43.5,35.5C 43.2849,33.2257 42.6182,31.059 41.5,29C 41.528,27.9302 41.8614,27.0968 42.5,26.5C 43.5676,27.4345 44.901,27.7678 46.5,27.5C 47.1667,23.8333 47.8333,20.1667 48.5,16.5C 50.4887,19.8056 52.4887,23.1389 54.5,26.5C 56.0453,27.4519 57.712,27.7852 59.5,27.5C 59.5,21.1667 59.5,14.8333 59.5,8.5 Z"/></g>
<g><path style="opacity:1" fill="#e7e211" d="M 49.5,30.5 C 54.1719,30.8613 54.0053,32.1947 49,34.5C 48.5,34.3333 48,34.1667 47.5,34C 48.305,32.8873 48.9717,31.7206 49.5,30.5 Z"/></g>
<g><path style="opacity:1" fill="#f2ea0a" d="M 56.5,45.5 C 55.4476,51.5434 51.7809,53.8767 45.5,52.5C 44.8783,51.3734 44.045,50.3734 43,49.5C 42.5008,44.8452 42.3342,40.1785 42.5,35.5C 42.8333,35.5 43.1667,35.5 43.5,35.5C 44.5,35.5 45.5,35.5 46.5,35.5C 46.3343,39.8461 46.501,44.1794 47,48.5C 48.9376,49.8602 50.6043,49.5268 52,47.5C 52.4988,43.5138 52.6655,39.5138 52.5,35.5C 55.2776,35.9783 57.2776,34.9783 58.5,32.5C 59.9039,34.5471 59.5706,36.2138 57.5,37.5C 56.52,40.0865 56.1866,42.7531 56.5,45.5 Z"/></g>
<g><path style="opacity:1" fill="#5f8b52" d="M 4.5,4.5 C 6.17649,5.18342 6.84316,6.51676 6.5,8.5C 8.6824,6.9119 11.1824,5.9119 14,5.5C 15.6811,5.60826 16.8478,6.27493 17.5,7.5C 16.8333,7.5 16.5,7.83333 16.5,8.5C 16.5,9.5 16.5,10.5 16.5,11.5C 18.5,11.5 20.5,11.5 22.5,11.5C 22.1786,17.0262 22.5119,22.3595 23.5,27.5C 23.3491,30.7181 22.5158,31.0515 21,28.5C 20.36,30.5433 20.86,32.2099 22.5,33.5C 17.57,33.1975 12.7367,33.5308 8,34.5C 6.96558,39.4569 7.46558,44.1236 9.5,48.5C 8.26166,48.81 8.26166,49.31 9.5,50C 6.45574,50.3589 6.12241,51.0255 8.5,52C 7.20677,52.49 5.87344,52.6567 4.5,52.5C 4.76202,51.0222 4.42869,49.6888 3.5,48.5C 2.70245,48.9569 2.36912,49.6236 2.5,50.5C 2.17443,54.8839 2.50776,59.2172 3.5,63.5C 5.48123,64.1054 5.81457,65.1054 4.5,66.5C 4.97665,67.4776 5.64332,68.3109 6.5,69C 6.16667,69.3333 5.83333,69.6667 5.5,70C 7.31456,70.7568 8.98123,71.5902 10.5,72.5C 7.90277,72.7208 7.90277,73.2208 10.5,74C 8.06503,74.0748 7.39836,74.9081 8.5,76.5C 4.53197,75.9291 2.36531,73.5957 2,69.5C 1.33333,48.8333 1.33333,28.1667 2,7.5C 2.85175,6.42925 3.68509,5.42925 4.5,4.5 Z"/></g>
<g><path style="opacity:1" fill="#1ee5b3" d="M 22.5,33.5 C 23.9468,34.1342 24.6134,35.3009 24.5,37C 23.9233,39.137 23.59,41.3037 23.5,43.5C 23.7035,45.3904 23.0368,46.8904 21.5,48C 17.5138,48.4988 13.5138,48.6655 9.5,48.5C 7.46558,44.1236 6.96558,39.4569 8,34.5C 12.7367,33.5308 17.57,33.1975 22.5,33.5 Z"/></g>
<g><path style="opacity:1" fill="#fcf001" d="M 38.5,38.5 C 37.5,38.5 36.5,38.5 35.5,38.5C 35.5,43.1667 35.5,47.8333 35.5,52.5C 34.1667,52.5 32.8333,52.5 31.5,52.5C 31.5,51.5 31.5,50.5 31.5,49.5C 32.0803,45.351 31.4136,41.6843 29.5,38.5C 28.5,38.5 27.5,38.5 26.5,38.5C 26.5,37.5 26.5,36.5 26.5,35.5C 31.1667,35.5 35.8333,35.5 40.5,35.5C 40.7148,37.1788 40.0481,38.1788 38.5,38.5 Z"/></g>
<g><path style="opacity:1" fill="#f0e80d" d="M 73.5,51.5 C 70.2693,52.7815 66.9359,52.7815 63.5,51.5C 62.8333,51.1667 62.1667,50.8333 61.5,50.5C 59.625,45.3402 60.2917,40.6735 63.5,36.5C 66.7644,35.6758 70.0977,35.3424 73.5,35.5C 73.5,36.8333 73.5,38.1667 73.5,39.5C 71.1191,38.5804 68.7857,38.5804 66.5,39.5C 62.4928,47.4904 64.8262,50.4904 73.5,48.5C 73.5,49.5 73.5,50.5 73.5,51.5 Z"/></g>
<g><path style="opacity:1" fill="#5d8950" d="M 78.5,30.5 C 78.8288,43.6774 78.4955,56.6774 77.5,69.5C 75.8763,71.1368 74.8763,70.8034 74.5,68.5C 74.4244,66.4434 74.4244,64.2767 74.5,62C 72.9556,60.8129 71.2889,60.4795 69.5,61C 71.7765,63.7599 72.4431,66.7599 71.5,70C 71.7852,71.8895 72.7852,73.2229 74.5,74C 70.294,74.5807 68.9607,72.914 70.5,69C 68.4078,68.0475 68.0745,66.7141 69.5,65C 67.3424,63.6883 67.0091,62.0217 68.5,60C 67.9056,59.5357 67.2389,59.369 66.5,59.5C 65.0821,57.6921 63.0821,57.0254 60.5,57.5C 60.238,56.0222 60.5713,54.6888 61.5,53.5C 62.1924,54.0253 62.6924,54.6919 63,55.5C 63.49,54.2068 63.6567,52.8734 63.5,51.5C 66.9359,52.7815 70.2693,52.7815 73.5,51.5C 74.224,49.7816 74.8906,47.9483 75.5,46C 74.572,45.6121 73.9054,44.9454 73.5,44C 75.097,41.4728 76.4303,38.8061 77.5,36C 76.572,35.6121 75.9054,34.9454 75.5,34C 77.1408,32.3542 76.8075,31.3542 74.5,31C 75.7932,30.51 77.1266,30.3433 78.5,30.5 Z"/></g>
<g><path style="opacity:1" fill="#5b8852" d="M 29.5,38.5 C 31.4136,41.6843 32.0803,45.351 31.5,49.5C 30.7611,49.369 30.0944,49.5357 29.5,50C 30.7468,51.4579 30.7468,52.9579 29.5,54.5C 30.0253,55.1924 30.6919,55.6924 31.5,56C 30.3282,57.997 28.9948,59.8303 27.5,61.5C 27.8333,62.1667 28.1667,62.8333 28.5,63.5C 30.321,62.2723 31.321,60.6056 31.5,58.5C 32.5,58.5 33.5,58.5 34.5,58.5C 34.5198,60.143 33.8532,61.4763 32.5,62.5C 33.6087,63.9647 33.1087,64.9647 31,65.5C 30.2214,67.8071 30.7214,69.8071 32.5,71.5C 31.9747,72.1924 31.3081,72.6924 30.5,73C 32.6447,73.7431 32.8114,74.5765 31,75.5C 29.6293,74.4188 28.1293,73.5855 26.5,73C 30.2229,71.9609 30.2229,70.7942 26.5,69.5C 27.7199,67.9504 27.7199,66.2837 26.5,64.5C 26.5,63.8333 26.5,63.1667 26.5,62.5C 21.0149,61.6728 15.3482,61.1728 9.5,61C 15.3482,60.8272 21.0149,60.3272 26.5,59.5C 23.7425,58.1818 20.5758,57.5152 17,57.5C 13.4242,57.5152 10.2575,58.1818 7.5,59.5C 7.29425,61.5492 6.46092,61.8825 5,60.5C 4.68937,56.9101 3.85604,53.5767 2.5,50.5C 2.36912,49.6236 2.70245,48.9569 3.5,48.5C 4.42869,49.6888 4.76202,51.0222 4.5,52.5C 5.87344,52.6567 7.20677,52.49 8.5,52C 6.12241,51.0255 6.45574,50.3589 9.5,50C 8.26166,49.31 8.26166,48.81 9.5,48.5C 13.5138,48.6655 17.5138,48.4988 21.5,48C 23.0368,46.8904 23.7035,45.3904 23.5,43.5C 25.1368,44.2178 26.8034,44.3845 28.5,44C 25.537,41.3509 25.8703,39.5175 29.5,38.5 Z"/></g>
<g><path style="opacity:1" fill="#5e8a54" d="M 56.5,45.5 C 57.2389,45.369 57.9056,45.5357 58.5,46C 57.2357,48.7736 58.2357,50.2736 61.5,50.5C 62.1667,50.8333 62.8333,51.1667 63.5,51.5C 63.6567,52.8734 63.49,54.2068 63,55.5C 62.6924,54.6919 62.1924,54.0253 61.5,53.5C 60.5713,54.6888 60.238,56.0222 60.5,57.5C 59.0222,57.238 57.6888,57.5713 56.5,58.5C 58.4233,59.3078 60.4233,59.8078 62.5,60C 60.2777,63.1677 58.9444,66.6677 58.5,70.5C 59.8333,70.5 61.1667,70.5 62.5,70.5C 62.4571,66.267 63.7905,62.6004 66.5,59.5C 67.2389,59.369 67.9056,59.5357 68.5,60C 67.0091,62.0217 67.3424,63.6883 69.5,65C 68.0745,66.7141 68.4078,68.0475 70.5,69C 68.9607,72.914 70.294,74.5807 74.5,74C 72.7852,73.2229 71.7852,71.8895 71.5,70C 72.4431,66.7599 71.7765,63.7599 69.5,61C 71.2889,60.4795 72.9556,60.8129 74.5,62C 74.4244,64.2767 74.4244,66.4434 74.5,68.5C 74.8763,70.8034 75.8763,71.1368 77.5,69.5C 77.1997,73.9702 74.8663,76.8035 70.5,78C 60.8391,78.4998 51.1724,78.6665 41.5,78.5C 41.9528,77.5416 42.6195,76.7083 43.5,76C 41.1695,74.5125 40.8362,72.6791 42.5,70.5C 43.3764,70.6309 44.0431,70.2975 44.5,69.5C 42.5767,68.6922 40.5767,68.1922 38.5,68C 40.2415,66.3804 42.0748,64.8804 44,63.5C 44.9724,60.7058 44.1391,58.7058 41.5,57.5C 42.8345,55.8044 44.1678,54.1377 45.5,52.5C 51.7809,53.8767 55.4476,51.5434 56.5,45.5 Z"/></g>
<g><path style="opacity:1" fill="#22e0b0" d="M 7.5,53.5 C 12.544,53.1725 17.544,53.5059 22.5,54.5C 20,54.8333 17.5,55.1667 15,55.5C 12.0706,55.4752 9.57056,54.8086 7.5,53.5 Z"/></g>
<g><path style="opacity:1" fill="#f2f6f1" d="M 38.5,57.5 C 39.5,57.5 40.5,57.5 41.5,57.5C 44.1391,58.7058 44.9724,60.7058 44,63.5C 42.0748,64.8804 40.2415,66.3804 38.5,68C 40.5767,68.1922 42.5767,68.6922 44.5,69.5C 44.0431,70.2975 43.3764,70.6309 42.5,70.5C 40.1667,70.5 37.8333,70.5 35.5,70.5C 35.1506,67.0098 36.6506,64.6765 40,63.5C 40.49,62.2068 40.6567,60.8734 40.5,59.5C 38.6096,59.2965 37.1096,59.9632 36,61.5C 35.0902,59.0551 35.9236,57.7218 38.5,57.5 Z"/></g>
<g><path style="opacity:1" fill="#f5f8f5" d="M 50.5,57.5 C 51.8333,57.5 53.1667,57.5 54.5,57.5C 54.9423,61.9359 54.9423,66.2693 54.5,70.5C 53.5,70.5 52.5,70.5 51.5,70.5C 51.5,69.5 51.5,68.5 51.5,67.5C 49.5,67.5 47.5,67.5 45.5,67.5C 47.1201,64.1933 48.7867,60.86 50.5,57.5 Z"/></g>
<g><path style="opacity:1" fill="#f0f4ee" d="M 60.5,57.5 C 63.0821,57.0254 65.0821,57.6921 66.5,59.5C 63.7905,62.6004 62.4571,66.267 62.5,70.5C 61.1667,70.5 59.8333,70.5 58.5,70.5C 58.9444,66.6677 60.2777,63.1677 62.5,60C 60.4233,59.8078 58.4233,59.3078 56.5,58.5C 57.6888,57.5713 59.0222,57.238 60.5,57.5 Z"/></g>
<g><path style="opacity:1" fill="#22dead" d="M 26.5,59.5 C 20.1667,59.5 13.8333,59.5 7.5,59.5C 10.2575,58.1818 13.4242,57.5152 17,57.5C 20.5758,57.5152 23.7425,58.1818 26.5,59.5 Z"/></g>
<g><path style="opacity:1" fill="#5d8951" d="M 38.5,38.5 C 37.0474,39.8249 37.3808,40.6582 39.5,41C 38.6479,43.2061 37.6479,45.3728 36.5,47.5C 37.4256,49.6523 38.4256,51.8189 39.5,54C 38.6634,55.0113 38.33,56.1779 38.5,57.5C 35.9236,57.7218 35.0902,59.0551 36,61.5C 37.1096,59.9632 38.6096,59.2965 40.5,59.5C 40.6567,60.8734 40.49,62.2068 40,63.5C 36.6506,64.6765 35.1506,67.0098 35.5,70.5C 37.8333,70.5 40.1667,70.5 42.5,70.5C 40.8362,72.6791 41.1695,74.5125 43.5,76C 42.6195,76.7083 41.9528,77.5416 41.5,78.5C 30.8281,78.6665 20.1615,78.4998 9.5,78C 8.94404,77.6174 8.61071,77.1174 8.5,76.5C 7.39836,74.9081 8.06503,74.0748 10.5,74C 7.90277,73.2208 7.90277,72.7208 10.5,72.5C 11.2674,71.828 11.9341,70.9947 12.5,70C 17.1548,69.5008 21.8215,69.3342 26.5,69.5C 30.2229,70.7942 30.2229,71.9609 26.5,73C 28.1293,73.5855 29.6293,74.4188 31,75.5C 32.8114,74.5765 32.6447,73.7431 30.5,73C 31.3081,72.6924 31.9747,72.1924 32.5,71.5C 30.7214,69.8071 30.2214,67.8071 31,65.5C 33.1087,64.9647 33.6087,63.9647 32.5,62.5C 33.8532,61.4763 34.5198,60.143 34.5,58.5C 33.5,58.5 32.5,58.5 31.5,58.5C 31.321,60.6056 30.321,62.2723 28.5,63.5C 28.1667,62.8333 27.8333,62.1667 27.5,61.5C 28.9948,59.8303 30.3282,57.997 31.5,56C 30.6919,55.6924 30.0253,55.1924 29.5,54.5C 30.7468,52.9579 30.7468,51.4579 29.5,50C 30.0944,49.5357 30.7611,49.369 31.5,49.5C 31.5,50.5 31.5,51.5 31.5,52.5C 32.8333,52.5 34.1667,52.5 35.5,52.5C 35.5,47.8333 35.5,43.1667 35.5,38.5C 36.5,38.5 37.5,38.5 38.5,38.5 Z"/></g>
<g><path style="opacity:1" fill="#528f5f" d="M 2.5,50.5 C 3.85604,53.5767 4.68937,56.9101 5,60.5C 6.46092,61.8825 7.29425,61.5492 7.5,59.5C 13.8333,59.5 20.1667,59.5 26.5,59.5C 21.0149,60.3272 15.3482,60.8272 9.5,61C 15.3482,61.1728 21.0149,61.6728 26.5,62.5C 1.16667,63.1667 1.16667,63.8333 26.5,64.5C 27.7199,66.2837 27.7199,67.9504 26.5,69.5C 21.8215,69.3342 17.1548,69.5008 12.5,70C 11.9341,70.9947 11.2674,71.828 10.5,72.5C 8.98123,71.5902 7.31456,70.7568 5.5,70C 5.83333,69.6667 6.16667,69.3333 6.5,69C 5.64332,68.3109 4.97665,67.4776 4.5,66.5C 5.81457,65.1054 5.48123,64.1054 3.5,63.5C 2.50776,59.2172 2.17443,54.8839 2.5,50.5 Z"/></g>
<g><path style="opacity:1" fill="#2acc9e" d="M 26.5,62.5 C 26.5,63.1667 26.5,63.8333 26.5,64.5C 1.16667,63.8333 1.16667,63.1667 26.5,62.5 Z"/></g>
<g><path style="opacity:1" fill="#719666" d="M 50.5,62.5 C 51.404,63.209 51.7373,64.209 51.5,65.5C 50.448,65.6495 49.448,65.4828 48.5,65C 49.3805,64.2917 50.0472,63.4584 50.5,62.5 Z"/></g>
<g><path style="opacity:1" fill="#23e5b4" d="M 7.5,66.5 C 13.8682,66.1703 20.2015,66.5037 26.5,67.5C 23.3333,67.8333 20.1667,68.1667 17,68.5C 13.4242,68.4848 10.2575,67.8182 7.5,66.5 Z"/></g>
</svg>
