<svg width="180" height="180" viewBox="0 0 180 180" fill="none" xmlns="http://www.w3.org/2000/svg">
<g clip-path="url(#clip0)">
<circle cx="90" cy="90" r="90" fill="#E5FDFA"/>
<g clip-path="url(#clip1)">
<path d="M153.381 175.633H102.087C98.3263 175.633 95.6438 172.421 96.1069 168.45L109.663 50.603C110.126 46.5363 113.551 42.8691 117.311 42.4217L168.605 36.3336C172.365 35.8862 175.048 39.0181 174.585 43.3165L161.029 168.027C160.566 172.229 157.141 175.633 153.381 175.633Z" fill="#026048"/>
<path d="M153.381 176H102.087C100.234 176 98.5578 175.265 97.3683 173.923C96.075 172.469 95.5001 170.511 95.7476 168.41L109.304 50.563C109.783 46.3445 113.359 42.5254 117.279 42.062L168.573 35.9739C170.338 35.7662 171.966 36.2935 173.156 37.476C174.553 38.8582 175.216 41.0074 174.96 43.3643L161.404 168.074C160.917 172.445 157.317 176 153.381 176ZM169.308 36.6611C169.092 36.6611 168.877 36.677 168.653 36.701L117.359 42.7891C113.758 43.2125 110.477 46.736 110.03 50.6429L96.4741 168.49C96.2506 170.383 96.7615 172.133 97.9112 173.427C98.965 174.61 100.442 175.257 102.087 175.257H153.381C156.957 175.257 160.223 171.989 160.67 167.979L174.218 43.2765C174.449 41.1432 173.866 39.2177 172.629 37.9873C171.751 37.1245 170.585 36.6611 169.308 36.6611Z" fill="white"/>
<path d="M133.047 46.4961C132.743 46.4961 132.464 46.3843 132.256 46.1765C131.993 45.9129 131.865 45.5214 131.913 45.1059C132.001 44.3309 132.631 43.6598 133.35 43.5719C133.709 43.532 134.045 43.6438 134.284 43.8835C134.548 44.1472 134.675 44.5386 134.627 44.9621C134.54 45.7371 133.909 46.4162 133.19 46.4961C133.142 46.4881 133.094 46.4961 133.047 46.4961ZM133.494 44.291C133.478 44.291 133.454 44.291 133.43 44.291C133.047 44.3309 132.687 44.7384 132.639 45.1778C132.615 45.3696 132.663 45.5453 132.767 45.6492C132.847 45.7291 132.967 45.769 133.102 45.7531C133.486 45.7131 133.845 45.3057 133.893 44.8742C133.917 44.6745 133.869 44.5067 133.765 44.4028C133.693 44.3309 133.605 44.291 133.494 44.291Z" fill="white"/>
<path d="M147.582 43.0186L137.247 44.2043L137.331 44.9346L147.666 43.7489L147.582 43.0186Z" fill="white"/>
<path d="M137.493 172.133H117.135C116.936 172.133 116.768 171.965 116.768 171.765C116.768 171.566 116.936 171.398 117.135 171.398H137.493C137.693 171.398 137.861 171.566 137.861 171.765C137.861 171.965 137.693 172.133 137.493 172.133Z" fill="white"/>
<path d="M156.414 162.226L157.684 151.935L160.047 132.752L167.951 66.9337C168.286 64.1533 166.33 62.06 163.576 62.2598C160.821 62.4595 158.314 64.8644 157.971 67.6288L100.466 92.9239L91.181 165.574C91.0693 166.428 91.7798 167.18 92.6979 167.18H95.9632H154.458C155.233 167.18 155.879 166.612 155.975 165.845L156.414 162.226Z" fill="url(#paint0_linear)"/>
<path d="M150.017 161.55L97.3179 161.77L97.3251 163.496L150.024 163.276L150.017 161.55Z" fill="#B1EBE3"/>
<path d="M150.872 154.68L127.392 154.873L127.406 156.598L150.886 156.406L150.872 154.68Z" fill="#B1EBE3"/>
<path d="M151.565 148.995L128.088 149.282L128.109 151.007L151.586 150.721L151.565 148.995Z" fill="#B1EBE3"/>
<path d="M152.457 140.778L128.982 141.187L129.04 144.526L152.515 144.117L152.457 140.778Z" fill="#B1EBE3"/>
<path d="M98.4061 157.576L119.331 157.336L121.973 136.468L101.049 137.203L98.4061 157.576Z" fill="#E5FDFA"/>
<path d="M120.544 133.391L153.716 132.584L161.763 65.9031L128.592 68.252L120.544 133.391Z" fill="#E5FDFA"/>
<path d="M148.75 63.3464L138.859 143.027C138.523 145.735 140.479 147.901 143.234 147.861C145.988 147.821 148.495 145.584 148.838 142.859L157.963 67.6368C158.298 64.8724 160.813 62.4676 163.568 62.2678L153.588 63.0029L148.75 63.3464Z" fill="#B1EBE3"/>
<path d="M142.387 147.797C140.096 147.429 138.563 145.448 138.867 143.027L143.353 106.994L147.433 74.0764L149.093 60.5899C149.429 57.8414 147.473 55.7881 144.718 56.0038C141.964 56.2196 139.457 58.6085 139.114 61.3409L135.841 74.8434L78.9183 79.1498L70.352 144.361C70.0167 146.918 71.9727 148.963 74.727 148.923L143.234 147.869L142.387 147.797Z" fill="url(#paint1_linear)"/>
<path d="M110.478 119.381L78.987 120.75L79.0387 121.94L110.529 120.571L110.478 119.381Z" fill="#B1EBE3"/>
<path d="M109.96 123.393L78.4744 124.648L78.5217 125.837L110.007 124.582L109.96 123.393Z" fill="#B1EBE3"/>
<path d="M109.44 127.609L77.9476 128.745L77.9905 129.934L109.483 128.799L109.44 127.609Z" fill="#B1EBE3"/>
<path d="M108.93 131.508L77.4431 132.526L77.4815 133.716L108.969 132.698L108.93 131.508Z" fill="#B1EBE3"/>
<path d="M108.416 135.628L76.9261 136.53L76.9601 137.72L108.45 136.818L108.416 135.628Z" fill="#B1EBE3"/>
<path d="M86.4278 115.02L79.531 115.604L79.7072 117.689L86.6039 117.106L86.4278 115.02Z" fill="#B1EBE3"/>
<path d="M107.541 141.865L76.056 142.571L76.1028 144.664L107.588 143.958L107.541 141.865Z" fill="#B1EBE3"/>
<path d="M140.061 82.5162L97.554 85.0562L97.6249 86.2445L140.132 83.7045L140.061 82.5162Z" fill="#B1EBE3"/>
<path d="M139.547 86.6518L97.0395 89.0635L97.1068 90.252L139.615 87.8404L139.547 86.6518Z" fill="#B1EBE3"/>
<path d="M139.032 90.9642L96.5156 93.248L96.5793 94.4368L139.096 92.153L139.032 90.9642Z" fill="#B1EBE3"/>
<path d="M141.891 67.7873L99.3772 70.7642L99.4602 71.9518L141.974 68.9749L141.891 67.7873Z" fill="#B1EBE3"/>
<path d="M141.387 71.9127L98.8728 74.7654L98.9523 75.9532L141.467 73.1006L141.387 71.9127Z" fill="#B1EBE3"/>
<path d="M140.852 76.2409L98.3367 78.9651L98.4127 80.1532L140.928 77.4289L140.852 76.2409Z" fill="#B1EBE3"/>
<path d="M132.568 143.474L112.689 143.81L117.942 102.4L137.821 101.473L132.568 143.474Z" fill="#E5FDFA"/>
<path d="M123.754 104.988L129.749 57.1782L133.829 24.4287L56.7481 32.2745L46.6809 108.432C46.3456 110.972 48.3016 112.938 51.0559 112.826L128.137 109.654L127.283 109.614C124.975 109.302 123.45 107.385 123.754 104.988Z" fill="url(#paint2_linear)"/>
<path d="M139.114 61.3327C139.449 58.6002 141.964 56.2113 144.719 55.9956L134.739 56.7786L129.749 57.1701L123.754 104.98C123.419 107.664 125.374 109.75 128.129 109.638C130.883 109.526 133.39 107.241 133.733 104.533L139.114 61.3327Z" fill="#B1EBE3"/>
<path d="M122.442 65.1306L90.7266 67.4409L90.8356 68.9391L122.551 66.6287L122.442 65.1306Z" fill="#B1EBE3"/>
<path d="M121.88 70.7856L90.1734 72.9675L90.2764 74.466L121.983 72.284L121.88 70.7856Z" fill="#B1EBE3"/>
<path d="M121.197 76.2822L89.4895 78.3396L89.5866 79.8385L121.294 77.7811L121.197 76.2822Z" fill="#B1EBE3"/>
<path d="M109.961 59.128L91.6458 60.5454L91.8502 63.19L110.165 61.7726L109.961 59.128Z" fill="#B1EBE3"/>
<path d="M119.532 82.8189L55.4281 86.6814L55.5217 88.2366L119.626 84.374L119.532 82.8189Z" fill="#B1EBE3"/>
<path d="M117.334 100.375L68.0258 102.727L68.1 104.283L117.408 101.932L117.334 100.375Z" fill="#B1EBE3"/>
<path d="M63.1543 102.962L53.2258 103.436L53.2999 104.992L63.2284 104.518L63.1543 102.962Z" fill="#B1EBE3"/>
<path d="M118.079 94.426L99.8286 95.3733L99.9093 96.9292L118.16 95.9819L118.079 94.426Z" fill="#B1EBE3"/>
<path d="M92.8204 95.7379L53.9673 97.7546L54.0479 99.3106L92.901 97.2938L92.8204 95.7379Z" fill="#B1EBE3"/>
<path d="M118.815 88.4667L82.1255 90.5261L82.2127 92.0816L118.902 90.0221L118.815 88.4667Z" fill="#B1EBE3"/>
<path d="M75.5661 90.9001L54.7147 92.0706L54.8019 93.626L75.6533 92.4556L75.5661 90.9001Z" fill="#B1EBE3"/>
<path d="M85.4968 79.1419L56.317 81.0354L58.752 62.5315L87.9318 60.2305L85.4968 79.1419Z" fill="#B1EBE3"/>
<path d="M130.548 50.7067L134.116 22L57.0355 29.9816L53.4669 57.1224L130.548 50.7067Z" fill="#029875"/>
<path d="M74.2879 49.3405L70.9588 49.6361L65.7935 40.2163L64.4922 50.2034L61.163 50.499L63.1429 35.3506L66.4721 35.0231L71.6534 44.4428L72.9627 34.3759L76.2758 34.0483L74.2879 49.3405Z" fill="white"/>
<path d="M88.7381 41.4388L82.3513 42.03L81.8164 46.1686L89.3129 45.4975L88.9856 48.0542L78.1679 49.0049L80.1478 33.6648L90.9415 32.5942L90.6142 35.1749L83.1416 35.9019L82.6706 39.5692L89.0574 38.97L88.7381 41.4388Z" fill="white"/>
<path d="M105.056 42.1819L108.641 30.8366L111.954 30.509L106.39 46.5202L103.045 46.8159L101.743 36.6211L97.7914 47.2713L94.4463 47.5669L92.8496 32.4026L96.1628 32.075L96.9372 42.9009L101.001 31.5956L103.819 31.316L105.056 42.1819Z" fill="white"/>
<path d="M121.63 41.0872C121.71 40.472 121.542 40.0166 121.143 39.729C120.744 39.4413 119.986 39.1697 118.876 38.906C117.766 38.6504 116.904 38.3707 116.273 38.0831C114.565 37.2921 113.806 36.0777 114.014 34.4398C114.118 33.5929 114.461 32.81 115.036 32.0909C115.611 31.3718 116.385 30.7886 117.351 30.3172C118.317 29.8538 119.371 29.5582 120.52 29.4463C121.67 29.3345 122.676 29.4383 123.522 29.7579C124.377 30.0775 124.999 30.5888 125.406 31.2919C125.814 31.995 125.957 32.818 125.837 33.7687L122.508 34.0883C122.596 33.3612 122.437 32.8259 122.021 32.4664C121.606 32.1069 120.976 31.9711 120.137 32.0509C119.323 32.1308 118.668 32.3625 118.181 32.7381C117.686 33.1216 117.407 33.585 117.335 34.1283C117.271 34.6396 117.479 35.0471 117.966 35.3427C118.453 35.6383 119.187 35.894 120.177 36.0937C121.997 36.4692 123.291 37.0365 124.049 37.7795C124.808 38.5225 125.111 39.5212 124.959 40.7516C124.792 42.1259 124.121 43.2444 122.971 44.1153C121.814 44.9861 120.345 45.4975 118.557 45.6573C117.319 45.7691 116.209 45.6413 115.251 45.2898C114.285 44.9382 113.583 44.4029 113.144 43.6758C112.705 42.9568 112.553 42.0859 112.681 41.0712L116.018 40.7676C115.802 42.5014 116.752 43.2764 118.884 43.0846C119.674 43.0127 120.313 42.805 120.792 42.4454C121.279 42.1099 121.558 41.6465 121.63 41.0872Z" fill="white"/>
<path d="M39.0247 91.198C46.0742 90.4869 66.2086 87.1792 66.2086 87.1792C66.2086 87.1792 67.5498 59.671 68.8751 57.0184C72.0525 50.6667 84.882 46.0167 84.882 49.0048C84.882 52.4643 78.1519 53.2393 80.7546 56.3553C81.0021 56.6509 87.1573 61.165 82.966 67.349C81.2495 69.4503 87.6922 96.4073 78.9184 103.143C70.0407 109.95 43.7749 117.028 43.7749 117.028C43.7749 117.028 31.9753 91.9011 39.0247 91.198Z" fill="#FDB78F"/>
<path d="M66.2086 87.419C66.2006 87.419 66.2006 87.419 66.1926 87.419C66.0569 87.411 65.9531 87.2991 65.9611 87.1633C66.017 86.0368 67.3263 59.5671 68.6596 56.9066C71.4219 51.3937 81.1298 47.1992 84.1316 47.9103C85.0018 48.118 85.1296 48.6853 85.1296 49.0048C85.1296 50.7226 83.6526 51.8092 82.3433 52.76C82.2156 52.8479 82.0958 52.9437 81.9761 53.0316C81.4651 53.4151 78.0242 56.1636 77.9843 56.1955C77.8805 56.2834 77.7209 56.2594 77.641 56.1556C77.5532 56.0517 77.5771 55.8919 77.6809 55.812C77.8246 55.7002 81.1617 53.0236 81.6807 52.6401C81.8004 52.5522 81.9282 52.4564 82.0479 52.3685C83.3173 51.4417 84.6266 50.4749 84.6266 49.0048C84.6266 48.8051 84.5627 48.5175 84.0039 48.3896C81.1937 47.7265 71.7013 51.8971 69.0827 57.1303C67.7973 59.703 66.4561 86.9156 66.4401 87.1953C66.4481 87.3151 66.3363 87.419 66.2086 87.419Z" fill="#E58863"/>
<path d="M75.6531 70.7366C75.6052 70.7366 75.5653 70.7206 75.5254 70.6966C75.4136 70.6247 75.3737 70.4729 75.4455 70.3611C76.7947 68.2198 76.188 65.775 73.6093 62.8668C73.5295 62.7789 73.5295 62.6431 73.6013 62.5472C73.6812 62.4513 73.8089 62.4274 73.9127 62.4913C76.6351 64.0972 78.6709 63.8655 79.1818 63.1944C79.4054 62.9067 79.2377 62.6351 79.0621 62.4593C78.0242 61.4287 73.8089 58.2248 72.4836 57.29C72.3719 57.2101 72.3479 57.0583 72.4278 56.9465C72.5076 56.8346 72.6593 56.8107 72.7711 56.8906C73.9207 57.6975 78.3116 61.0132 79.4133 62.1158C79.8445 62.5392 79.9003 63.0665 79.573 63.498C79.0461 64.1771 77.3376 64.6645 74.7589 63.49C76.8267 66.1745 77.1859 68.5155 75.8607 70.6247C75.8208 70.6966 75.7409 70.7366 75.6531 70.7366Z" fill="#E58863"/>
<path d="M29.5962 91.3019C35.1048 90.7027 49.9302 87.8903 56.836 88.0181C65.7376 88.1859 67.1507 113.074 67.1507 113.074C67.1507 113.074 48.2217 124.483 44.4695 121.886C48.3255 100.841 29.5962 91.3019 29.5962 91.3019Z" fill="#029875"/>
<path d="M48.3734 102.887L43.4556 107.289C44.9006 111.34 45.5153 116.198 44.4695 121.894C46.7608 123.484 54.7283 119.833 60.5722 116.757C58.3129 113.154 53.0198 106.53 48.3734 102.887Z" fill="#066D52"/>
<path d="M-0.90085 103.67C-11.6626 144.673 7.36209 172.732 28.9735 172.309C50.5849 171.885 42.3379 156.721 26.778 152.335C13.8128 148.675 18.7865 123.276 21.4849 113.034C24.343 102.2 -0.90085 103.67 -0.90085 103.67Z" fill="#FDB78F"/>
<path d="M0.424411 175.536H62.5761C64.7157 153.773 64.7077 127.167 49.4751 102.887C45.2439 96.1436 36.1906 90.2232 29.6042 91.3098C25.1653 92.0369 13.0783 95.001 13.0783 95.001C-3.59928 98.852 0.0412016 133.024 0.0412016 133.024C0.0412016 133.024 -0.565546 155.099 -4.44554 169.161C-5.33969 172.365 -2.9127 175.536 0.424411 175.536Z" fill="#029875"/>
<path d="M17.2696 115.982C20.7504 122.821 22.8581 142.308 19.984 150.098C17.11 157.888 8.79114 132.584 8.79114 132.584L17.2696 115.982Z" fill="#066D52"/>
<path d="M-5.26784 126.728C-5.9624 132.089 -2.80891 151.64 2.13289 157.304C7.07468 162.969 17.8045 144.737 17.8045 144.737C17.8045 144.737 14.196 132.057 15.3137 125.633C16.4393 119.218 -5.26784 126.728 -5.26784 126.728Z" fill="#FDB78F"/>
<path d="M13.0703 94.9932C-11.503 101.569 -9.77054 117.851 -11 134.566C-10.8802 136.076 11.7929 136.915 17.1579 137.091C17.7486 137.106 18.2277 136.603 18.1798 136.012C16.7906 120.776 16.1998 107.026 13.0703 94.9932Z" fill="#029875"/>
<path d="M2.13289 157.304C14.0842 175.329 41.1483 171.542 48.3495 171.422C55.3909 171.31 64.9153 167.012 66.025 164.655C67.1427 162.298 65.8573 160.244 55.0636 158.918C48.9403 158.159 57.1792 158.175 57.7301 153.741C58.1053 150.737 24.4947 164.295 17.8045 144.737C13.4455 131.985 -9.81843 139.28 2.13289 157.304Z" fill="#FDB78F"/>
<path d="M50.7525 123.788C49.3394 123.788 48.2058 123.652 48.094 123.636L47.8545 123.604L47.7826 123.372C47.7667 123.316 45.9624 117.316 43.5354 112.251L43.3119 111.779L52.2454 110.797L52.3652 111.02C52.8522 111.947 57.0675 120.121 56.4448 122.086L56.4208 122.15L56.3809 122.206C55.343 123.508 52.7644 123.788 50.7525 123.788ZM48.4213 122.933C50.2495 123.133 54.4968 123.252 55.7582 121.798C56.0536 120.448 53.5707 114.951 51.8303 111.588L44.4216 112.403C46.5053 116.845 48.078 121.814 48.4213 122.933Z" fill="white"/>
<path d="M43.1442 114.28L43.1203 113.545C48.5251 113.393 52.1416 112.634 52.1816 112.626L52.3332 113.345C52.2933 113.353 48.6129 114.128 43.1442 114.28Z" fill="white"/>
<path d="M34.6577 61.5806C35.5359 61.5806 39.5516 65.6713 37.9789 70.1055C36.3582 74.6676 31.7757 67.2452 31.7917 65.4715C31.8076 63.7058 34.6577 61.5806 34.6577 61.5806Z" fill="#012C21"/>
<path d="M21.2055 79.3174C22.9459 83.6398 24.6863 91.7413 18.4113 94.8412C18.4113 94.8412 19.2256 97.7654 24.0077 99.9546C31.9433 103.582 44.7569 100.786 36.9011 94.7214C32.3585 90.5508 33.2367 86.1645 31.3605 81.8101L21.2055 79.3174Z" fill="#FDB78F"/>
<path d="M31.6639 103.254C28.6062 103.254 25.5485 102.639 23.0497 101.489C17.4133 98.908 16.3994 94.8094 16.3595 94.6336L17.078 94.4658C17.086 94.5057 18.068 98.3967 23.3531 100.818C26.275 102.152 29.9794 102.743 33.5241 102.431C36.8293 102.144 39.4159 101.081 40.2781 99.6591C41.34 97.8934 39.5676 95.9918 37.899 94.6975L38.3461 94.1143C41.803 96.7828 41.6433 98.8042 40.9088 100.035C39.9189 101.68 37.1805 102.855 33.5879 103.167C32.9413 103.23 32.3026 103.254 31.6639 103.254Z" fill="white"/>
<path d="M31.3606 81.8103L25.5565 80.3882C26.0196 82.7371 27.2969 84.9423 29.3407 86.5162C30.4744 87.3951 31.8316 88.21 33.2846 88.8652C32.59 86.5322 32.3745 84.1673 31.3606 81.8103Z" fill="#EE9A74"/>
<path d="M23.3371 81.5547C27.8079 85.0142 36.2864 86.8358 39.6315 82.2818C41.6114 79.5893 38.9688 67.9164 34.4901 64.4649C30.0193 61.0054 24.9338 62.7152 21.4849 67.1974C18.044 71.6636 18.8663 78.0952 23.3371 81.5547Z" fill="#FDB78F"/>
<path d="M35.1846 59.5672C38.0507 67.7646 22.403 68.1321 26.0994 77.8954C25.9876 78.5665 25.804 78.6784 25.4448 78.8142C25.4448 78.8142 23.1615 73.9805 21.5807 77.5439C21.0858 78.6624 23.0417 83.2964 22.8182 87.2832C21.1656 82.3616 17.5251 80.9075 15.6809 75.3068C13.6531 69.1388 17.9881 61.261 24.9338 60.8615C31.2009 60.502 33.2207 53.9505 35.1846 59.5672Z" fill="#026048"/>
<path d="M31.3845 73.9325C31.2807 73.7408 32.4383 72.9578 32.7417 72.9338C32.7896 72.9018 33.4123 73.9725 33.3405 74.4518C33.2606 74.9232 32.5581 75.083 32.1908 74.8833C31.8395 74.6995 32.2228 74.1003 31.3845 73.9325Z" fill="#012C21"/>
<path d="M36.486 71.0401C36.4141 70.8644 37.4599 70.3211 37.7234 70.3291C37.7713 70.3051 38.1944 71.2718 38.0827 71.6633C37.9709 72.0548 37.3641 72.1267 37.0767 71.927C36.7973 71.7352 37.1725 71.2558 36.486 71.0401Z" fill="#012C21"/>
<path d="M33.069 79.1897C33.3245 79.1257 33.6917 79.5971 33.9312 79.677C34.4182 79.8368 35.1367 79.9087 35.6557 79.8528C36.5019 79.7569 37.3242 79.1897 37.9869 78.6863C38.1705 78.5505 38.418 79.4613 38.0427 79.7809C37.3162 80.3961 35.7435 80.8275 34.8094 80.5958C34.3464 80.476 33.9392 80.1324 33.4842 80.0366C33.3484 80.0046 33.1808 80.9793 32.9413 80.452C32.8375 80.2203 32.7177 79.2775 33.069 79.1897Z" fill="#E58863"/>
<path d="M37.7553 77.6078C37.7074 77.6078 37.6516 77.5838 37.6196 77.5439C37.5558 77.464 37.5637 77.3521 37.6356 77.2882C38.1545 76.8328 38.5138 76.0818 38.4339 75.6184C38.402 75.4186 38.2902 75.2908 38.0986 75.2109C36.6297 74.6356 35.8473 73.5171 35.2246 72.6222C34.8733 72.1189 34.5699 71.6875 34.2107 71.3998C33.4682 70.8166 31.7118 71.256 29.5243 72.5903C29.4365 72.6462 29.3247 72.6143 29.2689 72.5264C29.213 72.4385 29.2449 72.3266 29.3327 72.2707C30.4504 71.5916 33.1808 70.1215 34.4342 71.1042C34.8414 71.4238 35.1767 71.9032 35.5279 72.4065C36.1586 73.3094 36.8692 74.324 38.2344 74.8593C38.5457 74.9792 38.7453 75.2189 38.8012 75.5464C38.9209 76.2256 38.418 77.0884 37.8831 77.5598C37.8432 77.5918 37.7953 77.6078 37.7553 77.6078Z" fill="#E58863"/>
<path d="M35.48 69.594C35.3363 69.594 35.1926 69.5861 35.0489 69.5701C34.9451 69.5541 34.8733 69.4662 34.8893 69.3623C34.9052 69.2585 34.993 69.1946 35.0968 69.2026C35.8712 69.3064 36.6776 69.0907 37.4919 68.5794C37.5478 68.5394 37.5717 68.5314 37.6037 68.5234C37.6995 68.4915 37.8032 68.5474 37.8352 68.6433C37.8671 68.7312 37.8192 68.827 37.7394 68.867C37.7314 68.875 37.7154 68.883 37.6915 68.8989C36.949 69.3623 36.2065 69.594 35.48 69.594Z" fill="#E58863"/>
<path d="M55.0237 163.384C54.1136 163.384 53.0837 163.36 51.9341 163.288C51.8303 163.28 51.7584 163.193 51.7584 163.097C51.7664 162.993 51.8542 162.921 51.95 162.921C58.9117 163.312 61.2828 162.298 61.3067 162.29C61.4025 162.25 61.5063 162.29 61.5462 162.386C61.5861 162.482 61.5462 162.585 61.4504 162.625C61.3786 162.673 59.694 163.384 55.0237 163.384Z" fill="#E58863"/>
<path d="M55.1834 166.5C54.4808 166.5 53.7463 166.484 52.9719 166.436C52.8681 166.428 52.7963 166.34 52.7963 166.244C52.8043 166.141 52.8921 166.069 52.9879 166.069C59.9415 166.46 63.9333 164.878 63.9732 164.862C64.069 164.822 64.1728 164.87 64.2127 164.966C64.2526 165.062 64.2047 165.166 64.1089 165.206C64.085 165.222 60.8596 166.5 55.1834 166.5Z" fill="#E58863"/>
<path d="M53.403 169.033C53.1236 169.033 52.8362 169.033 52.5488 169.025C52.445 169.025 52.3652 168.937 52.3652 168.841C52.3652 168.737 52.453 168.658 52.5488 168.658C54.1695 168.682 55.6943 168.634 57.0675 168.506C57.1713 168.498 57.2591 168.57 57.2671 168.674C57.2751 168.777 57.2032 168.865 57.0994 168.873C55.9578 168.977 54.7203 169.033 53.403 169.033Z" fill="#E58863"/>
</g>
</g>
<defs>
<linearGradient id="paint0_linear" x1="123.399" y1="167.177" x2="123.399" y2="62.2461" gradientUnits="userSpaceOnUse">
<stop stop-color="#E0E0F1"/>
<stop offset="0.0208" stop-color="#E5E5F3"/>
<stop offset="0.1368" stop-color="white"/>
</linearGradient>
<linearGradient id="paint1_linear" x1="106.452" y1="148.914" x2="106.452" y2="55.9833" gradientUnits="userSpaceOnUse">
<stop stop-color="#E0E0F1"/>
<stop offset="0.0208" stop-color="#E5E5F3"/>
<stop offset="0.1368" stop-color="white"/>
</linearGradient>
<linearGradient id="paint2_linear" x1="86.9335" y1="112.825" x2="86.9335" y2="24.4241" gradientUnits="userSpaceOnUse">
<stop stop-color="#E0E0F1"/>
<stop offset="0.0208" stop-color="#E5E5F3"/>
<stop offset="0.1368" stop-color="white"/>
</linearGradient>
<clipPath id="clip0">
<rect width="180" height="180" rx="90" fill="white"/>
</clipPath>
<clipPath id="clip1">
<rect width="186" height="154" fill="white" transform="translate(-11 22)"/>
</clipPath>
</defs>
</svg>
