<svg width="180" height="180" viewBox="0 0 180 180" fill="none" xmlns="http://www.w3.org/2000/svg">
<circle cx="90" cy="90" r="90" fill="#E5FDFA"/>
<path d="M148.484 148.513C129.917 158.984 106.282 164.15 81.7861 158.387L91.5246 132.097L88.7093 114.837L111.554 108.626L147.513 117.543L148.484 148.513Z" fill="#066D52"/>
<path d="M159.294 67.6754L155.747 75.3747L153.562 80.1202L151.791 83.9699L149.744 88.4168L147.559 93.1623L146.345 95.8034C146.345 95.8034 146.524 98.8271 146.74 102.635C146.828 104.137 146.92 105.766 147.007 107.38C147.26 111.921 147.495 116.339 147.513 117.553C147.536 119.046 145.015 119.349 141.878 119.298C140.682 119.279 139.398 119.209 138.129 119.134C136.629 119.041 135.157 118.948 133.883 118.92C133.262 118.906 132.268 118.915 131.003 118.929C129.931 118.943 128.662 118.966 127.254 118.99C125.119 119.032 122.672 119.078 120.128 119.111C118.895 119.13 117.635 119.144 116.379 119.158C113.941 119.181 111.508 119.186 109.254 119.158C107.929 119.144 106.668 119.116 105.504 119.074C101.125 118.925 98.1258 118.584 98.4156 117.893C98.7744 117.021 98.8848 112.49 98.8848 107.38C98.8848 105.826 98.8756 104.212 98.8572 102.635C98.8204 99.1631 98.756 95.8547 98.7054 93.6523C98.7008 93.4843 98.7008 93.321 98.6962 93.1623C98.6594 91.7811 98.641 90.9459 98.641 90.9459L92.4952 89.0654L90.3607 88.4121L88.0928 87.7168C88.0928 87.7168 88.5759 84.4598 89.3441 80.1156C89.6063 78.6317 89.8961 77.0219 90.2181 75.37C90.7563 72.5843 91.3682 69.6772 92.0076 67.0735C92.4446 65.3143 92.8908 63.6905 93.3416 62.3279C93.4612 61.9686 93.5808 61.628 93.7004 61.306C95.0299 57.7504 99.5518 54.736 105.504 52.5475C106.7 52.1089 107.956 51.703 109.254 51.3343C111.393 50.7277 113.651 50.2144 115.965 49.8131C116.103 49.7898 116.241 49.7665 116.379 49.7431C117.617 49.5332 118.868 49.3558 120.128 49.2159C122.511 48.9452 124.908 48.7912 127.254 48.7679C127.594 48.7632 127.935 48.7632 128.271 48.7679C129.186 48.7726 130.097 48.8099 130.998 48.8799C131.422 48.9126 131.84 48.9499 132.259 48.9919C134.26 49.2019 136.224 49.5565 138.124 50.0465C139.408 50.3778 140.659 50.765 141.873 51.213C148.327 53.5741 153.714 57.5031 156.861 62.3279C157.84 63.8305 158.604 65.417 159.115 67.0735C159.184 67.2741 159.239 67.4748 159.294 67.6754Z" fill="#029875"/>
<path d="M101.424 68.7158L98.6502 90.941L92.5044 89.0605L101.424 68.7158Z" fill="url(#paint0_linear)"/>
<path opacity="0.25" d="M147.012 107.376H98.894C98.894 105.822 98.8848 104.207 98.8664 102.63H146.74C146.828 104.137 146.92 105.761 147.012 107.376Z" fill="white"/>
<g opacity="0.45">
<path opacity="0.25" d="M143.534 88.4124C143.534 88.4404 143.534 88.4637 143.529 88.487C143.433 90.3675 143.175 91.7954 142.641 92.2713C142.347 92.5373 141.524 92.8359 140.351 93.1579H98.71C98.6732 91.7767 98.6548 90.9414 98.6548 90.9414L90.3745 88.4124H143.534Z" fill="white"/>
<path opacity="0.25" d="M143.414 80.1157H99.86C100.122 78.6318 100.412 77.022 100.734 75.3701H143.249C143.267 76.7 143.341 78.3612 143.414 80.1157Z" fill="white"/>
<path opacity="0.25" d="M151.069 62.3328C148.819 62.7201 146.621 64.2599 145.107 67.0783H102.528C102.965 65.3191 103.411 63.6953 103.862 62.3328H151.069Z" fill="white"/>
</g>
<path d="M132.268 48.9967C131.123 52.3984 127.061 56.472 121.094 55.6741C116.37 55.0441 115.8 51.9131 115.974 49.818C120.027 49.1134 124.245 48.7447 128.275 48.7727C129.623 48.7774 130.952 48.8567 132.268 48.9967Z" fill="white"/>
<path d="M114.627 29.1326C111.71 28.7546 109.428 24.8817 110.174 23.6311C110.923 22.3806 114.102 23.6311 114.102 23.6311C114.102 23.6311 110.772 20.8594 111.669 18.5449C112.566 16.2305 116.982 19.4548 116.982 19.4548C116.982 19.4548 115.896 15.4326 117.617 14.7886C119.337 14.1447 119.972 18.1296 122.07 18.8109C124.163 19.4922 129.591 19.0769 132.208 21.732C134.826 24.387 133.257 27.2334 133.257 27.2334C133.257 27.2334 136.661 28.26 135.875 31.7503C135.088 35.2407 132.457 35.67 131.638 37.4664C130.824 39.2629 130.037 42.45 126.822 41.8807" fill="#026048"/>
<path d="M129.49 48.9593C129.407 49.4446 127.691 52.7716 123.077 52.8603C118.468 52.9443 118.316 50.0699 118.316 50.0699C118.316 50.0699 118.362 49.5426 118.394 48.7027C118.431 47.6994 118.44 46.2436 118.316 44.7177L126.868 40.6441L128.892 39.6829C128.892 39.6829 128.919 40.0188 128.956 40.5648C129.131 42.8046 129.554 48.5673 129.49 48.9593Z" fill="url(#paint1_linear)"/>
<path d="M128.961 40.5598C128.51 44.2415 123.818 49.435 118.394 48.6977C118.431 47.6945 118.44 46.2386 118.316 44.7128L126.868 40.6391L128.961 40.5598Z" fill="#D25482"/>
<path d="M113.684 26.3281C120.082 29.4032 128.505 28.2693 128.505 28.2693C128.505 28.2693 128.252 35.0726 128.841 35.8659C129.43 36.6638 129.375 33.1921 131.058 32.5669C132.742 31.9416 134.628 33.7754 133.483 35.9639C132.337 38.1477 129.724 37.5364 129.724 37.5364C129.724 37.5364 129.071 46.0849 120.989 46.0569C112.906 46.0289 113.246 36.8364 113.329 32.8515C113.408 28.8665 113.684 26.3281 113.684 26.3281Z" fill="url(#paint2_linear)"/>
<path d="M131.104 35.8008C130.506 34.4336 131.817 33.3977 132.599 34.4336" stroke="#D16B83" stroke-width="0.9555" stroke-miterlimit="10" stroke-linecap="round"/>
<path d="M120.354 33.8735L119.222 37.9285C119.089 38.3998 119.374 38.885 119.848 38.9924L121.099 39.277" stroke="#D16B83" stroke-width="0.9555" stroke-miterlimit="10" stroke-linecap="round" stroke-linejoin="round"/>
<path d="M123.864 36.286C124.298 36.286 124.65 35.9288 124.65 35.4881C124.65 35.0474 124.298 34.6902 123.864 34.6902C123.429 34.6902 123.077 35.0474 123.077 35.4881C123.077 35.9288 123.429 36.286 123.864 36.286Z" fill="#037E76"/>
<path d="M115.961 35.9174C116.395 35.9174 116.747 35.5601 116.747 35.1195C116.747 34.6788 116.395 34.3215 115.961 34.3215C115.526 34.3215 115.174 34.6788 115.174 35.1195C115.174 35.5601 115.526 35.9174 115.961 35.9174Z" fill="#037E76"/>
<path d="M114.962 30.8171C114.962 30.8171 116.066 29.7719 117.879 30.8171" stroke="#037E76" stroke-width="0.9555" stroke-miterlimit="10" stroke-linecap="round" stroke-linejoin="round"/>
<path d="M125.837 31.0502C125.837 31.0502 124.733 30.005 122.921 31.0502" stroke="#037E76" stroke-width="0.9555" stroke-miterlimit="10" stroke-linecap="round" stroke-linejoin="round"/>
<path d="M120.648 41.6894C120.648 41.6894 122.162 42.7533 123.96 41.3301" stroke="#D16B83" stroke-width="0.9555" stroke-miterlimit="10" stroke-linecap="round" stroke-linejoin="round"/>
<path d="M114.88 152.797C114.383 155.914 111.862 158.429 108.614 158.746L59.0797 163.608C55.2156 163.986 51.7747 161.116 51.4021 157.197L51.1721 154.78L48.182 123.427L45.4035 94.3195L43.8394 77.9364L42.0362 59.0476C41.6635 55.1233 44.4926 51.6376 48.3614 51.2597L97.8958 46.3928C101.76 46.0148 105.201 48.8846 105.573 52.8042L109.203 90.8199L109.833 97.4039L109.925 98.3558L111.494 114.767L112.009 120.189L114.944 150.953C114.995 151.583 114.976 152.199 114.88 152.797Z" fill="url(#paint3_linear)"/>
<path d="M108.982 152.265L57.4927 157.318C55.5836 157.505 53.8862 156.086 53.7022 154.15L44.8699 61.5908C44.6859 59.6543 46.0843 57.9324 47.9934 57.7458L99.4829 52.6923C101.392 52.5056 103.089 53.9242 103.273 55.8606L112.106 148.42C112.29 150.352 110.891 152.073 108.982 152.265Z" fill="white"/>
<path d="M97.8084 94.5477L57.9435 98.514C57.0925 98.598 56.3334 97.968 56.2506 97.1048C56.1678 96.2415 56.7889 95.4716 57.6399 95.3876L97.5048 91.4213C98.3558 91.3373 99.1148 91.9673 99.1976 92.8305C99.2804 93.6984 98.6548 94.4637 97.8084 94.5477Z" fill="#B1EBE3"/>
<path d="M99.2758 104.87L59.4109 108.836C58.5599 108.92 57.8009 108.29 57.7181 107.427C57.6353 106.564 58.2563 105.794 59.1073 105.71L98.9722 101.743C99.8233 101.659 100.582 102.289 100.665 103.153C100.748 104.016 100.127 104.781 99.2758 104.87Z" fill="#B1EBE3"/>
<path d="M100.743 115.187L60.8784 119.153C60.0273 119.237 59.2683 118.607 59.1855 117.744C59.1027 116.88 59.7237 116.111 60.5748 116.027L100.44 112.06C101.291 111.976 102.05 112.606 102.133 113.469C102.215 114.333 101.594 115.103 100.743 115.187Z" fill="#B1EBE3"/>
<path d="M102.211 125.504L62.3458 129.47C61.4948 129.554 60.7358 128.924 60.653 128.061C60.5702 127.198 61.1912 126.428 62.0422 126.344L101.907 122.378C102.758 122.294 103.517 122.924 103.6 123.787C103.683 124.65 103.062 125.42 102.211 125.504Z" fill="#D6E9FC"/>
<path d="M103.683 135.821L63.8179 139.787C62.9669 139.871 62.2078 139.241 62.125 138.378C62.0422 137.514 62.6632 136.745 63.5143 136.661L103.379 132.694C104.23 132.61 104.989 133.24 105.072 134.103C105.155 134.967 104.529 135.737 103.683 135.821Z" fill="#D6E9FC"/>
<path d="M95.5226 62.2931L70.3736 64.7615L54.434 66.3247C54.2408 66.3434 54.066 66.4087 53.9142 66.502C53.5278 66.7447 53.2886 67.1926 53.3346 67.6826L54.4524 79.4134L55.0735 85.9321C55.1379 86.6181 55.7359 87.1174 56.4121 87.052L81.5611 84.5836L97.5006 83.0204C98.1769 82.9551 98.6691 82.3485 98.6047 81.6626L97.4868 69.9317L96.8658 63.413C96.7922 62.7271 96.1942 62.2278 95.5226 62.2931Z" fill="#B1EBE3"/>
<path d="M98.6185 59.1107L100.532 79.1614C100.606 79.9127 100.063 80.58 99.3223 80.6546L54.1718 85.0875C53.4312 85.1622 52.7734 84.6116 52.7044 83.8603L50.7907 63.8096C50.7171 63.0583 51.2599 62.3911 52.0005 62.3164L97.151 57.8835C97.8916 57.8088 98.5449 58.3594 98.6185 59.1107Z" fill="url(#paint4_linear)"/>
<path d="M99.3039 66.2732L100.532 79.1613C100.606 79.9126 100.063 80.5798 99.3223 80.6545L81.8049 82.3763C82.4995 74.0705 88.9536 67.1878 97.4316 66.3572C98.0573 66.2919 98.6829 66.2639 99.3039 66.2732Z" fill="url(#paint5_linear)"/>
<path d="M52.0189 76.6978L50.7907 63.8097C50.7171 63.0585 51.2599 62.3912 52.0005 62.3166L69.5179 60.5947C68.8233 68.9006 62.3693 75.7833 53.8912 76.6139C53.261 76.6792 52.6354 76.7072 52.0189 76.6978Z" fill="url(#paint6_linear)"/>
<path d="M39.9017 90.2785C39.2945 81.6087 41.9212 78.0997 45.3437 77.4138C48.7662 76.7325 55.0132 74.5674 55.648 76.1026C56.2828 77.6378 53.3249 79.6489 50.39 80.5401C49.2676 80.8808 48.8168 81.3381 48.8168 81.3381C48.8168 81.3381 50.7258 83.7878 50.0496 88.5101C49.378 93.2323 44.9435 95.3974 43.2046 94.0302C41.4749 92.6723 40.0259 92.0424 39.9017 90.2785Z" fill="url(#paint7_linear)"/>
<path d="M116.646 99.4058C115.298 99.2145 112.046 90.0734 109.166 90.8293C106.286 91.5899 109.617 96.4848 110.063 98.0013C110.514 99.5178 102.133 97.1287 100.522 95.3462C98.9124 93.5637 97.4174 96.9001 98.9492 99.2145C100.481 101.529 101.903 102.252 101.903 102.252C101.903 102.252 98.6502 99.1399 96.9666 101.076C95.2829 103.013 101.792 108.36 101.792 108.36C101.792 108.36 96.7043 103.881 95.8809 106.54C95.0575 109.196 98.7974 114.053 105.233 114.66C111.669 115.266 116.793 114.128 116.793 114.128L116.646 99.4058Z" fill="url(#paint8_linear)"/>
<path d="M100.973 101.575C102.859 103.512 105.077 103.685 105.077 103.685" stroke="#D16B83" stroke-width="0.9555" stroke-miterlimit="10" stroke-linecap="round" stroke-linejoin="round"/>
<path d="M100.67 107.375C102.878 109.461 105.233 109.881 105.233 109.881" stroke="#D16B83" stroke-width="0.9555" stroke-miterlimit="10" stroke-linecap="round" stroke-linejoin="round"/>
<g opacity="0.27">
<path opacity="0.27" d="M70.5433 152.997L53.7574 154.541L51.1675 154.779L48.1774 123.427L50.7443 123.189L67.7372 121.626C68.8136 121.528 69.7613 122.331 69.8625 123.423L70.0511 125.541L70.3317 128.667L70.9803 135.914L71.2609 139.04L72.3144 150.837C72.411 151.933 71.6197 152.899 70.5433 152.997Z" fill="#9F7AF6"/>
<path opacity="0.27" d="M114.88 152.796L77.2503 156.296C76.6661 156.347 76.1371 156.016 75.9071 155.507C75.8427 155.367 75.8013 155.218 75.7875 155.059L74.3292 138.737L74.0486 135.611L73.4 128.364L73.1194 125.238L73.1148 125.182C73.0504 124.43 73.5932 123.768 74.3338 123.698L109.433 120.431L112 120.193L114.935 150.958C114.995 151.583 114.976 152.199 114.88 152.796Z" fill="#9F7AF6"/>
</g>
<path d="M160.881 88.412C160.798 90.0172 160.674 91.6083 160.495 93.1575C160.154 96.1719 159.625 99.0183 158.88 101.459C158.121 103.946 157.137 106.004 155.885 107.375C154.441 108.962 151.354 110.292 147.513 111.398C135.829 114.753 117.184 115.98 116.793 115.723C116.269 115.378 116.195 98.645 116.793 97.8471C117.276 97.2078 132.503 95.0893 139.412 93.3955C139.743 93.3115 140.056 93.2322 140.351 93.1529C141.528 92.8309 142.347 92.5323 142.641 92.2663C143.175 91.7903 143.428 90.3625 143.529 88.482C143.529 88.4587 143.529 88.4307 143.534 88.4073C143.653 86.0322 143.534 82.9432 143.414 80.1108C143.341 78.3563 143.267 76.6951 143.249 75.3652C143.239 74.4367 143.253 73.6714 143.318 73.1395C143.612 70.685 144.247 68.6692 145.107 67.0687C146.616 64.255 148.815 62.7105 151.069 62.3232C151.837 62.1878 152.615 62.1878 153.369 62.3232C155.697 62.7245 157.84 64.353 159.055 67.0687C159.381 67.8013 159.644 68.6132 159.818 69.4998C160.154 71.1843 160.43 73.1815 160.633 75.3652C160.775 76.8678 160.876 78.4636 160.936 80.1108C161.033 82.8032 161.024 85.6263 160.881 88.412Z" fill="#028B6B"/>
<path d="M139.417 93.4003C141.091 92.9897 142.273 92.6024 142.646 92.2711C143.18 91.7952 143.433 90.3673 143.534 88.4868C146.202 89.4014 149.036 90.5726 149.307 91.4732C149.827 93.2184 139.417 93.4003 139.417 93.4003Z" fill="#066D52"/>
<path d="M158.88 101.459C158.121 103.946 157.137 106.004 155.885 107.376C154.441 108.962 151.354 110.292 147.513 111.398C147.867 105.831 152.435 101.426 158.015 101.426C158.31 101.422 158.595 101.436 158.88 101.459Z" fill="#066D52"/>
<path d="M67.475 123.889L6.60581 130.343C4.92215 130.52 3.4133 129.279 3.2339 127.571L1.01662 106.06C0.841819 104.352 2.06546 102.821 3.74911 102.639L64.6183 96.1861C66.302 96.0087 67.8108 97.25 67.9902 98.9578L70.2075 120.469C70.3823 122.177 69.1587 123.707 67.475 123.889Z" fill="#029875"/>
<path opacity="0.74" d="M35.7616 108.244L10.0513 110.969C9.63729 111.011 9.26468 110.707 9.21868 110.283C9.17727 109.863 9.47628 109.485 9.8949 109.438L35.6051 106.713C36.0192 106.671 36.3918 106.974 36.4378 107.399C36.4792 107.819 36.1756 108.197 35.7616 108.244Z" fill="white"/>
<path opacity="0.74" d="M36.3503 113.96L10.6401 116.685C10.2261 116.727 9.85348 116.424 9.80748 115.999C9.76608 115.579 10.0651 115.201 10.4837 115.155L36.1939 112.429C36.608 112.387 36.9806 112.691 37.0266 113.115C37.068 113.54 36.769 113.918 36.3503 113.96Z" fill="white"/>
<path opacity="0.74" d="M26.8004 120.754L11.2289 122.405C10.8149 122.447 10.4423 122.144 10.3963 121.72C10.3549 121.3 10.6539 120.922 11.0725 120.875L26.644 119.223C27.0581 119.181 27.4307 119.484 27.4767 119.909C27.5181 120.329 27.2191 120.707 26.8004 120.754Z" fill="white"/>
<path d="M45.1643 118.803L44.9343 118.826C44.3363 118.892 43.798 118.449 43.7382 117.842L43.2966 113.558C43.2322 112.952 43.6692 112.406 44.2673 112.345L44.4973 112.322C45.0953 112.256 45.6335 112.7 45.6933 113.306L46.1349 117.59C46.1993 118.197 45.7669 118.743 45.1643 118.803Z" fill="#00EDAF"/>
<path d="M52.1933 118.061L52.0783 118.075C51.4481 118.141 50.8823 117.679 50.8179 117.035L49.8426 107.59C49.7782 106.951 50.2337 106.377 50.8685 106.312L50.9835 106.298C51.6137 106.233 52.1795 106.695 52.2439 107.338L53.2192 116.783C53.2836 117.418 52.8281 117.991 52.1933 118.061Z" fill="#00EDAF"/>
<path d="M59.2269 117.315C58.5645 117.385 57.9711 116.895 57.9021 116.223L57.2903 110.287C57.2213 109.615 57.7043 109.013 58.3667 108.943C59.0291 108.873 59.6226 109.363 59.6916 110.035L60.3034 115.971C60.3678 116.643 59.8894 117.245 59.2269 117.315Z" fill="#00EDAF"/>
<path d="M71.2011 168.498L34.0319 172.441C32.5507 172.6 31.2258 171.508 31.074 170.01L27.1869 132.307C27.0305 130.805 28.1069 129.461 29.5836 129.307L66.7528 125.364C68.234 125.205 69.5589 126.297 69.7107 127.795L73.5978 165.498C73.7542 166.996 72.6824 168.34 71.2011 168.498Z" fill="#B1EBE3"/>
<path d="M66.4584 129.223L69.0483 154.336C69.0713 154.556 68.9149 154.752 68.6987 154.775L33.6869 158.489C33.4707 158.513 33.2775 158.354 33.2545 158.135L30.6646 133.021C30.6416 132.802 30.798 132.606 31.0142 132.583L66.026 128.868C66.2422 128.845 66.4354 129.004 66.4584 129.223Z" fill="white"/>
<path d="M65.9984 142.652L67.015 152.507C67.0334 152.703 66.8954 152.881 66.7022 152.899L35.2648 156.236C35.0716 156.254 34.8968 156.114 34.8784 155.918L33.9629 147.015L36.5206 143.814C37.5188 142.564 39.3313 142.372 40.5641 143.385L43.9913 146.203C45.2241 147.216 47.0366 147.025 48.0348 145.774L54.8568 137.24C55.855 135.989 57.6675 135.798 58.9003 136.81L65.9984 142.652Z" fill="#B1EBE3"/>
<path d="M47.4598 161.448L36.1112 162.652C35.5592 162.712 35.0624 162.302 35.0026 161.742C34.9428 161.182 35.3476 160.678 35.8996 160.617L47.2482 159.413C47.8002 159.353 48.297 159.763 48.3568 160.323C48.4166 160.883 48.0118 161.387 47.4598 161.448Z" fill="#029875"/>
<path d="M58.9785 162.614L35.7156 165.083C35.5178 165.106 35.3384 164.957 35.3154 164.756C35.2924 164.556 35.4396 164.374 35.6374 164.35L58.9003 161.882C59.0981 161.858 59.2776 162.008 59.3006 162.208C59.3236 162.409 59.1763 162.591 58.9785 162.614Z" fill="white"/>
<path d="M59.2868 165.601L36.0238 168.069C35.826 168.092 35.6466 167.943 35.6236 167.743C35.6006 167.542 35.7478 167.36 35.9456 167.337L59.2086 164.868C59.4064 164.845 59.5858 164.994 59.6088 165.195C59.6272 165.395 59.4846 165.577 59.2868 165.601Z" fill="white"/>
<path d="M156.442 164.775L80.4934 172.912C79.4768 173.02 78.5613 172.269 78.4555 171.237L74.2188 130.151C74.113 129.12 74.8536 128.191 75.8703 128.084L151.819 119.946C152.835 119.839 153.751 120.59 153.857 121.621L158.093 162.707C158.204 163.739 157.463 164.667 156.442 164.775Z" fill="#B1EBE3"/>
<path d="M106.3 139.498C105.744 140.007 103.848 143.8 102.39 145.331L100.702 145.513L100.527 143.8C101.7 142.041 104.966 139.372 105.343 138.714C105.721 138.056 105.104 137.272 105.688 136.782C106.268 136.292 107.243 137.324 107.243 137.324C107.243 137.324 108.444 138.08 108.09 138.756C107.74 139.433 106.857 138.99 106.3 139.498Z" fill="url(#paint9_linear)"/>
<path d="M89.7075 140.376C90.209 140.94 93.9489 142.863 95.4577 144.342L95.6371 146.054L93.9489 146.232C92.2146 145.042 89.5833 141.729 88.9347 141.346C88.2861 140.964 87.5133 141.589 87.0302 140.996C86.5472 140.408 87.5639 139.419 87.5639 139.419C87.5639 139.419 88.3091 138.201 88.9761 138.56C89.6477 138.91 89.2061 139.806 89.7075 140.376Z" fill="url(#paint10_linear)"/>
<path d="M90.5724 157.206C91.129 156.698 93.0242 152.904 94.4825 151.374L96.1708 151.192L96.3456 152.904C95.1725 154.663 91.9064 157.332 91.5292 157.99C91.152 158.648 91.7684 159.432 91.1842 159.922C90.6046 160.412 89.6293 159.381 89.6293 159.381C89.6293 159.381 88.4287 158.625 88.7829 157.948C89.1325 157.267 90.0157 157.715 90.5724 157.206Z" fill="url(#paint11_linear)"/>
<path d="M107.165 156.329C106.664 155.765 102.924 153.842 101.415 152.363L101.236 150.65L102.924 150.473C104.658 151.663 107.289 154.976 107.938 155.359C108.587 155.741 109.359 155.116 109.842 155.709C110.325 156.297 109.309 157.286 109.309 157.286C109.309 157.286 108.564 158.504 107.897 158.144C107.225 157.79 107.667 156.894 107.165 156.329Z" fill="url(#paint12_linear)"/>
<path d="M97.9556 138.994C97.9234 139.592 98.9492 142.769 98.9768 144.44L98.1396 145.494L97.1046 144.64C96.7918 142.998 97.146 139.676 96.9942 139.097C96.8424 138.518 96.0695 138.43 96.1247 137.828C96.18 137.226 97.2886 137.249 97.2886 137.249C97.2886 137.249 98.3696 136.992 98.5444 137.571C98.7238 138.145 97.9878 138.392 97.9556 138.994Z" fill="url(#paint13_linear)"/>
<path d="M89.2107 148.84C89.7996 148.873 92.9323 147.832 94.5791 147.804L95.6187 148.653L94.7769 149.703C93.1577 150.02 89.8824 149.661 89.3119 149.815C88.7415 149.969 88.6541 150.753 88.0607 150.697C87.4673 150.641 87.4903 149.516 87.4903 149.516C87.4903 149.516 87.2373 148.42 87.8077 148.243C88.3735 148.061 88.6219 148.807 89.2107 148.84Z" fill="url(#paint14_linear)"/>
<path d="M98.917 157.711C98.9492 157.113 97.9234 153.936 97.8958 152.265L98.733 151.211L99.7681 152.065C100.081 153.707 99.7267 157.029 99.8785 157.608C100.03 158.187 100.803 158.275 100.748 158.877C100.693 159.479 99.5841 159.456 99.5841 159.456C99.5841 159.456 98.503 159.713 98.3282 159.134C98.1488 158.56 98.8848 158.308 98.917 157.711Z" fill="url(#paint15_linear)"/>
<path d="M107.662 147.865C107.073 147.832 103.94 148.873 102.294 148.901L101.254 148.051L102.096 147.001C103.715 146.684 106.99 147.043 107.561 146.889C108.131 146.735 108.219 145.952 108.812 146.007C109.405 146.063 109.382 147.188 109.382 147.188C109.382 147.188 109.635 148.285 109.065 148.462C108.499 148.639 108.255 147.893 107.662 147.865Z" fill="url(#paint16_linear)"/>
<path d="M98.4386 156.026C102.618 156.026 106.006 152.589 106.006 148.35C106.006 144.11 102.618 140.674 98.4386 140.674C94.2593 140.674 90.8714 144.11 90.8714 148.35C90.8714 152.589 94.2593 156.026 98.4386 156.026Z" fill="url(#paint17_linear)"/>
<path d="M149.183 155.941L115.367 159.53C114.447 159.628 113.619 158.946 113.523 158.013L111.227 135.732C111.13 134.799 111.802 133.959 112.722 133.861L146.538 130.273C147.458 130.175 148.286 130.856 148.382 131.789L150.678 154.07C150.775 155.008 150.103 155.843 149.183 155.941Z" fill="#83D3C8"/>
<path d="M143.612 137.393L117.032 140.211C116.669 140.249 116.342 139.983 116.301 139.609C116.264 139.241 116.526 138.91 116.894 138.868L143.474 136.049C143.837 136.012 144.164 136.278 144.205 136.651C144.242 137.024 143.975 137.356 143.612 137.393Z" fill="white"/>
<path d="M144.077 141.905L117.497 144.724C117.134 144.761 116.807 144.495 116.766 144.122C116.729 143.753 116.991 143.422 117.359 143.38L143.939 140.562C144.302 140.524 144.629 140.79 144.67 141.164C144.707 141.537 144.44 141.868 144.077 141.905Z" fill="white"/>
<path d="M144.541 146.417L117.962 149.236C117.598 149.273 117.272 149.007 117.23 148.634C117.193 148.265 117.456 147.934 117.824 147.892L144.403 145.074C144.767 145.036 145.093 145.302 145.135 145.676C145.172 146.049 144.909 146.38 144.541 146.417Z" fill="white"/>
<path d="M132.862 152.217L118.431 153.748C118.067 153.785 117.741 153.519 117.699 153.146C117.663 152.777 117.925 152.446 118.293 152.404L132.724 150.874C133.087 150.836 133.414 151.102 133.455 151.476C133.492 151.849 133.225 152.18 132.862 152.217Z" fill="white"/>
<defs>
<linearGradient id="paint0_linear" x1="98.7197" y1="40.1786" x2="96.5259" y2="87.1905" gradientUnits="userSpaceOnUse">
<stop stop-color="#F097F8"/>
<stop offset="1" stop-color="#8F5FF5"/>
</linearGradient>
<linearGradient id="paint1_linear" x1="131.005" y1="66.6491" x2="117.306" y2="27.6098" gradientUnits="userSpaceOnUse">
<stop stop-color="#F7CBCE"/>
<stop offset="1" stop-color="#F08EA3"/>
</linearGradient>
<linearGradient id="paint2_linear" x1="120.271" y1="48.4712" x2="132.901" y2="-14.4687" gradientUnits="userSpaceOnUse">
<stop stop-color="#F7CBCE"/>
<stop offset="1" stop-color="#F08EA3"/>
</linearGradient>
<linearGradient id="paint3_linear" x1="42.0028" y1="105.002" x2="114.97" y2="105.002" gradientUnits="userSpaceOnUse">
<stop stop-color="#029875"/>
<stop offset="1" stop-color="#027675"/>
</linearGradient>
<linearGradient id="paint4_linear" x1="15.7747" y1="-41.2107" x2="138.829" y2="183.85" gradientUnits="userSpaceOnUse">
<stop stop-color="#F4B5BD"/>
<stop offset="1" stop-color="#EC4457"/>
</linearGradient>
<linearGradient id="paint5_linear" x1="85.2836" y1="64.6685" x2="103.086" y2="96.3678" gradientUnits="userSpaceOnUse">
<stop stop-color="#F4B5BD"/>
<stop offset="1" stop-color="#EC4457"/>
</linearGradient>
<linearGradient id="paint6_linear" x1="53.7625" y1="58.9909" x2="81.9272" y2="96.7229" gradientUnits="userSpaceOnUse">
<stop stop-color="#F4B5BD"/>
<stop offset="1" stop-color="#EC4457"/>
</linearGradient>
<linearGradient id="paint7_linear" x1="57.3776" y1="75.6403" x2="20.255" y2="105.97" gradientUnits="userSpaceOnUse">
<stop stop-color="#F7CBCE"/>
<stop offset="1" stop-color="#F08EA3"/>
</linearGradient>
<linearGradient id="paint8_linear" x1="94.8454" y1="106.054" x2="182.695" y2="89.2201" gradientUnits="userSpaceOnUse">
<stop stop-color="#F7CBCE"/>
<stop offset="1" stop-color="#F08EA3"/>
</linearGradient>
<linearGradient id="paint9_linear" x1="108.021" y1="138.055" x2="99.7067" y2="144.147" gradientUnits="userSpaceOnUse">
<stop stop-color="#F4B5BD"/>
<stop offset="1" stop-color="#EC4457"/>
</linearGradient>
<linearGradient id="paint10_linear" x1="88.2871" y1="138.63" x2="94.5177" y2="146.894" gradientUnits="userSpaceOnUse">
<stop stop-color="#F4B5BD"/>
<stop offset="1" stop-color="#EC4457"/>
</linearGradient>
<linearGradient id="paint11_linear" x1="88.853" y1="158.647" x2="97.1674" y2="152.555" gradientUnits="userSpaceOnUse">
<stop stop-color="#F4B5BD"/>
<stop offset="1" stop-color="#EC4457"/>
</linearGradient>
<linearGradient id="paint12_linear" x1="108.587" y1="158.073" x2="102.356" y2="149.808" gradientUnits="userSpaceOnUse">
<stop stop-color="#F4B5BD"/>
<stop offset="1" stop-color="#EC4457"/>
</linearGradient>
<linearGradient id="paint13_linear" x1="98.1224" y1="137.22" x2="96.9138" y2="145.309" gradientUnits="userSpaceOnUse">
<stop stop-color="#F4B5BD"/>
<stop offset="1" stop-color="#EC4457"/>
</linearGradient>
<linearGradient id="paint14_linear" x1="87.4635" y1="148.67" x2="95.4473" y2="149.829" gradientUnits="userSpaceOnUse">
<stop stop-color="#F4B5BD"/>
<stop offset="1" stop-color="#EC4457"/>
</linearGradient>
<linearGradient id="paint15_linear" x1="98.7516" y1="159.482" x2="99.9603" y2="151.394" gradientUnits="userSpaceOnUse">
<stop stop-color="#F4B5BD"/>
<stop offset="1" stop-color="#EC4457"/>
</linearGradient>
<linearGradient id="paint16_linear" x1="109.41" y1="148.032" x2="101.427" y2="146.872" gradientUnits="userSpaceOnUse">
<stop stop-color="#F4B5BD"/>
<stop offset="1" stop-color="#EC4457"/>
</linearGradient>
<linearGradient id="paint17_linear" x1="111.093" y1="120.415" x2="82.0411" y2="182.74" gradientUnits="userSpaceOnUse">
<stop stop-color="#F4B5BD"/>
<stop offset="1" stop-color="#EC4457"/>
</linearGradient>
</defs>
</svg>
