<svg width="180" height="180" viewBox="0 0 180 180" fill="none" xmlns="http://www.w3.org/2000/svg">
<g clip-path="url(#clip0)">
<circle cx="90" cy="90" r="90" fill="#E5FDFA"/>
<path d="M138.39 38.0904C138.367 62.104 138.181 144.934 136.725 174.257C136.571 177.363 134.357 179.811 131.663 179.854C118.339 180.066 69.5043 180.274 47.752 178.743C43.2213 178.425 39.7095 174.104 39.7328 168.861C39.8454 143.657 40.4362 72.775 43.5374 40.3657C43.9093 36.4824 46.6222 33.4432 49.9946 33.1278C64.5306 31.7696 113.638 28.7467 132.42 30.568C135.807 30.8963 138.394 34.1633 138.39 38.0904Z" fill="#026048"/>
<path d="M132.284 45.3244C132.566 64.7139 133.381 129.214 132.129 153.032C131.946 156.513 129.505 159.278 126.487 159.415C114.061 159.983 71.6895 160.906 53.5285 158.826C50.2584 158.452 47.7554 155.335 47.6639 151.54C47.1851 131.755 45.8835 71.684 47.0998 48.1335C47.2937 44.3765 49.8849 41.3614 53.1368 41.096C66.5907 39.9976 111.646 37.6695 127.088 38.9817C129.987 39.2281 132.236 41.9676 132.284 45.3244Z" fill="#92E8D1"/>
<path d="M126.765 48.4534C127.015 65.6237 127.737 122.741 126.628 143.833C126.466 146.916 124.304 149.364 121.632 149.486C110.628 149.988 73.1059 150.806 57.0238 148.964C54.1279 148.632 51.9114 145.872 51.8301 142.512C51.4059 124.992 50.2533 71.7957 51.3303 50.9408C51.502 47.6137 53.7964 44.9439 56.6764 44.7087C68.5905 43.7361 108.489 41.6746 122.164 42.8364C124.731 43.0547 126.723 45.4804 126.765 48.4534Z" fill="white"/>
<path opacity="0.5" d="M105.559 34.1767C105.543 34.9131 105.032 35.5097 104.394 35.5344C101.245 35.6556 92.3756 36.0002 88.4106 36.1787C87.6288 36.2141 87.0346 35.3907 87.2023 34.5073L87.2313 34.3563C87.3462 33.7536 87.7909 33.3079 88.3231 33.263C91.0052 33.0385 99.0977 32.4296 104.443 32.7669C105.084 32.8084 105.576 33.4342 105.559 34.1767Z" fill="white"/>
<path d="M89.557 77.5362L88.8218 77.4705C88.5784 77.4486 88.3988 77.2359 88.4209 76.9957C88.4431 76.7555 88.6586 76.5781 88.902 76.6L89.6372 76.6657C89.8806 76.6876 90.0602 76.9003 90.0381 77.1405C90.0159 77.3807 89.801 77.558 89.557 77.5362ZM86.6167 77.2729L85.8815 77.2073C85.6381 77.1854 85.4585 76.9727 85.4806 76.7325C85.5028 76.4922 85.7183 76.3149 85.9617 76.3368L86.6969 76.4024C86.9403 76.4243 87.12 76.637 87.0978 76.8772C87.0756 77.1175 86.8607 77.2948 86.6167 77.2729ZM83.6764 77.0097L82.9412 76.944C82.6978 76.9221 82.5182 76.7094 82.5403 76.4692C82.5625 76.229 82.778 76.0517 83.0214 76.0735L83.7566 76.1392C84 76.1611 84.1797 76.3738 84.1575 76.614C84.1353 76.8542 83.9204 77.0316 83.6764 77.0097ZM80.7361 76.7465L80.0009 76.6808C79.7576 76.6589 79.5779 76.4462 79.6 76.206C79.6222 75.9658 79.8377 75.7884 80.0811 75.8103L80.8163 75.876C81.0597 75.8979 81.2394 76.1106 81.2172 76.3508C81.1956 76.591 80.9801 76.7684 80.7361 76.7465ZM77.7964 76.4833L77.0612 76.4176C76.8178 76.3957 76.6381 76.183 76.6603 75.9428C76.6825 75.7026 76.898 75.5252 77.1414 75.5471L77.8766 75.6128C78.1199 75.6346 78.2996 75.8474 78.2775 76.0876C78.2553 76.3278 78.0398 76.5051 77.7964 76.4833ZM74.8561 76.22L74.1209 76.1544C73.8775 76.1325 73.6978 75.9198 73.72 75.6795C73.7422 75.4393 73.9577 75.262 74.2011 75.2839L74.9363 75.3495C75.1797 75.3714 75.3593 75.5841 75.3372 75.8243C75.315 76.0646 75.0995 76.2419 74.8561 76.22ZM71.9158 75.9574L71.1806 75.8917C70.9372 75.8698 70.7575 75.6571 70.7797 75.4169C70.8019 75.1767 71.0174 74.9993 71.2608 75.0212L71.996 75.0869C72.2393 75.1088 72.419 75.3215 72.3969 75.5617C72.3747 75.8019 72.1592 75.9787 71.9158 75.9574ZM68.9755 75.6941L68.2403 75.6285C67.9969 75.6066 67.8172 75.3939 67.8394 75.1537C67.8616 74.9134 68.0771 74.7361 68.3205 74.758L69.0557 74.8236C69.2991 74.8455 69.4787 75.0582 69.4566 75.2985C69.4344 75.5387 69.2189 75.716 68.9755 75.6941ZM66.0352 75.4309L65.7748 75.4073C65.6633 75.3972 65.5587 75.3557 65.4837 75.2732L65.1658 74.9275C65.0026 74.7473 65.018 74.4734 65.2005 74.3129C65.383 74.1518 65.6633 74.1586 65.8265 74.3387L66.0284 74.5526L66.1154 74.5604C66.3588 74.5823 66.5384 74.795 66.5163 75.0352C66.4941 75.2754 66.2786 75.4528 66.0352 75.4309ZM63.9785 73.4475C63.8711 73.4379 63.7664 73.3896 63.6885 73.3038L63.1967 72.7611C63.0335 72.5809 63.0489 72.3048 63.2314 72.1437C63.4139 71.9826 63.6937 71.9978 63.8569 72.1779L64.3487 72.7206C64.5119 72.9008 64.4965 73.1769 64.314 73.338C64.2185 73.4222 64.0968 73.4581 63.9785 73.4475ZM62.01 71.276C61.9025 71.2664 61.7979 71.2182 61.72 71.1323L61.2282 70.5896C61.065 70.4094 61.0803 70.1333 61.2628 69.9722C61.4454 69.8111 61.7251 69.8263 61.8883 70.0064L62.3807 70.5492C62.5439 70.7293 62.5286 71.0055 62.3461 71.1665C62.25 71.2507 62.1283 71.2866 62.01 71.276ZM60.0415 69.1039C59.934 69.0944 59.8294 69.0461 59.7515 68.9603L59.2596 68.4175C59.0964 68.2374 59.1118 67.9612 59.2943 67.8002C59.4768 67.6391 59.7566 67.6542 59.9198 67.8344L60.4116 68.3771C60.5748 68.5573 60.5595 68.8334 60.3769 68.9945C60.2814 69.0787 60.1597 69.1146 60.0415 69.1039ZM58.0729 66.9325C57.9655 66.9229 57.8608 66.8747 57.7829 66.7888L57.2911 66.2461C57.1279 66.0659 57.1432 65.7898 57.3258 65.6287C57.5083 65.4676 57.7881 65.4833 57.9512 65.6629L58.4437 66.2057C58.6069 66.3858 58.5915 66.662 58.409 66.823C58.3129 66.9072 58.1912 66.9431 58.0729 66.9325ZM56.1044 64.761C55.9969 64.7515 55.8923 64.7032 55.8144 64.6173L55.3225 64.0746C55.1594 63.8944 55.1747 63.6183 55.3572 63.4572C55.5398 63.2961 55.8195 63.3113 55.9827 63.4915L56.4746 64.0342C56.6377 64.2143 56.6224 64.4905 56.4399 64.6516C56.3443 64.7352 56.2227 64.7711 56.1044 64.761Z" fill="#029875"/>
<path d="M145.534 152.996H144.796C144.552 152.996 144.353 152.801 144.353 152.559C144.353 152.318 144.552 152.122 144.796 152.122H145.534C145.779 152.122 145.977 152.318 145.977 152.559C145.977 152.801 145.779 152.996 145.534 152.996ZM142.582 152.996H141.844C141.599 152.996 141.401 152.801 141.401 152.559C141.401 152.318 141.599 152.122 141.844 152.122H142.582C142.826 152.122 143.025 152.318 143.025 152.559C143.025 152.801 142.826 152.996 142.582 152.996ZM139.63 152.996H138.892C138.647 152.996 138.449 152.801 138.449 152.559C138.449 152.318 138.647 152.122 138.892 152.122H139.63C139.874 152.122 140.073 152.318 140.073 152.559C140.073 152.801 139.874 152.996 139.63 152.996ZM136.677 152.996H135.939C135.695 152.996 135.496 152.801 135.496 152.559C135.496 152.318 135.695 152.122 135.939 152.122H136.677C136.922 152.122 137.12 152.318 137.12 152.559C137.12 152.801 136.922 152.996 136.677 152.996ZM133.725 152.996H132.987C132.743 152.996 132.544 152.801 132.544 152.559C132.544 152.318 132.743 152.122 132.987 152.122H133.725C133.97 152.122 134.168 152.318 134.168 152.559C134.168 152.801 133.97 152.996 133.725 152.996ZM130.773 152.996H130.035C129.79 152.996 129.592 152.801 129.592 152.559C129.592 152.318 129.79 152.122 130.035 152.122H130.773C131.017 152.122 131.216 152.318 131.216 152.559C131.216 152.801 131.017 152.996 130.773 152.996ZM127.82 152.996H127.082C126.838 152.996 126.639 152.801 126.639 152.559C126.639 152.318 126.838 152.122 127.082 152.122H127.82C128.065 152.122 128.263 152.318 128.263 152.559C128.263 152.801 128.065 152.996 127.82 152.996ZM124.868 152.996H124.13C123.885 152.996 123.687 152.801 123.687 152.559C123.687 152.318 123.885 152.122 124.13 152.122H124.868C125.112 152.122 125.311 152.318 125.311 152.559C125.311 152.801 125.112 152.996 124.868 152.996ZM121.916 152.996H121.654C121.542 152.996 121.434 152.964 121.352 152.889L121.004 152.573C120.825 152.408 120.815 152.134 120.982 151.958C121.149 151.781 121.429 151.763 121.608 151.928L121.829 152.123H121.916C122.16 152.123 122.359 152.318 122.359 152.56C122.359 152.801 122.16 152.996 121.916 152.996ZM119.686 151.205C119.578 151.205 119.469 151.166 119.384 151.088L118.845 150.591C118.665 150.426 118.656 150.15 118.823 149.973C118.99 149.796 119.27 149.787 119.449 149.951L119.989 150.448C120.168 150.612 120.177 150.889 120.01 151.066C119.923 151.158 119.805 151.205 119.686 151.205ZM117.527 149.218C117.419 149.218 117.31 149.179 117.225 149.1L116.686 148.604C116.506 148.439 116.497 148.162 116.664 147.986C116.831 147.809 117.111 147.799 117.29 147.964L117.83 148.46C118.009 148.625 118.018 148.902 117.851 149.078C117.764 149.171 117.645 149.218 117.527 149.218ZM115.368 147.23C115.26 147.23 115.151 147.191 115.066 147.113L114.527 146.616C114.347 146.452 114.338 146.175 114.504 145.998C114.671 145.821 114.951 145.812 115.13 145.976L115.67 146.473C115.849 146.637 115.859 146.914 115.692 147.091C115.605 147.183 115.486 147.23 115.368 147.23ZM113.208 145.243C113.1 145.243 112.992 145.204 112.907 145.125L112.367 144.629C112.188 144.464 112.178 144.188 112.345 144.011C112.512 143.834 112.792 143.825 112.971 143.989L113.511 144.486C113.69 144.65 113.7 144.927 113.533 145.104C113.446 145.196 113.327 145.243 113.208 145.243ZM111.049 143.255C110.941 143.255 110.833 143.217 110.748 143.138L110.208 142.641C110.029 142.477 110.019 142.2 110.186 142.023C110.353 141.847 110.633 141.837 110.812 142.002L111.352 142.498C111.531 142.663 111.541 142.939 111.374 143.116C111.286 143.209 111.168 143.255 111.049 143.255Z" fill="#029875"/>
<path d="M151.477 118.744C151.47 118.744 151.464 118.744 151.458 118.744L150.72 118.713C150.476 118.703 150.287 118.5 150.296 118.258C150.306 118.017 150.508 117.827 150.757 117.84L151.495 117.87C151.739 117.88 151.929 118.084 151.919 118.325C151.909 118.561 151.713 118.744 151.477 118.744ZM148.527 118.622C148.521 118.622 148.515 118.622 148.509 118.622L147.771 118.592C147.527 118.582 147.337 118.378 147.347 118.136C147.357 117.895 147.563 117.707 147.808 117.718L148.545 117.748C148.79 117.758 148.979 117.962 148.97 118.203C148.959 118.439 148.763 118.622 148.527 118.622ZM145.577 118.501C145.571 118.501 145.565 118.501 145.559 118.501L144.821 118.47C144.577 118.46 144.387 118.257 144.397 118.015C144.407 117.774 144.614 117.586 144.858 117.597L145.596 117.627C145.84 117.637 146.029 117.841 146.02 118.081C146.009 118.317 145.813 118.501 145.577 118.501ZM142.627 118.379C142.621 118.379 142.615 118.379 142.609 118.379L141.871 118.349C141.627 118.338 141.437 118.135 141.447 117.893C141.457 117.652 141.66 117.466 141.908 117.475L142.646 117.505C142.89 117.515 143.079 117.719 143.07 117.96C143.06 118.195 142.863 118.379 142.627 118.379ZM139.678 118.258C139.672 118.258 139.665 118.258 139.659 118.257L138.922 118.227C138.677 118.217 138.488 118.013 138.498 117.772C138.508 117.53 138.714 117.345 138.959 117.353L139.696 117.383C139.941 117.393 140.13 117.597 140.12 117.838C140.11 118.074 139.914 118.258 139.678 118.258ZM136.728 118.136C136.722 118.136 136.715 118.136 136.709 118.135L135.972 118.105C135.727 118.095 135.537 117.891 135.548 117.65C135.558 117.408 135.764 117.223 136.009 117.231L136.746 117.261C136.991 117.272 137.18 117.475 137.17 117.717C137.16 117.952 136.964 118.136 136.728 118.136ZM133.778 118.015C133.772 118.015 133.766 118.015 133.759 118.014L133.022 117.984C132.777 117.974 132.588 117.77 132.598 117.529C132.608 117.287 132.809 117.102 133.059 117.11L133.796 117.14C134.041 117.15 134.23 117.354 134.22 117.595C134.211 117.831 134.015 118.015 133.778 118.015ZM130.829 117.893C130.822 117.893 130.816 117.893 130.81 117.892L130.072 117.862C129.828 117.852 129.638 117.648 129.648 117.407C129.658 117.165 129.86 116.98 130.109 116.988L130.847 117.018C131.091 117.029 131.281 117.232 131.271 117.474C131.261 117.709 131.065 117.893 130.829 117.893ZM127.879 117.771C127.873 117.771 127.867 117.771 127.86 117.77L127.123 117.74C126.878 117.73 126.689 117.526 126.699 117.285C126.709 117.044 126.915 116.858 127.16 116.866L127.897 116.897C128.142 116.907 128.331 117.11 128.322 117.352C128.311 117.587 128.115 117.771 127.879 117.771ZM124.929 117.649C124.923 117.649 124.917 117.649 124.911 117.649L124.173 117.618C123.929 117.608 123.739 117.405 123.749 117.163C123.759 116.922 123.967 116.737 124.21 116.745L124.947 116.775C125.192 116.785 125.381 116.989 125.372 117.23C125.361 117.466 125.165 117.649 124.929 117.649ZM122.003 117.455C121.917 117.455 121.83 117.43 121.754 117.379L121.145 116.967C120.943 116.83 120.892 116.558 121.03 116.359C121.168 116.16 121.444 116.109 121.646 116.246L122.255 116.658C122.456 116.794 122.508 117.066 122.369 117.265C122.283 117.389 122.144 117.455 122.003 117.455ZM119.568 115.808C119.481 115.808 119.394 115.784 119.318 115.732L118.709 115.32C118.507 115.184 118.456 114.911 118.594 114.712C118.733 114.513 119.008 114.462 119.21 114.599L119.819 115.011C120.021 115.147 120.072 115.419 119.934 115.619C119.848 115.742 119.709 115.808 119.568 115.808ZM117.132 114.161C117.045 114.161 116.958 114.136 116.882 114.085L116.273 113.673C116.071 113.536 116.02 113.264 116.158 113.065C116.297 112.866 116.572 112.815 116.774 112.952L117.383 113.364C117.585 113.5 117.636 113.772 117.498 113.971C117.412 114.095 117.273 114.161 117.132 114.161ZM114.697 112.514C114.61 112.514 114.523 112.49 114.447 112.438L113.838 112.026C113.636 111.89 113.585 111.618 113.723 111.418C113.861 111.219 114.137 111.168 114.339 111.305L114.948 111.717C115.15 111.853 115.201 112.125 115.063 112.325C114.976 112.448 114.838 112.514 114.697 112.514ZM112.261 110.867C112.175 110.867 112.088 110.842 112.012 110.791L111.403 110.379C111.201 110.242 111.15 109.97 111.288 109.771C111.426 109.572 111.702 109.521 111.903 109.658L112.512 110.07C112.714 110.206 112.766 110.478 112.627 110.677C112.541 110.801 112.402 110.867 112.261 110.867ZM109.825 109.22C109.739 109.22 109.652 109.196 109.576 109.144L108.967 108.732C108.765 108.596 108.714 108.324 108.852 108.124C108.99 107.925 109.266 107.875 109.468 108.011L110.077 108.423C110.278 108.559 110.33 108.831 110.191 109.031C110.105 109.154 109.966 109.22 109.825 109.22ZM107.39 107.574C107.303 107.574 107.216 107.549 107.14 107.497L106.531 107.085C106.329 106.948 106.278 106.676 106.416 106.477C106.554 106.278 106.83 106.227 107.032 106.364L107.641 106.776C107.842 106.912 107.894 107.184 107.755 107.383C107.67 107.507 107.531 107.574 107.39 107.574ZM104.954 105.926C104.867 105.926 104.78 105.902 104.704 105.85L104.095 105.438C103.893 105.302 103.842 105.03 103.98 104.83C104.119 104.632 104.394 104.581 104.596 104.717L105.205 105.129C105.407 105.265 105.458 105.538 105.32 105.737C105.234 105.86 105.095 105.926 104.954 105.926ZM102.519 104.28C102.432 104.28 102.345 104.255 102.269 104.203L101.66 103.791C101.458 103.655 101.407 103.383 101.545 103.184C101.683 102.984 101.959 102.933 102.161 103.07L102.77 103.482C102.972 103.619 103.023 103.891 102.885 104.09C102.798 104.213 102.66 104.28 102.519 104.28ZM100.083 102.632C99.9967 102.632 99.9097 102.608 99.8335 102.556L99.2245 102.144C99.0227 102.008 98.9715 101.736 99.1097 101.536C99.2479 101.337 99.5236 101.287 99.7255 101.423L100.334 101.835C100.536 101.971 100.588 102.244 100.449 102.443C100.363 102.566 100.224 102.632 100.083 102.632ZM97.6472 100.986C97.5608 100.986 97.4738 100.961 97.3976 100.909L96.7886 100.497C96.5868 100.361 96.5356 100.089 96.6737 99.8897C96.8119 99.6904 97.0877 99.6399 97.2896 99.7763L97.8985 100.188C98.1004 100.325 98.1516 100.597 98.0134 100.796C97.9275 100.92 97.7888 100.986 97.6472 100.986ZM95.2118 99.3391C95.1254 99.3391 95.0384 99.3144 94.9622 99.2627L94.3532 98.8508C94.1514 98.7144 94.1002 98.4422 94.2384 98.243C94.3766 98.0437 94.6523 97.9932 94.8542 98.1296L95.4632 98.5415C95.665 98.6779 95.7162 98.9501 95.578 99.1494C95.4916 99.2723 95.3529 99.3391 95.2118 99.3391Z" fill="#029875"/>
<path d="M107.297 74.4295C107.165 74.4295 107.034 74.3717 106.947 74.2605C106.797 74.0697 106.832 73.7952 107.025 73.6471L107.608 73.2003C107.801 73.0522 108.079 73.087 108.229 73.2772C108.379 73.468 108.344 73.7425 108.151 73.8907L107.568 74.3374C107.488 74.3997 107.392 74.4295 107.297 74.4295ZM109.628 72.6419C109.497 72.6419 109.366 72.5841 109.278 72.4729C109.128 72.2821 109.163 72.0077 109.356 71.8595L109.939 71.4127C110.132 71.2646 110.41 71.2994 110.56 71.4896C110.711 71.6805 110.675 71.9549 110.483 72.1031L109.9 72.5498C109.82 72.6116 109.723 72.6419 109.628 72.6419ZM111.96 70.8537C111.828 70.8537 111.697 70.7959 111.61 70.6848C111.459 70.494 111.495 70.2195 111.687 70.0714L112.27 69.6246C112.463 69.4764 112.742 69.5112 112.892 69.7015C113.042 69.8923 113.007 70.1668 112.814 70.3149L112.231 70.7617C112.151 70.824 112.055 70.8537 111.96 70.8537ZM114.291 69.0662C114.159 69.0662 114.028 69.0084 113.941 68.8972C113.791 68.7064 113.826 68.432 114.019 68.2838L114.602 67.837C114.794 67.6889 115.073 67.7237 115.223 67.9139C115.373 68.1047 115.338 68.3792 115.145 68.5274L114.562 68.9741C114.482 69.0359 114.386 69.0662 114.291 69.0662ZM116.623 67.278C116.491 67.278 116.36 67.2202 116.273 67.1091C116.123 66.9183 116.158 66.6438 116.351 66.4956L116.933 66.0489C117.126 65.9007 117.405 65.9355 117.555 66.1258C117.705 66.3166 117.67 66.5911 117.477 66.7392L116.894 67.186C116.813 67.2483 116.717 67.278 116.623 67.278ZM118.954 65.4904C118.822 65.4904 118.692 65.4326 118.604 65.3215C118.454 65.1307 118.489 64.8562 118.682 64.7081L119.265 64.2613C119.458 64.1131 119.736 64.1479 119.886 64.3382C120.036 64.529 120.001 64.8035 119.808 64.9516L119.226 65.3984C119.145 65.4601 119.049 65.4904 118.954 65.4904ZM157.824 64.7558H157.086C156.841 64.7558 156.643 64.5599 156.643 64.3186C156.643 64.0772 156.841 63.8813 157.086 63.8813H157.824C158.068 63.8813 158.267 64.0772 158.267 64.3186C158.267 64.5599 158.068 64.7558 157.824 64.7558ZM154.871 64.7558H154.133C153.889 64.7558 153.69 64.5599 153.69 64.3186C153.69 64.0772 153.889 63.8813 154.133 63.8813H154.871C155.116 63.8813 155.314 64.0772 155.314 64.3186C155.314 64.5599 155.116 64.7558 154.871 64.7558ZM151.919 64.7558H151.18C150.936 64.7558 150.738 64.5599 150.738 64.3186C150.738 64.0772 150.936 63.8813 151.18 63.8813H151.919C152.163 63.8813 152.361 64.0772 152.361 64.3186C152.361 64.5599 152.164 64.7558 151.919 64.7558ZM148.966 64.7558H148.228C147.984 64.7558 147.785 64.5599 147.785 64.3186C147.785 64.0772 147.984 63.8813 148.228 63.8813H148.966C149.211 63.8813 149.409 64.0772 149.409 64.3186C149.409 64.5599 149.211 64.7558 148.966 64.7558ZM146.014 64.7558H145.276C145.031 64.7558 144.833 64.5599 144.833 64.3186C144.833 64.0772 145.031 63.8813 145.276 63.8813H146.014C146.259 63.8813 146.457 64.0772 146.457 64.3186C146.457 64.5599 146.259 64.7558 146.014 64.7558ZM143.062 64.7558H142.324C142.079 64.7558 141.881 64.5599 141.881 64.3186C141.881 64.0772 142.079 63.8813 142.324 63.8813H143.062C143.306 63.8813 143.505 64.0772 143.505 64.3186C143.505 64.5599 143.306 64.7558 143.062 64.7558ZM140.11 64.7558H139.372C139.127 64.7558 138.929 64.5599 138.929 64.3186C138.929 64.0772 139.127 63.8813 139.372 63.8813H140.11C140.354 63.8813 140.553 64.0772 140.553 64.3186C140.553 64.5599 140.354 64.7558 140.11 64.7558ZM137.157 64.7558H136.419C136.175 64.7558 135.976 64.5599 135.976 64.3186C135.976 64.0772 136.175 63.8813 136.419 63.8813H137.157C137.402 63.8813 137.6 64.0772 137.6 64.3186C137.6 64.5599 137.402 64.7558 137.157 64.7558ZM134.205 64.7558H133.467C133.223 64.7558 133.024 64.5599 133.024 64.3186C133.024 64.0772 133.223 63.8813 133.467 63.8813H134.205C134.45 63.8813 134.648 64.0772 134.648 64.3186C134.648 64.5599 134.45 64.7558 134.205 64.7558ZM131.253 64.7558H130.515C130.27 64.7558 130.072 64.5599 130.072 64.3186C130.072 64.0772 130.27 63.8813 130.515 63.8813H131.253C131.497 63.8813 131.696 64.0772 131.696 64.3186C131.696 64.5599 131.497 64.7558 131.253 64.7558ZM128.301 64.7558H127.563C127.318 64.7558 127.12 64.5599 127.12 64.3186C127.12 64.0772 127.318 63.8813 127.563 63.8813H128.301C128.545 63.8813 128.744 64.0772 128.744 64.3186C128.743 64.5599 128.545 64.7558 128.301 64.7558ZM125.348 64.7558H124.61C124.365 64.7558 124.167 64.5599 124.167 64.3186C124.167 64.0772 124.365 63.8813 124.61 63.8813H125.348C125.592 63.8813 125.791 64.0772 125.791 64.3186C125.791 64.5599 125.593 64.7558 125.348 64.7558ZM122.396 64.7558H121.657C121.413 64.7558 121.215 64.5599 121.215 64.3186C121.215 64.0772 121.413 63.8813 121.657 63.8813H122.396C122.64 63.8813 122.839 64.0772 122.839 64.3186C122.839 64.5599 122.64 64.7558 122.396 64.7558Z" fill="#029875"/>
<path d="M79.0245 141.725L78.328 141.966C78.0971 142.045 77.8447 141.925 77.7639 141.697C77.6832 141.469 77.8049 141.22 78.0357 141.141L78.7323 140.9C78.9631 140.821 79.2156 140.941 79.2963 141.169C79.3776 141.397 79.2554 141.646 79.0245 141.725ZM76.2378 142.687L75.5412 142.927C75.3103 143.007 75.0579 142.887 74.9771 142.659C74.8964 142.431 75.0181 142.182 75.2489 142.102L75.9455 141.862C76.1764 141.782 76.4288 141.902 76.5096 142.13C76.5903 142.358 76.4686 142.607 76.2378 142.687ZM73.4504 143.648L72.7539 143.888C72.523 143.968 72.2705 143.847 72.1898 143.62C72.1091 143.392 72.2307 143.143 72.4616 143.063L73.1582 142.823C73.389 142.743 73.6415 142.863 73.7222 143.091C73.803 143.319 73.6813 143.568 73.4504 143.648ZM70.6636 144.609L69.9671 144.849C69.7362 144.929 69.4838 144.809 69.403 144.581C69.3223 144.353 69.444 144.104 69.6748 144.024L70.3714 143.784C70.6022 143.704 70.8547 143.824 70.9354 144.052C71.0162 144.28 70.8945 144.529 70.6636 144.609ZM67.8763 145.57L67.1798 145.81C66.9489 145.89 66.6964 145.77 66.6157 145.542C66.5349 145.314 66.6566 145.065 66.8875 144.985L67.584 144.745C67.8149 144.665 68.0674 144.785 68.1481 145.013C68.2288 145.241 68.1072 145.49 67.8763 145.57ZM65.0895 146.531L64.393 146.772C64.1621 146.851 63.9097 146.731 63.8289 146.503C63.7482 146.275 63.8699 146.026 64.1007 145.947L64.7973 145.706C65.0281 145.627 65.2806 145.747 65.3613 145.975C65.4421 146.202 65.3204 146.452 65.0895 146.531ZM62.3022 147.492L61.6056 147.732C61.3748 147.812 61.1223 147.692 61.0416 147.464C60.9608 147.236 61.0825 146.987 61.3134 146.907L62.0099 146.667C62.2408 146.588 62.4932 146.708 62.574 146.935C62.6547 147.163 62.533 147.413 62.3022 147.492ZM59.5149 148.454L58.8183 148.694C58.5874 148.774 58.335 148.653 58.2542 148.426C58.1735 148.198 58.2952 147.949 58.526 147.869L59.2226 147.629C59.4534 147.549 59.7059 147.669 59.7866 147.897C59.8674 148.125 59.7457 148.374 59.5149 148.454ZM56.7281 149.415L56.0315 149.655C55.8007 149.734 55.5482 149.614 55.4675 149.386C55.3867 149.159 55.5084 148.909 55.7393 148.83L56.4358 148.589C56.6667 148.51 56.9191 148.63 56.9999 148.858C57.0806 149.086 56.9589 149.335 56.7281 149.415ZM53.9407 150.376L53.2442 150.616C53.0133 150.696 52.7609 150.576 52.6801 150.348C52.5994 150.12 52.7211 149.871 52.9519 149.791L53.6485 149.551C53.8793 149.471 54.1318 149.591 54.2125 149.819C54.2933 150.047 54.1716 150.296 53.9407 150.376ZM51.154 151.337L50.4574 151.577C50.2266 151.657 49.9741 151.537 49.8934 151.309C49.8126 151.081 49.9343 150.832 50.1651 150.752L50.8617 150.512C51.0926 150.432 51.345 150.552 51.4258 150.78C51.5065 151.008 51.3848 151.258 51.154 151.337ZM48.3666 152.298L47.6701 152.538C47.4392 152.618 47.1868 152.498 47.106 152.27C47.0253 152.042 47.147 151.793 47.3778 151.713L48.0744 151.473C48.3052 151.393 48.5577 151.514 48.6384 151.741C48.7192 151.969 48.5975 152.219 48.3666 152.298ZM45.5799 153.26L44.8833 153.5C44.6524 153.58 44.4 153.459 44.3192 153.232C44.2385 153.004 44.3602 152.755 44.591 152.675L45.2876 152.435C45.5184 152.355 45.7709 152.475 45.8517 152.703C45.9324 152.931 45.8107 153.18 45.5799 153.26ZM42.7971 153.956C42.7072 153.986 42.6071 153.989 42.5099 153.957L41.8105 153.725C41.5785 153.648 41.454 153.4 41.5319 153.172C41.6098 152.943 41.8611 152.82 42.0926 152.897L42.7919 153.129C43.0239 153.206 43.1485 153.454 43.0706 153.682C43.0256 153.815 42.9216 153.912 42.7971 153.956ZM39.9989 153.027C39.9091 153.058 39.809 153.06 39.7118 153.028L39.0124 152.796C38.7804 152.719 38.6559 152.471 38.7338 152.243C38.8117 152.014 39.063 151.891 39.2944 151.968L39.9938 152.2C40.2258 152.277 40.3503 152.525 40.2724 152.753C40.2275 152.886 40.1234 152.984 39.9989 153.027ZM37.2002 152.098C37.1104 152.129 37.0103 152.132 36.9131 152.1L36.2137 151.867C35.9817 151.79 35.8571 151.542 35.935 151.314C36.0129 151.085 36.2643 150.962 36.4957 151.039L37.1951 151.271C37.4271 151.348 37.5516 151.596 37.4737 151.825C37.4288 151.958 37.3253 152.055 37.2002 152.098ZM34.4021 151.169C34.3122 151.2 34.2121 151.203 34.1149 151.171L33.4155 150.938C33.1835 150.861 33.059 150.613 33.1369 150.385C33.2148 150.156 33.4661 150.033 33.6975 150.11L34.3969 150.342C34.6289 150.419 34.7535 150.667 34.6756 150.896C34.6306 151.029 34.5266 151.126 34.4021 151.169ZM31.6039 150.24C31.5141 150.271 31.414 150.274 31.3168 150.242L30.6174 150.009C30.3854 149.933 30.2609 149.684 30.3388 149.456C30.4167 149.227 30.668 149.104 30.8994 149.181L31.5988 149.413C31.8308 149.49 31.9553 149.738 31.8774 149.967C31.8325 150.1 31.7284 150.197 31.6039 150.24ZM28.8058 149.311C28.7159 149.342 28.6159 149.345 28.5186 149.313L27.8192 149.081C27.5872 149.004 27.4627 148.756 27.5406 148.527C27.6185 148.298 27.8698 148.175 28.1018 148.252L28.8012 148.484C29.0332 148.561 29.1577 148.809 29.0798 149.038C29.0338 149.171 28.9303 149.269 28.8058 149.311Z" fill="#029875"/>
<path d="M76.8496 106.177C76.7752 106.177 76.7001 106.154 76.6336 106.106L76.0826 105.707C75.9001 105.574 75.8489 105.303 75.9689 105.102C76.0883 104.9 76.3333 104.844 76.5159 104.976L77.0669 105.375C77.2494 105.507 77.3006 105.778 77.1806 105.98C77.1049 106.108 76.9787 106.177 76.8496 106.177ZM74.6468 104.58C74.5723 104.58 74.4973 104.557 74.4308 104.509L73.8798 104.11C73.6973 103.978 73.6461 103.707 73.7661 103.505C73.8855 103.303 74.1305 103.247 74.3131 103.379L74.864 103.778C75.0466 103.91 75.0977 104.181 74.9778 104.383C74.9016 104.511 74.7753 104.58 74.6468 104.58ZM72.4435 102.983C72.369 102.983 72.2939 102.96 72.2274 102.912L71.6764 102.513C71.4939 102.38 71.4427 102.109 71.5627 101.908C71.6821 101.706 71.9272 101.65 72.1097 101.781L72.6607 102.18C72.8432 102.313 72.8944 102.583 72.7744 102.786C72.6988 102.913 72.5725 102.983 72.4435 102.983ZM70.2407 101.386C70.1662 101.386 70.0911 101.363 70.0246 101.314L69.4736 100.915C69.2911 100.783 69.2399 100.512 69.3599 100.31C69.4793 100.108 69.7243 100.052 69.9069 100.184L70.4579 100.583C70.6404 100.716 70.6916 100.986 70.5716 101.188C70.4954 101.316 70.3692 101.386 70.2407 101.386ZM68.0373 99.789C67.9628 99.789 67.8877 99.766 67.8212 99.7177L67.2702 99.3187C67.0877 99.1862 67.0365 98.9157 67.1565 98.7136C67.2759 98.5116 67.521 98.4555 67.7035 98.5874L68.2545 98.9864C68.437 99.1189 68.4882 99.3894 68.3682 99.5914C68.292 99.7194 68.1658 99.789 68.0373 99.789ZM65.8339 98.1917C65.7594 98.1917 65.6844 98.1687 65.6178 98.1204L65.0668 97.7214C64.8843 97.5889 64.8331 97.3178 64.9531 97.1163C65.0725 96.9148 65.3176 96.8581 65.5001 96.99L66.0511 97.3891C66.2336 97.5215 66.2848 97.7926 66.1648 97.9941C66.0892 98.1221 65.963 98.1917 65.8339 98.1917ZM63.4162 97.3739H62.7577C62.5394 97.3739 62.3625 97.1781 62.3625 96.9367C62.3625 96.6954 62.5394 96.4995 62.7577 96.4995H63.4162C63.6345 96.4995 63.8113 96.6954 63.8113 96.9367C63.8108 97.1781 63.6339 97.3739 63.4162 97.3739ZM60.7818 97.3739H60.1233C59.905 97.3739 59.7281 97.1781 59.7281 96.9367C59.7281 96.6954 59.905 96.4995 60.1233 96.4995H60.7818C61.0001 96.4995 61.177 96.6954 61.177 96.9367C61.177 97.1781 61.0001 97.3739 60.7818 97.3739ZM58.148 97.3739H57.4895C57.2712 97.3739 57.0943 97.1781 57.0943 96.9367C57.0943 96.6954 57.2712 96.4995 57.4895 96.4995H58.148C58.3663 96.4995 58.5431 96.6954 58.5431 96.9367C58.5431 97.1781 58.3663 97.3739 58.148 97.3739ZM55.5141 97.3739H54.8557C54.6373 97.3739 54.4605 97.1781 54.4605 96.9367C54.4605 96.6954 54.6373 96.4995 54.8557 96.4995H55.5141C55.7325 96.4995 55.9093 96.6954 55.9093 96.9367C55.9093 97.1781 55.7319 97.3739 55.5141 97.3739ZM52.8798 97.3739H52.2213C52.003 97.3739 51.8261 97.1781 51.8261 96.9367C51.8261 96.6954 52.003 96.4995 52.2213 96.4995H52.8798C53.0981 96.4995 53.2749 96.6954 53.2749 96.9367C53.2749 97.1781 53.0981 97.3739 52.8798 97.3739ZM50.2459 97.3739H49.5875C49.3691 97.3739 49.1923 97.1781 49.1923 96.9367C49.1923 96.6954 49.3691 96.4995 49.5875 96.4995H50.2459C50.4643 96.4995 50.6411 96.6954 50.6411 96.9367C50.6411 97.1781 50.4643 97.3739 50.2459 97.3739ZM47.6121 97.3739H46.9537C46.7353 97.3739 46.5585 97.1781 46.5585 96.9367C46.5585 96.6954 46.7353 96.4995 46.9537 96.4995H47.6121C47.8305 96.4995 48.0073 96.6954 48.0073 96.9367C48.0073 97.1781 47.8305 97.3739 47.6121 97.3739ZM44.9783 97.3739H44.3193C44.1009 97.3739 43.9241 97.1781 43.9241 96.9367C43.9241 96.6954 44.1009 96.4995 44.3193 96.4995H44.9777C45.1961 96.4995 45.3729 96.6954 45.3729 96.9367C45.3729 97.1781 45.1961 97.3739 44.9783 97.3739ZM42.3439 97.3739H41.6855C41.4671 97.3739 41.2903 97.1781 41.2903 96.9367C41.2903 96.6954 41.4671 96.4995 41.6855 96.4995H42.3439C42.5623 96.4995 42.7391 96.6954 42.7391 96.9367C42.7391 97.1781 42.5623 97.3739 42.3439 97.3739ZM39.7101 97.3739H39.0516C38.8333 97.3739 38.6565 97.1781 38.6565 96.9367C38.6565 96.6954 38.8333 96.4995 39.0516 96.4995H39.7101C39.9284 96.4995 40.1053 96.6954 40.1053 96.9367C40.1053 97.1781 39.9284 97.3739 39.7101 97.3739ZM37.0763 97.3739H36.4178C36.1995 97.3739 36.0226 97.1781 36.0226 96.9367C36.0226 96.6954 36.1995 96.4995 36.4178 96.4995H37.0763C37.2946 96.4995 37.4715 96.6954 37.4715 96.9367C37.4715 97.1781 37.2941 97.3739 37.0763 97.3739ZM34.4419 97.3739H33.7834C33.5651 97.3739 33.3883 97.1781 33.3883 96.9367C33.3883 96.6954 33.5651 96.4995 33.7834 96.4995H34.4419C34.6602 96.4995 34.8371 96.6954 34.8371 96.9367C34.8371 97.1781 34.6602 97.3739 34.4419 97.3739ZM31.8081 97.3739H31.1496C30.9313 97.3739 30.7544 97.1781 30.7544 96.9367C30.7544 96.6954 30.9313 96.4995 31.1496 96.4995H31.8081C32.0264 96.4995 32.2033 96.6954 32.2033 96.9367C32.2033 97.1781 32.0264 97.3739 31.8081 97.3739ZM29.1743 97.3739H28.5158C28.2975 97.3739 28.1206 97.1781 28.1206 96.9367C28.1206 96.6954 28.2975 96.4995 28.5158 96.4995H29.1743C29.3926 96.4995 29.5695 96.6954 29.5695 96.9367C29.5695 97.1781 29.392 97.3739 29.1743 97.3739ZM26.5399 97.3739H25.8814C25.6631 97.3739 25.4862 97.1781 25.4862 96.9367C25.4862 96.6954 25.6631 96.4995 25.8814 96.4995H26.5399C26.7582 96.4995 26.9351 96.6954 26.9351 96.9367C26.9351 97.1781 26.7582 97.3739 26.5399 97.3739ZM23.9061 97.3739H23.2476C23.0293 97.3739 22.8524 97.1781 22.8524 96.9367C22.8524 96.6954 23.0293 96.4995 23.2476 96.4995H23.9061C24.1244 96.4995 24.3013 96.6954 24.3013 96.9367C24.3013 97.1781 24.1244 97.3739 23.9061 97.3739ZM21.2723 97.3739H20.6138C20.3954 97.3739 20.2186 97.1781 20.2186 96.9367C20.2186 96.6954 20.3954 96.4995 20.6138 96.4995H21.2723C21.4906 96.4995 21.6674 96.6954 21.6674 96.9367C21.6674 97.1781 21.4906 97.3739 21.2723 97.3739ZM18.6384 97.3739H17.98C17.7616 97.3739 17.5848 97.1781 17.5848 96.9367C17.5848 96.6954 17.7616 96.4995 17.98 96.4995H18.6384C18.8568 96.4995 19.0336 96.6954 19.0336 96.9367C19.0331 97.1781 18.8562 97.3739 18.6384 97.3739ZM16.004 97.3739H15.3456C15.1272 97.3739 14.9504 97.1781 14.9504 96.9367C14.9504 96.6954 15.1272 96.4995 15.3456 96.4995H16.004C16.2224 96.4995 16.3992 96.6954 16.3992 96.9367C16.3992 97.1781 16.2224 97.3739 16.004 97.3739Z" fill="#029875"/>
<path d="M47.2829 67.7797C55.8655 67.7797 62.8231 60.9122 62.8231 52.4407C62.8231 43.9693 55.8655 37.1018 47.2829 37.1018C38.7003 37.1018 31.7427 43.9693 31.7427 52.4407C31.7427 60.9122 38.7003 67.7797 47.2829 67.7797Z" fill="url(#paint0_linear)"/>
<path d="M57.9055 62.9266C63.7724 57.1356 63.7724 47.7467 57.9055 41.9557C52.0386 36.1648 42.5264 36.1648 36.6595 41.9557C30.7926 47.7467 30.7926 57.1356 36.6595 62.9266C42.5264 68.7175 52.0386 68.7175 57.9055 62.9266Z" fill="#92E8D1"/>
<path d="M34.8945 46.4207C34.8729 46.4207 34.8513 46.4157 34.8308 46.4056C34.7609 46.3708 34.733 46.2866 34.7683 46.2175C37.1673 41.5261 41.9624 38.6121 47.2829 38.6121C48.1318 38.6121 48.9819 38.6878 49.8104 38.8366C49.8871 38.8506 49.9383 38.923 49.9247 38.9993C49.9105 39.0751 49.8365 39.1262 49.7598 39.1116C48.9484 38.9656 48.1153 38.8916 47.2835 38.8916C42.071 38.8916 37.3725 41.7472 35.0219 46.3433C34.9963 46.3927 34.9463 46.4207 34.8945 46.4207Z" fill="white"/>
<path d="M47.6104 65.3142C54.6329 65.3142 60.3257 59.6951 60.3257 52.7635C60.3257 45.832 54.6329 40.2129 47.6104 40.2129C40.5879 40.2129 34.8951 45.832 34.8951 52.7635C34.8951 59.6951 40.5879 65.3142 47.6104 65.3142Z" fill="url(#paint1_linear)"/>
<path d="M53.1533 57.5867C51.6095 57.5867 50.2141 56.8997 49.3253 55.7705C49.1889 55.5976 48.9734 55.4938 48.5287 55.4938H46.0376C45.6095 55.4938 45.3792 55.6044 45.241 55.7795C44.3716 56.884 43.0126 57.5115 41.4131 57.5115C38.7406 57.5115 36.5662 55.3838 36.5662 52.756C36.5662 50.1384 38.7406 48.014 41.4131 48.014C42.0818 48.014 42.7891 48.142 43.5744 48.5298C44.1976 48.8374 44.8606 49.0613 45.4889 49.0613H49.0774C49.737 49.0613 50.4114 48.8183 50.992 48.5321C51.6584 48.2032 52.3743 47.9136 53.1533 47.9136C55.8257 47.9136 58.0001 50.0918 58.0001 52.7499C57.9995 55.4085 55.8252 57.5867 53.1533 57.5867ZM46.0371 54.6901H48.5281C49.0325 54.6901 49.6006 54.7833 49.9872 55.2744C50.7162 56.2004 51.8699 56.7454 53.1527 56.7454C55.3629 56.7454 57.1608 54.9612 57.1608 52.7588C57.1608 50.5571 55.3629 48.7695 53.1527 48.7695C52.5556 48.7695 51.9671 49.0434 51.3661 49.3397C50.7003 49.6686 49.919 50.0267 49.0769 50.0267H45.4883C44.686 50.0267 43.9138 49.6944 43.1991 49.3414C42.5327 49.0125 41.9482 48.8497 41.4125 48.8497C39.2023 48.8497 37.4044 50.6064 37.4044 52.7673C37.4044 54.9387 39.2023 56.7044 41.4125 56.7044C42.7471 56.7044 43.8712 56.1825 44.578 55.2845C44.9737 54.7821 45.5657 54.6901 46.0371 54.6901Z" fill="white"/>
<path d="M41.4273 51.8772C41.8738 51.8772 42.2359 51.5199 42.2359 51.0791C42.2359 50.6383 41.8738 50.281 41.4273 50.281C40.9807 50.281 40.6187 50.6383 40.6187 51.0791C40.6187 51.5199 40.9807 51.8772 41.4273 51.8772Z" fill="white"/>
<path d="M41.4273 55.1877C41.8738 55.1877 42.2359 54.8304 42.2359 54.3896C42.2359 53.9489 41.8738 53.5916 41.4273 53.5916C40.9807 53.5916 40.6187 53.9489 40.6187 54.3896C40.6187 54.8304 40.9807 55.1877 41.4273 55.1877Z" fill="white"/>
<path d="M43.1047 53.5327C43.5512 53.5327 43.9132 53.1754 43.9132 52.7346C43.9132 52.2938 43.5512 51.9365 43.1047 51.9365C42.6581 51.9365 42.2961 52.2938 42.2961 52.7346C42.2961 53.1754 42.6581 53.5327 43.1047 53.5327Z" fill="white"/>
<path d="M40.061 53.472C40.4735 53.3033 40.6694 52.8365 40.4985 52.4292C40.3277 52.022 39.8547 51.8286 39.4421 51.9973C39.0295 52.166 38.8336 52.6329 39.0045 53.0401C39.1754 53.4473 39.6484 53.6407 40.061 53.472Z" fill="white"/>
<path d="M55.0097 52.1173H54.0954V51.079C54.0954 50.7524 53.7747 50.488 53.4438 50.488C53.1129 50.488 52.7922 50.7529 52.7922 51.079V52.1173H51.7749C51.444 52.1173 51.1761 52.3536 51.1761 52.6803C51.1761 53.0069 51.4445 53.2432 51.7749 53.2432H52.7922V54.272C52.7922 54.5986 53.1129 54.863 53.4438 54.863C53.7747 54.863 54.0954 54.5981 54.0954 54.272V53.2432H55.0097C55.3407 53.2432 55.6085 53.0069 55.6085 52.6803C55.6091 52.3536 55.3407 52.1173 55.0097 52.1173Z" fill="white"/>
<path d="M28.845 108.512C37.14 108.512 43.8644 101.875 43.8644 93.6872C43.8644 85.4996 37.14 78.8623 28.845 78.8623C20.5501 78.8623 13.8257 85.4996 13.8257 93.6872C13.8257 101.875 20.5501 108.512 28.845 108.512Z" fill="url(#paint2_linear)"/>
<path d="M39.1111 103.821C44.7813 98.2241 44.7813 89.15 39.1111 83.5532C33.4409 77.9565 24.2477 77.9565 18.5776 83.5532C12.9074 89.15 12.9074 98.2241 18.5776 103.821C24.2477 109.418 33.4409 109.418 39.1111 103.821Z" fill="#92E8D1"/>
<path d="M16.8723 87.8694C16.8519 87.8694 16.8303 87.8649 16.8109 87.8548C16.7433 87.8211 16.7165 87.7397 16.7507 87.6729C19.0695 83.1386 23.7037 80.3223 28.8456 80.3223C29.6661 80.3223 30.4878 80.3952 31.2884 80.5395C31.3629 80.5529 31.4123 80.6231 31.3987 80.6966C31.3851 80.7701 31.314 80.8195 31.2395 80.8055C30.4554 80.6646 29.6502 80.5928 28.8462 80.5928C23.8083 80.5928 19.2673 83.3525 16.9957 87.7947C16.9701 87.8419 16.9224 87.8694 16.8723 87.8694Z" fill="white"/>
<path d="M29.1612 106.13C35.9481 106.13 41.45 100.699 41.45 93.9998C41.45 87.3008 35.9481 81.8701 29.1612 81.8701C22.3742 81.8701 16.8723 87.3008 16.8723 93.9998C16.8723 100.699 22.3742 106.13 29.1612 106.13Z" fill="url(#paint3_linear)"/>
<path d="M36.3541 88.9192C36.3541 88.3333 35.8725 87.8579 35.2789 87.8579H22.2554C21.6617 87.8579 21.1801 88.3333 21.1801 88.9192V99.1312C21.1801 99.7171 21.6617 100.192 22.2554 100.192H35.2789C35.8725 100.192 36.3541 99.7171 36.3541 99.1312V88.9192ZM35.2834 88.9153V94.8157L32.5211 92.8171C32.2908 92.651 31.9724 92.6779 31.7745 92.8811L28.3771 96.3698L25.3691 94.2393C25.1661 94.0956 24.917 94.099 24.718 94.2483L22.4299 95.9792V88.9153H35.2834ZM22.4299 98.9589V97.389L25.0711 95.3938L28.1263 97.5664C28.3566 97.7292 28.6665 97.7005 28.8626 97.4991L32.2527 94.0137L35.2834 96.2082V98.9583H22.4299V98.9589Z" fill="white"/>
<path d="M24.9739 92.1151C25.591 92.1151 26.0912 91.6214 26.0912 91.0123C26.0912 90.4032 25.591 89.9094 24.9739 89.9094C24.3568 89.9094 23.8566 90.4032 23.8566 91.0123C23.8566 91.6214 24.3568 92.1151 24.9739 92.1151Z" fill="white"/>
<path d="M27.1665 159.992C36.2717 159.992 43.6529 152.706 43.6529 143.719C43.6529 134.732 36.2717 127.446 27.1665 127.446C18.0613 127.446 10.6801 134.732 10.6801 143.719C10.6801 152.706 18.0613 159.992 27.1665 159.992Z" fill="url(#paint4_linear)"/>
<path d="M38.4356 154.842C44.6598 148.699 44.6598 138.738 38.4356 132.595C32.2114 126.451 22.1199 126.451 15.8957 132.595C9.67154 138.738 9.67154 148.699 15.8957 154.842C22.12 160.986 32.2114 160.986 38.4356 154.842Z" fill="#92E8D1"/>
<path d="M14.0241 137.333C14.0014 137.333 13.978 137.328 13.9564 137.317C13.8825 137.28 13.8524 137.191 13.8899 137.118C16.435 132.14 21.5224 129.049 27.1665 129.049C28.0671 129.049 28.969 129.129 29.8475 129.287C29.9294 129.301 29.9834 129.379 29.9686 129.459C29.9538 129.54 29.8753 129.594 29.7935 129.579C28.9326 129.424 28.0484 129.345 27.1659 129.345C21.6361 129.345 16.6517 132.375 14.1577 137.251C14.1321 137.302 14.0787 137.333 14.0241 137.333Z" fill="white"/>
<path d="M27.5139 157.377C34.9641 157.377 41.0037 151.416 41.0037 144.062C41.0037 136.708 34.9641 130.747 27.5139 130.747C20.0637 130.747 14.0241 136.708 14.0241 144.062C14.0241 151.416 20.0637 157.377 27.5139 157.377Z" fill="url(#paint5_linear)"/>
<path d="M33.6248 137.371H20.8702C19.6079 137.371 18.2671 138.394 18.2671 139.887V147.155C18.2671 148.571 19.5027 149.84 20.8702 149.84H29.0947V151.147C29.0947 151.582 29.3864 151.926 29.6638 152.102C29.8054 152.192 30.0255 152.299 30.2853 152.299C30.519 152.299 30.7351 152.201 30.896 152.042L33.1602 149.84H33.6248C34.8945 149.84 35.8617 148.697 35.8617 147.155V139.887C35.8617 138.417 34.936 137.371 33.6248 137.371ZM34.5084 147.154C34.5084 147.827 34.1718 148.504 33.6248 148.504H32.7451C32.657 148.504 32.5774 148.548 32.5143 148.609L30.448 150.623V148.856C30.448 148.673 30.287 148.504 30.1011 148.504H20.8702C20.3147 148.504 19.6204 147.88 19.6204 147.155V139.887C19.6204 139.203 20.2743 138.708 20.8702 138.708H33.6248C34.4356 138.708 34.5084 139.615 34.5084 139.887V147.154Z" fill="white"/>
<path d="M33.3052 141.008C33.3052 141.295 33.0698 141.528 32.7787 141.528H21.3496C21.059 141.528 20.823 141.295 20.823 141.008C20.823 140.721 21.0584 140.488 21.3496 140.488H32.7787C33.0698 140.489 33.3052 140.721 33.3052 141.008Z" fill="white"/>
<path d="M33.3052 143.531C33.3052 143.818 33.0698 144.051 32.7787 144.051H21.3496C21.059 144.051 20.823 143.819 20.823 143.531C20.823 143.244 21.0584 143.011 21.3496 143.011H32.7787C33.0698 143.012 33.3052 143.244 33.3052 143.531Z" fill="white"/>
<path d="M33.3052 146.055C33.3052 146.342 33.0698 146.575 32.7787 146.575H21.3496C21.059 146.575 20.823 146.342 20.823 146.055C20.823 145.768 21.0584 145.535 21.3496 145.535H32.7787C33.0698 145.536 33.3052 145.768 33.3052 146.055Z" fill="white"/>
<path d="M146.457 74.7428C154.84 74.7428 161.636 68.0351 161.636 59.7608C161.636 51.4865 154.84 44.7788 146.457 44.7788C138.074 44.7788 131.278 51.4865 131.278 59.7608C131.278 68.0351 138.074 74.7428 146.457 74.7428Z" fill="url(#paint6_linear)"/>
<path d="M156.832 70.0028C162.562 64.3467 162.562 55.1763 156.832 49.5201C151.101 43.864 141.811 43.864 136.08 49.5201C130.35 55.1763 130.35 64.3467 136.08 70.0028C141.811 75.659 151.101 75.659 156.832 70.0028Z" fill="#92E8D1"/>
<path d="M134.357 53.8805C134.336 53.8805 134.315 53.876 134.295 53.8659C134.227 53.8317 134.199 53.7497 134.234 53.6824C136.577 49.1003 141.26 46.2537 146.457 46.2537C147.286 46.2537 148.117 46.3277 148.925 46.4731C149 46.4866 149.05 46.5579 149.037 46.6319C149.023 46.706 148.951 46.756 148.876 46.7419C148.083 46.5994 147.27 46.527 146.457 46.527C141.366 46.527 136.777 49.3158 134.481 53.8053C134.456 53.853 134.408 53.8805 134.357 53.8805Z" fill="white"/>
<path d="M146.777 72.335C153.636 72.335 159.196 66.8465 159.196 60.0762C159.196 53.3058 153.636 47.8174 146.777 47.8174C139.917 47.8174 134.357 53.3058 134.357 60.0762C134.357 66.8465 139.917 72.335 146.777 72.335Z" fill="url(#paint7_linear)"/>
<path d="M153.655 64.6768C153.655 65.5451 152.942 66.2489 152.062 66.2489H140.266C139.386 66.2489 138.673 65.5451 138.673 64.6768V56.1285C138.673 55.2602 139.386 54.5564 140.266 54.5564H152.062C152.942 54.5564 153.655 55.2602 153.655 56.1285V64.6768ZM152.61 56.1228C152.61 55.8276 152.368 55.5885 152.069 55.5885H140.26C139.961 55.5885 139.719 55.8276 139.719 56.1228V64.6836C139.719 64.9788 139.961 65.2179 140.26 65.2179H152.069C152.368 65.2179 152.61 64.9788 152.61 64.6836V56.1228Z" fill="white"/>
<path d="M146.196 60.6238C146.09 60.6238 145.983 60.5918 145.892 60.5284L139.331 55.9362C139.095 55.7707 139.038 55.4468 139.207 55.2128C139.374 54.9787 139.703 54.9237 139.94 55.0899L146.196 59.4693L152.371 55.1404C152.607 54.9742 152.935 55.0292 153.104 55.2627C153.272 55.4962 153.216 55.82 152.98 55.9862L146.501 60.5284C146.409 60.5918 146.302 60.6238 146.196 60.6238Z" fill="white"/>
<path d="M139.718 65.8714L139.563 64.8454L139.635 65.359L139.195 65.0767C139.316 64.8836 141.682 60.7988 143.243 58.1003C143.387 57.8511 143.708 57.7641 143.96 57.9067C144.212 58.0487 144.3 58.3658 144.156 58.6144C144.156 58.6144 143.144 60.3644 142.13 62.1144C141.623 62.9899 141.115 63.8649 140.734 64.5221C139.972 65.8315 139.972 65.8315 139.718 65.8714Z" fill="white"/>
<path d="M152.636 65.8714C152.381 65.8321 152.381 65.8321 151.619 64.5221C151.237 63.8655 150.73 62.9899 150.223 62.1144C149.209 60.3644 148.197 58.6144 148.197 58.6144C148.053 58.3658 148.141 58.0487 148.393 57.9067C148.645 57.7641 148.966 57.8511 149.11 58.1003C150.671 60.7988 153.038 64.8841 153.159 65.0767L152.718 65.359L152.636 65.8714Z" fill="white"/>
<path d="M148.277 167.712C155.321 167.712 161.032 162.076 161.032 155.123C161.032 148.17 155.321 142.534 148.277 142.534C141.233 142.534 135.523 148.17 135.523 155.123C135.523 162.076 141.233 167.712 148.277 167.712Z" fill="url(#paint8_linear)"/>
<path d="M156.994 163.729C161.809 158.976 161.809 151.27 156.994 146.517C152.179 141.764 144.372 141.764 139.556 146.517C134.741 151.27 134.741 158.976 139.556 163.729C144.372 168.482 152.179 168.482 156.994 163.729Z" fill="#92E8D1"/>
<path d="M138.109 150.183C138.092 150.183 138.074 150.179 138.057 150.17C137.999 150.142 137.977 150.073 138.006 150.016C139.975 146.165 143.911 143.774 148.277 143.774C148.974 143.774 149.672 143.835 150.351 143.958C150.415 143.969 150.457 144.029 150.445 144.091C150.434 144.154 150.373 144.196 150.31 144.183C149.644 144.064 148.96 144.003 148.277 144.003C143.999 144.003 140.143 146.347 138.213 150.119C138.193 150.159 138.152 150.183 138.109 150.183Z" fill="white"/>
<path d="M148.545 165.69C154.309 165.69 158.982 161.078 158.982 155.389C158.982 149.699 154.309 145.087 148.545 145.087C142.782 145.087 138.109 149.699 138.109 155.389C138.109 161.078 142.782 165.69 148.545 165.69Z" fill="url(#paint9_linear)"/>
<path d="M149.731 149.366C149.461 149.271 149.178 149.471 149.178 149.754V150.333V151.469V157.118C148.612 156.659 147.823 156.372 146.947 156.372C145.228 156.372 143.835 157.473 143.835 158.83C143.835 160.188 145.228 161.288 146.947 161.288C148.666 161.288 150.06 160.187 150.06 158.83C150.06 158.818 150.057 158.807 150.057 158.795H150.06V151.474C151.293 151.659 152.131 152.583 152.621 153.338C152.827 153.655 153.321 153.494 153.3 153.118C153.178 150.837 150.827 149.75 149.731 149.366Z" fill="white"/>
<path d="M147.365 127.648C154.913 127.648 161.032 121.609 161.032 114.159C161.032 106.709 154.913 100.669 147.365 100.669C139.817 100.669 133.698 106.709 133.698 114.159C133.698 121.609 139.817 127.648 147.365 127.648Z" fill="url(#paint10_linear)"/>
<path d="M156.706 123.381C161.866 118.288 161.866 110.031 156.706 104.938C151.546 99.8449 143.181 99.8449 138.021 104.938C132.861 110.031 132.861 118.288 138.021 123.381C143.181 128.473 151.546 128.473 156.706 123.381Z" fill="#92E8D1"/>
<path d="M136.471 108.865C136.452 108.865 136.432 108.861 136.414 108.851C136.353 108.82 136.328 108.747 136.359 108.686C138.469 104.56 142.686 101.997 147.365 101.997C148.112 101.997 148.859 102.063 149.588 102.195C149.655 102.207 149.7 102.271 149.688 102.338C149.675 102.405 149.611 102.449 149.543 102.437C148.829 102.308 148.096 102.243 147.365 102.243C142.781 102.243 138.649 104.754 136.582 108.797C136.56 108.84 136.516 108.865 136.471 108.865Z" fill="white"/>
<path d="M147.653 125.48C153.829 125.48 158.835 120.538 158.835 114.443C158.835 108.347 153.829 103.405 147.653 103.405C141.477 103.405 136.47 108.347 136.47 114.443C136.47 120.538 141.477 125.48 147.653 125.48Z" fill="url(#paint11_linear)"/>
<path d="M147.365 120.672C143.726 120.672 140.766 117.75 140.766 114.159C140.766 110.567 143.726 107.645 147.365 107.645C151.004 107.645 153.964 110.567 153.964 114.159C153.964 117.75 151.004 120.672 147.365 120.672ZM147.365 108.737C144.336 108.737 141.872 111.169 141.872 114.159C141.872 117.148 144.337 119.58 147.365 119.58C150.394 119.58 152.858 117.148 152.858 114.159C152.858 111.169 150.394 108.737 147.365 108.737Z" fill="white"/>
<path fill-rule="evenodd" clip-rule="evenodd" d="M145.298 116.667V111.985C145.298 111.484 145.849 111.174 146.285 111.43L150.283 113.771C150.71 114.021 150.71 114.631 150.283 114.881L146.285 117.223C145.85 117.478 145.298 117.168 145.298 116.667Z" fill="white"/>
<path d="M119.727 71.9938C119.502 72.1173 119.213 72.0707 119.041 71.8698C118.577 71.3276 118.089 70.7978 117.591 70.2938C117.379 70.0794 117.383 69.7359 117.599 69.5266C117.817 69.3172 118.164 69.3206 118.377 69.535C118.895 70.0581 119.401 70.6081 119.881 71.1699C120.077 71.3994 120.048 71.7407 119.816 71.9343C119.787 71.9573 119.758 71.977 119.727 71.9938Z" fill="#92E8D1"/>
<path d="M114.317 115.122C114.076 115.254 113.768 115.19 113.604 114.964C113.427 114.72 113.483 114.382 113.73 114.207C114.979 113.322 116.164 112.334 117.255 111.267C117.468 111.058 117.819 111.057 118.033 111.271C118.246 111.483 118.245 111.827 118.029 112.037C116.897 113.144 115.666 114.17 114.371 115.088C114.353 115.101 114.335 115.112 114.317 115.122ZM107.605 118.701C107.583 118.713 107.56 118.724 107.535 118.733C106.042 119.303 104.498 119.759 102.947 120.09C102.65 120.153 102.358 119.966 102.293 119.674C102.23 119.381 102.417 119.094 102.715 119.029C104.211 118.712 105.699 118.272 107.139 117.722C107.422 117.613 107.74 117.752 107.849 118.031C107.95 118.287 107.841 118.571 107.605 118.701ZM122.599 106.188C122.434 106.279 122.225 106.283 122.051 106.181C121.79 106.028 121.704 105.696 121.858 105.438C122.639 104.135 123.324 102.759 123.892 101.348C124.004 101.069 124.324 100.933 124.606 101.043C124.888 101.154 125.026 101.469 124.914 101.748C124.325 103.212 123.614 104.639 122.803 105.99C122.752 106.076 122.68 106.143 122.599 106.188ZM126.567 94.7288C126.469 94.7827 126.353 94.8074 126.233 94.7928C125.932 94.7558 125.718 94.4847 125.755 94.1872C125.946 92.6797 126.016 91.1469 125.965 89.6344C125.956 89.3358 126.192 89.0843 126.496 89.0742C126.799 89.0641 127.054 89.2993 127.064 89.5984C127.117 91.1677 127.043 92.7571 126.845 94.3219C126.824 94.5004 126.716 94.6474 126.567 94.7288ZM125.554 82.6569C125.519 82.676 125.482 82.6911 125.443 82.7029C125.153 82.7888 124.846 82.6255 124.759 82.3381C124.394 81.1303 123.943 79.9309 123.42 78.7731C123.315 78.5424 123.208 78.3128 123.098 78.0861C122.967 77.8156 123.085 77.4996 123.356 77.3626C123.631 77.2336 123.959 77.3481 124.089 77.618C124.204 77.8532 124.314 78.0911 124.423 78.3302C124.966 79.5313 125.434 80.775 125.812 82.0277C125.887 82.2764 125.774 82.5357 125.554 82.6569Z" fill="#92E8D1"/>
<path d="M95.4609 120.664C95.3745 120.711 95.275 120.737 95.1692 120.732C94.43 120.698 93.6806 120.637 92.9408 120.55C92.6394 120.514 92.4239 120.245 92.4597 119.948C92.4956 119.65 92.7691 119.437 93.0704 119.473C93.784 119.557 94.5073 119.616 95.2198 119.648C95.5229 119.661 95.7571 119.915 95.7435 120.214C95.7344 120.409 95.6218 120.576 95.4609 120.664Z" fill="#92E8D1"/>
<path d="M73.6614 109.924C73.434 110.048 73.1417 110 72.9706 109.795C72.498 109.228 72.0409 108.638 71.6127 108.039C71.437 107.794 71.4962 107.455 71.7441 107.283C72.0033 107.106 72.336 107.169 72.51 107.413C72.9234 107.99 73.364 108.559 73.8183 109.105C74.0117 109.337 73.9781 109.678 73.7439 109.868C73.7177 109.89 73.6898 109.908 73.6614 109.924Z" fill="#92E8D1"/>
<path d="M68.7941 101.661C68.7714 101.673 68.7481 101.685 68.723 101.694C68.4399 101.801 68.122 101.661 68.0134 101.381C67.4516 99.9346 66.9996 98.436 66.6703 96.9268C66.6067 96.6344 66.7949 96.3459 67.0917 96.282C67.3885 96.2191 67.6808 96.4054 67.745 96.6978C68.0623 98.1532 68.4979 99.5978 69.0403 100.993C69.1387 101.248 69.0295 101.532 68.7941 101.661ZM66.8318 89.9062C66.7465 89.9533 66.6476 89.978 66.543 89.9741C66.2399 89.9617 66.0039 89.7097 66.0164 89.41C66.0801 87.8666 66.2672 86.3125 66.5708 84.7921C66.6288 84.4997 66.9171 84.3072 67.2162 84.3655C67.5136 84.4233 67.7075 84.7084 67.6484 85.0025C67.355 86.468 67.1753 87.9654 67.1144 89.4538C67.1065 89.6502 66.9939 89.8175 66.8318 89.9062ZM69.7386 78.3411C69.5885 78.4236 69.4014 78.4354 69.2348 78.3573C68.9607 78.2283 68.8441 77.9044 68.9749 77.6345C69.6493 76.2375 70.4391 74.8815 71.321 73.6047C71.4944 73.3572 71.8339 73.2938 72.0852 73.4621C72.336 73.6311 72.4002 73.9684 72.2297 74.2165C71.3785 75.4478 70.6171 76.755 69.9672 78.1009C69.9166 78.2058 69.8347 78.2883 69.7386 78.3411ZM92.0003 61.8634C91.9463 61.8931 91.8866 61.9144 91.8218 61.9245C90.332 62.1653 88.8474 62.5223 87.4099 62.987C87.1216 63.0801 86.8112 62.9252 86.7168 62.6401C86.6224 62.3561 86.7782 62.048 87.0682 61.956C88.5597 61.4739 90.0995 61.1029 91.6449 60.8542C91.944 60.8054 92.2266 61.0063 92.2755 61.3021C92.3136 61.5339 92.1965 61.755 92.0003 61.8634ZM77.0134 68.8386C76.7922 68.9604 76.5079 68.9177 76.3339 68.7218C76.1338 68.4968 76.1559 68.1538 76.3845 67.9563C77.5616 66.9371 78.8301 65.9998 80.1556 65.1708C80.3949 65.0266 80.7509 65.0855 80.9135 65.3386C81.0761 65.5912 81 65.9262 80.7435 66.0868C79.4664 66.8854 78.2433 67.789 77.1095 68.7712C77.0794 68.7982 77.047 68.82 77.0134 68.8386Z" fill="#92E8D1"/>
<path d="M101.71 61.8847C101.605 61.9425 101.48 61.9666 101.352 61.9453C100.645 61.8285 99.9257 61.7365 99.2149 61.6725C98.9124 61.6456 98.6895 61.3812 98.7174 61.0832C98.7452 60.784 99.0136 60.5651 99.3144 60.5921C100.052 60.6589 100.799 60.7543 101.534 60.8755C101.833 60.9249 102.035 61.2044 101.985 61.5002C101.956 61.6691 101.851 61.8072 101.71 61.8847Z" fill="#92E8D1"/>
<path d="M103.14 68.8293C102.998 68.7703 102.835 68.8068 102.732 68.9202L99.8125 72.1434C97.7956 71.8067 95.7094 71.7854 93.63 72.1115L90.7437 68.8624C90.6425 68.7484 90.4793 68.7103 90.3371 68.7675L85.4727 70.7285C85.3305 70.7858 85.2407 70.9261 85.2492 71.0771L85.4931 75.3914C83.7771 76.5953 82.3032 78.0523 81.1017 79.6866L76.7308 79.4032C76.5778 79.3931 76.4351 79.4807 76.3754 79.6204L74.3409 84.4022C74.2818 84.542 74.3182 84.7036 74.433 84.8047L77.6986 87.6872C77.3574 89.678 77.3358 91.7372 77.6662 93.7897L74.3745 96.6386C74.259 96.7385 74.2204 96.8996 74.2784 97.0399L76.2657 101.841C76.3237 101.982 76.4658 102.07 76.6188 102.062L80.9897 101.821C82.2094 103.515 83.6855 104.97 85.3413 106.156L85.0542 110.471C85.0439 110.622 85.1326 110.762 85.2736 110.821L90.1182 112.83C90.2598 112.888 90.4236 112.852 90.5259 112.739L93.4463 109.515C95.4632 109.852 97.5494 109.874 99.6289 109.547L102.515 112.796C102.616 112.91 102.78 112.949 102.922 112.891L107.786 110.93C107.928 110.872 108.018 110.732 108.01 110.581L107.766 106.267C109.482 105.063 110.956 103.606 112.157 101.972L116.528 102.255C116.681 102.265 116.824 102.178 116.883 102.038L118.918 97.256C118.977 97.1162 118.941 96.9546 118.826 96.8536L115.56 93.9715C115.901 91.9808 115.923 89.9216 115.593 87.8691L118.884 85.0202C119 84.9203 119.038 84.7592 118.98 84.6189L116.994 79.8174C116.936 79.6771 116.794 79.5884 116.641 79.5968L112.27 79.8376C111.05 78.1438 109.574 76.689 107.918 75.5031L108.205 71.1888C108.215 71.0378 108.127 70.8969 107.985 70.838L103.14 68.8293Z" fill="#029875"/>
<path d="M99.2894 95.5705C98.234 96.1502 97.0212 96.368 95.8072 96.1867C94.3573 95.9701 93.0796 95.209 92.2096 94.0438C90.4139 91.6383 90.9354 88.2394 93.3724 86.4664C95.8118 84.6929 99.2536 85.2092 101.049 87.6142C102.845 90.0197 102.324 93.4186 99.8864 95.1916C99.6942 95.3314 99.4947 95.4576 99.2894 95.5705ZM94.3504 87.7769C93.5242 88.378 92.9852 89.2603 92.8311 90.2616C92.6776 91.2629 92.9283 92.2636 93.5373 93.0791C94.794 94.7623 97.2071 95.1243 98.9084 93.8816C100.614 92.6413 100.979 90.2633 99.7215 88.5801C98.4655 86.8969 96.054 86.5321 94.3504 87.7769Z" fill="white"/>
<path d="M103.169 102.577C102.699 102.834 102.211 103.067 101.701 103.273C95.3188 105.846 88.0735 103.229 84.8011 97.4252C84.539 96.9616 84.303 96.4772 84.0949 95.9738C81.2791 89.1703 84.597 81.374 91.4892 78.5953C92.3239 78.2591 93.191 78.0048 94.0684 77.8393C94.1287 77.828 94.1895 77.8168 94.2498 77.8062L94.5375 79.4085C93.7124 79.5528 92.897 79.7857 92.1124 80.1022C88.1269 81.7085 85.5034 85.2264 84.8824 89.1467C84.5708 91.1128 84.7636 93.181 85.5409 95.16C85.5454 95.1706 85.5494 95.1819 85.554 95.1931C85.5761 95.2486 85.5983 95.3048 85.6216 95.3598C85.8042 95.8015 86.0117 96.2263 86.2414 96.6333C89.1152 101.729 95.4757 104.027 101.079 101.767C107.127 99.3334 110.042 92.4839 107.57 86.51C107.389 86.0728 107.182 85.6485 106.951 85.2388C106.144 83.8087 105.043 82.5582 103.713 81.5749L104.702 80.2728C106.219 81.3948 107.475 82.8209 108.394 84.4525C108.656 84.9172 108.89 85.3987 109.096 85.8943C111.703 92.1943 109.049 99.3463 103.169 102.577Z" fill="white"/>
<path d="M75.6982 117.636L74.2124 119.564C73.0707 119.465 71.9044 119.544 70.7581 119.817L69 118.129C68.9385 118.069 68.8453 118.055 68.7685 118.094L66.1398 119.403C66.0631 119.441 66.0193 119.524 66.0307 119.607L66.361 122.006C65.4569 122.754 64.699 123.632 64.1014 124.597L61.6472 124.63C61.5614 124.631 61.4852 124.686 61.4584 124.767L60.5373 127.527C60.5106 127.608 60.5384 127.696 60.6067 127.748L62.5598 129.214C62.4586 130.341 62.5394 131.492 62.8163 132.624L61.1059 134.359C61.0462 134.42 61.0314 134.512 61.0706 134.587L62.3967 137.182C62.4353 137.258 62.5183 137.301 62.6036 137.29L65.0339 136.964C65.7913 137.856 66.6812 138.604 67.6592 139.194L67.6933 141.617C67.6944 141.701 67.7501 141.776 67.832 141.803L70.6285 142.712C70.7103 142.738 70.8002 142.711 70.8519 142.644L72.3377 140.716C73.4795 140.816 74.6457 140.736 75.792 140.463L77.5502 142.151C77.6116 142.21 77.7049 142.224 77.7816 142.186L80.4103 140.877C80.4871 140.839 80.5309 140.757 80.5195 140.672L80.1891 138.274C81.0932 137.526 81.8512 136.648 82.4488 135.682L84.9029 135.649C84.9888 135.648 85.065 135.593 85.0917 135.512L86.0129 132.752C86.0396 132.671 86.0117 132.582 85.9435 132.531L83.9903 131.064C84.0915 129.937 84.0108 128.786 83.7339 127.655L85.4442 125.92C85.504 125.859 85.5187 125.767 85.4795 125.691L84.1535 123.096C84.1148 123.021 84.0318 122.977 83.9465 122.989L81.5163 123.315C80.7589 122.422 79.869 121.674 78.891 121.084L78.8569 118.662C78.8557 118.577 78.8 118.502 78.7181 118.476L75.9217 117.566C75.8404 117.541 75.7505 117.568 75.6982 117.636Z" fill="#029875"/>
<path d="M74.9465 133.106C73.5545 133.871 71.7605 133.597 70.6773 132.364C69.4349 130.95 69.5896 128.803 71.0219 127.576C72.4525 126.348 74.6298 126.503 75.8722 127.916C77.1146 129.33 76.9599 131.478 75.5276 132.704C75.3456 132.861 75.15 132.995 74.9465 133.106ZM72.4048 128.596C72.299 128.655 72.1972 128.724 72.1023 128.806C71.3568 129.444 71.2761 130.562 71.9232 131.298C72.5697 132.033 73.7029 132.112 74.4484 131.475C75.1938 130.836 75.2746 129.719 74.6275 128.982C74.0634 128.341 73.1286 128.199 72.4048 128.596Z" fill="white"/>
<path d="M82.9844 118.131C82.8008 118.232 82.5671 118.224 82.3874 118.092C81.825 117.676 81.2251 117.295 80.6059 116.959C80.3398 116.815 80.2431 116.485 80.3893 116.223C80.5348 115.96 80.8686 115.864 81.1353 116.009C81.7994 116.369 82.4425 116.777 83.0464 117.223C83.2892 117.403 83.3387 117.743 83.1567 117.983C83.1084 118.045 83.0492 118.095 82.9844 118.131Z" fill="#92E8D1"/>
<path d="M85.2197 141.099C85.0189 141.209 84.7613 141.187 84.5822 141.026C84.3582 140.825 84.3417 140.481 84.5464 140.26C85.6382 139.078 86.5258 137.74 87.1854 136.282C87.3093 136.008 87.6346 135.886 87.9109 136.008C88.1884 136.13 88.3129 136.451 88.1884 136.724C87.4816 138.288 86.5297 139.723 85.359 140.991C85.3175 141.035 85.2703 141.071 85.2197 141.099ZM89.2534 129.131C89.1891 129.166 89.1169 129.189 89.0385 129.196C88.7365 129.224 88.4681 129.006 88.4391 128.708C88.2856 127.114 87.8791 125.565 87.2303 124.105C87.108 123.83 87.2399 123.504 87.5123 123.39C87.7904 123.27 88.1145 123.394 88.2361 123.669C88.9327 125.235 89.3694 126.896 89.5337 128.605C89.5548 128.826 89.4388 129.029 89.2534 129.131Z" fill="#92E8D1"/>
<path d="M78.4475 145.428C78.4167 145.444 78.3849 145.458 78.3502 145.47C77.6321 145.701 76.8906 145.884 76.1463 146.015C75.8478 146.067 75.5623 145.871 75.5094 145.576C75.456 145.281 75.655 145 75.9547 144.947C76.6484 144.826 77.3398 144.655 78.0102 144.439C78.2985 144.345 78.6084 144.501 78.7028 144.786C78.7852 145.037 78.6726 145.304 78.4475 145.428Z" fill="#92E8D1"/>
<path d="M64.8064 143.595C64.6324 143.691 64.4118 143.689 64.2344 143.573C63.6072 143.161 63.0017 142.7 62.4348 142.202C62.2085 142.003 62.1874 141.66 62.3893 141.436C62.5928 141.213 62.9385 141.192 63.1654 141.391C63.6942 141.856 64.2589 142.286 64.8434 142.67C65.0959 142.835 65.1647 143.172 64.9964 143.422C64.9463 143.497 64.8804 143.555 64.8064 143.595Z" fill="#92E8D1"/>
<path d="M58.6489 135.781C58.6222 135.796 58.5932 135.809 58.5631 135.819C58.2771 135.918 57.9632 135.77 57.8631 135.486C57.2996 133.901 56.992 132.242 56.9494 130.558C56.942 130.259 57.1814 130.009 57.485 130.002C57.7881 129.995 58.0405 130.231 58.0479 130.531C58.0883 132.102 58.3749 133.649 58.9003 135.128C58.989 135.38 58.8787 135.655 58.6489 135.781ZM59.5496 123.403C59.3933 123.489 59.1977 123.498 59.0282 123.411C58.7587 123.272 58.6546 122.944 58.7951 122.679C59.582 121.191 60.5998 119.837 61.819 118.655C62.035 118.444 62.3836 118.447 62.5957 118.661C62.8083 118.875 62.8055 119.219 62.5889 119.428C61.4516 120.531 60.5032 121.793 59.7691 123.18C59.7174 123.279 59.64 123.354 59.5496 123.403Z" fill="#92E8D1"/>
<path d="M71.4905 115.17C71.4313 115.203 71.3654 115.225 71.2943 115.234C70.5955 115.324 69.8966 115.463 69.2172 115.648C68.9249 115.727 68.6218 115.557 68.5416 115.268C68.4609 114.979 68.6338 114.68 68.926 114.602C69.6544 114.404 70.4033 114.255 71.1521 114.158C71.4535 114.119 71.7287 114.329 71.7685 114.626C71.7981 114.854 71.6809 115.066 71.4905 115.17Z" fill="#92E8D1"/>
<path d="M77.122 137.035C77.0265 137.087 76.9292 137.138 76.8309 137.187C74.9397 138.129 72.7909 138.287 70.7797 137.633C68.872 137.013 67.3055 135.733 66.3354 134.01C66.2825 133.916 66.2314 133.821 66.1819 133.724C65.2283 131.858 65.068 129.737 65.7304 127.752C66.3928 125.766 67.8041 124.157 69.6902 123.213C69.8096 123.154 69.9308 123.098 70.053 123.044C70.3908 122.896 70.7382 122.772 71.0907 122.672C71.0941 122.672 71.0975 122.671 71.101 122.669C71.1572 122.654 71.2135 122.639 71.2693 122.624L71.6843 124.199C71.2556 124.309 70.8354 124.466 70.4334 124.666C68.9328 125.408 67.8212 126.688 67.2969 128.261C66.7721 129.833 66.8989 131.513 67.6546 132.991C67.6938 133.068 67.7342 133.143 67.7763 133.218C68.5445 134.582 69.7858 135.596 71.296 136.087C72.8892 136.605 74.5917 136.48 76.0888 135.734C77.5871 134.993 78.6999 133.712 79.2253 132.139C79.7501 130.567 79.6227 128.887 78.8676 127.409C78.829 127.333 78.7892 127.258 78.7476 127.185C78.2376 126.279 77.5064 125.514 76.6216 124.963L77.5018 123.587C78.6203 124.285 79.5437 125.251 80.1879 126.393C80.2403 126.487 80.2909 126.58 80.3398 126.676C81.2928 128.542 81.4537 130.663 80.7912 132.649C80.1624 134.531 78.8659 136.077 77.122 137.035Z" fill="white"/>
</g>
<defs>
<linearGradient id="paint0_linear" x1="26.0177" y1="76.8037" x2="46.5505" y2="52.6583" gradientUnits="userSpaceOnUse">
<stop stop-color="#02BE75"/>
<stop offset="1" stop-color="#029875"/>
</linearGradient>
<linearGradient id="paint1_linear" x1="41.4916" y1="65.5197" x2="68.1846" y2="8.40028" gradientUnits="userSpaceOnUse">
<stop stop-color="#02BE75"/>
<stop offset="1" stop-color="#029875"/>
</linearGradient>
<linearGradient id="paint2_linear" x1="8.29267" y1="117.234" x2="28.1371" y2="93.8977" gradientUnits="userSpaceOnUse">
<stop stop-color="#02BE75"/>
<stop offset="1" stop-color="#029875"/>
</linearGradient>
<linearGradient id="paint3_linear" x1="16.8721" y1="93.9996" x2="41.4503" y2="93.9996" gradientUnits="userSpaceOnUse">
<stop stop-color="#02BE75"/>
<stop offset="1" stop-color="#029875"/>
</linearGradient>
<linearGradient id="paint4_linear" x1="4.60639" y1="169.566" x2="26.3897" y2="143.95" gradientUnits="userSpaceOnUse">
<stop stop-color="#02BE75"/>
<stop offset="1" stop-color="#029875"/>
</linearGradient>
<linearGradient id="paint5_linear" x1="14.0241" y1="144.062" x2="41.0037" y2="144.062" gradientUnits="userSpaceOnUse">
<stop stop-color="#02BE75"/>
<stop offset="1" stop-color="#029875"/>
</linearGradient>
<linearGradient id="paint6_linear" x1="125.687" y1="83.5569" x2="145.742" y2="59.9734" gradientUnits="userSpaceOnUse">
<stop stop-color="#02BE75"/>
<stop offset="1" stop-color="#029875"/>
</linearGradient>
<linearGradient id="paint7_linear" x1="134.357" y1="60.0763" x2="159.196" y2="60.0763" gradientUnits="userSpaceOnUse">
<stop stop-color="#02BE75"/>
<stop offset="1" stop-color="#029875"/>
</linearGradient>
<linearGradient id="paint8_linear" x1="130.823" y1="175.119" x2="147.676" y2="155.302" gradientUnits="userSpaceOnUse">
<stop stop-color="#02BE75"/>
<stop offset="1" stop-color="#029875"/>
</linearGradient>
<linearGradient id="paint9_linear" x1="138.109" y1="155.388" x2="158.982" y2="155.388" gradientUnits="userSpaceOnUse">
<stop stop-color="#02BE75"/>
<stop offset="1" stop-color="#029875"/>
</linearGradient>
<linearGradient id="paint10_linear" x1="128.663" y1="135.585" x2="146.721" y2="114.35" gradientUnits="userSpaceOnUse">
<stop stop-color="#02BE75"/>
<stop offset="1" stop-color="#029875"/>
</linearGradient>
<linearGradient id="paint11_linear" x1="136.47" y1="114.443" x2="158.835" y2="114.443" gradientUnits="userSpaceOnUse">
<stop stop-color="#02BE75"/>
<stop offset="1" stop-color="#029875"/>
</linearGradient>
<clipPath id="clip0">
<rect width="180" height="180" rx="90" fill="white"/>
</clipPath>
</defs>
</svg>
