<svg width="180" height="180" viewBox="0 0 180 180" fill="none" xmlns="http://www.w3.org/2000/svg">
<circle cx="90" cy="90" r="90" fill="#E5FDFA"/>
<path d="M155.856 132.687L69.9406 82.9192C68.5156 82.0929 66.1867 82.0963 64.7651 82.9192L16.2304 110.973C14.298 112.09 14.298 113.924 16.227 115.041L101.524 164.45C102.781 165.179 104.834 165.179 106.091 164.447L155.853 135.681C157.278 134.862 157.281 133.509 155.856 132.687Z" fill="#EBEBEB"/>
<path d="M62.7656 153.813L40.3802 149.074L33.4068 154.646L62.7656 153.813Z" fill="#BA68C8"/>
<path d="M62.7656 153.813L40.3802 149.074L33.4068 154.646L62.7656 153.813Z" fill="#09C997"/>
<path d="M62.7656 153.813L42.2789 146.69L44.2281 141.368L62.7656 153.813Z" fill="#BA68C8"/>
<path d="M62.7656 153.813L42.2789 146.69L44.2281 141.368L62.7656 153.813Z" fill="#09C997"/>
<path d="M42.2789 146.69L43.4182 149.715L62.7656 153.813L42.2789 146.69Z" fill="#BA68C8"/>
<path d="M42.2789 146.69L43.4182 149.715L62.7656 153.813L42.2789 146.69Z" fill="#026048"/>
<path d="M39.7618 147.108C39.8088 147.098 39.8525 147.071 39.8828 147.027C39.95 146.929 39.9332 146.788 39.8424 146.71C39.6811 146.569 39.5198 146.427 39.3585 146.282C39.2678 146.201 39.1434 146.214 39.0728 146.309C39.0056 146.403 39.0191 146.545 39.1098 146.626C39.2711 146.771 39.4358 146.916 39.5971 147.058C39.6441 147.105 39.7046 147.118 39.7618 147.108Z" fill="#013A2A"/>
<path d="M37.5538 145.162C37.248 144.859 36.9489 144.552 36.6565 144.238C36.5725 144.15 36.5692 144.009 36.6465 143.921C36.7204 143.833 36.8515 143.833 36.9355 143.921C37.2245 144.228 37.5202 144.535 37.8227 144.835C37.9067 144.919 37.9168 145.061 37.8429 145.152C37.8126 145.189 37.7723 145.213 37.732 145.22C37.6681 145.23 37.6009 145.213 37.5538 145.162ZM35.2215 142.623C34.9426 142.289 34.6704 141.948 34.4049 141.607C34.331 141.513 34.3377 141.368 34.4217 141.29C34.5057 141.213 34.6334 141.226 34.7073 141.324C34.9695 141.661 35.235 141.995 35.5105 142.326C35.5878 142.42 35.5845 142.562 35.5038 142.643C35.4769 142.67 35.44 142.69 35.4064 142.697C35.3459 142.707 35.2719 142.683 35.2215 142.623ZM33.1312 139.837C32.8859 139.473 32.6473 139.098 32.4221 138.727C32.3582 138.623 32.3818 138.484 32.4725 138.417C32.5666 138.349 32.6909 138.38 32.7548 138.484C32.9766 138.849 33.2119 139.216 33.4538 139.577C33.521 139.678 33.5042 139.82 33.4169 139.891C33.3933 139.911 33.3664 139.925 33.3362 139.928C33.2623 139.945 33.1782 139.911 33.1312 139.837ZM31.34 136.808C31.135 136.414 30.94 136.012 30.7586 135.614C30.7082 135.503 30.7451 135.368 30.8459 135.314C30.9468 135.26 31.0677 135.311 31.1215 135.422C31.2996 135.81 31.4912 136.208 31.6928 136.596C31.75 136.707 31.7164 136.842 31.6189 136.899C31.5987 136.909 31.5786 136.919 31.5584 136.923C31.4777 136.943 31.387 136.896 31.34 136.808ZM29.915 133.564C29.7638 133.149 29.6159 132.724 29.4815 132.299C29.4445 132.181 29.4983 132.053 29.6059 132.019C29.71 131.982 29.8277 132.049 29.8646 132.167C29.9957 132.582 30.1402 133 30.2881 133.408C30.3318 133.527 30.2814 133.655 30.1772 133.699C30.1671 133.702 30.1536 133.709 30.1436 133.709C30.0495 133.729 29.952 133.668 29.915 133.564ZM28.8934 130.15C28.8161 129.81 28.7422 129.469 28.675 129.122L28.6212 128.838C28.5977 128.717 28.6682 128.602 28.7791 128.582H28.7825C28.8934 128.562 29.0009 128.646 29.0211 128.768L29.0749 129.044C29.1421 129.385 29.2127 129.719 29.29 130.053C29.3168 130.174 29.253 130.292 29.1454 130.319C29.1421 130.319 29.1387 130.319 29.1387 130.319C29.0278 130.346 28.9203 130.269 28.8934 130.15ZM28.5271 126.842C28.4162 126.852 28.3154 126.758 28.3019 126.636C28.2549 126.198 28.2179 125.749 28.1877 125.304C28.1809 125.179 28.265 125.075 28.3759 125.071C28.4868 125.068 28.5842 125.166 28.5943 125.29C28.6212 125.726 28.6581 126.167 28.7052 126.599C28.7186 126.717 28.6481 126.818 28.5472 126.838C28.5405 126.838 28.5338 126.842 28.5271 126.842ZM28.3322 123.317C28.2213 123.311 28.1305 123.206 28.1305 123.081C28.1372 122.64 28.154 122.191 28.1809 121.749C28.1877 121.624 28.2851 121.537 28.3994 121.55C28.5103 121.564 28.5943 121.675 28.5876 121.8C28.5607 122.231 28.5439 122.67 28.5372 123.105C28.5372 123.213 28.4666 123.297 28.3759 123.314C28.3624 123.317 28.3456 123.317 28.3322 123.317ZM28.5876 119.82C28.4767 119.793 28.4027 119.675 28.4195 119.554C28.4868 119.122 28.5674 118.683 28.6581 118.255C28.685 118.134 28.7959 118.066 28.9035 118.096C29.0144 118.13 29.0816 118.252 29.0547 118.373C28.964 118.795 28.8867 119.223 28.8195 119.645C28.806 119.739 28.7388 119.803 28.6615 119.82C28.6413 119.827 28.6145 119.827 28.5876 119.82ZM29.3404 116.43C29.2328 116.387 29.1757 116.255 29.2127 116.14C29.3404 115.726 29.4849 115.311 29.6361 114.909C29.6798 114.795 29.7974 114.747 29.9016 114.798C30.0058 114.849 30.0562 114.984 30.0125 115.095C29.8646 115.489 29.7268 115.898 29.5991 116.302C29.5756 116.38 29.5185 116.43 29.4479 116.444C29.4143 116.451 29.3773 116.447 29.3404 116.43Z" fill="#013A2A"/>
<path d="M152.492 80.9969L140.088 68.5449L147.337 82.4943L152.492 80.9969Z" fill="#BA68C8"/>
<path d="M152.492 80.9969L140.088 68.5449L147.337 82.4943L152.492 80.9969Z" fill="#09C997"/>
<path d="M140.088 68.5449L154.67 79.6174L159.825 78.1166L140.088 68.5449Z" fill="#BA68C8"/>
<path d="M140.088 68.5449L154.67 79.6174L159.825 78.1166L140.088 68.5449Z" fill="#09C997"/>
<path d="M154.67 79.6174L152.593 83.5803L152.492 80.9969L140.088 68.5449L154.67 79.6174Z" fill="#BA68C8"/>
<path d="M154.67 79.6174L152.593 83.5803L152.492 80.9969L140.088 68.5449L154.67 79.6174Z" fill="#026048"/>
<path d="M152.593 83.5803L150.771 81.496L152.492 80.9968L152.593 83.5803Z" fill="#013A2A"/>
<path opacity="0.2" d="M152.492 80.9968L150.771 81.496L151.064 81.8299L152.492 80.9968Z" fill="black"/>
<g opacity="0.15">
<g opacity="0.15">
<g opacity="0.15">
<path opacity="0.15" d="M155.09 82.9058C155.046 82.9058 154.999 82.9226 154.965 82.9564C154.885 83.0339 154.875 83.1688 154.945 83.2565C155.07 83.4184 155.191 83.5803 155.315 83.7422C155.382 83.8332 155.503 83.8434 155.584 83.7692C155.664 83.695 155.678 83.5601 155.607 83.469C155.486 83.3037 155.362 83.1419 155.234 82.9766C155.197 82.9327 155.144 82.9058 155.09 82.9058Z" fill="#026048"/>
</g>
</g>
<g opacity="0.15">
<g opacity="0.15">
<path opacity="0.15" d="M156.773 85.1215C156.999 85.4588 157.22 85.8028 157.432 86.1468C157.493 86.2446 157.469 86.3761 157.382 86.4436C157.294 86.511 157.177 86.4874 157.116 86.3896C156.905 86.049 156.689 85.7117 156.464 85.3778C156.4 85.2834 156.417 85.1485 156.505 85.081C156.538 85.0507 156.579 85.0372 156.619 85.0405C156.679 85.0372 156.737 85.0675 156.773 85.1215ZM158.457 87.9107C158.652 88.2716 158.84 88.6358 159.022 89.0034C159.072 89.108 159.039 89.2362 158.944 89.2935C158.854 89.3508 158.736 89.3137 158.686 89.2092C158.508 88.8483 158.323 88.4874 158.128 88.1299C158.074 88.0287 158.104 87.8972 158.192 87.8365C158.222 87.8163 158.259 87.8061 158.293 87.8061C158.36 87.8095 158.42 87.8466 158.457 87.9107ZM159.872 90.8854C160.03 91.2699 160.181 91.6578 160.322 92.0456C160.363 92.1535 160.316 92.2783 160.218 92.3222C160.121 92.366 160.01 92.3154 159.969 92.2041C159.832 91.823 159.684 91.4419 159.526 91.0608C159.482 90.9529 159.523 90.8281 159.62 90.7775C159.647 90.764 159.674 90.7572 159.701 90.7572C159.771 90.7606 159.842 90.8078 159.872 90.8854ZM160.964 94.022C161.079 94.4267 161.186 94.8348 161.28 95.2362C161.307 95.3508 161.247 95.4655 161.142 95.4959C161.042 95.5262 160.934 95.4588 160.91 95.3441C160.816 94.9495 160.716 94.5481 160.601 94.1502C160.571 94.0389 160.625 93.9174 160.726 93.8837C160.746 93.877 160.766 93.8736 160.786 93.8736C160.863 93.8736 160.937 93.9343 160.964 94.022ZM161.68 97.2935C161.744 97.705 161.801 98.1266 161.845 98.5448C161.858 98.6628 161.781 98.7674 161.677 98.7809C161.576 98.7943 161.475 98.71 161.465 98.5954C161.421 98.1839 161.368 97.7724 161.304 97.3677C161.287 97.253 161.354 97.1417 161.458 97.1215C161.468 97.1181 161.482 97.1181 161.492 97.1181C161.583 97.1181 161.663 97.1923 161.68 97.2935ZM161.986 100.646C161.996 100.976 161.999 101.307 161.996 101.638L161.993 101.911C161.989 102.029 161.905 102.12 161.801 102.12H161.798C161.694 102.116 161.609 102.022 161.609 101.904L161.613 101.638C161.616 101.31 161.613 100.987 161.603 100.663C161.599 100.545 161.683 100.447 161.788 100.444C161.791 100.444 161.794 100.444 161.794 100.444C161.899 100.44 161.983 100.531 161.986 100.646ZM161.707 103.779C161.811 103.793 161.888 103.897 161.878 104.012C161.841 104.427 161.791 104.852 161.734 105.267C161.717 105.385 161.62 105.462 161.515 105.445C161.411 105.428 161.337 105.32 161.354 105.202C161.411 104.794 161.458 104.376 161.495 103.968C161.505 103.857 161.589 103.776 161.687 103.776C161.697 103.779 161.7 103.779 161.707 103.779ZM161.233 107.081C161.337 107.108 161.401 107.223 161.374 107.337C161.287 107.745 161.186 108.157 161.079 108.558C161.048 108.67 160.941 108.734 160.84 108.703C160.739 108.67 160.682 108.552 160.712 108.437C160.82 108.042 160.917 107.638 161.001 107.24C161.021 107.142 161.102 107.074 161.189 107.074C161.203 107.074 161.22 107.074 161.233 107.081ZM160.339 110.268C160.437 110.312 160.484 110.437 160.443 110.545C160.299 110.933 160.144 111.32 159.98 111.702C159.933 111.81 159.818 111.85 159.724 111.803C159.63 111.752 159.59 111.624 159.633 111.519C159.795 111.148 159.946 110.764 160.087 110.386C160.117 110.302 160.191 110.251 160.265 110.255C160.292 110.255 160.319 110.258 160.339 110.268ZM159.012 113.267C159.102 113.327 159.129 113.459 159.076 113.56C158.877 113.921 158.669 114.278 158.454 114.622C158.393 114.72 158.272 114.744 158.188 114.676C158.101 114.609 158.081 114.477 158.141 114.38C158.353 114.042 158.558 113.691 158.75 113.337C158.787 113.27 158.85 113.236 158.914 113.236C158.948 113.236 158.981 113.243 159.012 113.267Z" fill="#026048"/>
</g>
</g>
</g>
<path d="M69.0836 54.6946L156.444 123.565C158.635 125.295 158.387 127.126 158.185 128.769C157.983 130.411 157.073 132.661 155.197 133.747L107.237 161.538C105.365 162.624 102.559 162.489 100.973 161.238L13.6091 92.3709C12.0229 91.1196 11.8683 89.1432 12.0699 87.4973C12.2716 85.8548 12.984 83.2714 14.8559 82.1854L62.816 54.3945C64.6912 53.3118 66.8723 52.9543 69.0836 54.6946Z" fill="#029875"/>
<path d="M66.5194 56.845L17.1983 85.4217L104.935 154.568L103.994 162.265C102.862 162.211 101.763 161.864 100.97 161.24L13.6091 92.3694C12.0229 91.1182 11.8683 89.1418 12.0699 87.4959C12.2716 85.8534 12.984 83.27 14.8559 82.1839L62.816 54.3931C63.9855 53.7151 65.397 53.2463 66.9126 53.6072L66.8824 53.8467L66.5194 56.845Z" fill="#026048"/>
<path d="M155.587 123.958L68.3745 55.206C67.1176 54.2145 64.876 54.1099 63.3906 54.9666L16.5732 82.0964C14.5601 83.26 14.3081 85.3173 16.012 86.6596L102.68 154.983C103.789 155.857 105.765 155.951 107.076 155.193L155.177 127.324C156.659 126.464 156.844 124.95 155.587 123.958Z" fill="#09C997"/>
<path d="M39.9836 107.284C40.6087 107.776 41.0288 108.875 40.9246 109.739C40.8742 110.157 40.7095 110.437 40.481 110.565C40.3197 110.653 39.7114 111.02 39.5433 111.112C39.3014 111.246 38.9888 111.203 38.6662 110.95L31.7264 105.479C31.1013 104.987 30.6813 103.887 30.7854 103.024C30.8325 102.626 30.9871 102.349 31.1988 102.218C31.3635 102.113 31.9986 101.746 32.1633 101.655C32.4053 101.52 32.7178 101.56 33.0405 101.816L39.9836 107.284Z" fill="#013A2A"/>
<path d="M39.0527 107.827L32.1095 102.353C31.4845 101.86 30.893 102.161 30.7854 103.024C30.6813 103.887 31.1013 104.987 31.7264 105.479L38.6696 110.953C39.2947 111.446 39.8861 111.145 39.9937 110.282C40.0978 109.419 39.6778 108.319 39.0527 107.827Z" fill="#09C997"/>
<path d="M27.8314 97.7051C28.4565 98.1975 28.8766 99.297 28.7724 100.16C28.722 100.579 28.5573 100.859 28.3288 100.987C28.1675 101.074 27.5592 101.442 27.3912 101.533C27.1492 101.668 26.8367 101.624 26.5141 101.371L19.5709 95.8974C18.9458 95.405 18.5257 94.3055 18.6299 93.442C18.677 93.0441 18.8316 92.7675 19.0433 92.636C19.2113 92.5314 19.8431 92.1638 20.0078 92.0727C20.2498 91.9378 20.5623 91.9783 20.8849 92.2346L27.8314 97.7051Z" fill="#013A2A"/>
<path d="M26.8972 98.2446L19.954 92.7708C19.3289 92.2784 18.7375 92.5785 18.6299 93.4419C18.5257 94.3053 18.9458 95.4048 19.5709 95.8972L26.5141 101.371C27.1391 101.864 27.7306 101.563 27.8382 100.7C27.9457 99.8365 27.5223 98.737 26.8972 98.2446Z" fill="#09C997"/>
<path d="M69.9608 58.9801L151.4 123.182C152.603 124.13 152.428 125.574 151.01 126.393L107.493 151.607C106.078 152.434 103.951 152.333 102.744 151.381L20.7236 86.7204C19.749 85.9515 19.6717 84.8587 20.4481 84.0358C20.5119 83.9717 20.569 83.911 20.6329 83.8503C20.774 83.7322 20.9387 83.6176 21.1135 83.5164L33.353 76.4236C33.353 76.4236 33.7092 76.2145 34.1529 75.9616C34.5931 75.7053 35.2518 75.7356 35.6248 76.0324C35.9979 76.3258 36.6834 76.3461 37.1539 76.0695L51.42 67.8031C51.8871 67.5299 51.9711 67.0712 51.5981 66.7778C51.2486 66.5012 51.2721 66.0897 51.635 65.83C51.6586 65.8132 51.6888 65.7963 51.7157 65.7795L63.6897 58.8418L63.9452 58.6935C65.7398 57.6547 68.4417 57.7862 69.9608 58.9801Z" fill="#026048"/>
<path d="M35.3862 78.0053C35.0098 77.7085 34.3511 77.6781 33.9142 77.9344C33.4706 78.1874 33.1144 78.3965 33.1144 78.3965L20.8715 85.4892C20.6934 85.5904 20.5321 85.7051 20.3909 85.8231C20.3237 85.8839 20.2699 85.9479 20.2061 86.0086C20.1859 86.0289 20.1725 86.0525 20.1523 86.0761C20.2834 86.3054 20.4749 86.5213 20.7203 86.7169L102.744 151.378C103.951 152.329 106.078 152.43 107.493 151.604L151.01 126.39C151.306 126.221 151.541 126.022 151.729 125.806C151.598 125.574 151.41 125.354 151.158 125.155L69.7188 60.9564C68.2031 59.7591 65.5012 59.6309 63.7066 60.6697L63.4511 60.8181L51.7896 67.5702C51.7896 67.5702 51.6082 69.0677 51.5846 69.2464C51.5611 69.442 51.42 69.6343 51.178 69.7759L36.912 78.0424C36.4448 78.3189 35.7559 78.2987 35.3862 78.0053Z" fill="#EBEBEB"/>
<path d="M32.3347 84.7374C32.3179 84.734 32.2978 84.7272 32.281 84.7104L32.1062 84.5485L31.5651 84.8621C31.5349 84.879 31.508 84.8756 31.4845 84.8554L31.4206 84.7981C31.4072 84.7846 31.3971 84.7745 31.3937 84.7643C31.3904 84.7542 31.387 84.7441 31.3837 84.7272L31.3366 83.82C31.3366 83.8031 31.3366 83.793 31.34 83.7829C31.3433 83.7728 31.3534 83.766 31.3702 83.7559L31.4442 83.7121C31.4677 83.6986 31.4878 83.6918 31.508 83.6952C31.5282 83.6986 31.5483 83.7087 31.5651 83.7256L32.1734 84.2854L32.2944 84.2146C32.3179 84.2011 32.3381 84.1944 32.3549 84.1977C32.3717 84.2011 32.3919 84.2112 32.412 84.2281L32.4524 84.2652C32.4692 84.282 32.4792 84.2955 32.4792 84.309C32.4792 84.3225 32.4658 84.336 32.4423 84.3495L32.3213 84.4203L32.496 84.5822C32.5128 84.5991 32.5229 84.6159 32.5196 84.6261C32.5162 84.6395 32.5061 84.653 32.4826 84.6665L32.3919 84.7205C32.3717 84.734 32.3515 84.7407 32.3347 84.7374ZM31.9953 84.39L31.5618 83.992L31.6021 84.6193L31.9953 84.39Z" fill="#455A64"/>
<path d="M32.8724 84.265C32.6742 84.2414 32.486 84.147 32.3112 83.9885C32.1398 83.83 32.0591 83.6748 32.0692 83.5264C32.0827 83.378 32.1835 83.2465 32.3784 83.1352C32.4557 83.0914 32.5364 83.0543 32.617 83.0273C32.6977 83.0003 32.775 82.9868 32.8455 82.9868C32.8623 82.9868 32.8724 82.9902 32.8792 82.9969C32.8825 83.0003 32.8892 83.0071 32.8892 83.0172L32.9161 83.115C32.9195 83.1285 32.9161 83.1352 32.9094 83.1386C32.906 83.142 32.896 83.142 32.8792 83.1453C32.7615 83.1554 32.6506 83.1892 32.5431 83.2533C32.412 83.3275 32.3448 83.4185 32.3347 83.5231C32.328 83.6276 32.3885 83.7389 32.5229 83.8637C32.6573 83.9885 32.7918 84.0593 32.9296 84.0762C33.0673 84.093 33.1984 84.0661 33.3228 83.9952C33.3698 83.9683 33.4101 83.9413 33.4471 83.9075C33.4841 83.8772 33.511 83.8468 33.5244 83.8199L33.2421 83.5602L33.0169 83.6917C32.9934 83.7052 32.9732 83.7119 32.9564 83.7086C32.9396 83.7052 32.9195 83.6951 32.8993 83.6782L32.859 83.6411C32.8388 83.6242 32.8321 83.6074 32.8321 83.5973C32.8321 83.5838 32.8455 83.5737 32.8691 83.5602L33.2287 83.3511C33.2522 83.3376 33.2791 83.3308 33.2992 83.3342C33.3194 83.3376 33.3429 83.3511 33.3664 83.3713L33.7697 83.7423C33.7865 83.7558 33.7933 83.7693 33.8 83.776C33.8033 83.7861 33.8033 83.7963 33.8 83.8064C33.7529 83.921 33.642 84.0323 33.4605 84.1369C33.269 84.2482 33.0741 84.292 32.8724 84.265Z" fill="#455A64"/>
<path d="M37.3824 81.5567C37.5169 81.6815 37.4833 81.8636 37.3119 81.9648C37.1371 82.0659 36.8884 82.0457 36.754 81.9243C36.6196 81.7995 36.6532 81.6174 36.8246 81.5162C36.9993 81.415 37.248 81.4353 37.3824 81.5567Z" fill="#455A64"/>
<path d="M36.428 81.1488C36.1121 81.3309 35.9709 81.6176 36.0348 81.8874C36.0482 81.9414 36.1121 81.9819 36.1894 81.9785C36.2835 81.9785 36.3608 81.9144 36.344 81.847C36.2969 81.6581 36.3977 81.4557 36.6195 81.3276C36.8447 81.1994 37.1337 81.1758 37.3757 81.25C37.4631 81.277 37.5639 81.2399 37.5874 81.169C37.6042 81.1151 37.5706 81.0611 37.5 81.0375C37.1572 80.933 36.7439 80.9667 36.428 81.1488Z" fill="#455A64"/>
<path d="M36.0381 80.7912C35.5677 81.0644 35.3425 81.4792 35.3895 81.8839C35.3963 81.9446 35.4635 81.9885 35.5441 81.9885C35.6382 81.9885 35.7088 81.9278 35.6987 81.8603C35.6584 81.5332 35.8399 81.1925 36.2263 80.9699C36.6128 80.7473 37.1068 80.6934 37.5336 80.7979C37.621 80.8181 37.7151 80.781 37.7386 80.717C37.7588 80.6596 37.7151 80.6023 37.6378 80.5821C37.1169 80.4505 36.512 80.518 36.0381 80.7912Z" fill="#455A64"/>
<path d="M26.4703 88.3292L26.1343 88.019L26.7123 87.6851L27.0484 87.9953L26.4703 88.3292Z" fill="#455A64"/>
<path d="M27.3374 87.8268L26.6686 87.2096L27.2466 86.8723L27.9188 87.4895L27.3374 87.8268Z" fill="#455A64"/>
<path d="M28.2078 87.3241L27.203 86.3966L27.781 86.0593L28.7858 86.9868L28.2078 87.3241Z" fill="#455A64"/>
<path d="M29.0749 86.8183L27.7339 85.5839L28.3153 85.2466L29.6529 86.4844L29.0749 86.8183Z" fill="#455A64"/>
<path d="M64.3383 64.771C64.214 64.7474 64.1031 64.7609 64.0258 64.8047L61.8615 66.056C61.7204 66.137 61.7237 66.3056 61.8682 66.4371L62.4765 67.0004C62.5572 67.0746 62.6681 67.1285 62.7924 67.1488C62.8462 67.1589 62.8966 67.1622 62.9437 67.1589C63.0075 67.1555 63.0579 67.1386 63.105 67.115L65.2692 65.8638C65.4104 65.7828 65.407 65.6142 65.2625 65.4826L64.6542 64.9194C64.5736 64.8486 64.4593 64.7946 64.3383 64.771ZM62.7891 67.0611C62.7454 67.0543 62.695 67.0273 62.6546 66.9902L62.0464 66.427C61.9388 66.3292 61.9388 66.1943 62.0396 66.1369L64.2039 64.8857C64.2308 64.8722 64.2577 64.8621 64.2879 64.8587C64.3047 64.8587 64.3215 64.8587 64.335 64.8621C64.3787 64.8688 64.4291 64.8958 64.4694 64.9329L65.0777 65.4961C65.1852 65.5939 65.1852 65.7289 65.0844 65.7862L62.9201 67.0375C62.8832 67.0611 62.8361 67.0678 62.7891 67.0611Z" fill="#455A64"/>
<path d="M62.5572 65.9951L63.2764 66.6595L62.9369 66.8552C62.9067 66.872 62.8496 66.8754 62.8327 66.8585L62.2984 66.3627C62.2211 66.2919 62.2211 66.1907 62.2917 66.1469L62.5572 65.9951Z" fill="#455A64"/>
<path d="M62.7151 65.9075L63.1218 65.6714L63.8409 66.3358L63.4343 66.5685L62.7151 65.9075Z" fill="#455A64"/>
<path d="M63.2797 65.5803L63.6864 65.3442L64.4089 66.012L64.0023 66.2447L63.2797 65.5803Z" fill="#455A64"/>
<path d="M64.298 65.0644L64.8156 65.5433C64.9097 65.631 64.866 65.7457 64.7013 65.8435L64.5635 65.921L63.8443 65.2566L64.167 65.0677C64.2073 65.0475 64.2779 65.0441 64.298 65.0644Z" fill="#455A64"/>
<path d="M64.7382 64.8789C64.7987 64.8451 64.9466 64.9092 65.071 65.0239L65.1852 65.1284C65.3096 65.2431 65.3633 65.3679 65.3062 65.405L65.202 65.4724L64.6307 64.9396C64.6307 64.9429 64.6778 64.9126 64.7382 64.8789Z" fill="#455A64"/>
<path d="M58.7294 68.4777L60.5072 66.96L61.0415 68.4271L60.077 67.9954L58.7294 68.4777Z" fill="#455A64"/>
<path d="M37.0464 73.0204L43.5862 69.2329C43.9761 69.0069 44.544 69.0204 44.8532 69.2666C45.1624 69.5095 45.0985 69.894 44.7087 70.1199L38.1688 73.9075C37.779 74.1334 37.211 74.1199 36.9019 73.8737C36.5927 73.6275 36.6565 73.2464 37.0464 73.0204Z" fill="#EBEBEB"/>
<path d="M46.715 67.1081C47.1552 66.8518 47.8139 66.8856 48.1836 67.179C48.5566 67.4724 48.5029 67.9176 48.0626 68.1705C47.6224 68.4269 46.9637 68.3932 46.594 68.0997C46.221 67.8063 46.2747 67.3611 46.715 67.1081Z" fill="#EBEBEB"/>
<path d="M56.1451 79.422L56.1383 79.4254L55.3654 78.8149C55.0898 78.599 54.6395 78.5552 54.3572 78.7171L53.4095 79.2668C53.1272 79.4287 53.1238 79.739 53.3994 79.9549L54.1723 80.5619L54.1656 80.5653C53.9505 80.6901 53.9472 80.9262 54.1589 81.0915L55.7182 82.3191C55.93 82.4844 56.2728 82.5181 56.4878 82.3933L58.4706 81.2466C58.6857 81.1218 58.6891 80.8857 58.4807 80.7205L56.9214 79.4928C56.7063 79.3309 56.3601 79.2972 56.1451 79.422ZM53.6178 79.8301C53.4599 79.7053 53.4632 79.5299 53.6245 79.4388L54.5723 78.8891C54.7336 78.798 54.989 78.8216 55.1469 78.9431L55.9199 79.5535L54.3941 80.4372L53.6178 79.8301Z" fill="#455A64"/>
<path d="M61.8179 99.2803C61.9859 99.4119 61.9691 99.5367 61.7742 99.6513L61.5188 99.7997C61.3205 99.9144 61.139 99.9077 60.971 99.7728L54.1723 94.4136L53.3355 97.051C53.275 97.223 53.1204 97.2905 52.8718 97.2567L52.5626 97.2163C52.4483 97.1994 52.3643 97.1623 52.3072 97.1083C52.25 97.051 52.2366 96.9836 52.2635 96.9094L53.2616 93.7728C53.2851 93.7053 53.3221 93.6547 53.3691 93.6176C53.4162 93.5805 53.47 93.5434 53.5338 93.5063L53.7892 93.3579C53.9875 93.2433 54.169 93.2534 54.337 93.3849L61.8179 99.2803Z" fill="#455A64"/>
<path d="M58.269 93.8471C58.0203 93.638 57.8119 93.3884 57.6473 93.0983C57.4826 92.8083 57.4019 92.5048 57.4087 92.1844C57.4154 91.8639 57.5263 91.5402 57.7481 91.2096C57.9665 90.8791 58.3328 90.5655 58.8437 90.2687C59.3545 89.9719 59.8552 89.7729 60.3425 89.665C60.8332 89.5604 61.2969 89.5233 61.7372 89.5604C62.1774 89.5975 62.5908 89.6953 62.9773 89.8572C63.3604 90.0191 63.7032 90.2181 63.9989 90.4508C64.4694 90.8218 64.7685 91.2231 64.8895 91.6515C65.0138 92.0798 65.0206 92.5891 64.9164 93.1793L64.4829 97.1456L68.9929 94.5317C69.1979 94.4103 69.3894 94.4204 69.5642 94.5587L69.7356 94.6936C69.9036 94.8252 69.8834 94.9499 69.6784 95.0714L64.1569 98.2687C63.9586 98.3833 63.7771 98.3732 63.6091 98.2417L63.4377 98.1068C63.3604 98.0461 63.3133 97.9752 63.2898 97.8875C63.2663 97.8032 63.2697 97.6852 63.2965 97.5334L63.8275 93.186C63.8813 92.8825 63.9082 92.6228 63.9115 92.4036C63.9149 92.1843 63.888 91.9887 63.8342 91.8167C63.7805 91.6447 63.6965 91.4896 63.5856 91.3547C63.4713 91.2164 63.3301 91.0781 63.1554 90.9398C62.6446 90.5385 62.0766 90.3226 61.4448 90.2923C60.813 90.2619 60.1778 90.4339 59.5292 90.8083C58.9109 91.1658 58.5748 91.5672 58.5244 92.0056C58.474 92.444 58.6588 92.8791 59.0823 93.3108C59.1562 93.3918 59.1797 93.4693 59.1528 93.5435C59.126 93.6144 59.0856 93.665 59.0319 93.6987L58.763 93.8538C58.5782 93.9651 58.4135 93.9618 58.269 93.8471Z" fill="#455A64"/>
<path d="M68.7039 89.8301C68.7811 89.8908 68.8114 89.9549 68.7979 90.0257C68.7845 90.0966 68.7341 90.1573 68.6434 90.2079L67.9981 90.5822C67.7998 90.6969 67.6184 90.6868 67.4503 90.5552L66.9025 90.1235C66.8252 90.0628 66.7916 89.9988 66.795 89.9279C66.7984 89.8571 66.8454 89.7964 66.9361 89.7458L67.5814 89.3714C67.6721 89.3208 67.7696 89.2972 67.8771 89.3006C67.9847 89.3074 68.0754 89.3377 68.1527 89.3984L68.7039 89.8301ZM72.6963 92.9768C72.7736 93.0375 72.8039 93.1016 72.7904 93.1724C72.777 93.2433 72.7266 93.304 72.6358 93.3546L71.9906 93.7289C71.7923 93.8436 71.6108 93.8335 71.4428 93.702L70.895 93.2703C70.8177 93.2095 70.7841 93.1455 70.7875 93.0746C70.7908 93.0038 70.8379 92.9431 70.9286 92.8925L71.5739 92.5181C71.6646 92.4676 71.7621 92.4439 71.8696 92.4473C71.9771 92.4541 72.0712 92.4844 72.1452 92.5451L72.6963 92.9768Z" fill="#455A64"/>
<path d="M72.3132 82.6226C72.5216 82.5046 72.7098 82.5113 72.8845 82.6496L73.0559 82.7845C73.103 82.8182 73.1299 82.8587 73.1433 82.8992C73.1534 82.9396 73.1635 82.9801 73.1668 83.0172L73.1433 86.8823L73.4122 86.7271C73.8692 86.4607 74.3363 86.255 74.8068 86.1066C75.2807 85.9582 75.7445 85.8772 76.2015 85.8705C76.6586 85.8604 77.1022 85.9278 77.5357 86.0661C77.9692 86.2044 78.3759 86.4236 78.7556 86.7238C79.1354 87.0239 79.3908 87.3342 79.5219 87.6614C79.6529 87.9852 79.6764 88.3089 79.5891 88.6361C79.505 88.9599 79.3169 89.2803 79.0278 89.5939C78.7388 89.9076 78.3658 90.1943 77.9087 90.4607C77.4046 90.7508 76.9005 90.97 76.3964 91.1116C75.8923 91.2533 75.4118 91.3309 74.9547 91.3477C74.4977 91.3612 74.0776 91.3207 73.7012 91.2229C73.3214 91.1251 73.0022 90.9801 72.74 90.7879C72.6728 90.7339 72.6459 90.6766 72.6627 90.6158C72.6795 90.5551 72.7266 90.5012 72.8072 90.454L72.9954 90.346C73.066 90.3056 73.1534 90.2752 73.2508 90.2617C73.3483 90.2482 73.4727 90.2752 73.6239 90.3427C73.9465 90.4978 74.2691 90.5922 74.5918 90.6158C74.9144 90.6428 75.2303 90.6293 75.5428 90.572C75.8554 90.518 76.1511 90.4304 76.4368 90.3123C76.7224 90.1943 76.9879 90.0627 77.2299 89.9244C77.5794 89.7221 77.865 89.5096 78.0835 89.2904C78.3019 89.0712 78.4464 88.8418 78.517 88.6091C78.5876 88.3764 78.5741 88.1437 78.4767 87.9076C78.3792 87.6715 78.191 87.4455 77.9087 87.2229C77.3475 86.7777 76.7426 86.5788 76.1007 86.6158C75.4588 86.6563 74.79 86.8755 74.1011 87.2769L72.9148 87.9649C72.7165 88.0796 72.535 88.0695 72.367 87.9379L72.1956 87.803C72.1351 87.7558 72.0948 87.7086 72.0746 87.6614C72.0545 87.6142 72.0444 87.5669 72.0444 87.5164L72.0477 83.7255L67.9813 86.083C67.783 86.1976 67.6016 86.1875 67.4335 86.056L67.2621 85.9211C67.0874 85.7828 67.0975 85.658 67.2957 85.5433L72.3132 82.6226Z" fill="#455A64"/>
<path d="M85.4467 85.5906C85.6147 85.7221 85.5979 85.8469 85.403 85.9616L85.1476 86.11C84.9493 86.2247 84.7678 86.2146 84.5998 86.083L77.8012 80.7238L76.9644 83.3613C76.9039 83.5333 76.7493 83.6007 76.5006 83.567L76.1914 83.5265C76.0771 83.5097 75.9931 83.4726 75.936 83.4152C75.8822 83.3613 75.8654 83.2938 75.8923 83.2162L76.8904 80.0797C76.914 80.0122 76.9509 79.9616 76.998 79.9245C77.045 79.8874 77.0988 79.8503 77.1626 79.8132L77.4181 79.6648C77.6163 79.5501 77.7978 79.5603 77.9658 79.6918L85.4467 85.5906Z" fill="#455A64"/>
<path d="M63.0243 109.88L97.5485 89.8771C98.4794 89.3375 99.8707 89.4049 100.657 90.0255L108.508 96.2144C109.294 96.8349 109.18 97.7759 108.252 98.3122L73.7281 118.316C72.7972 118.855 71.4058 118.788 70.6194 118.167L62.7723 111.982C61.9792 111.358 62.0968 110.417 63.0243 109.88Z" fill="white"/>
<path d="M77.1694 121.031L111.694 101.027C112.624 100.488 114.016 100.555 114.802 101.176L122.653 107.364C123.439 107.985 123.325 108.926 122.397 109.462L87.8731 129.466C86.9422 130.005 85.5509 129.938 84.7645 129.317L76.9174 123.132C76.1242 122.508 76.2385 121.567 77.1694 121.031Z" fill="white"/>
<path d="M91.3111 132.181L125.835 112.177C126.766 111.638 128.157 111.705 128.944 112.326L136.794 118.515C137.581 119.135 137.466 120.076 136.539 120.612L102.015 140.616C101.084 141.155 99.6926 141.088 98.9062 140.467L91.059 134.282C90.2659 133.658 90.3802 132.72 91.3111 132.181Z" fill="white"/>
<path d="M105.349 133.068C105.342 133.068 105.338 133.068 105.332 133.068C104.492 133.102 103.672 132.909 103.131 132.481L102.122 131.685C100.973 130.778 98.9398 130.68 97.5821 131.469C96.2244 132.255 96.0563 133.628 97.2057 134.535L98.1063 135.247C98.6743 135.692 98.8927 136.292 98.7348 136.876L98.9196 137.301C99.2086 137.53 99.7228 137.554 100.062 137.355L105.806 134.029C106.148 133.83 106.189 133.486 105.9 133.257C105.755 133.142 105.554 133.078 105.349 133.068ZM104.33 136.795C104.982 136.417 105.063 135.759 104.512 135.324L102.153 136.69C102.704 137.125 103.678 137.172 104.33 136.795Z" fill="#E0E0E0"/>
<path d="M91.2271 121.655C91.2203 121.655 91.217 121.655 91.2102 121.655C90.3701 121.688 89.5501 121.496 89.009 121.068L88.0008 120.272C86.8515 119.364 84.8183 119.267 83.4605 120.056C82.1028 120.842 81.9348 122.214 83.0842 123.122L83.9848 123.833C84.5528 124.278 84.7712 124.879 84.6133 125.459L84.7981 125.884C85.0871 126.113 85.6013 126.137 85.9407 125.938L91.6841 122.612C92.0269 122.413 92.0672 122.069 91.7782 121.84C91.6337 121.729 91.4354 121.665 91.2271 121.655ZM90.2088 125.378C90.8607 125 90.9414 124.343 90.3902 123.907L88.0311 125.273C88.5822 125.712 89.5568 125.756 90.2088 125.378Z" fill="#E0E0E0"/>
<g opacity="0.3">
<path opacity="0.3" d="M103.433 85.3679L93.0317 77.1689L76.4031 130.609L86.8044 138.808L103.433 85.3679Z" fill="white"/>
<path opacity="0.3" d="M134.835 112.292L117.208 98.3965L101.121 150.1L102.747 151.381C103.954 152.332 106.081 152.434 107.496 151.607L125.926 140.929L134.835 112.292Z" fill="white"/>
<path opacity="0.3" d="M66.9395 123.152L83.5681 69.7086L69.9574 58.98C68.4417 57.7827 65.7398 57.6546 63.9452 58.6934L63.6897 58.8418L56.4744 63.0205L43.5123 104.687L66.9395 123.152Z" fill="white"/>
</g>
<path opacity="0.2" d="M94.1979 121.769C106.702 121.769 116.839 116.437 116.839 109.86C116.839 103.283 106.702 97.9514 94.1979 97.9514C81.6937 97.9514 71.5571 103.283 71.5571 109.86C71.5571 116.437 81.6937 121.769 94.1979 121.769Z" fill="black"/>
<path d="M104.088 116.491C104.088 116.491 111.129 113.945 113.424 110.211C113.213 106.073 112.813 98.6428 112.755 98.6934L99.4876 100.073L102.29 111.746L104.088 116.491Z" fill="#026048"/>
<path d="M109.26 109.189C110.504 107.027 111.586 101.837 111.589 100.073H75.6941C75.6941 100.073 75.0253 107.857 75.0824 110.987C75.0824 111 75.0858 111.01 75.0858 111.024C75.0858 111.027 75.0891 111.027 75.0891 111.031C75.8386 112.889 77.6029 114.029 81.6223 115.779C89.0628 119.014 99.1582 118.521 104.088 116.494V114.845C104.088 114.842 108.017 111.351 109.26 109.189Z" fill="#026048"/>
<path d="M118.479 64.8687C124.326 69.9884 125.398 71.034 125.398 71.034C127.008 64.3122 128.339 59.6141 128.541 56.7574C128.742 53.9041 132.419 47.6545 132.419 47.6545C135.349 48.4134 137.648 53.034 136.166 57.7557C135.087 61.1925 137.127 69.5466 135.03 80.6124C133.934 86.3999 130.738 87.7692 124.541 84.2583C120.199 81.7996 112.359 76.1031 112.359 76.1031L106.407 56.238C111.391 57.152 112.782 59.8805 118.479 64.8687Z" fill="#FFA8A7"/>
<path d="M107.382 56.1707C110.211 56.7305 112.154 58.1774 115.387 61.4152C118.616 64.6529 125.449 70.8452 125.449 70.8452C125.449 70.8452 123.755 75.0644 125.146 80.427C126.356 85.0948 128.228 85.8806 128.228 85.8806C128.228 85.8806 126.756 86.3089 122.837 83.7828C118.922 81.2567 110.248 75.0172 110.248 75.0172L107.382 56.1707Z" fill="#029875"/>
<path d="M125.771 69.5028C125.771 69.5028 125.089 80.2179 128.369 83.1993C131.652 86.1841 133.733 84.2179 133.733 84.2179C133.733 84.2179 133.561 87.2634 131.572 87.1622C129.582 87.0644 129.273 87.2196 128.104 87.1825C126.934 87.1454 125.099 86.9835 124.269 84.6394C121.823 79.8941 122.723 73.6647 124.424 69.9143C125.005 70.201 125.002 69.3814 125.771 69.5028Z" fill="#026048"/>
<path d="M140.841 47.9411C140.763 49.8636 140.014 51.1755 139.627 52.1604C138.115 55.9985 137.265 55.5465 135.766 58.4976L132.593 50.2683C131.212 47.8366 132.301 46.7573 134.435 46.248L140.841 47.9411Z" fill="#F28F8F"/>
<path d="M122.186 44.6091C124.316 46.0391 127.2 45.4657 128.625 43.3274C130.049 41.1892 129.478 38.2954 127.348 36.8654C125.217 35.4354 122.333 36.0087 120.908 38.147C119.48 40.2886 120.055 43.179 122.186 44.6091Z" fill="#013A2A"/>
<path d="M123.96 43.0038C124.834 42.5721 127.102 41.4524 129.384 40.3225C129.478 41.3478 129.233 42.4068 128.621 43.3309C127.196 45.4692 124.313 46.0426 122.182 44.6126C121.382 44.0763 120.804 43.3343 120.465 42.5046C121.221 43.5063 122.216 43.8638 123.96 43.0038Z" fill="#013A2A"/>
<path d="M127.936 41.7659L128.181 38.0256C130.732 40.9363 135.08 44.5248 138.636 46.6024L138.539 48.0998C136.062 47.3511 131.773 44.6799 127.936 41.7659Z" fill="#013A2A"/>
<path d="M125.724 45.0273L127.926 44.8586L132.167 47.6647C134.065 48.9227 136.485 49.0846 138.535 48.0998C135.658 47.1048 131.454 44.3864 127.936 41.7659L125.724 45.0273Z" fill="#026048"/>
<path d="M132.926 44.6664C132.923 44.7035 132.923 44.7406 132.919 44.7777C132.909 44.9531 132.772 45.1588 132.614 45.2364L131.847 45.6141C131.689 45.6917 131.679 45.8333 131.827 45.9345L131.918 45.9952C132.063 46.093 132.311 46.1099 132.469 46.0323L133.249 45.6478C133.407 45.5703 133.541 45.3645 133.551 45.1892L133.558 45.0846C133.568 44.9092 133.457 44.6866 133.309 44.5888L133.219 44.5281C133.067 44.4269 132.94 44.491 132.926 44.6664Z" fill="#09C997"/>
<path d="M134.375 45.4994C134.371 45.5365 134.371 45.5736 134.368 45.6107C134.358 45.7861 134.22 45.9918 134.062 46.0694L133.296 46.4471C133.138 46.5247 133.128 46.6664 133.276 46.7675L133.366 46.8282C133.514 46.9261 133.76 46.9429 133.918 46.8653L134.697 46.4809C134.855 46.4033 134.99 46.1976 135 46.0222L135.006 45.9176C135.017 45.7422 134.902 45.5196 134.758 45.4218L134.667 45.3611C134.516 45.2599 134.385 45.324 134.375 45.4994Z" fill="#09C997"/>
<path d="M135.823 46.3326C135.82 46.3697 135.82 46.4068 135.816 46.4439C135.806 46.6193 135.668 46.8251 135.511 46.9026L134.744 47.2804C134.586 47.3579 134.576 47.4996 134.724 47.6008L134.815 47.6615C134.963 47.7593 135.208 47.7762 135.366 47.6986L136.146 47.3141C136.304 47.2365 136.438 47.0308 136.448 46.8554L136.455 46.7509C136.465 46.5755 136.354 46.3529 136.206 46.2551L136.115 46.1944C135.961 46.0932 135.833 46.1539 135.823 46.3326Z" fill="#09C997"/>
<path d="M125.805 34.1335C125.163 34.4539 124.709 35.1588 124.572 36.1875C124.555 36.2954 124.545 36.4067 124.538 36.5214C124.528 36.6597 124.525 36.7946 124.528 36.9329C124.531 37.1622 124.545 37.3949 124.575 37.6344C124.625 38.0661 124.719 38.5079 124.85 38.943C125.203 40.1201 125.825 41.2735 126.605 42.1875C126.998 42.6496 127.431 43.0475 127.895 43.3578C128.877 44.0155 129.797 44.147 130.503 43.8266L128.083 45.0239L128.08 45.0172C127.193 45.4084 126.111 45.3612 125.146 44.7136C124.706 44.4169 124.289 44.0391 123.91 43.604C123.106 42.6799 122.464 41.5029 122.101 40.2988C121.97 39.8604 121.876 39.4185 121.826 38.9902C121.796 38.7541 121.779 38.518 121.779 38.2887C121.775 38.147 121.779 38.0121 121.789 37.8772C121.796 37.7626 121.809 37.6513 121.826 37.54C121.991 36.5416 122.569 35.776 123.335 35.3545V35.3511L123.402 35.3174C123.429 35.3039 123.459 35.287 123.489 35.2769L125.805 34.1335Z" fill="#026048"/>
<path opacity="0.1" d="M128.083 45.0239L128.08 45.0172C127.193 45.4084 126.111 45.3612 125.146 44.7136C124.706 44.4168 124.289 44.0391 123.91 43.604L126.605 42.1875C126.998 42.6496 127.431 43.0475 127.895 43.3578C128.877 44.0155 129.797 44.147 130.503 43.8266L128.083 45.0239Z" fill="#026048"/>
<path d="M128.473 34.5786C130.486 35.9311 131.989 38.9901 131.831 41.415C131.75 42.636 131.266 43.4623 130.547 43.8096C130.533 43.8164 130.52 43.8231 130.507 43.8299C129.801 44.1503 128.88 44.0188 127.899 43.3611C125.886 42.0086 124.383 38.9496 124.541 36.5247C124.622 35.3139 125.099 34.4909 125.808 34.1402C126.517 33.7827 127.465 33.9007 128.473 34.5786Z" fill="#013A2A"/>
<path opacity="0.2" d="M128.473 34.5786C130.486 35.9311 131.989 38.9901 131.831 41.415C131.75 42.636 131.266 43.4623 130.547 43.8096C130.533 43.8164 130.52 43.8231 130.507 43.8299C129.801 44.1503 128.88 44.0188 127.899 43.3611C125.886 42.0086 124.383 38.9496 124.541 36.5247C124.622 35.3139 125.099 34.4909 125.808 34.1402C126.517 33.7827 127.465 33.9007 128.473 34.5786Z" fill="#013A2A"/>
<path d="M134.422 24.5181C134.422 24.5181 133.928 28.8115 136.818 34.7002C137.386 35.857 137.987 36.8722 138.582 37.7592C141.019 41.3781 143.401 42.8149 143.401 42.8149C140.444 42.2078 137.248 41.7761 134.089 42.5147C132.133 42.9734 130.446 43.5838 130.446 43.5838V43.5805C129.794 43.9009 128.934 43.766 128.03 43.1589C127.435 42.7575 126.884 42.2044 126.413 41.5568C126.114 41.1488 125.845 40.7036 125.617 40.2415C125.029 39.0442 124.703 37.7154 124.78 36.545C124.85 35.4557 125.267 34.6867 125.919 34.3663V34.3629C125.919 34.3629 127.431 33.395 128.984 32.1167C131.495 30.0459 133.101 27.2398 134.422 24.5181Z" fill="#BA68C8"/>
<path d="M134.422 24.5181C134.422 24.5181 133.928 28.8115 136.818 34.7002C137.386 35.857 137.987 36.8722 138.582 37.7592C141.019 41.3781 143.401 42.8149 143.401 42.8149C140.444 42.2078 137.248 41.7761 134.089 42.5147C132.133 42.9734 130.446 43.5838 130.446 43.5838V43.5805C129.794 43.9009 128.934 43.766 128.03 43.1589C127.435 42.7575 126.884 42.2044 126.413 41.5568C126.114 41.1488 125.845 40.7036 125.617 40.2415C125.029 39.0442 124.703 37.7154 124.78 36.545C124.85 35.4557 125.267 34.6867 125.919 34.3663V34.3629C125.919 34.3629 127.431 33.395 128.984 32.1167C131.495 30.0459 133.101 27.2398 134.422 24.5181Z" fill="#09C997"/>
<path opacity="0.1" d="M138.582 37.7558C141.019 41.3747 143.401 42.8114 143.401 42.8114C140.444 42.2044 137.248 41.7727 134.089 42.5113C132.133 42.97 130.446 43.5804 130.446 43.5804V43.577C129.794 43.8974 128.934 43.7625 128.03 43.1555C127.435 42.7541 126.884 42.201 126.413 41.5534C129.236 39.9413 134.076 37.5197 138.582 37.7558Z" fill="black"/>
<path d="M142.978 21.5466C145.078 22.9564 146.944 25.1453 148.345 27.6512C150.14 30.8586 151.175 34.5753 150.963 37.8164C150.583 43.5871 146.392 45.6579 141.603 42.4437C140.508 41.7085 139.476 40.7608 138.542 39.668C136.24 36.9732 134.519 33.3915 133.874 29.9243C133.783 29.4353 133.713 28.9496 133.666 28.4707C133.645 28.2717 133.629 28.0694 133.619 27.8704C133.602 27.5871 133.592 27.3071 133.592 27.0306C133.592 26.7439 133.602 26.4572 133.619 26.1773C133.998 20.4033 138.189 18.3324 142.978 21.5466Z" fill="#09C997"/>
<path opacity="0.1" d="M148.345 27.6511C150.14 30.8585 151.175 34.5752 150.963 37.8164C150.583 43.587 146.392 45.6579 141.603 42.4437C140.508 41.7085 139.476 40.7607 138.542 39.668C139.348 39.8029 140.908 39.3847 140.589 38.5145C141.429 39.4892 142.346 40.3257 143.307 40.9732C144.685 41.8973 145.999 42.3358 147.115 42.2413C148.066 42.1604 148.836 41.6882 149.4 40.8383C149.951 40.0154 150.287 38.8518 150.378 37.4825C150.56 34.727 149.723 31.5196 148.258 28.6596C148.261 28.6528 148.651 28.5415 148.345 27.6511Z" fill="#09C997"/>
<path d="M142.901 22.2414C145.015 23.6613 146.907 26.0087 148.258 28.6529C149.723 31.5129 150.56 34.7203 150.378 37.4758C150.287 38.8451 149.951 40.0087 149.4 40.8316C148.836 41.6815 148.066 42.1537 147.115 42.2347C145.999 42.3291 144.685 41.8906 143.307 40.9665C142.346 40.319 141.429 39.4825 140.589 38.5078C140.269 38.1402 139.963 37.7524 139.668 37.351C139.154 36.6495 138.676 35.894 138.249 35.1116C138.162 34.9497 138.075 34.7878 137.991 34.6259C137.85 34.3561 137.715 34.0829 137.587 33.8063C137.147 32.8653 136.781 31.894 136.495 30.9227C136.492 30.9126 136.489 30.8991 136.485 30.889C136.297 30.2414 136.146 29.5938 136.031 28.9564C135.951 28.4977 135.89 28.0424 135.853 27.5938C135.837 27.405 135.826 27.2195 135.816 27.034C135.806 26.8114 135.803 26.5888 135.806 26.3696C135.81 26.1571 135.816 25.9446 135.83 25.7355C135.921 24.3594 136.26 23.1992 136.808 22.3729C138.028 20.5483 140.306 20.5011 142.901 22.2414Z" fill="#026048"/>
<path opacity="0.4" d="M142.901 22.2414C145.015 23.6613 146.907 26.0087 148.258 28.6529C149.723 31.5129 150.56 34.7203 150.378 37.4758C150.287 38.8451 149.951 40.0087 149.4 40.8316C148.836 41.6815 148.066 42.1537 147.115 42.2347C145.999 42.3291 144.685 41.8906 143.307 40.9665C142.346 40.319 141.429 39.4825 140.589 38.5078C140.269 38.1402 139.963 37.7524 139.668 37.351C139.154 36.6495 138.676 35.894 138.249 35.1116C138.162 34.9497 138.075 34.7878 137.991 34.6259C137.85 34.3561 137.715 34.0829 137.587 33.8063C137.147 32.8653 136.781 31.894 136.495 30.9227C136.492 30.9126 136.489 30.8991 136.485 30.889C136.297 30.2414 136.146 29.5938 136.031 28.9564C135.951 28.4977 135.89 28.0424 135.853 27.5938C135.837 27.405 135.826 27.2195 135.816 27.034C135.806 26.8114 135.803 26.5888 135.806 26.3696C135.81 26.1571 135.816 25.9446 135.83 25.7355C135.921 24.3594 136.26 23.1992 136.808 22.3729C138.028 20.5483 140.306 20.5011 142.901 22.2414Z" fill="#026048"/>
<path d="M141.093 28.916L143.912 34.5282C142.625 35.2263 141.039 36.0627 139.97 37.7491C139.869 37.6209 139.772 37.4894 139.671 37.3545C139.157 36.6529 138.68 35.8975 138.253 35.115C138.165 34.9531 138.078 34.7912 137.994 34.6293C137.853 34.3595 137.718 34.0863 137.591 33.8098C137.151 32.8688 136.784 31.8975 136.499 30.9261C136.495 30.916 136.492 30.9025 136.488 30.8924C136.448 30.7508 136.408 30.6057 136.371 30.4641C138.387 30.626 141.093 28.916 141.093 28.916Z" fill="#026048"/>
<path d="M144.221 34.2211C143.848 34.781 143.173 34.8147 142.417 34.3055L142.393 34.2886C141.204 33.4893 140.316 31.6781 140.41 30.2447L140.414 30.2178C140.437 29.8366 140.535 29.5095 140.693 29.2734C141.066 28.7135 141.741 28.6798 142.497 29.1891L142.521 29.206C143.711 30.0019 144.598 31.8164 144.504 33.2498L144.5 33.2768C144.473 33.6545 144.379 33.9817 144.221 34.2211Z" fill="#09C997"/>
<path d="M133.736 43.1958C133.736 43.1958 134.687 42.9125 135.023 42.8417C135.826 42.6663 136.418 42.3762 137.019 42.9665C137.224 43.1688 137.342 43.5499 137.574 43.7118C137.836 43.8973 138.364 43.8198 138.68 43.8872C139.046 43.9648 139.392 44.1334 139.617 44.4471C139.769 44.6596 139.812 45.0474 140.014 45.1722C140.269 45.3307 140.703 45.3004 140.988 45.4285C141.634 45.7118 141.815 46.5719 142.054 47.1621C142.313 47.7995 142.743 48.6832 142.467 49.3644C142.255 49.8872 141.859 50.2616 141.415 50.5988C140.904 50.9901 140.347 51.3881 139.789 51.7152C139.305 51.9985 138.794 51.7692 138.488 51.3712C138.085 50.8484 137.319 51.044 136.835 50.5854C136.626 50.3864 136.562 50.0896 136.357 49.8872C136.109 49.641 135.897 49.4926 135.803 49.1385C135.638 48.5246 135.934 47.867 136.058 47.2734C136.166 46.7574 136.031 46.1435 135.89 45.6376C135.783 45.2464 135.601 44.6427 135.258 44.3762C135.252 44.3796 133.743 43.1992 133.736 43.1958Z" fill="#FFA8A7"/>
<path d="M128.544 56.7608C128.625 53.1689 128.409 51.6242 128.416 49.9278C128.423 47.9952 129.757 46.9025 131.347 45.6107C132.546 44.636 132.993 44.1841 133.723 43.3949C134.318 42.7305 134.845 44.7811 134.724 45.5467C134.58 46.4708 133.723 47.5264 133.155 48.3494C131.861 50.2246 136.959 52.8418 135.763 58.5011C134.576 60.3392 128.544 56.7608 128.544 56.7608Z" fill="#FFA8A7"/>
<path d="M112.188 71.1419C111.875 59.9277 106.925 56.8518 104.976 56.0424L97.0376 54.4539C94.6146 54.7237 84.294 57.8299 81.4509 58.5348C79.6193 58.9901 79.7067 62.5618 78.7825 68.4505C78.0297 73.2329 77.613 77.2633 77.1627 83.9311C76.7829 89.5196 76.3359 95.8839 77.324 103.789C89.8794 107.634 101.927 109.472 111.253 102.295C111.035 100.72 111.986 87.6006 112.063 83.7321C112.137 79.8636 112.272 74.1773 112.188 71.1419Z" fill="#FAFAFA"/>
<path d="M79.3068 58.7878L89.3585 55.5872C89.3585 55.5872 90.2088 58.2111 92.0807 63.2701C93.9559 68.3292 93.8484 71.4455 93.2871 79.9177C92.7259 88.3899 92.5444 106.609 91.7412 114.191C87.984 114.366 77.6836 111.354 74.6052 107.179C74.6052 107.179 75.6705 91.8233 76.1511 83.1521C76.6317 74.4843 74.8673 60.8418 79.3068 58.7878Z" fill="#029875"/>
<path d="M100.563 55.9007C103.85 57.5465 105.846 61.56 106.169 66.8922C106.491 72.2211 107.667 82.8821 107.856 86.899C108.672 104.359 109.559 109.051 109.559 109.051C111.193 108.208 113.223 107.209 113.512 104.808C113.145 101.071 112.913 86.7877 112.887 83.4521C112.856 80.1165 112.671 72.4066 112.544 68.3256C112.419 64.248 111.441 59.1081 108.044 56.3425C104.535 55.2093 100.684 54.9934 100.684 54.9934L100.563 55.9007Z" fill="#029875"/>
<path opacity="0.15" d="M100.563 55.9007C103.85 57.5465 105.846 61.56 106.169 66.8922C106.491 72.2211 107.667 82.8821 107.856 86.899C108.672 104.359 109.559 109.051 109.559 109.051C111.193 108.208 113.223 107.209 113.512 104.808C113.145 101.071 112.913 86.7877 112.887 83.4521C112.856 80.1165 112.671 72.4066 112.544 68.3256C112.419 64.248 111.441 59.1081 108.044 56.3425C104.535 55.2093 100.684 54.9934 100.684 54.9934L100.563 55.9007Z" fill="#029875"/>
<path d="M106.407 69.975C106.296 66.0661 104.74 58.9464 100.694 57.1487C100.496 56.6023 100.56 55.9008 100.56 55.9008L100.781 53.8975C100.781 53.8975 102.489 54.6327 104.179 55.9683C105.873 57.3039 108.639 61.3241 109.163 64.4067C107.503 62.7002 106.555 65.1386 106.407 69.975Z" fill="#09C997"/>
<path opacity="0.45" d="M106.407 69.975C106.296 66.0661 104.74 58.9464 100.694 57.1487C100.496 56.6023 100.56 55.9008 100.56 55.9008L100.781 53.8975C100.781 53.8975 102.489 54.6327 104.179 55.9683C105.873 57.3039 108.639 61.3241 109.163 64.4067C107.503 62.7002 106.555 65.1386 106.407 69.975Z" fill="#09C997"/>
<path d="M89.8895 51.722C89.177 49.061 86.2264 46.4944 84.7981 44.2515C83.4169 42.0897 82.5565 40.3898 82.486 38.2414C82.4456 36.9666 83.0774 35.1757 83.9781 34.7271C82.449 30.1234 85.7626 27.604 87.5874 26.98C88.2865 26.7406 89.4459 26.3628 90.1046 26.0087C91.0792 25.4859 91.2304 24.6428 91.9832 23.8671C93.2804 22.5315 95.653 22.2785 96.7285 24.0087C97.5518 22.7001 98.8289 22.6124 100.334 22.8451C101.769 23.0677 102.549 24.1976 102.529 25.5096C104.391 24.2178 106.327 25.4387 106.619 26.5821C106.834 27.4252 106.72 28.1639 107.352 28.8789C108.061 29.6816 109.25 29.5534 109.543 28.8215C109.862 30.0188 109.475 30.9902 108.155 31.0475C108.669 31.6613 108.871 32.5146 108.716 33.3342C108.508 34.4472 107.483 35.1858 106.612 35.2903C106.535 35.9716 106.565 36.5854 106.202 37.1993C105.853 37.7895 105.382 38.3898 104.787 38.7473C102.889 39.8873 100.718 40.4067 98.6171 41.0576C97.7871 41.3139 96.9536 41.5703 96.1235 41.83C95.979 41.8738 95.2162 41.9952 95.1355 42.1369C95.1355 42.1402 89.8895 51.722 89.8895 51.722Z" fill="#026048"/>
<path d="M86.2936 48.5348C88.2966 49.4893 89.4627 48.1368 89.4627 48.1368L89.6811 52.9024L89.7887 58.0626C89.7887 58.0626 95.1758 63.8299 102.468 63.4825C102.838 61.84 102.304 58.9496 101.128 57.5365L100.946 53.3139C100.946 53.3139 102.889 53.1655 104.139 52.8653C106.222 52.3729 107.852 50.5247 108.235 48.1705C108.639 45.7119 108.44 41.7726 107.647 38.9429C107.446 38.2211 107.315 37.4758 107.321 36.727C107.338 34.7338 106.874 33.6208 106.212 32.012C103.709 30.3527 97.0948 30.5887 92.3697 34.1267C93.6871 36.5887 93.2603 39.2633 91.1968 40.6124C91.3749 41.4117 91.6673 43.4454 90.3398 43.5331C89.382 43.5972 89.2073 42.4033 88.1252 41.4387C87.0229 40.4538 84.7309 40.4066 83.9949 42.0525C82.9665 44.356 84.0991 47.4893 86.2936 48.5348Z" fill="#FFA8A7"/>
<path d="M100.949 53.3172C97.5619 53.2397 94.9775 53.1149 93.0015 50.8451C91.7614 49.4218 90.6053 47.0508 90.6053 47.0508C90.6053 47.0508 91.2304 49.9985 92.5142 51.9108C93.5056 53.3847 95.7001 54.4842 100.996 54.437L100.949 53.3172Z" fill="#F28F8F"/>
<path d="M98.2845 40.1402C98.3281 40.6832 97.9417 41.1587 97.4208 41.1992C96.8999 41.2397 96.4395 40.8316 96.3958 40.2886C96.3521 39.7456 96.7385 39.27 97.2594 39.2295C97.7804 39.1857 98.2374 39.5938 98.2845 40.1402Z" fill="#013A2A"/>
<path d="M97.3032 37.3849L95.3439 38.6193C95.0112 38.0527 95.1826 37.3174 95.7236 36.9768C96.2647 36.6361 96.9738 36.8183 97.3032 37.3849Z" fill="#013A2A"/>
<path d="M106.115 37.007L103.816 36.6023C103.903 35.9581 104.488 35.523 105.123 35.6343C105.759 35.7456 106.202 36.3594 106.115 37.007Z" fill="#013A2A"/>
<path d="M105.91 39.1656C105.954 39.7086 105.567 40.1841 105.046 40.2246C104.525 40.2651 104.065 39.857 104.021 39.314C103.977 38.771 104.364 38.2954 104.885 38.255C105.409 38.2145 105.866 38.6226 105.91 39.1656Z" fill="#013A2A"/>
<path d="M105.006 42.872L101.864 44.6461L100.24 38.2852C101.417 37.7354 103.268 40.5516 105.006 42.872Z" fill="#F28F8F"/>
<path d="M98.6508 46.491L102.673 46.9598C102.573 48.1099 101.588 48.9362 100.476 48.808C99.3632 48.6765 98.5466 47.6411 98.6508 46.491Z" fill="#B16668"/>
<path d="M99.1885 47.0914C99.0204 47.088 98.8591 47.1116 98.7012 47.1453C98.8894 48.0088 99.585 48.7035 100.476 48.8081C100.701 48.8351 100.916 48.8115 101.124 48.7642C101.097 47.8469 100.247 47.1015 99.1885 47.0914Z" fill="#F28F8F"/>
<path d="M93.6366 71.3981C93.4014 63.7219 90.2692 63.0339 89.3081 65.4622C86.9355 61.0743 87.1472 57.5128 87.3186 56.0996C88.189 54.8652 88.5318 54.0895 88.8275 53.6207C89.2174 53.0002 89.6811 52.9023 89.6811 52.9023L89.7719 54.8315C89.7719 54.8315 90.0105 57.0811 92.0134 60.0794C93.4854 62.2851 93.8316 64.9597 93.6366 71.3981Z" fill="#09C997"/>
<path opacity="0.45" d="M93.6366 71.3981C93.4014 63.7219 90.2692 63.0339 89.3081 65.4622C86.9355 61.0743 87.1472 57.5128 87.3186 56.0996C88.189 54.8652 88.5318 54.0895 88.8275 53.6207C89.2174 53.0002 89.6811 52.9023 89.6811 52.9023L89.7719 54.8315C89.7719 54.8315 90.0105 57.0811 92.0134 60.0794C93.4854 62.2851 93.8316 64.9597 93.6366 71.3981Z" fill="#09C997"/>
<path d="M81.3265 58.1436C75.2269 59.9952 72.5081 61.0171 70.5253 64.9766C68.5425 68.9361 65.0945 78.7372 63.1688 84.6798C61.5187 89.7726 60.6181 94.41 61.7137 96.754L73.5903 92.8754L79.8579 77.4724C79.8579 77.4724 83.931 67.9142 81.3265 58.1436Z" fill="#029875"/>
<path d="M73.318 88.292C74.1851 88.1807 75.0521 88.319 75.8789 88.0121C76.2721 87.8671 76.6854 87.6512 76.8299 87.2566C77.0148 86.7473 76.6619 86.2077 76.2821 85.8232C75.2437 84.7777 73.8557 84.12 72.414 83.8165C69.5406 83.2128 66.7345 83.7355 64.1804 85.115C62.6916 85.921 60.8668 87.0138 60.7626 88.916C60.7323 89.486 60.8567 90.0762 60.6853 90.6226C60.571 90.9868 60.3291 91.3005 60.198 91.658C60.0804 91.9817 60.0501 92.3291 60.0266 92.6698C59.9997 93.0846 59.9762 93.5129 60.1375 93.8974C60.2417 94.1436 60.4131 94.3527 60.5173 94.5989C60.6752 94.9666 60.6685 95.3814 60.7794 95.7625C61.0012 96.5484 61.8514 97.4522 62.5572 96.663C63.1991 95.948 63.4175 94.9733 63.8376 94.1301C64.3249 93.1554 65.239 92.4067 66.0926 91.7591C67.2419 90.8856 68.5224 90.2043 69.8162 89.5669C70.811 89.0779 71.8326 88.6091 72.9181 88.3595C73.0525 88.3325 73.187 88.3089 73.318 88.292Z" fill="#026048"/>
<path d="M77.744 84.447C76.6182 85.7995 73.2239 86.1974 70.8345 86.8686C68.4451 87.5364 65.5045 88.6797 63.8712 91.1856C62.4328 93.3914 60.9138 95.2059 61.6296 96.936C62.1237 98.13 64.8424 98.7674 68.0351 98.7876C71.2277 98.8079 74.091 95.8939 77.455 93.8467C80.3418 92.0929 81.6626 91.2767 81.6626 91.2767L77.744 84.447Z" fill="#F28F8F"/>
<path d="M81.8004 86.383C80.7619 85.297 80.5872 84.211 79.0346 83.2801C77.4819 82.3526 76.4905 82.3661 74.8337 81.4791C73.1769 80.5921 71.8293 80.1266 70.559 80.5145C69.2886 80.9024 69.4735 81.6309 70.4111 82.2514C71.3487 82.8686 72.9618 83.6848 74.0776 84.5347C75.1933 85.3846 76.2889 85.8771 76.2654 87.3138C76.2418 88.754 75.9898 91.7118 75.6336 94.1132C75.2807 96.5179 74.7665 98.4605 74.9413 98.7236C75.116 98.9867 76.1444 99.125 76.8031 97.7927C77.4618 96.4572 78.3759 91.5701 78.3759 91.5701C78.3759 91.5701 78.7758 94.9833 78.9237 97.3307C79.0682 99.6781 79.1152 101.469 79.169 101.971C79.2261 102.474 80.8897 102.12 81.1887 100.356C81.4878 98.5921 81.2425 93.3442 81.2425 93.3442C81.2425 93.3442 82.5733 95.7556 83.4303 97.3206C84.2873 98.8855 85.3425 101.014 85.692 101.54C86.0415 102.066 87.1102 101.165 86.8851 99.7556C86.6599 98.3459 84.9258 94.8686 84.9258 94.8686C84.9258 94.8686 87.0531 97.189 87.4295 97.4184C87.8059 97.6477 88.9653 97.4892 88.5957 95.9276C88.3503 94.8855 87.7017 94.211 85.9945 92.1772C84.2873 90.1435 84.3242 89.3138 83.8 88.3863C83.1077 87.1688 82.5532 87.1688 81.8004 86.383Z" fill="#FFA8A7"/>
<path d="M77.4584 87.1148C79.1791 87.9175 80.893 87.1688 81.1383 86.7405C81.0005 87.9378 78.6044 88.5955 77.4584 87.1148Z" fill="#F28F8F"/>
<path d="M88.6225 96.8247C88.4579 97.0406 87.9639 97.1047 87.5337 96.7303C87.1002 96.3559 86.0449 95.1182 85.5677 94.5482C85.0905 93.9782 83.4471 91.9546 83.4471 91.9546L84.9224 94.8652C84.9224 94.8652 87.0498 97.1856 87.4261 97.415C87.7118 97.5903 88.4444 97.5397 88.6225 96.8247Z" fill="#F28F8F"/>
<path d="M116.97 27.8502C117.04 27.7658 117.131 27.7186 117.245 27.7085C117.36 27.6984 117.457 27.7321 117.541 27.8029L118.983 29.0306C119.067 29.1014 119.114 29.1959 119.124 29.3072C119.134 29.4218 119.1 29.5196 119.03 29.6039L118.049 30.7642C117.978 30.8485 117.884 30.8957 117.773 30.9024C117.659 30.9125 117.561 30.8822 117.477 30.8114L116.035 29.5837C115.951 29.5129 115.904 29.4218 115.894 29.3072C115.884 29.1959 115.914 29.0947 115.988 29.0104L116.97 27.8502ZM122.263 21.5972C122.333 21.5129 122.424 21.4657 122.538 21.4589C122.653 21.4488 122.75 21.4792 122.834 21.5534L124.276 22.781C124.36 22.8518 124.407 22.9463 124.414 23.0576C124.424 23.1722 124.393 23.2701 124.32 23.3544L120.132 28.2987C120.062 28.383 119.967 28.4303 119.857 28.437C119.742 28.4471 119.645 28.4168 119.561 28.3426L118.119 27.1149C118.035 27.0441 117.988 26.953 117.981 26.8383C117.971 26.7237 118.001 26.6259 118.075 26.5416L122.263 21.5972Z" fill="#026048"/>
<path d="M112.745 23.4353C112.762 23.3274 112.819 23.2397 112.91 23.1723C113.004 23.1048 113.102 23.0812 113.209 23.1014L115.074 23.4117C115.182 23.4286 115.269 23.4859 115.336 23.577C115.404 23.6714 115.427 23.7692 115.41 23.8772L115.162 25.378C115.145 25.4859 115.088 25.5736 114.997 25.6411C114.906 25.7085 114.805 25.7321 114.698 25.7119L112.833 25.4016C112.725 25.3847 112.638 25.3274 112.571 25.2363C112.503 25.1453 112.48 25.0441 112.5 24.9362L112.745 23.4353ZM114.083 15.3409C114.1 15.233 114.157 15.1453 114.248 15.0778C114.338 15.0104 114.439 14.9868 114.547 15.007L116.412 15.3173C116.519 15.3342 116.607 15.3915 116.674 15.4826C116.741 15.5736 116.765 15.6748 116.745 15.7827L115.686 22.1841C115.669 22.292 115.612 22.3797 115.521 22.4471C115.431 22.5146 115.33 22.5382 115.222 22.518L113.357 22.2077C113.249 22.1908 113.162 22.1335 113.095 22.0424C113.031 21.9514 113.004 21.8502 113.024 21.7389L114.083 15.3409Z" fill="#BA68C8"/>
<path d="M112.745 23.4353C112.762 23.3274 112.819 23.2397 112.91 23.1723C113.004 23.1048 113.102 23.0812 113.209 23.1014L115.074 23.4117C115.182 23.4286 115.269 23.4859 115.336 23.577C115.404 23.6714 115.427 23.7692 115.41 23.8772L115.162 25.378C115.145 25.4859 115.088 25.5736 114.997 25.6411C114.906 25.7085 114.805 25.7321 114.698 25.7119L112.833 25.4016C112.725 25.3847 112.638 25.3274 112.571 25.2363C112.503 25.1453 112.48 25.0441 112.5 24.9362L112.745 23.4353ZM114.083 15.3409C114.1 15.233 114.157 15.1453 114.248 15.0778C114.338 15.0104 114.439 14.9868 114.547 15.007L116.412 15.3173C116.519 15.3342 116.607 15.3915 116.674 15.4826C116.741 15.5736 116.765 15.6748 116.745 15.7827L115.686 22.1841C115.669 22.292 115.612 22.3797 115.521 22.4471C115.431 22.5146 115.33 22.5382 115.222 22.518L113.357 22.2077C113.249 22.1908 113.162 22.1335 113.095 22.0424C113.031 21.9514 113.004 21.8502 113.024 21.7389L114.083 15.3409Z" fill="#09C997"/>
<path d="M151.685 62.4067C151.598 62.4101 151.517 62.3528 151.497 62.2617L150.163 56.1504C150.153 56.1032 150.163 56.0526 150.187 56.0121C150.213 55.9717 150.254 55.9413 150.301 55.9312L152.317 55.4894C152.418 55.4658 152.512 55.5298 152.536 55.6277L153.87 61.739C153.88 61.7862 153.87 61.8368 153.846 61.8772C153.819 61.9177 153.779 61.9481 153.732 61.9582L151.716 62.4C151.706 62.4034 151.696 62.4067 151.685 62.4067ZM150.563 56.2516L151.816 62.0054L153.477 61.6411L152.223 55.8874L150.563 56.2516ZM154.213 61.1083C154.125 61.1116 154.045 61.0543 154.024 60.9632L152.878 55.712C152.872 55.6749 152.875 55.6378 152.889 55.604C153.231 54.744 153.756 53.3781 153.793 53.1521C153.826 52.943 153.581 52.0594 153.477 51.6816C153.433 51.5231 153.399 51.4017 153.386 51.341C153.369 51.2668 153.366 51.0745 153.682 50.9363C154.078 50.7609 154.881 50.7373 155.349 51.4118C155.859 52.147 156.088 52.8384 156.095 53.6749L158.666 53.1116C159.354 52.9565 159.815 53.5231 159.909 53.9481C159.99 54.3157 159.889 54.6024 159.775 54.7946C160.013 54.8958 160.275 55.1116 160.366 55.5332C160.443 55.884 160.326 56.3427 159.973 56.6159C160.054 56.7339 160.144 56.9093 160.198 57.1622C160.269 57.4793 160.054 58.0459 159.674 58.2786C159.734 58.3966 159.805 58.5653 159.849 58.7642C159.959 59.2735 159.62 59.9245 158.874 60.0897L154.246 61.1049C154.233 61.1083 154.223 61.1083 154.213 61.1083ZM153.252 55.6917L154.347 60.7069L158.797 59.7288C159.304 59.6175 159.566 59.1791 159.492 58.8418C159.422 58.5248 159.264 58.3022 159.264 58.2988C159.227 58.2482 159.22 58.1842 159.24 58.1268C159.26 58.0695 159.311 58.0256 159.371 58.0121C159.65 57.9514 159.885 57.4557 159.838 57.2364C159.758 56.8621 159.583 56.7204 159.576 56.7137C159.526 56.6732 159.499 56.6091 159.509 56.5484C159.516 56.4843 159.556 56.4304 159.613 56.4034C159.946 56.2516 160.064 55.8806 160.006 55.6108C159.896 55.1049 159.469 55.088 159.449 55.088C159.375 55.088 159.307 55.0408 159.284 54.97C159.257 54.8992 159.274 54.8216 159.328 54.771C159.402 54.7002 159.64 54.4371 159.549 54.0256C159.499 53.7963 159.233 53.3612 158.743 53.4691L155.947 54.083C155.89 54.0965 155.832 54.0796 155.792 54.0459C155.748 54.0088 155.725 53.9548 155.725 53.8975C155.759 53.0341 155.554 52.3528 155.046 51.6209C154.797 51.2634 154.434 51.2061 154.24 51.1993C153.994 51.1926 153.816 51.2668 153.752 51.3106C153.769 51.3747 153.796 51.4691 153.826 51.5804C154.024 52.2853 154.196 52.943 154.152 53.2128C154.102 53.5366 153.403 55.3073 153.252 55.6917Z" fill="#09C997"/>
<path d="M25.8251 142.164L23.4323 141.638C23.3752 141.624 23.3282 141.59 23.2945 141.543C23.2643 141.496 23.2542 141.435 23.2643 141.378L24.8472 134.12C24.8741 134.002 24.985 133.928 25.1059 133.955L27.4987 134.481C27.5559 134.494 27.6029 134.528 27.6365 134.575C27.6668 134.623 27.6769 134.683 27.6668 134.741L26.0839 141.999C26.0604 142.103 25.9663 142.174 25.8621 142.171C25.8487 142.167 25.8352 142.164 25.8251 142.164ZM25.2236 134.427L23.7348 141.257L25.7041 141.688L27.1929 134.859L25.2236 134.427ZM22.8241 140.623L17.3294 139.415C16.4455 139.22 16.0389 138.447 16.1699 137.843C16.2203 137.607 16.3044 137.408 16.3783 137.267C15.928 136.987 15.6759 136.316 15.7566 135.938C15.8204 135.641 15.928 135.432 16.0254 135.29C15.6087 134.967 15.4676 134.42 15.5583 134.005C15.6658 133.506 15.9784 133.246 16.2607 133.128C16.1262 132.902 16.0053 132.558 16.1027 132.123C16.2136 131.617 16.7614 130.946 17.5781 131.128L20.6329 131.8C20.643 130.801 20.9152 129.985 21.5201 129.112C22.0746 128.312 23.0257 128.343 23.4995 128.548C23.8726 128.714 23.8692 128.94 23.8491 129.031C23.8323 129.101 23.7919 129.25 23.7415 129.435C23.6172 129.884 23.3214 130.933 23.3651 131.182C23.4088 131.452 24.0305 133.074 24.4372 134.096C24.454 134.137 24.4573 134.181 24.4473 134.225L23.0862 140.461C23.0627 140.565 22.9686 140.636 22.8644 140.633C22.8476 140.626 22.8341 140.626 22.8241 140.623ZM22.9282 131.25C22.8745 130.929 23.0828 130.15 23.3147 129.314C23.3517 129.179 23.3853 129.068 23.4021 128.99C23.3282 128.936 23.1164 128.852 22.8241 128.859C22.5922 128.865 22.162 128.936 21.8663 129.358C21.2613 130.228 21.0227 131.037 21.0597 132.063C21.0631 132.13 21.0328 132.194 20.9824 132.238C20.932 132.282 20.8648 132.299 20.7976 132.285L17.4772 131.557C16.8925 131.429 16.5799 131.948 16.5194 132.218C16.4119 132.707 16.6942 133.021 16.7816 133.105C16.8454 133.166 16.8656 133.26 16.8353 133.341C16.8051 133.422 16.7278 133.479 16.6371 133.479C16.6169 133.479 16.1061 133.499 15.975 134.1C15.9044 134.42 16.0422 134.859 16.4388 135.041C16.506 135.071 16.5531 135.139 16.5631 135.213C16.5732 135.287 16.543 135.365 16.4825 135.412C16.4758 135.418 16.2674 135.59 16.1733 136.032C16.1162 136.289 16.3985 136.879 16.7278 136.953C16.7984 136.97 16.8589 137.021 16.8824 137.088C16.9093 137.155 16.8992 137.233 16.8555 137.294C16.8522 137.297 16.664 137.56 16.5833 137.938C16.4959 138.339 16.8085 138.859 17.41 138.994L22.693 140.154L23.9936 134.198C23.8222 133.739 22.9921 131.631 22.9282 131.25Z" fill="#09C997"/>
<path d="M146.517 97.3442C146.517 97.3442 146.083 94.8822 146.097 94.5213C146.11 94.1604 146.829 92.8754 146.937 92.6326C147.044 92.3898 145.932 91.7793 145.172 92.5011C144.413 93.2228 144.06 93.9412 143.905 94.8586L141.096 93.6006C140.504 93.3341 140.017 93.7759 139.866 94.1098C139.654 94.582 139.842 94.9766 139.957 95.1385C139.957 95.1385 139.335 95.0238 139.043 95.6781C138.881 96.0424 138.962 96.555 139.345 96.8383C139.345 96.8383 139.066 96.9699 138.864 97.4285C138.73 97.7321 138.895 98.4302 139.288 98.6056C139.288 98.6056 139.043 98.8248 138.881 99.1925C138.683 99.6343 138.912 100.268 139.52 100.538C140.128 100.811 144.168 102.622 144.168 102.622L146.517 97.3442Z" fill="#026048"/>
<path d="M144.521 103.631L146.547 104.538L149.276 98.3999L147.253 97.4927L144.521 103.631ZM145.559 103.128C145.559 102.909 145.734 102.73 145.956 102.73C146.177 102.73 146.352 102.906 146.352 103.128C146.352 103.348 146.177 103.526 145.956 103.526C145.734 103.526 145.559 103.348 145.559 103.128Z" fill="#026048"/>
<path d="M48.1617 38.6987C48.1617 38.6987 48.9728 34.0928 48.9476 33.4176C48.9225 32.7425 47.577 30.3386 47.3758 29.8843C47.1747 29.43 49.2557 28.288 50.6766 29.6382C52.0974 30.9885 52.7576 32.3324 53.0468 34.0486L58.3028 31.6951C59.4093 31.1967 60.321 32.0232 60.6039 32.6479C61 33.5312 60.6479 34.2694 60.4341 34.5723C60.4341 34.5723 61.5972 34.3578 62.1442 35.5818C62.446 36.2633 62.2951 37.2223 61.5784 37.7523C61.5784 37.7523 62.0939 37.9984 62.4774 38.8565C62.7289 39.4243 62.4208 40.7304 61.6853 41.0585C61.6853 41.0585 62.1379 41.4686 62.446 42.1564C62.8169 42.9829 62.3894 44.1691 61.2515 44.6739C60.1135 45.185 52.5564 48.5732 52.5564 48.5732L48.1617 38.6987Z" fill="#026048"/>
<path d="M46.7848 38.9766L43 40.6738L48.1051 52.1573L51.8962 50.46L46.7848 38.9766ZM49.2116 50.2644C48.803 50.2644 48.4698 49.9363 48.4698 49.5199C48.4698 49.1097 48.7967 48.7753 49.2116 48.7753C49.6203 48.7753 49.9535 49.1034 49.9535 49.5199C49.9535 49.9363 49.6203 50.2644 49.2116 50.2644Z" fill="#026048"/>
</svg>
