<svg width="96" height="32" viewBox="0 0 96 32" fill="none" xmlns="http://www.w3.org/2000/svg">
<rect width="96" height="32" rx="16" fill="#029875"/>
<path d="M24.723 12.3242H26V10.0984C25.7812 10.0684 25.0211 10 24.1379 10C22.2949 10 21.0344 11.1594 21.0344 13.2895V15.25H19V17.7383H21.0344V24H23.5281V17.7383H25.4805L25.7895 15.25H23.5281V13.5355C23.5254 12.8164 23.7195 12.3242 24.723 12.3242Z" fill="white"/>
<path d="M43.2305 17.4863L44.5566 17.8213C44.2786 18.9105 43.7773 19.7422 43.0527 20.3164C42.3327 20.8861 41.4508 21.1709 40.4072 21.1709C39.3271 21.1709 38.4476 20.9521 37.7686 20.5146C37.0941 20.0726 36.5791 19.4346 36.2236 18.6006C35.8727 17.7666 35.6973 16.8711 35.6973 15.9141C35.6973 14.8704 35.8955 13.9613 36.292 13.1865C36.693 12.4072 37.2604 11.8171 37.9941 11.416C38.7324 11.0104 39.5436 10.8076 40.4277 10.8076C41.4303 10.8076 42.2734 11.0628 42.957 11.5732C43.6406 12.0837 44.1169 12.8014 44.3857 13.7266L43.0801 14.0342C42.8477 13.305 42.5104 12.7741 42.0684 12.4414C41.6263 12.1087 41.0703 11.9424 40.4004 11.9424C39.6302 11.9424 38.9854 12.127 38.4658 12.4961C37.9508 12.8652 37.5885 13.362 37.3789 13.9863C37.1693 14.6061 37.0645 15.2464 37.0645 15.9072C37.0645 16.7594 37.1875 17.5046 37.4336 18.1426C37.6842 18.776 38.0716 19.25 38.5957 19.5645C39.1198 19.8789 39.6872 20.0361 40.2979 20.0361C41.0407 20.0361 41.6696 19.8219 42.1846 19.3936C42.6995 18.9652 43.0482 18.3294 43.2305 17.4863ZM46.04 21V10.9785H47.2705V14.5742C47.8447 13.9089 48.5693 13.5762 49.4443 13.5762C49.9821 13.5762 50.4492 13.6833 50.8457 13.8975C51.2422 14.1071 51.5247 14.3988 51.6934 14.7725C51.8665 15.1462 51.9531 15.6885 51.9531 16.3994V21H50.7227V16.3994C50.7227 15.7842 50.5882 15.3376 50.3193 15.0596C50.055 14.777 49.679 14.6357 49.1914 14.6357C48.8268 14.6357 48.4827 14.7314 48.1592 14.9229C47.8402 15.1097 47.6123 15.3649 47.4756 15.6885C47.3389 16.012 47.2705 16.4587 47.2705 17.0283V21H46.04ZM53.8398 12.3936V10.9785H55.0703V12.3936H53.8398ZM53.8398 21V13.7402H55.0703V21H53.8398ZM61.6875 20.1045C61.2318 20.4919 60.792 20.7653 60.3682 20.9248C59.9489 21.0843 59.4977 21.1641 59.0146 21.1641C58.2171 21.1641 57.6042 20.9704 57.1758 20.583C56.7474 20.1911 56.5332 19.6921 56.5332 19.0859C56.5332 18.7305 56.613 18.4069 56.7725 18.1152C56.9365 17.819 57.1484 17.582 57.4082 17.4043C57.6725 17.2266 57.9688 17.0921 58.2969 17.001C58.5384 16.9372 58.903 16.8757 59.3906 16.8164C60.3841 16.6979 61.1156 16.5566 61.585 16.3926C61.5895 16.224 61.5918 16.1169 61.5918 16.0713C61.5918 15.57 61.4756 15.2168 61.2432 15.0117C60.9287 14.7337 60.4616 14.5947 59.8418 14.5947C59.263 14.5947 58.8346 14.6973 58.5566 14.9023C58.2832 15.1029 58.0804 15.4606 57.9482 15.9756L56.7451 15.8115C56.8545 15.2965 57.0345 14.8818 57.2852 14.5674C57.5358 14.2484 57.8981 14.0046 58.3721 13.8359C58.846 13.6628 59.3952 13.5762 60.0195 13.5762C60.6393 13.5762 61.1429 13.6491 61.5303 13.7949C61.9176 13.9408 62.2025 14.1253 62.3848 14.3486C62.5671 14.5674 62.6947 14.8454 62.7676 15.1826C62.8086 15.3923 62.8291 15.7705 62.8291 16.3174V17.958C62.8291 19.1019 62.8542 19.8265 62.9043 20.1318C62.959 20.4326 63.0638 20.722 63.2188 21H61.9336C61.806 20.7448 61.724 20.4463 61.6875 20.1045ZM61.585 17.3564C61.1383 17.5387 60.4684 17.6937 59.5752 17.8213C59.0693 17.8942 58.7116 17.9762 58.502 18.0674C58.2923 18.1585 58.1305 18.293 58.0166 18.4707C57.9027 18.6439 57.8457 18.8376 57.8457 19.0518C57.8457 19.3799 57.9688 19.6533 58.2148 19.8721C58.4655 20.0908 58.8301 20.2002 59.3086 20.2002C59.7826 20.2002 60.2041 20.0977 60.5732 19.8926C60.9424 19.6829 61.2135 19.3981 61.3867 19.0381C61.5189 18.7601 61.585 18.3499 61.585 17.8076V17.3564ZM68.1475 18.833L69.3643 18.6416C69.4326 19.1292 69.6217 19.5029 69.9316 19.7627C70.2461 20.0225 70.6836 20.1523 71.2441 20.1523C71.8092 20.1523 72.2285 20.0384 72.502 19.8105C72.7754 19.5781 72.9121 19.307 72.9121 18.9971C72.9121 18.7191 72.7913 18.5003 72.5498 18.3408C72.3812 18.2314 71.9619 18.0924 71.292 17.9238C70.3896 17.696 69.763 17.5 69.4121 17.3359C69.0658 17.1673 68.8014 16.9372 68.6191 16.6455C68.4414 16.3493 68.3525 16.0234 68.3525 15.668C68.3525 15.3444 68.4255 15.0459 68.5713 14.7725C68.7217 14.4945 68.9245 14.2643 69.1797 14.082C69.3711 13.9408 69.6309 13.8223 69.959 13.7266C70.2917 13.6263 70.6471 13.5762 71.0254 13.5762C71.5951 13.5762 72.0941 13.6582 72.5225 13.8223C72.9554 13.9863 73.2744 14.2096 73.4795 14.4922C73.6846 14.7702 73.8258 15.1439 73.9033 15.6133L72.7002 15.7773C72.6455 15.4036 72.486 15.112 72.2217 14.9023C71.9619 14.6927 71.5928 14.5879 71.1143 14.5879C70.5492 14.5879 70.1458 14.6813 69.9043 14.8682C69.6628 15.055 69.542 15.2738 69.542 15.5244C69.542 15.6839 69.5921 15.8275 69.6924 15.9551C69.7926 16.0872 69.9499 16.1966 70.1641 16.2832C70.2871 16.3288 70.6494 16.4336 71.251 16.5977C72.1214 16.8301 72.7275 17.0215 73.0693 17.1719C73.4157 17.3177 73.6868 17.5319 73.8828 17.8145C74.0788 18.097 74.1768 18.4479 74.1768 18.8672C74.1768 19.2773 74.056 19.6647 73.8145 20.0293C73.5775 20.3893 73.2334 20.6696 72.7822 20.8701C72.3311 21.0661 71.8206 21.1641 71.251 21.1641C70.3076 21.1641 69.5876 20.9681 69.0908 20.5762C68.5986 20.1842 68.2842 19.6032 68.1475 18.833ZM80.6094 18.6621L81.8809 18.8193C81.6803 19.5622 81.3089 20.1387 80.7666 20.5488C80.2243 20.959 79.5316 21.1641 78.6885 21.1641C77.6266 21.1641 76.7835 20.8382 76.1592 20.1865C75.5394 19.5303 75.2295 18.612 75.2295 17.4316C75.2295 16.2103 75.5439 15.2624 76.1729 14.5879C76.8018 13.9134 77.6175 13.5762 78.6201 13.5762C79.5908 13.5762 80.3838 13.9066 80.999 14.5674C81.6143 15.2282 81.9219 16.1579 81.9219 17.3564C81.9219 17.4294 81.9196 17.5387 81.915 17.6846H76.501C76.5465 18.4821 76.7721 19.0928 77.1777 19.5166C77.5833 19.9404 78.0892 20.1523 78.6953 20.1523C79.1465 20.1523 79.5316 20.0339 79.8506 19.7969C80.1696 19.5599 80.4225 19.1816 80.6094 18.6621ZM76.5693 16.6729H80.623C80.5684 16.0622 80.4134 15.6042 80.1582 15.2988C79.7663 14.8249 79.2581 14.5879 78.6338 14.5879C78.0687 14.5879 77.5924 14.777 77.2051 15.1553C76.8223 15.5335 76.6104 16.0394 76.5693 16.6729ZM78.2715 12.0176C78.5312 11.9902 78.6976 11.9652 78.7705 11.9424C79.012 11.8604 79.1351 11.7327 79.1396 11.5596C79.1442 11.4548 79.0804 11.3659 78.9482 11.293C78.7568 11.1882 78.4538 11.1357 78.0391 11.1357C77.8978 11.1357 77.6836 11.1449 77.3965 11.1631L77.3213 10.4658C77.499 10.4294 77.8271 10.4134 78.3057 10.418C78.8662 10.4225 79.3242 10.5137 79.6797 10.6914C80.0716 10.8828 80.2721 11.1494 80.2812 11.4912C80.2995 12.0563 79.8848 12.3913 79.0371 12.4961V12.8379H78.2715V12.0176Z" fill="white"/>
</svg>
