<svg width="117" height="26" viewBox="0 0 117 26" fill="none" xmlns="http://www.w3.org/2000/svg">
<rect x="0.786621" width="116" height="26" rx="13" fill="#F4F5F7"/>
<g clip-path="url(#clip0_7718_13228)">
<path d="M24.7199 12.0668C26.0532 13.4001 26.0532 15.4668 24.7199 16.8001L22.8532 18.6668C21.5199 20.0001 19.4532 20.0001 18.1199 18.6668C16.7865 17.3334 16.7865 15.2668 18.1199 13.9334L19.7865 12.3334" stroke="#7D8498" stroke-width="1.5" stroke-miterlimit="10" stroke-linecap="round"/>
<path d="M22.8533 13.9334C21.5199 12.6 21.5199 10.5334 22.8533 9.20004L24.7199 7.33337C26.0533 6.00004 28.1199 6.00004 29.4533 7.33337C30.7866 8.66671 30.7866 10.7334 29.4533 12.0667L27.7866 13.6667" stroke="#7D8498" stroke-width="1.5" stroke-miterlimit="10" stroke-linecap="round"/>
</g>
<path d="M42.2358 16.9717H37.8179V8.84033H36.6753V18H42.2358V16.9717ZM43.9307 10.2241C44.3179 10.2241 44.6226 9.91309 44.6226 9.53223C44.6226 9.14502 44.3179 8.84033 43.9307 8.84033C43.5498 8.84033 43.2388 9.14502 43.2388 9.53223C43.2388 9.91309 43.5498 10.2241 43.9307 10.2241ZM43.3784 18H44.4829V11.3984H43.3784V18ZM45.9746 18H47.0791V14.1152C47.0791 12.998 47.7583 12.2617 48.7993 12.2617C49.8149 12.2617 50.3164 12.8457 50.3164 13.9121V18H51.4209V13.7153C51.4209 12.2173 50.583 11.2842 49.1357 11.2842C48.1138 11.2842 47.4092 11.7412 47.041 12.4521H47.0156V11.3984H45.9746V18ZM53.9917 15.5117L54.6074 14.9277L57.0576 18H58.3398L55.3882 14.2485L58.251 11.3984H56.9116L53.9917 14.3311V8.84033H52.8872V18H53.9917V15.5117ZM65.0874 18.1143C66.7759 18.1143 67.8931 16.7749 67.8931 14.6992C67.8931 12.6299 66.7695 11.2842 65.1064 11.2842C64.1733 11.2842 63.4053 11.7476 62.9927 12.5029H62.9673V8.84033H61.8628V18H62.9165V16.8828H62.9419C63.3672 17.6445 64.1226 18.1143 65.0874 18.1143ZM64.8716 12.2554C66.0396 12.2554 66.7632 13.2012 66.7632 14.6992C66.7632 16.21 66.0396 17.1431 64.8716 17.1431C63.7544 17.1431 62.9609 16.1719 62.9609 14.6992C62.9609 13.2329 63.7544 12.2554 64.8716 12.2554ZM71.0986 10.4463H71.9556L70.8257 8.54199H69.6133L71.0986 10.4463ZM70.9463 18.1143C71.835 18.1143 72.6729 17.6191 73.0664 16.8638H73.0918V18H74.1392V13.436C74.1392 12.1221 73.1616 11.2842 71.6128 11.2842C70.0513 11.2842 69.0737 12.1602 68.9976 13.3027H70.064C70.2036 12.6553 70.7368 12.2554 71.5874 12.2554C72.5015 12.2554 73.0347 12.7378 73.0347 13.5439V14.0962L71.1431 14.2041C69.6196 14.293 68.75 15.0039 68.75 16.1338C68.75 17.3208 69.6323 18.1143 70.9463 18.1143ZM71.1938 17.1748C70.4004 17.1748 69.8735 16.7622 69.8735 16.1338C69.8735 15.5117 70.3813 15.1182 71.27 15.061L73.0347 14.9531V15.4927C73.0347 16.4448 72.2349 17.1748 71.1938 17.1748ZM76.1514 10.2241C76.5386 10.2241 76.8433 9.91309 76.8433 9.53223C76.8433 9.14502 76.5386 8.84033 76.1514 8.84033C75.7705 8.84033 75.4595 9.14502 75.4595 9.53223C75.4595 9.91309 75.7705 10.2241 76.1514 10.2241ZM75.5991 18H76.7036V11.3984H75.5991V18ZM83.5845 20.4883C85.4062 20.4883 86.5679 19.4409 86.5679 17.8667V11.3984H85.5142V12.5093H85.4951C85.0571 11.7412 84.2827 11.2842 83.3496 11.2842C81.6421 11.2842 80.5376 12.6045 80.5376 14.6738C80.5376 16.7241 81.6421 18.0508 83.3242 18.0508C84.251 18.0508 85.0317 17.5811 85.438 16.8638H85.4634V17.9048C85.4634 18.8887 84.7715 19.5488 83.6289 19.5488C82.8037 19.5488 82.1499 19.1489 81.9341 18.5459H80.7979C80.9819 19.6694 82.1309 20.4883 83.5845 20.4883ZM83.5464 17.0796C82.4102 17.0796 81.6675 16.1528 81.6675 14.6738C81.6675 13.1948 82.4102 12.2554 83.5464 12.2554C84.6953 12.2554 85.4634 13.2202 85.4634 14.6738C85.4634 16.1274 84.6953 17.0796 83.5464 17.0796ZM91.8872 8.5293H92.7886L94.2549 6.65039H93.2139L91.8872 8.5293ZM91.1763 8.66895H90.313L88.5864 10.4463H89.6274L90.7256 9.31641H90.7637L91.8618 10.4463H92.9028L91.1763 8.66895ZM90.7446 18.1143C92.5664 18.1143 93.7979 16.8003 93.7979 14.6992C93.7979 12.5918 92.5664 11.2842 90.7446 11.2842C88.9165 11.2842 87.6851 12.5918 87.6851 14.6992C87.6851 16.8003 88.9165 18.1143 90.7446 18.1143ZM90.7446 17.1431C89.5767 17.1431 88.8086 16.2544 88.8086 14.6992C88.8086 13.144 89.5767 12.2554 90.7446 12.2554C91.9126 12.2554 92.6743 13.144 92.6743 14.6992C92.6743 16.2544 91.9126 17.1431 90.7446 17.1431ZM100.399 13.563C100.26 12.376 99.2759 11.2842 97.6255 11.2842C95.8037 11.2842 94.5913 12.6172 94.5913 14.6992C94.5913 16.8257 95.8101 18.1143 97.6382 18.1143C99.1362 18.1143 100.241 17.1875 100.412 15.8735H99.3267C99.1362 16.667 98.5459 17.1431 97.6445 17.1431C96.502 17.1431 95.7148 16.2354 95.7148 14.6992C95.7148 13.2012 96.4893 12.2554 97.6318 12.2554C98.603 12.2554 99.1616 12.8457 99.3203 13.563H100.399Z" fill="#7D8498"/>
<a href="https://kenh14.vn/cau-xin-cac-ban-dung-mang-sao-bien-len-chup-anh-nua-20210408122407535.chn">
<rect fill="black" fill-opacity="0" y="0.243164" width="6.81738" height="15.5137"/>
</a>
<defs>
<clipPath id="clip0_7718_13228">
<rect width="16" height="16" fill="white" transform="translate(15.7866 5)"/>
</clipPath>
</defs>
</svg>
