<svg width="162" height="36" viewBox="0 0 162 36" fill="none" xmlns="http://www.w3.org/2000/svg">
<rect width="162" height="36" rx="18" fill="#016859"/>
<path d="M29.1572 26.7714V23.7047C29.1572 22.9246 29.7931 22.2908 30.581 22.2856H33.4671C34.2587 22.2856 34.9005 22.9209 34.9005 23.7047V23.7047V26.7809C34.9003 27.4432 35.4343 27.9845 36.103 28H38.0271C39.9451 28 41.5 26.4607 41.5 24.5618V24.5618V15.8378C41.4898 15.0908 41.1355 14.3893 40.538 13.933L33.9577 8.6853C32.8049 7.77157 31.1662 7.77157 30.0134 8.6853L23.462 13.9426C22.8623 14.397 22.5074 15.0997 22.5 15.8474V24.5618C22.5 26.4607 24.0549 28 25.9729 28H27.897C28.5824 28 29.138 27.4499 29.138 26.7714V26.7714" stroke="white" stroke-width="1.5" stroke-linecap="round" stroke-linejoin="round"/>
<path d="M57.9219 24V14.2344H61.3672V12.7266H52.7188V14.2344H56.1719V24H57.9219ZM64.5469 14.1953H66.9531C68.3047 14.1953 69.125 14.9609 69.125 16.2188C69.125 17.5078 68.3516 18.25 67 18.25H64.5469V14.1953ZM64.5469 19.6641H66.9531L69.25 24H71.2656L68.7422 19.3906C70.1172 18.9297 70.9297 17.6953 70.9297 16.1719C70.9297 14.0703 69.4844 12.7266 67.1641 12.7266H62.7969V24H64.5469V19.6641ZM79.9688 24H81.8203L77.75 12.7266H75.8594L71.7891 24H73.6094L74.6406 20.9531H78.9375L79.9688 24ZM76.7656 14.6016H76.8125L78.4922 19.5469H75.0859L76.7656 14.6016ZM84.7656 24V15.6953H84.8359L90.6797 24H92.2578V12.7266H90.5547V21.0391H90.4922L84.6484 12.7266H83.0625V24H84.7656ZM104.055 19.3125V18.1641H99.4141V19.5781H102.328V19.7734C102.305 21.4844 101.039 22.6562 99.2109 22.6562C97.0625 22.6562 95.7266 20.9922 95.7266 18.2969C95.7266 15.6484 97.0234 14.0703 99.1797 14.0703C100.648 14.0703 101.75 14.875 102.172 16.2734H103.969C103.578 14.0234 101.68 12.5391 99.1719 12.5391C95.9609 12.5391 93.9375 14.7578 93.9375 18.3125C93.9375 21.9297 95.9688 24.1875 99.1953 24.1875C102.25 24.1875 104.055 22.3672 104.055 19.3125ZM113.773 24.1875C116.367 24.1875 118.133 22.8203 118.562 20.4922H116.82C116.469 21.8516 115.352 22.6562 113.781 22.6562C111.711 22.6562 110.398 20.9922 110.398 18.3594C110.398 15.75 111.727 14.0703 113.773 14.0703C115.305 14.0703 116.508 15.0156 116.82 16.4609H118.555C118.258 14.1094 116.328 12.5391 113.773 12.5391C110.625 12.5391 108.609 14.7891 108.609 18.3594C108.609 21.9531 110.609 24.1875 113.773 24.1875ZM129.43 24V12.7266H127.68V17.4922H121.891V12.7266H120.141V24H121.891V19.0078H127.68V24H129.43ZM133.25 12.7266H131.5V20.0391C131.5 22.4688 133.234 24.1875 136.062 24.1875C138.891 24.1875 140.625 22.4688 140.625 20.0391V12.7266H138.883V19.8906C138.883 21.5 137.859 22.6328 136.062 22.6328C134.266 22.6328 133.25 21.5 133.25 19.8906V12.7266ZM134.742 10.2266C134.969 10.125 135.266 10.0781 135.531 10.0781C135.945 10.0781 136.25 10.3203 136.25 10.6328C136.25 10.9766 135.977 11.2734 135.531 11.4375L136.07 12.1094C136.867 11.8125 137.391 11.2188 137.391 10.5547C137.391 9.72656 136.719 9.19531 135.75 9.19531C135.406 9.19531 135.016 9.25781 134.742 9.38281V10.2266Z" fill="white"/>
</svg>
