<svg width="132" height="28" viewBox="0 0 132 28" fill="none" xmlns="http://www.w3.org/2000/svg">
<rect width="132" height="28" rx="14" fill="#029875"/>
<path d="M18.1466 13.6465L22.0001 9.79297L22.7071 10.5L19.7071 13.5H28.5001C28.7766 13.5 29.0001 13.724 29.0001 14C29.0001 14.276 28.7766 14.5 28.5001 14.5H19.7071L22.7071 17.5L22.0001 18.207L18.1466 14.3535C17.9511 14.158 17.9511 13.842 18.1466 13.6465Z" fill="white"/>
<path d="M44.184 9.636H45.336L42.18 18H40.92L37.764 9.636H38.928L41.556 16.848L44.184 9.636ZM49.7425 7.596L50.7985 8.844L50.0545 9.3L48.9625 8.124L49.7425 7.596ZM48.6145 12.24C48.8945 12.24 49.1585 12.284 49.4065 12.372C49.6625 12.46 49.8865 12.588 50.0785 12.756C50.2705 12.924 50.4185 13.132 50.5225 13.38C50.6345 13.628 50.6905 13.912 50.6905 14.232H46.5385C46.5705 13.912 46.6465 13.628 46.7665 13.38C46.8865 13.132 47.0385 12.924 47.2225 12.756C47.4065 12.588 47.6185 12.46 47.8585 12.372C48.0985 12.284 48.3505 12.24 48.6145 12.24ZM51.6865 15.972H50.5105C50.3905 16.332 50.1745 16.624 49.8625 16.848C49.5585 17.072 49.1585 17.184 48.6625 17.184C48.3825 17.184 48.1185 17.14 47.8705 17.052C47.6225 16.956 47.4025 16.824 47.2105 16.656C47.0185 16.48 46.8625 16.264 46.7425 16.008C46.6225 15.752 46.5505 15.456 46.5265 15.12H51.7825C51.7985 15.008 51.8065 14.9 51.8065 14.796C51.8145 14.692 51.8185 14.58 51.8185 14.46C51.8185 14.012 51.7425 13.596 51.5905 13.212C51.4465 12.828 51.2345 12.496 50.9545 12.216C50.6825 11.936 50.3505 11.716 49.9585 11.556C49.5745 11.396 49.1425 11.316 48.6625 11.316C48.1825 11.316 47.7425 11.396 47.3425 11.556C46.9425 11.708 46.5985 11.932 46.3105 12.228C46.0305 12.524 45.8105 12.88 45.6505 13.296C45.4905 13.712 45.4105 14.18 45.4105 14.7C45.4105 15.22 45.4905 15.692 45.6505 16.116C45.8185 16.532 46.0465 16.888 46.3345 17.184C46.6225 17.48 46.9625 17.708 47.3545 17.868C47.7545 18.028 48.1905 18.108 48.6625 18.108C49.0705 18.108 49.4425 18.056 49.7785 17.952C50.1145 17.84 50.4065 17.688 50.6545 17.496C50.9105 17.304 51.1225 17.08 51.2905 16.824C51.4665 16.56 51.5985 16.276 51.6865 15.972ZM48.6985 8.832L46.9225 9.972L47.4625 10.644L48.6985 9.864L49.9345 10.644L50.4745 9.972L48.6985 8.832ZM56.6992 12.324H55.8472V11.424H56.6992V9.768H57.7912V11.424H59.5072V12.324H57.7912V16.2C57.7912 16.528 57.8592 16.756 57.9952 16.884C58.1312 17.012 58.3672 17.076 58.7032 17.076H59.5072V18H58.5232C57.9392 18 57.4872 17.868 57.1672 17.604C56.8552 17.332 56.6992 16.864 56.6992 16.2V12.324ZM61.9223 18H60.8303V11.424H61.9223V12.492C62.1063 12.124 62.3743 11.836 62.7263 11.628C63.0783 11.412 63.5183 11.304 64.0463 11.304V12.432H63.7583C63.4943 12.432 63.2503 12.464 63.0263 12.528C62.8023 12.592 62.6063 12.704 62.4383 12.864C62.2783 13.016 62.1503 13.22 62.0543 13.476C61.9663 13.724 61.9223 14.04 61.9223 14.424V18ZM64.8988 14.688C64.8988 14.176 64.9788 13.712 65.1388 13.296C65.2988 12.88 65.5188 12.528 65.7988 12.24C66.0788 11.944 66.4068 11.716 66.7828 11.556C67.1668 11.396 67.5788 11.316 68.0188 11.316C68.3228 11.316 68.6028 11.352 68.8588 11.424C69.1228 11.496 69.3548 11.592 69.5548 11.712C69.7628 11.832 69.9428 11.972 70.0948 12.132C70.2468 12.292 70.3708 12.456 70.4668 12.624V11.424H71.5708V18H70.4668V16.776C70.3708 16.952 70.2428 17.12 70.0828 17.28C69.9308 17.44 69.7508 17.584 69.5428 17.712C69.3348 17.832 69.1028 17.928 68.8468 18C68.5908 18.072 68.3108 18.108 68.0068 18.108C67.5668 18.108 67.1588 18.028 66.7828 17.868C66.4068 17.7 66.0788 17.468 65.7988 17.172C65.5188 16.868 65.2988 16.508 65.1388 16.092C64.9788 15.668 64.8988 15.2 64.8988 14.688ZM70.4668 14.7C70.4668 14.316 70.4068 13.976 70.2868 13.68C70.1668 13.376 70.0028 13.12 69.7948 12.912C69.5948 12.704 69.3588 12.544 69.0868 12.432C68.8148 12.32 68.5308 12.264 68.2348 12.264C67.9308 12.264 67.6428 12.32 67.3708 12.432C67.1068 12.536 66.8748 12.692 66.6748 12.9C66.4748 13.1 66.3148 13.352 66.1948 13.656C66.0748 13.96 66.0148 14.304 66.0148 14.688C66.0148 15.072 66.0748 15.42 66.1948 15.732C66.3148 16.036 66.4748 16.292 66.6748 16.5C66.8748 16.708 67.1068 16.868 67.3708 16.98C67.6428 17.092 67.9308 17.148 68.2348 17.148C68.5308 17.148 68.8148 17.096 69.0868 16.992C69.3588 16.88 69.5948 16.72 69.7948 16.512C70.0028 16.296 70.1668 16.036 70.2868 15.732C70.4068 15.428 70.4668 15.084 70.4668 14.7ZM78.2282 14.28C78.2282 13.6 78.0602 13.092 77.7242 12.756C77.3882 12.42 76.9442 12.252 76.3922 12.252C75.8322 12.252 75.3762 12.428 75.0242 12.78C74.6802 13.124 74.5082 13.652 74.5082 14.364V18H73.4162V11.424H74.5082V12.36C74.7242 12.016 75.0162 11.756 75.3842 11.58C75.7602 11.396 76.1722 11.304 76.6202 11.304C77.0042 11.304 77.3602 11.364 77.6882 11.484C78.0162 11.596 78.3002 11.772 78.5402 12.012C78.7802 12.244 78.9682 12.536 79.1042 12.888C79.2402 13.24 79.3082 13.652 79.3082 14.124V18H78.2282V14.28ZM80.684 14.688C80.684 14.176 80.764 13.712 80.924 13.296C81.084 12.88 81.304 12.528 81.584 12.24C81.864 11.944 82.192 11.716 82.568 11.556C82.952 11.396 83.364 11.316 83.804 11.316C84.1 11.316 84.376 11.352 84.632 11.424C84.896 11.488 85.128 11.58 85.328 11.7C85.536 11.82 85.716 11.96 85.868 12.12C86.028 12.28 86.156 12.448 86.252 12.624V11.424H87.356V18.144C87.356 18.6 87.28 19.016 87.128 19.392C86.984 19.768 86.776 20.092 86.504 20.364C86.232 20.644 85.9 20.86 85.508 21.012C85.124 21.164 84.692 21.24 84.212 21.24C83.78 21.24 83.38 21.188 83.012 21.084C82.652 20.98 82.332 20.828 82.052 20.628C81.78 20.428 81.556 20.188 81.38 19.908C81.204 19.628 81.088 19.312 81.032 18.96H82.112C82.232 19.36 82.476 19.68 82.844 19.92C83.212 20.168 83.668 20.292 84.212 20.292C84.5 20.292 84.768 20.244 85.016 20.148C85.272 20.06 85.488 19.924 85.664 19.74C85.848 19.564 85.992 19.34 86.096 19.068C86.2 18.804 86.252 18.496 86.252 18.144V16.764C86.156 16.94 86.028 17.112 85.868 17.28C85.716 17.44 85.536 17.584 85.328 17.712C85.12 17.832 84.888 17.928 84.632 18C84.376 18.072 84.1 18.108 83.804 18.108C83.364 18.108 82.952 18.028 82.568 17.868C82.192 17.7 81.864 17.468 81.584 17.172C81.304 16.868 81.084 16.508 80.924 16.092C80.764 15.668 80.684 15.2 80.684 14.688ZM86.252 14.7C86.252 14.316 86.192 13.976 86.072 13.68C85.952 13.376 85.788 13.12 85.58 12.912C85.38 12.704 85.144 12.544 84.872 12.432C84.6 12.32 84.316 12.264 84.02 12.264C83.716 12.264 83.428 12.32 83.156 12.432C82.892 12.536 82.66 12.692 82.46 12.9C82.26 13.1 82.1 13.352 81.98 13.656C81.86 13.96 81.8 14.304 81.8 14.688C81.8 15.072 81.86 15.42 81.98 15.732C82.1 16.036 82.26 16.292 82.46 16.5C82.66 16.708 82.892 16.868 83.156 16.98C83.428 17.092 83.716 17.148 84.02 17.148C84.316 17.148 84.6 17.096 84.872 16.992C85.144 16.88 85.38 16.72 85.58 16.512C85.788 16.296 85.952 16.036 86.072 15.732C86.192 15.428 86.252 15.084 86.252 14.7ZM91.9926 14.7C91.9926 14.188 92.0726 13.724 92.2326 13.308C92.3926 12.884 92.6126 12.528 92.8926 12.24C93.1726 11.944 93.5086 11.716 93.9006 11.556C94.2926 11.396 94.7246 11.316 95.1966 11.316C96.0206 11.316 96.6886 11.512 97.2006 11.904C97.7206 12.296 98.0646 12.84 98.2326 13.536H97.0566C96.9446 13.136 96.7286 12.82 96.4086 12.588C96.0886 12.356 95.6846 12.24 95.1966 12.24C94.8926 12.24 94.6126 12.292 94.3566 12.396C94.1086 12.5 93.8886 12.656 93.6966 12.864C93.5126 13.072 93.3686 13.332 93.2646 13.644C93.1606 13.948 93.1086 14.3 93.1086 14.7C93.1086 15.108 93.1606 15.468 93.2646 15.78C93.3686 16.084 93.5126 16.344 93.6966 16.56C93.8886 16.768 94.1086 16.924 94.3566 17.028C94.6126 17.132 94.8926 17.184 95.1966 17.184C95.6846 17.184 96.0846 17.072 96.3966 16.848C96.7166 16.624 96.9366 16.304 97.0566 15.888H98.2326C98.1446 16.216 98.0126 16.516 97.8366 16.788C97.6686 17.06 97.4566 17.296 97.2006 17.496C96.9446 17.688 96.6486 17.84 96.3126 17.952C95.9766 18.056 95.6046 18.108 95.1966 18.108C94.7246 18.108 94.2926 18.028 93.9006 17.868C93.5086 17.708 93.1726 17.48 92.8926 17.184C92.6126 16.888 92.3926 16.532 92.2326 16.116C92.0726 15.692 91.9926 15.22 91.9926 14.7ZM99.6896 9.12H100.782V12.372C100.998 12.02 101.298 11.756 101.682 11.58C102.066 11.396 102.49 11.304 102.954 11.304C103.322 11.304 103.666 11.364 103.986 11.484C104.306 11.596 104.582 11.772 104.814 12.012C105.054 12.244 105.242 12.536 105.378 12.888C105.514 13.24 105.582 13.652 105.582 14.124V18H104.502V14.28C104.502 13.6 104.334 13.092 103.998 12.756C103.662 12.42 103.218 12.252 102.666 12.252C102.106 12.252 101.65 12.428 101.298 12.78C100.954 13.124 100.782 13.652 100.782 14.364V18H99.6896V9.12ZM109.105 9.264C109.113 9.088 109.153 8.936 109.225 8.808C109.305 8.68 109.401 8.576 109.513 8.496C109.633 8.416 109.765 8.36 109.909 8.328C110.061 8.288 110.213 8.268 110.365 8.268C110.685 8.268 110.953 8.36 111.169 8.544C111.393 8.72 111.505 8.96 111.505 9.264C111.505 9.432 111.477 9.576 111.421 9.696C111.373 9.816 111.305 9.916 111.217 9.996C111.137 10.076 111.049 10.136 110.953 10.176C110.857 10.216 110.761 10.24 110.665 10.248L110.641 10.512H110.017L109.993 9.744C110.305 9.744 110.513 9.704 110.617 9.624C110.721 9.536 110.773 9.412 110.773 9.252C110.773 9.14 110.729 9.052 110.641 8.988C110.561 8.924 110.465 8.892 110.353 8.892C110.225 8.892 110.109 8.916 110.005 8.964C109.909 9.012 109.849 9.112 109.825 9.264H109.105ZM113.197 18H112.105V17.028C111.897 17.372 111.605 17.636 111.229 17.82C110.853 18.004 110.445 18.096 110.005 18.096C109.629 18.096 109.277 18.04 108.949 17.928C108.621 17.808 108.333 17.632 108.085 17.4C107.845 17.16 107.653 16.864 107.509 16.512C107.373 16.16 107.305 15.748 107.305 15.276V11.424H108.385V15.132C108.385 15.804 108.553 16.308 108.889 16.644C109.225 16.98 109.669 17.148 110.221 17.148C110.789 17.148 111.245 16.976 111.589 16.632C111.933 16.28 112.105 15.748 112.105 15.036V11.424H113.197V18Z" fill="white"/>
</svg>
