<svg width="16" height="16" viewBox="0 0 16 16" fill="none" xmlns="http://www.w3.org/2000/svg">
<path opacity="0.4" d="M11.2606 0H13.9693C15.0911 0 16.0001 0.916681 16.0001 2.04797V4.77962C16.0001 5.91091 15.0911 6.82759 13.9693 6.82759H11.2606C10.1387 6.82759 9.22974 5.91091 9.22974 4.77962V2.04797C9.22974 0.916681 10.1387 0 11.2606 0Z" fill="white"/>
<path fill-rule="evenodd" clip-rule="evenodd" d="M2.03082 0H4.73959C5.8614 0 6.77041 0.916681 6.77041 2.04797V4.77962C6.77041 5.91091 5.8614 6.82759 4.73959 6.82759H2.03082C0.909004 6.82759 0 5.91091 0 4.77962V2.04797C0 0.916681 0.909004 0 2.03082 0ZM2.03082 9.17226H4.73959C5.8614 9.17226 6.77041 10.0889 6.77041 11.2202V13.9519C6.77041 15.0824 5.8614 15.9998 4.73959 15.9998H2.03082C0.909004 15.9998 0 15.0824 0 13.9519V11.2202C0 10.0889 0.909004 9.17226 2.03082 9.17226ZM13.9693 9.17226H11.2605C10.1387 9.17226 9.22968 10.0889 9.22968 11.2202V13.9519C9.22968 15.0824 10.1387 15.9998 11.2605 15.9998H13.9693C15.0911 15.9998 16.0001 15.0824 16.0001 13.9519V11.2202C16.0001 10.0889 15.0911 9.17226 13.9693 9.17226Z" fill="white"/>
</svg>
