<svg width="18" height="18" viewBox="0 0 18 18" fill="none" xmlns="http://www.w3.org/2000/svg">
<path fill-rule="evenodd" clip-rule="evenodd" d="M11.7022 2.94764C11.7022 4.79847 13.2048 6.29886 15.0583 6.29886C15.2624 6.29786 15.466 6.27826 15.6665 6.24032V12.8842C15.6665 15.6793 14.0177 17.333 11.2185 17.333H5.1218C2.31526 17.333 0.666504 15.6793 0.666504 12.8842V6.79642C0.666504 4.0013 2.31526 2.33301 5.1218 2.33301H11.7608C11.7214 2.53551 11.7018 2.74135 11.7022 2.94764ZM9.95815 11.4135L12.3397 8.34032V8.32569C12.5436 8.05173 12.4915 7.66542 12.2224 7.45496C12.0922 7.35441 11.9267 7.31089 11.7637 7.33433C11.6008 7.35777 11.4543 7.44618 11.3578 7.57935L9.34995 10.1623L7.06367 8.36228C6.93314 8.26058 6.76709 8.21569 6.60301 8.23771C6.43893 8.25974 6.29066 8.34684 6.19166 8.47935L3.72952 11.655C3.64298 11.7628 3.59639 11.8972 3.59762 12.0354C3.58334 12.3148 3.75973 12.5685 4.02682 12.6528C4.29391 12.7372 4.58432 12.6308 4.73343 12.394L6.79254 9.73057L9.07882 11.5233C9.20885 11.6281 9.376 11.6756 9.54184 11.6549C9.70768 11.6342 9.85796 11.5471 9.95815 11.4135Z" fill="#029875"/>
<ellipse opacity="0.4" cx="15.2498" cy="2.74984" rx="2.08333" ry="2.08333" fill="#029875"/>
</svg>
