<svg width="126" height="36" viewBox="0 0 126 36" fill="none" xmlns="http://www.w3.org/2000/svg">
<rect width="126" height="36" rx="6" fill="black"/>
<path d="M63.3221 19.5759C61.2053 19.5759 59.48 21.186 59.48 23.4036C59.48 25.6077 61.2053 27.2313 63.3221 27.2313C65.4398 27.2313 67.1651 25.6077 67.1651 23.4036C67.1642 21.186 65.4389 19.5759 63.3221 19.5759ZM63.3221 25.7247C62.162 25.7247 61.1621 24.768 61.1621 23.4045C61.1621 22.0266 62.1629 21.0843 63.3221 21.0843C64.4822 21.0843 65.4821 22.0266 65.4821 23.4045C65.4821 24.7671 64.4822 25.7247 63.3221 25.7247ZM54.9395 19.5759C52.8227 19.5759 51.0974 21.186 51.0974 23.4036C51.0974 25.6077 52.8227 27.2313 54.9395 27.2313C57.0572 27.2313 58.7825 25.6077 58.7825 23.4036C58.7825 21.186 57.0572 19.5759 54.9395 19.5759ZM54.9395 25.7247C53.7794 25.7247 52.7795 24.768 52.7795 23.4045C52.7795 22.0266 53.7803 21.0843 54.9395 21.0843C56.0996 21.0843 57.0995 22.0266 57.0995 23.4045C57.1004 24.7671 56.0996 25.7247 54.9395 25.7247ZM44.9693 20.7513V22.3749H48.8555C48.7394 23.2884 48.4352 23.9553 47.9708 24.4188C47.4056 24.984 46.5209 25.6077 44.9693 25.6077C42.5771 25.6077 40.7069 23.679 40.7069 21.2868C40.7069 18.8946 42.5771 16.9659 44.9693 16.9659C46.2599 16.9659 47.2022 17.4735 47.8979 18.126L49.0436 16.9803C48.0716 16.0524 46.7819 15.3423 44.9693 15.3423C41.6924 15.3423 38.9375 18.0099 38.9375 21.2868C38.9375 24.5637 41.6924 27.2313 44.9693 27.2313C46.7378 27.2313 48.0725 26.6508 49.1156 25.5636C50.1884 24.4908 50.5223 22.9824 50.5223 21.7647C50.5223 21.3885 50.4935 21.0402 50.435 20.7504H44.9693V20.7513ZM85.7465 22.0122C85.4279 21.1572 84.4559 19.5759 82.4696 19.5759C80.4977 19.5759 78.8588 21.1275 78.8588 23.4036C78.8588 25.5492 80.4833 27.2313 82.6577 27.2313C84.4118 27.2313 85.427 26.1585 85.8482 25.5348L84.5432 24.6645C84.1085 25.3026 83.5136 25.7229 82.6577 25.7229C81.8027 25.7229 81.1934 25.3314 80.8019 24.5628L85.9202 22.446L85.7465 22.0122ZM80.5265 23.2884C80.4833 21.8088 81.6722 21.0555 82.5281 21.0555C83.195 21.0555 83.7602 21.3894 83.9492 21.8673L80.5265 23.2884ZM76.3658 27H78.047V15.7491H76.3658V27ZM73.61 20.4318H73.5524C73.1753 19.9818 72.4499 19.5759 71.5373 19.5759C69.623 19.5759 67.8689 21.258 67.8689 23.4189C67.8689 25.5645 69.623 27.2322 71.5373 27.2322C72.4508 27.2322 73.1753 26.8263 73.5524 26.3628H73.61V26.9136C73.61 28.3779 72.827 29.1609 71.5661 29.1609C70.5365 29.1609 69.8984 28.422 69.6374 27.7983L68.1731 28.4076C68.5934 29.4219 69.7094 30.6693 71.5661 30.6693C73.538 30.6693 75.2057 29.5092 75.2057 26.6814V19.809H73.6109V20.4318H73.61ZM71.6822 25.7247C70.5221 25.7247 69.551 24.7527 69.551 23.4189C69.551 22.0698 70.5221 21.0843 71.6822 21.0843C72.827 21.0843 73.7261 22.0698 73.7261 23.4189C73.7261 24.7527 72.827 25.7247 71.6822 25.7247ZM93.6251 15.7491H89.6012V27H91.2797V22.7376H93.6242C95.4854 22.7376 97.316 21.3903 97.316 19.2438C97.316 17.0973 95.4863 15.7491 93.6251 15.7491ZM93.6683 21.1716H91.2797V17.3151H93.6683C94.9238 17.3151 95.6366 18.3546 95.6366 19.2438C95.6366 20.115 94.9238 21.1716 93.6683 21.1716ZM104.047 19.5561C102.831 19.5561 101.572 20.0916 101.051 21.2787L102.541 21.9006C102.86 21.2787 103.454 21.0753 104.076 21.0753C104.944 21.0753 105.827 21.5964 105.842 22.5225V22.6386C105.537 22.4649 104.886 22.2048 104.09 22.2048C102.484 22.2048 100.848 23.0877 100.848 24.7374C100.848 26.2431 102.165 27.2124 103.641 27.2124C104.77 27.2124 105.393 26.7057 105.783 26.1117H105.841V26.9802H107.463V22.6665C107.464 20.6703 105.971 19.5561 104.047 19.5561ZM103.844 25.722C103.295 25.722 102.527 25.4466 102.527 24.7662C102.527 23.8977 103.483 23.5647 104.308 23.5647C105.045 23.5647 105.393 23.724 105.842 23.9409C105.711 24.984 104.814 25.722 103.844 25.722ZM113.368 19.8018L111.443 24.6798H111.386L109.388 19.8018H107.579L110.575 26.6193L108.867 30.4119H110.618L115.236 19.8018H113.368ZM98.243 27H99.9215V15.7491H98.243V27Z" fill="white"/>
<path d="M44.6762 9.21862C44.6762 9.97282 44.453 10.5731 44.0057 11.0213C43.4981 11.5541 42.8357 11.8205 42.0221 11.8205C41.2427 11.8205 40.5794 11.5505 40.0349 11.0105C39.4895 10.4696 39.2168 9.80002 39.2168 9.00082C39.2168 8.20072 39.4895 7.53112 40.0349 6.99112C40.5794 6.45022 41.2427 6.18023 42.0221 6.18023C42.4091 6.18023 42.779 6.25582 43.13 6.40612C43.4819 6.55732 43.7636 6.75802 43.9742 7.00912L43.4999 7.48432C43.1426 7.05682 42.6503 6.84352 42.0212 6.84352C41.4524 6.84352 40.961 7.04333 40.5461 7.44293C40.1312 7.84253 39.9242 8.36182 39.9242 8.99992C39.9242 9.63802 40.1312 10.1573 40.5461 10.5569C40.961 10.9565 41.4524 11.1563 42.0212 11.1563C42.6242 11.1563 43.1273 10.9556 43.5296 10.5533C43.7906 10.2914 43.9418 9.92692 43.9823 9.45982H42.0212V8.81093H44.6375C44.6645 8.95223 44.6762 9.08812 44.6762 9.21862Z" fill="white"/>
<path d="M48.8253 6.96328H46.3665V8.67508H48.5841V9.32398H46.3665V11.0358H48.8253V11.7H45.6726V6.29998H48.8253V6.96328Z" fill="white"/>
<path d="M51.7511 11.7H51.0572V6.96328H49.5488V6.29998H53.2595V6.96328H51.7511V11.7Z" fill="white"/>
<path d="M55.9441 11.7V6.29998H56.638V11.7H55.9441Z" fill="white"/>
<path d="M59.7153 11.7H59.0214V6.96328H57.513V6.29998H61.2237V6.96328H59.7153V11.7Z" fill="white"/>
<path d="M68.248 11.0025C67.717 11.5479 67.0573 11.8206 66.268 11.8206C65.4787 11.8206 64.819 11.5479 64.2889 11.0025C63.7579 10.4571 63.4933 9.78927 63.4933 8.99997C63.4933 8.21067 63.7579 7.54287 64.2889 6.99747C64.819 6.45207 65.4787 6.17847 66.268 6.17847C67.0528 6.17847 67.7116 6.45297 68.2444 7.00107C68.7772 7.54917 69.0436 8.21517 69.0436 8.99997C69.0436 9.78927 68.7781 10.4571 68.248 11.0025ZM64.801 10.5498C65.2006 10.9548 65.6893 11.1564 66.268 11.1564C66.8467 11.1564 67.3363 10.9539 67.735 10.5498C68.1346 10.1448 68.3353 9.62817 68.3353 8.99997C68.3353 8.37177 68.1346 7.85517 67.735 7.45017C67.3363 7.04517 66.8467 6.84357 66.268 6.84357C65.6893 6.84357 65.2006 7.04607 64.801 7.45017C64.4023 7.85517 64.2016 8.37177 64.2016 8.99997C64.2016 9.62817 64.4023 10.1448 64.801 10.5498Z" fill="white"/>
<path d="M70.0174 11.7V6.29998H70.8616L73.486 10.5003H73.5157L73.486 9.45988V6.29998H74.1799V11.7H73.4554L70.7095 7.29538H70.6798L70.7095 8.33577V11.7H70.0174Z" fill="white"/>
<path d="M44.6762 9.21862C44.6762 9.97282 44.453 10.5731 44.0057 11.0213C43.4981 11.5541 42.8357 11.8205 42.0221 11.8205C41.2427 11.8205 40.5794 11.5505 40.0349 11.0105C39.4895 10.4696 39.2168 9.80002 39.2168 9.00082C39.2168 8.20072 39.4895 7.53112 40.0349 6.99112C40.5794 6.45022 41.2427 6.18023 42.0221 6.18023C42.4091 6.18023 42.779 6.25582 43.13 6.40612C43.4819 6.55732 43.7636 6.75802 43.9742 7.00912L43.4999 7.48432C43.1426 7.05682 42.6503 6.84352 42.0212 6.84352C41.4524 6.84352 40.961 7.04333 40.5461 7.44293C40.1312 7.84253 39.9242 8.36182 39.9242 8.99992C39.9242 9.63802 40.1312 10.1573 40.5461 10.5569C40.961 10.9565 41.4524 11.1563 42.0212 11.1563C42.6242 11.1563 43.1273 10.9556 43.5296 10.5533C43.7906 10.2914 43.9418 9.92692 43.9823 9.45982H42.0212V8.81093H44.6375C44.6645 8.95223 44.6762 9.08812 44.6762 9.21862Z" stroke="white" stroke-width="0.2" stroke-miterlimit="10"/>
<path d="M48.8253 6.96328H46.3665V8.67508H48.5841V9.32398H46.3665V11.0358H48.8253V11.7H45.6726V6.29998H48.8253V6.96328Z" stroke="white" stroke-width="0.2" stroke-miterlimit="10"/>
<path d="M51.7511 11.7H51.0572V6.96328H49.5488V6.29998H53.2595V6.96328H51.7511V11.7Z" stroke="white" stroke-width="0.2" stroke-miterlimit="10"/>
<path d="M55.9441 11.7V6.29998H56.638V11.7H55.9441Z" stroke="white" stroke-width="0.2" stroke-miterlimit="10"/>
<path d="M59.7153 11.7H59.0214V6.96328H57.513V6.29998H61.2237V6.96328H59.7153V11.7Z" stroke="white" stroke-width="0.2" stroke-miterlimit="10"/>
<path d="M68.248 11.0025C67.717 11.5479 67.0573 11.8206 66.268 11.8206C65.4787 11.8206 64.819 11.5479 64.2889 11.0025C63.7579 10.4571 63.4933 9.78927 63.4933 8.99997C63.4933 8.21067 63.7579 7.54287 64.2889 6.99747C64.819 6.45207 65.4787 6.17847 66.268 6.17847C67.0528 6.17847 67.7116 6.45297 68.2444 7.00107C68.7772 7.54917 69.0436 8.21517 69.0436 8.99997C69.0436 9.78927 68.7781 10.4571 68.248 11.0025ZM64.801 10.5498C65.2006 10.9548 65.6893 11.1564 66.268 11.1564C66.8467 11.1564 67.3363 10.9539 67.735 10.5498C68.1346 10.1448 68.3353 9.62817 68.3353 8.99997C68.3353 8.37177 68.1346 7.85517 67.735 7.45017C67.3363 7.04517 66.8467 6.84357 66.268 6.84357C65.6893 6.84357 65.2006 7.04607 64.801 7.45017C64.4023 7.85517 64.2016 8.37177 64.2016 8.99997C64.2016 9.62817 64.4023 10.1448 64.801 10.5498Z" stroke="white" stroke-width="0.2" stroke-miterlimit="10"/>
<path d="M70.0174 11.7V6.29998H70.8616L73.486 10.5003H73.5157L73.486 9.45988V6.29998H74.1799V11.7H73.4554L70.7095 7.29538H70.6798L70.7095 8.33577V11.7H70.0174Z" stroke="white" stroke-width="0.2" stroke-miterlimit="10"/>
<g filter="url(#filter0_ii)">
<path d="M11.3923 6.78421C11.1304 7.06141 10.9756 7.49161 10.9756 8.04871V27.9531C10.9756 28.5111 11.1304 28.9404 11.3923 29.2176L11.4589 29.2824L22.609 18.1323V18.0009V17.8695L11.4589 6.71851L11.3923 6.78421Z" fill="url(#paint0_linear)"/>
<path d="M26.325 21.85L22.6089 18.1321V18.0007V17.8693L26.3259 14.1523L26.4096 14.2L30.8133 16.702C32.0706 17.4166 32.0706 18.5857 30.8133 19.3012L26.4096 21.8032L26.325 21.85Z" fill="url(#paint1_linear)"/>
<g filter="url(#filter1_i)">
<path d="M26.4097 21.8023L22.6081 18.0007L11.3923 29.2174C11.8063 29.6566 12.4912 29.7106 13.2625 29.2732L26.4097 21.8023Z" fill="url(#paint2_linear)"/>
</g>
<path d="M26.4097 14.1992L13.2625 6.72923C12.4912 6.29093 11.8063 6.34583 11.3923 6.78503L22.609 18.0017L26.4097 14.1992Z" fill="url(#paint3_linear)"/>
</g>
<defs>
<filter id="filter0_ii" x="10.9756" y="6.42676" width="20.7808" height="23.1487" filterUnits="userSpaceOnUse" color-interpolation-filters="sRGB">
<feFlood flood-opacity="0" result="BackgroundImageFix"/>
<feBlend mode="normal" in="SourceGraphic" in2="BackgroundImageFix" result="shape"/>
<feColorMatrix in="SourceAlpha" type="matrix" values="0 0 0 0 0 0 0 0 0 0 0 0 0 0 0 0 0 0 127 0" result="hardAlpha"/>
<feOffset dy="-0.15"/>
<feComposite in2="hardAlpha" operator="arithmetic" k2="-1" k3="1"/>
<feColorMatrix type="matrix" values="0 0 0 0 0 0 0 0 0 0 0 0 0 0 0 0 0 0 0.12 0"/>
<feBlend mode="normal" in2="shape" result="effect1_innerShadow"/>
<feColorMatrix in="SourceAlpha" type="matrix" values="0 0 0 0 0 0 0 0 0 0 0 0 0 0 0 0 0 0 127 0" result="hardAlpha"/>
<feOffset dy="0.15"/>
<feComposite in2="hardAlpha" operator="arithmetic" k2="-1" k3="1"/>
<feColorMatrix type="matrix" values="0 0 0 0 1 0 0 0 0 1 0 0 0 0 1 0 0 0 0.25 0"/>
<feBlend mode="normal" in2="effect1_innerShadow" result="effect2_innerShadow"/>
</filter>
<filter id="filter1_i" x="11.3923" y="18.0007" width="15.0173" height="11.5747" filterUnits="userSpaceOnUse" color-interpolation-filters="sRGB">
<feFlood flood-opacity="0" result="BackgroundImageFix"/>
<feBlend mode="normal" in="SourceGraphic" in2="BackgroundImageFix" result="shape"/>
<feColorMatrix in="SourceAlpha" type="matrix" values="0 0 0 0 0 0 0 0 0 0 0 0 0 0 0 0 0 0 127 0" result="hardAlpha"/>
<feOffset dy="-0.15"/>
<feComposite in2="hardAlpha" operator="arithmetic" k2="-1" k3="1"/>
<feColorMatrix type="matrix" values="0 0 0 0 0 0 0 0 0 0 0 0 0 0 0 0 0 0 0.08 0"/>
<feBlend mode="normal" in2="shape" result="effect1_innerShadow"/>
</filter>
<linearGradient id="paint0_linear" x1="21.6206" y1="7.83811" x2="6.51681" y2="22.9419" gradientUnits="userSpaceOnUse">
<stop stop-color="#00A0FF"/>
<stop offset="0.0066" stop-color="#00A1FF"/>
<stop offset="0.2601" stop-color="#00BEFF"/>
<stop offset="0.5122" stop-color="#00D2FF"/>
<stop offset="0.7604" stop-color="#00DFFF"/>
<stop offset="1" stop-color="#00E3FF"/>
</linearGradient>
<linearGradient id="paint1_linear" x1="32.4499" y1="18.0007" x2="10.6736" y2="18.0007" gradientUnits="userSpaceOnUse">
<stop stop-color="#FFE000"/>
<stop offset="0.4087" stop-color="#FFBD00"/>
<stop offset="0.7754" stop-color="#FFA500"/>
<stop offset="1" stop-color="#FF9C00"/>
</linearGradient>
<linearGradient id="paint2_linear" x1="24.3452" y1="20.0652" x2="3.86257" y2="40.5479" gradientUnits="userSpaceOnUse">
<stop stop-color="#FF3A44"/>
<stop offset="1" stop-color="#C31162"/>
</linearGradient>
<linearGradient id="paint3_linear" x1="8.56759" y1="0.159046" x2="17.7137" y2="9.30512" gradientUnits="userSpaceOnUse">
<stop stop-color="#32A071"/>
<stop offset="0.0685" stop-color="#2DA771"/>
<stop offset="0.4762" stop-color="#15CF74"/>
<stop offset="0.8009" stop-color="#06E775"/>
<stop offset="1" stop-color="#00F076"/>
</linearGradient>
</defs>
</svg>
