<svg id="Layer_1" data-name="Layer 1" xmlns="http://www.w3.org/2000/svg" xmlns:xlink="http://www.w3.org/1999/xlink" viewBox="0 0 44 45"><defs><style>.cls-1{fill:url(#linear-gradient);}.cls-2{fill:url(#linear-gradient-2);}</style><linearGradient id="linear-gradient" x1="-0.22" y1="45.44" x2="44.66" y2="1.45" gradientTransform="matrix(1, 0, 0, -1, 0, 46)" gradientUnits="userSpaceOnUse"><stop offset="0" stop-color="#029875"/><stop offset="1" stop-color="#15dcae"/></linearGradient><linearGradient id="linear-gradient-2" x1="22" y1="37" x2="22" y2="11" gradientTransform="matrix(1, 0, 0, -1, 0, 46)" gradientUnits="userSpaceOnUse"><stop offset="0" stop-color="#fff"/><stop offset="1" stop-color="#ffebdc"/></linearGradient></defs><path class="cls-1" d="M44,22.34a22,22,0,1,1-22-22A22,22,0,0,1,44,22.34Z"/><path class="cls-2" d="M31.2,15.5a9.81,9.81,0,0,0-12.33-6,9.7,9.7,0,0,0-6.17,6,3.25,3.25,0,0,0-2.64,3.83,3.2,3.2,0,0,0,2.78,2.58,9.61,9.61,0,0,0,6.23,5.69A8.06,8.06,0,0,0,14,35H30.32A8,8,0,0,0,25,27.53a9.55,9.55,0,0,0,6-5.62,3.28,3.28,0,0,0,3-3.57A3.21,3.21,0,0,0,31.2,15.5ZM22,24.62a3.65,3.65,0,0,1-3.73-3.57h7.38A3.59,3.59,0,0,1,22,24.62Z"/></svg>