<svg width="142" height="42" viewBox="0 0 142 42" fill="none" xmlns="http://www.w3.org/2000/svg">
<rect width="142" height="42" rx="8" fill="#18191F"/>
<path d="M71.669 22.8386C69.195 22.8386 67.1786 24.7171 67.1786 27.3043C67.1786 29.8757 69.195 31.7699 71.669 31.7699C74.144 31.7699 76.1604 29.8757 76.1604 27.3043C76.1593 24.7171 74.1429 22.8386 71.669 22.8386ZM71.669 30.0122C70.3131 30.0122 69.1445 28.8961 69.1445 27.3053C69.1445 25.6978 70.3142 24.5984 71.669 24.5984C73.0248 24.5984 74.1934 25.6978 74.1934 27.3053C74.1934 28.895 73.0248 30.0122 71.669 30.0122ZM61.872 22.8386C59.3981 22.8386 57.3817 24.7171 57.3817 27.3043C57.3817 29.8757 59.3981 31.7699 61.872 31.7699C64.347 31.7699 66.3634 29.8757 66.3634 27.3043C66.3634 24.7171 64.347 22.8386 61.872 22.8386ZM61.872 30.0122C60.5162 30.0122 59.3476 28.8961 59.3476 27.3053C59.3476 25.6978 60.5172 24.5984 61.872 24.5984C63.2279 24.5984 64.3965 25.6978 64.3965 27.3053C64.3975 28.895 63.2279 30.0122 61.872 30.0122ZM50.2196 24.2099V26.1041H54.7615C54.6258 27.1699 54.2703 27.9479 53.7275 28.4887C53.067 29.1481 52.033 29.8757 50.2196 29.8757C47.4238 29.8757 45.238 27.6256 45.238 24.8347C45.238 22.0438 47.4238 19.7936 50.2196 19.7936C51.728 19.7936 52.8293 20.3858 53.6423 21.1471L54.9813 19.8104C53.8453 18.7279 52.338 17.8994 50.2196 17.8994C46.3898 17.8994 43.1701 21.0116 43.1701 24.8347C43.1701 28.6577 46.3898 31.7699 50.2196 31.7699C52.2865 31.7699 53.8464 31.0927 55.0655 29.8243C56.3193 28.5727 56.7095 26.8129 56.7095 25.3922C56.7095 24.9533 56.6759 24.547 56.6075 24.2089H50.2196V24.2099ZM97.8769 25.681C97.5045 24.6835 96.3685 22.8386 94.0471 22.8386C91.7425 22.8386 89.8271 24.6488 89.8271 27.3043C89.8271 29.8075 91.7257 31.7699 94.267 31.7699C96.317 31.7699 97.5035 30.5183 97.9958 29.7907L96.4706 28.7753C95.9625 29.5198 95.2673 30.0101 94.267 30.0101C93.2677 30.0101 92.5556 29.5534 92.098 28.6567L98.0799 26.1871L97.8769 25.681ZM91.7762 27.1699C91.7257 25.4437 93.1152 24.5648 94.1155 24.5648C94.8949 24.5648 95.5555 24.9544 95.7764 25.5119L91.7762 27.1699ZM86.9135 31.5001H88.8783V18.374H86.9135V31.5001ZM83.6927 23.8372H83.6254C83.1846 23.3122 82.3368 22.8386 81.2703 22.8386C79.033 22.8386 76.9829 24.8011 76.9829 27.3221C76.9829 29.8253 79.033 31.771 81.2703 31.771C82.3379 31.771 83.1846 31.2974 83.6254 30.7567H83.6927V31.3993C83.6927 33.1076 82.7776 34.0211 81.3039 34.0211C80.1006 34.0211 79.3549 33.1591 79.0498 32.4314L77.3385 33.1423C77.8297 34.3256 79.134 35.7809 81.3039 35.7809C83.6085 35.7809 85.5576 34.4275 85.5576 31.1284V23.1106H83.6937V23.8372H83.6927ZM81.4396 30.0122C80.0838 30.0122 78.9488 28.8782 78.9488 27.3221C78.9488 25.7482 80.0838 24.5984 81.4396 24.5984C82.7776 24.5984 83.8284 25.7482 83.8284 27.3221C83.8284 28.8782 82.7776 30.0122 81.4396 30.0122ZM107.085 18.374H102.382V31.5001H104.344V26.5273H107.084C109.259 26.5273 111.398 24.9554 111.398 22.4512C111.398 19.9469 109.26 18.374 107.085 18.374ZM107.135 24.7003H104.344V20.201H107.135C108.603 20.201 109.436 21.4138 109.436 22.4512C109.436 23.4676 108.603 24.7003 107.135 24.7003ZM119.265 22.8155C117.844 22.8155 116.373 23.4403 115.764 24.8252L117.506 25.5508C117.878 24.8252 118.572 24.5879 119.299 24.5879C120.314 24.5879 121.346 25.1959 121.363 26.2763V26.4118C121.007 26.2091 120.246 25.9057 119.316 25.9057C117.438 25.9057 115.526 26.9357 115.526 28.8604C115.526 30.617 117.066 31.7479 118.791 31.7479C120.11 31.7479 120.838 31.1567 121.294 30.4637H121.362V31.477H123.257V26.4443C123.258 24.1154 121.514 22.8155 119.265 22.8155ZM119.028 30.0091C118.386 30.0091 117.489 29.6878 117.489 28.894C117.489 27.8807 118.606 27.4922 119.57 27.4922C120.432 27.4922 120.839 27.6781 121.363 27.9311C121.21 29.1481 120.161 30.0091 119.028 30.0091ZM130.159 23.1022L127.909 28.7932H127.842L125.507 23.1022H123.393L126.894 31.0559L124.898 35.4806H126.945L132.342 23.1022H130.159ZM112.482 31.5001H114.444V18.374H112.482V31.5001Z" fill="white"/>
<path d="M49.8768 10.7551C49.8768 11.635 49.6159 12.3354 49.0931 12.8583C48.4999 13.4799 47.7257 13.7907 46.7749 13.7907C45.864 13.7907 45.0888 13.4757 44.4524 12.8457C43.815 12.2146 43.4962 11.4334 43.4962 10.501C43.4962 9.56755 43.815 8.78635 44.4524 8.15635C45.0888 7.5253 45.864 7.2103 46.7749 7.2103C47.2272 7.2103 47.6595 7.2985 48.0697 7.47385C48.481 7.65025 48.8102 7.8844 49.0563 8.17735L48.502 8.73175C48.0844 8.233 47.5091 7.98415 46.7738 7.98415C46.109 7.98415 45.5347 8.21725 45.0498 8.68345C44.5649 9.14965 44.323 9.7555 44.323 10.5C44.323 11.2444 44.5649 11.8503 45.0498 12.3165C45.5347 12.7827 46.109 13.0158 46.7738 13.0158C47.4786 13.0158 48.0665 12.7816 48.5367 12.3123C48.8418 12.0067 49.0185 11.5815 49.0658 11.0365H46.7738V10.2795H49.8315C49.8631 10.4443 49.8768 10.6029 49.8768 10.7551Z" fill="white"/>
<path d="M54.7259 8.12386H51.8523V10.121H54.444V10.878H51.8523V12.8751H54.7259V13.65H51.0413V7.35001H54.7259V8.12386Z" fill="white"/>
<path d="M58.1454 13.65H57.3344V8.12386H55.5715V7.35001H59.9083V8.12386H58.1454V13.65Z" fill="white"/>
<path d="M63.0459 13.65V7.35001H63.8569V13.65H63.0459Z" fill="white"/>
<path d="M67.4533 13.65H66.6424V8.12386H64.8794V7.35001H69.2162V8.12386H67.4533V13.65Z" fill="white"/>
<path d="M77.4257 12.8363C76.8051 13.4726 76.0341 13.7907 75.1116 13.7907C74.1892 13.7907 73.4181 13.4726 72.7986 12.8363C72.178 12.2 71.8688 11.4209 71.8688 10.5C71.8688 9.57915 72.178 8.80005 72.7986 8.16375C73.4181 7.52745 74.1892 7.20825 75.1116 7.20825C76.0288 7.20825 76.7988 7.5285 77.4215 8.16795C78.0442 8.8074 78.3555 9.5844 78.3555 10.5C78.3555 11.4209 78.0452 12.2 77.4257 12.8363ZM73.3971 12.3081C73.8641 12.7806 74.4353 13.0158 75.1116 13.0158C75.788 13.0158 76.3602 12.7796 76.8261 12.3081C77.2932 11.8356 77.5277 11.2329 77.5277 10.5C77.5277 9.7671 77.2932 9.1644 76.8261 8.6919C76.3602 8.2194 75.788 7.9842 75.1116 7.9842C74.4353 7.9842 73.8641 8.22045 73.3971 8.6919C72.9311 9.1644 72.6966 9.7671 72.6966 10.5C72.6966 11.2329 72.9311 11.8356 73.3971 12.3081Z" fill="white"/>
<path d="M79.4937 13.65V7.35001H80.4803L83.5475 12.2504H83.5822L83.5475 11.0366V7.35001H84.3585V13.65H83.5117L80.3025 8.51131H80.2678L80.3025 9.72511V13.65H79.4937Z" fill="white"/>
<path fill-rule="evenodd" clip-rule="evenodd" d="M10.6943 8.34007C10.563 8.6254 10.4903 8.97804 10.4903 9.39022V32.612C10.4903 33.0251 10.5631 33.3778 10.6946 33.663L23.3773 21.0007L10.6943 8.34007ZM11.3894 34.3823C11.8617 34.5959 12.4837 34.5369 13.163 34.1524L28.0772 25.6923L24.0851 21.7072L11.3894 34.3823ZM28.9805 25.181L33.6752 22.5184C35.1446 21.6836 35.1446 20.3197 33.6752 19.486L28.9784 16.8218L24.7927 21.0007L28.9805 25.181ZM28.0758 16.3099L13.163 7.85093C12.4837 7.46556 11.8617 7.40699 11.3893 7.62085L24.085 20.2942L28.0758 16.3099Z" fill="white"/>
</svg>
