<svg width="126" height="36" viewBox="0 0 126 36" fill="none" xmlns="http://www.w3.org/2000/svg">
<rect width="126" height="36" rx="6" fill="#0C0D10"/>
<path d="M82.3735 17.2808V19.3427H81.0811V20.6949H82.3735V25.2894C82.3735 26.8583 83.0832 27.4858 84.8687 27.4858C85.1825 27.4858 85.4813 27.4485 85.7428 27.4036V26.0664C85.5187 26.0888 85.3767 26.1037 85.1302 26.1037C84.3308 26.1037 83.9797 25.7302 83.9797 24.8785V20.6949H85.7428V19.3427H83.9797V17.2808H82.3735Z" fill="white"/>
<path d="M90.2912 27.5979C92.6669 27.5979 94.1237 26.0066 94.1237 23.3694C94.1237 20.7472 92.6595 19.1485 90.2912 19.1485C87.9156 19.1485 86.4513 20.7472 86.4513 23.3694C86.4513 26.0066 87.9081 27.5979 90.2912 27.5979ZM90.2912 26.171C88.8942 26.171 88.1098 25.1475 88.1098 23.3694C88.1098 21.6064 88.8942 20.5754 90.2912 20.5754C91.6808 20.5754 92.4727 21.6064 92.4727 23.3694C92.4727 25.14 91.6808 26.171 90.2912 26.171Z" fill="white"/>
<path d="M95.3701 27.441H96.9763V22.6373C96.9763 21.4943 97.8355 20.7248 99.0532 20.7248C99.3371 20.7248 99.8152 20.7771 99.9497 20.8219V19.2381C99.7778 19.1933 99.4715 19.1709 99.2325 19.1709C98.1716 19.1709 97.2677 19.7536 97.0361 20.553H96.9166V19.3054H95.3701V27.441Z" fill="white"/>
<path d="M103.938 20.5156C105.126 20.5156 105.903 21.3449 105.94 22.6224H101.831C101.921 21.3524 102.75 20.5156 103.938 20.5156ZM105.932 25.2446C105.634 25.8796 104.969 26.2307 103.998 26.2307C102.713 26.2307 101.883 25.3268 101.831 23.8999V23.8102H107.576V23.2499C107.576 20.6949 106.209 19.1485 103.945 19.1485C101.652 19.1485 100.195 20.7995 100.195 23.3993C100.195 25.9991 101.622 27.5979 103.953 27.5979C105.813 27.5979 107.113 26.7014 107.479 25.2446H105.932Z" fill="white"/>
<path d="M71.8403 24.4366C71.9642 26.4344 73.6289 27.712 76.1068 27.712C78.7549 27.712 80.412 26.3724 80.412 24.2353C80.412 22.555 79.4673 21.6259 77.1753 21.0916L75.9441 20.7896C74.4884 20.4489 73.9 19.9921 73.9 19.1945C73.9 18.1879 74.8136 17.5297 76.1842 17.5297C77.485 17.5297 78.3832 18.1724 78.5458 19.2023H80.2339C80.1332 17.3207 78.4762 15.9966 76.2074 15.9966C73.7683 15.9966 72.1423 17.3207 72.1423 19.3107C72.1423 20.9522 73.0637 21.9278 75.0847 22.4002L76.5249 22.7486C78.0038 23.0971 78.6543 23.6081 78.6543 24.4599C78.6543 25.451 77.6322 26.1711 76.2384 26.1711C74.744 26.1711 73.7064 25.4974 73.5592 24.4366H71.8403Z" fill="white"/>
<path d="M55.2017 19.1709C54.096 19.1709 53.1398 19.7237 52.6467 20.6501H52.5272V19.3054H50.9807V30.1454H52.5869V26.2083H52.7139C53.1398 27.0674 54.0587 27.5755 55.2166 27.5755C57.2711 27.5755 58.5784 25.9543 58.5784 23.3694C58.5784 20.7846 57.2711 19.1709 55.2017 19.1709ZM54.746 26.1336C53.4012 26.1336 52.557 25.0728 52.557 23.3769C52.557 21.6736 53.4012 20.6128 54.7534 20.6128C56.1131 20.6128 56.9274 21.6512 56.9274 23.3694C56.9274 25.0952 56.1131 26.1336 54.746 26.1336Z" fill="white"/>
<path d="M64.1988 19.1709C63.0931 19.1709 62.1369 19.7237 61.6438 20.6501H61.5243V19.3054H59.9778V30.1454H61.584V26.2083H61.711C62.1369 27.0674 63.0558 27.5755 64.2137 27.5755C66.2682 27.5755 67.5755 25.9543 67.5755 23.3694C67.5755 20.7846 66.2682 19.1709 64.1988 19.1709ZM63.7431 26.1336C62.3983 26.1336 61.5542 25.0728 61.5542 23.3769C61.5542 21.6736 62.3983 20.6128 63.7505 20.6128C65.1102 20.6128 65.9245 21.6512 65.9245 23.3694C65.9245 25.0952 65.1102 26.1336 63.7431 26.1336Z" fill="white"/>
<path d="M48.0989 27.441H49.9418L45.9076 16.2676H44.0415L40.0073 27.441H41.7883L42.8181 24.4754H47.0768L48.0989 27.441ZM44.8855 18.2963H45.0172L46.6355 23.0196H43.2595L44.8855 18.2963Z" fill="white"/>
<path d="M41.0862 7.83992V13.23H43.0323C44.6385 13.23 45.5686 12.2402 45.5686 10.5182C45.5686 8.82231 44.631 7.83992 43.0323 7.83992H41.0862ZM41.9229 8.60193H42.9389C44.0558 8.60193 44.7169 9.31165 44.7169 10.5294C44.7169 11.7658 44.067 12.468 42.9389 12.468H41.9229V8.60193Z" fill="white"/>
<path d="M48.4172 13.3085C49.605 13.3085 50.3334 12.5128 50.3334 11.1943C50.3334 9.88315 49.6013 9.08379 48.4172 9.08379C47.2293 9.08379 46.4972 9.88315 46.4972 11.1943C46.4972 12.5128 47.2256 13.3085 48.4172 13.3085ZM48.4172 12.595C47.7187 12.595 47.3265 12.0833 47.3265 11.1943C47.3265 10.3127 47.7187 9.79724 48.4172 9.79724C49.112 9.79724 49.5079 10.3127 49.5079 11.1943C49.5079 12.0795 49.112 12.595 48.4172 12.595Z" fill="white"/>
<path d="M56.5363 9.16223H55.7332L55.0086 12.2663H54.9451L54.1084 9.16223H53.3389L52.5022 12.2663H52.4424L51.714 9.16223H50.8997L52.0203 13.23H52.8458L53.6825 10.2343H53.746L54.5865 13.23H55.4195L56.5363 9.16223Z" fill="white"/>
<path d="M57.4612 13.23H58.2643V10.8506C58.2643 10.2156 58.6416 9.81965 59.2355 9.81965C59.8294 9.81965 60.1133 10.1446 60.1133 10.7983V13.23H60.9164V10.5966C60.9164 9.62915 60.4159 9.08379 59.5082 9.08379C58.8956 9.08379 58.4922 9.35647 58.2942 9.80845H58.2344V9.16223H57.4612V13.23Z" fill="white"/>
<path d="M62.1812 13.23H62.9843V7.57471H62.1812V13.23Z" fill="white"/>
<path d="M66.0047 13.3085C67.1926 13.3085 67.921 12.5128 67.921 11.1943C67.921 9.88315 67.1888 9.08379 66.0047 9.08379C64.8169 9.08379 64.0847 9.88315 64.0847 11.1943C64.0847 12.5128 64.8131 13.3085 66.0047 13.3085ZM66.0047 12.595C65.3062 12.595 64.914 12.0833 64.914 11.1943C64.914 10.3127 65.3062 9.79724 66.0047 9.79724C66.6995 9.79724 67.0954 10.3127 67.0954 11.1943C67.0954 12.0795 66.6995 12.595 66.0047 12.595Z" fill="white"/>
<path d="M70.3138 12.6212C69.8768 12.6212 69.5593 12.4083 69.5593 12.0422C69.5593 11.6836 69.8133 11.4931 70.3736 11.4557L71.3672 11.3922V11.7322C71.3672 12.2364 70.9189 12.6212 70.3138 12.6212ZM70.1084 13.2973C70.6425 13.2973 71.087 13.0657 71.3298 12.6585H71.3933V13.23H72.1666V10.4509C72.1666 9.5918 71.5913 9.08379 70.5716 9.08379C69.6489 9.08379 68.9915 9.53203 68.9093 10.2305H69.6863C69.7759 9.94292 70.086 9.77856 70.5342 9.77856C71.0833 9.77856 71.3672 10.0214 71.3672 10.4509V10.8021L70.2653 10.8656C69.2978 10.9253 68.7524 11.3474 68.7524 12.0795C68.7524 12.8229 69.3239 13.2973 70.1084 13.2973Z" fill="white"/>
<path d="M74.8919 13.2973C75.4522 13.2973 75.9266 13.0321 76.1694 12.5875H76.2329V13.23H77.0023V7.57471H76.1992V9.80845H76.1395C75.9191 9.36021 75.4484 9.095 74.8919 9.095C73.8646 9.095 73.2035 9.9093 73.2035 11.1943C73.2035 12.483 73.8572 13.2973 74.8919 13.2973ZM75.1197 9.81592C75.7921 9.81592 76.2142 10.3501 76.2142 11.198C76.2142 12.0497 75.7958 12.5763 75.1197 12.5763C74.4399 12.5763 74.0327 12.0571 74.0327 11.1943C74.0327 10.3389 74.4436 9.81592 75.1197 9.81592Z" fill="white"/>
<path d="M82.2102 13.3085C83.398 13.3085 84.1264 12.5128 84.1264 11.1943C84.1264 9.88315 83.3943 9.08379 82.2102 9.08379C81.0223 9.08379 80.2902 9.88315 80.2902 11.1943C80.2902 12.5128 81.0186 13.3085 82.2102 13.3085ZM82.2102 12.595C81.5117 12.595 81.1194 12.0833 81.1194 11.1943C81.1194 10.3127 81.5117 9.79724 82.2102 9.79724C82.9049 9.79724 83.3009 10.3127 83.3009 11.1943C83.3009 12.0795 82.9049 12.595 82.2102 12.595Z" fill="white"/>
<path d="M85.1895 13.23H85.9926V10.8506C85.9926 10.2156 86.3699 9.81965 86.9638 9.81965C87.5577 9.81965 87.8416 10.1446 87.8416 10.7983V13.23H88.6447V10.5966C88.6447 9.62915 88.1442 9.08379 87.2365 9.08379C86.6239 9.08379 86.2204 9.35647 86.0225 9.80845H85.9627V9.16223H85.1895V13.23Z" fill="white"/>
<path d="M92.3434 8.14995V9.18091H91.6972V9.85701H92.3434V12.1542C92.3434 12.9387 92.6983 13.2524 93.591 13.2524C93.7479 13.2524 93.8973 13.2338 94.0281 13.2114V12.5427C93.916 12.5539 93.845 12.5614 93.7218 12.5614C93.3221 12.5614 93.1465 12.3746 93.1465 11.9488V9.85701H94.0281V9.18091H93.1465V8.14995H92.3434Z" fill="white"/>
<path d="M95.1061 13.23H95.9092V10.8543C95.9092 10.238 96.2753 9.82339 96.9327 9.82339C97.5005 9.82339 97.803 10.1521 97.803 10.8021V13.23H98.6061V10.6041C98.6061 9.63662 98.072 9.08752 97.2054 9.08752C96.5928 9.08752 96.1632 9.3602 95.9652 9.81592H95.9017V7.57471H95.1061V13.23Z" fill="white"/>
<path d="M101.503 9.76736C102.097 9.76736 102.486 10.182 102.504 10.8207H100.45C100.495 10.1857 100.909 9.76736 101.503 9.76736ZM102.501 12.1318C102.351 12.4493 102.019 12.6249 101.533 12.6249C100.891 12.6249 100.476 12.1729 100.45 11.4595V11.4146H103.322V11.1345C103.322 9.85701 102.639 9.08379 101.507 9.08379C100.36 9.08379 99.6319 9.9093 99.6319 11.2092C99.6319 12.5091 100.345 13.3085 101.511 13.3085C102.441 13.3085 103.091 12.8602 103.274 12.1318H102.501Z" fill="white"/>
<path d="M31.2922 18.2707C31.3117 16.7578 32.1242 15.3263 33.4131 14.5339C32.6 13.3726 31.238 12.6363 29.8211 12.5919C28.3097 12.4333 26.8446 13.4963 26.0744 13.4963C25.2894 13.4963 24.1036 12.6077 22.8268 12.634C21.1625 12.6877 19.6109 13.634 18.8012 15.089C17.0606 18.1026 18.3589 22.5316 20.0262 24.9675C20.8605 26.1603 21.8354 27.4927 23.1111 27.4455C24.3595 27.3937 24.8257 26.6495 26.3326 26.6495C27.8255 26.6495 28.2629 27.4455 29.5645 27.4155C30.904 27.3937 31.748 26.2173 32.5529 25.0132C33.1523 24.1633 33.6135 23.224 33.9195 22.23C32.3453 21.5642 31.294 19.9799 31.2922 18.2707Z" fill="white"/>
<path d="M28.8337 10.9899C29.5641 10.1132 29.9239 8.9862 29.8368 7.84839C28.7209 7.96559 27.6902 8.49889 26.9499 9.34204C26.2261 10.1658 25.8494 11.273 25.9206 12.3673C27.0369 12.3788 28.1342 11.8599 28.8337 10.9899Z" fill="white"/>
</svg>
