<svg width="126" height="42" viewBox="0 0 126 42" fill="none" xmlns="http://www.w3.org/2000/svg">
<rect width="126" height="42" rx="8" fill="#18191F"/>
<path d="M85.602 20.1609V22.5664H84.0941V24.144H85.602V29.5042C85.602 31.3346 86.43 32.0667 88.5131 32.0667C88.8791 32.0667 89.2278 32.0231 89.5328 31.9708V30.4107C89.2713 30.4368 89.1057 30.4543 88.8181 30.4543C87.8855 30.4543 87.4759 30.0185 87.4759 29.0249V24.144H89.5328V22.5664H87.4759V20.1609H85.602Z" fill="white"/>
<path d="M94.8394 32.1974C97.611 32.1974 99.3106 30.341 99.3106 27.2643C99.3106 24.205 97.6023 22.3398 94.8394 22.3398C92.0677 22.3398 90.3594 24.205 90.3594 27.2643C90.3594 30.341 92.059 32.1974 94.8394 32.1974ZM94.8394 30.5327C93.2095 30.5327 92.2943 29.3386 92.2943 27.2643C92.2943 25.2073 93.2095 24.0046 94.8394 24.0046C96.4605 24.0046 97.3844 25.2073 97.3844 27.2643C97.3844 29.3299 96.4605 30.5327 94.8394 30.5327Z" fill="white"/>
<path d="M100.765 32.0144H102.639V26.4101C102.639 25.0766 103.641 24.1789 105.062 24.1789C105.393 24.1789 105.951 24.2399 106.108 24.2922V22.4444C105.907 22.3921 105.55 22.366 105.271 22.366C104.033 22.366 102.979 23.0458 102.708 23.9784H102.569V22.5229H100.765V32.0144Z" fill="white"/>
<path d="M110.76 23.9348C112.146 23.9348 113.053 24.9023 113.096 26.3927H108.303C108.407 24.911 109.375 23.9348 110.76 23.9348ZM113.087 29.4519C112.739 30.1928 111.963 30.6024 110.83 30.6024C109.331 30.6024 108.364 29.5478 108.303 27.8831V27.7785H115.005V27.1248C115.005 24.144 113.41 22.3398 110.769 22.3398C108.093 22.3398 106.394 24.266 106.394 27.2991C106.394 30.3322 108.058 32.1974 110.778 32.1974C112.948 32.1974 114.465 31.1515 114.892 29.4519H113.087Z" fill="white"/>
<path d="M73.3132 28.5093C73.4578 30.84 75.4 32.3306 78.2908 32.3306C81.3803 32.3306 83.3135 30.7677 83.3135 28.2745C83.3135 26.3141 82.2114 25.2301 79.5374 24.6068L78.1011 24.2545C76.4027 23.857 75.7162 23.324 75.7162 22.3935C75.7162 21.2191 76.7822 20.4513 78.3811 20.4513C79.8988 20.4513 80.9467 21.2011 81.1364 22.4025H83.1057C82.9883 20.2074 81.0551 18.6626 78.4082 18.6626C75.5626 18.6626 73.6655 20.2074 73.6655 22.529C73.6655 24.4442 74.7405 25.5824 77.0983 26.1335L78.7786 26.54C80.504 26.9465 81.2629 27.5427 81.2629 28.5364C81.2629 29.6927 80.0704 30.5329 78.4444 30.5329C76.7009 30.5329 75.4903 29.7469 75.3187 28.5093H73.3132Z" fill="white"/>
<path d="M53.9015 22.366C52.6116 22.366 51.496 23.011 50.9207 24.0917H50.7813V22.5229H48.9771V35.1695H50.851V30.5763H50.9992C51.496 31.5786 52.568 32.1713 53.919 32.1713C56.3158 32.1713 57.8411 30.28 57.8411 27.2643C57.8411 24.2486 56.3158 22.366 53.9015 22.366ZM53.3699 30.4891C51.801 30.4891 50.8161 29.2515 50.8161 27.273C50.8161 25.2858 51.801 24.0481 53.3786 24.0481C54.9649 24.0481 55.9149 25.2596 55.9149 27.2643C55.9149 29.2776 54.9649 30.4891 53.3699 30.4891Z" fill="white"/>
<path d="M64.3982 22.366C63.1082 22.366 61.9926 23.011 61.4173 24.0917H61.2779V22.5229H59.4737V35.1695H61.3476V30.5763H61.4958C61.9926 31.5786 63.0646 32.1713 64.4156 32.1713C66.8124 32.1713 68.3377 30.28 68.3377 27.2643C68.3377 24.2486 66.8124 22.366 64.3982 22.366ZM63.8665 30.4891C62.2976 30.4891 61.3128 29.2515 61.3128 27.273C61.3128 25.2858 62.2976 24.0481 63.8752 24.0481C65.4615 24.0481 66.4115 25.2596 66.4115 27.2643C66.4115 29.2776 65.4615 30.4891 63.8665 30.4891Z" fill="white"/>
<path d="M45.615 32.0144H47.765L43.0584 18.9788H40.8813L36.1748 32.0144H38.2525L39.454 28.5545H44.4225L45.615 32.0144ZM41.866 21.3456H42.0196L43.9076 26.8562H39.9689L41.866 21.3456Z" fill="white"/>
<path d="M37.4339 9.14657V15.435H39.7044C41.5783 15.435 42.6634 14.2802 42.6634 12.2712C42.6634 10.2927 41.5696 9.14657 39.7044 9.14657H37.4339ZM38.4101 10.0356H39.5955C40.8985 10.0356 41.6698 10.8636 41.6698 12.2843C41.6698 13.7267 40.9115 14.546 39.5955 14.546H38.4101V10.0356Z" fill="white"/>
<path d="M45.9868 15.5265C47.3726 15.5265 48.2224 14.5983 48.2224 13.06C48.2224 11.5303 47.3682 10.5978 45.9868 10.5978C44.6009 10.5978 43.7468 11.5303 43.7468 13.06C43.7468 14.5983 44.5966 15.5265 45.9868 15.5265ZM45.9868 14.6942C45.1718 14.6942 44.7143 14.0972 44.7143 13.06C44.7143 12.0315 45.1718 11.4301 45.9868 11.4301C46.7973 11.4301 47.2593 12.0315 47.2593 13.06C47.2593 14.0928 46.7973 14.6942 45.9868 14.6942Z" fill="white"/>
<path d="M55.4591 10.6893H54.5222L53.6767 14.3107H53.6026L52.6265 10.6893H51.7287L50.7526 14.3107H50.6828L49.8331 10.6893H48.883L50.1904 15.435H51.1535L52.1297 11.94H52.2038L53.1843 15.435H54.1561L55.4591 10.6893Z" fill="white"/>
<path d="M56.5381 15.435H57.4751V12.659C57.4751 11.9182 57.9152 11.4563 58.6081 11.4563C59.301 11.4563 59.6322 11.8354 59.6322 12.598V15.435H60.5692V12.3627C60.5692 11.234 59.9852 10.5978 58.9263 10.5978C58.2116 10.5978 57.7409 10.9159 57.5099 11.4432H57.4402V10.6893H56.5381V15.435Z" fill="white"/>
<path d="M62.0448 15.435H62.9817V8.83716H62.0448V15.435Z" fill="white"/>
<path d="M66.5055 15.5265C67.8914 15.5265 68.7412 14.5983 68.7412 13.06C68.7412 11.5303 67.887 10.5978 66.5055 10.5978C65.1197 10.5978 64.2656 11.5303 64.2656 13.06C64.2656 14.5983 65.1154 15.5265 66.5055 15.5265ZM66.5055 14.6942C65.6906 14.6942 65.233 14.0972 65.233 13.06C65.233 12.0315 65.6906 11.4301 66.5055 11.4301C67.3161 11.4301 67.7781 12.0315 67.7781 13.06C67.7781 14.0928 67.3161 14.6942 66.5055 14.6942Z" fill="white"/>
<path d="M71.5328 14.7247C71.0229 14.7247 70.6525 14.4763 70.6525 14.0492C70.6525 13.6309 70.9489 13.4086 71.6026 13.365L72.7618 13.2909V13.6875C72.7618 14.2758 72.2388 14.7247 71.5328 14.7247ZM71.2931 15.5135C71.9163 15.5135 72.4349 15.2433 72.7182 14.7683H72.7923V15.435H73.6943V12.1927C73.6943 11.1904 73.0232 10.5978 71.8335 10.5978C70.7571 10.5978 69.9901 11.1207 69.8943 11.9356H70.8007C70.9053 11.6001 71.267 11.4083 71.7899 11.4083C72.4306 11.4083 72.7618 11.6916 72.7618 12.1927V12.6024L71.4762 12.6765C70.3475 12.7462 69.7112 13.2386 69.7112 14.0928C69.7112 14.96 70.378 15.5135 71.2931 15.5135Z" fill="white"/>
<path d="M76.8739 15.5135C77.5276 15.5135 78.081 15.2041 78.3643 14.6855H78.4384V15.435H79.3361V8.83716H78.3991V11.4432H78.3294C78.0723 10.9202 77.5232 10.6108 76.8739 10.6108C75.6755 10.6108 74.9041 11.5609 74.9041 13.06C74.9041 14.5635 75.6667 15.5135 76.8739 15.5135ZM77.1397 11.4519C77.9241 11.4519 78.4166 12.0751 78.4166 13.0643C78.4166 14.0579 77.9285 14.6724 77.1397 14.6724C76.3466 14.6724 75.8716 14.0666 75.8716 13.06C75.8716 12.062 76.3509 11.4519 77.1397 11.4519Z" fill="white"/>
<path d="M85.4119 15.5265C86.7977 15.5265 87.6475 14.5983 87.6475 13.06C87.6475 11.5303 86.7934 10.5978 85.4119 10.5978C84.0261 10.5978 83.1719 11.5303 83.1719 13.06C83.1719 14.5983 84.0217 15.5265 85.4119 15.5265ZM85.4119 14.6942C84.597 14.6942 84.1394 14.0972 84.1394 13.06C84.1394 12.0315 84.597 11.4301 85.4119 11.4301C86.2225 11.4301 86.6844 12.0315 86.6844 13.06C86.6844 14.0928 86.2225 14.6942 85.4119 14.6942Z" fill="white"/>
<path d="M88.8878 15.435H89.8247V12.659C89.8247 11.9182 90.2649 11.4563 90.9578 11.4563C91.6507 11.4563 91.9819 11.8354 91.9819 12.598V15.435H92.9188V12.3627C92.9188 11.234 92.3349 10.5978 91.2759 10.5978C90.5612 10.5978 90.0905 10.9159 89.8596 11.4432H89.7899V10.6893H88.8878V15.435Z" fill="white"/>
<path d="M97.234 9.50828V10.7111H96.4801V11.4998H97.234V14.18C97.234 15.0951 97.648 15.4612 98.6896 15.4612C98.8726 15.4612 99.0469 15.4394 99.1994 15.4132V14.6332C99.0687 14.6463 98.9859 14.655 98.8421 14.655C98.3758 14.655 98.171 14.4371 98.171 13.9403V11.4998H99.1994V10.7111H98.171V9.50828H97.234Z" fill="white"/>
<path d="M100.457 15.435H101.394V12.6634C101.394 11.9443 101.821 11.4606 102.588 11.4606C103.251 11.4606 103.604 11.8441 103.604 12.6024V15.435H104.541V12.3714C104.541 11.2427 103.917 10.6021 102.906 10.6021C102.192 10.6021 101.69 10.9202 101.459 11.4519H101.385V8.83716H100.457V15.435Z" fill="white"/>
<path d="M107.92 11.3953C108.613 11.3953 109.067 11.879 109.088 12.6242H106.692C106.744 11.8833 107.228 11.3953 107.92 11.3953ZM109.084 14.1538C108.91 14.5242 108.522 14.7291 107.955 14.7291C107.206 14.7291 106.722 14.2017 106.692 13.3694V13.3171H110.043V12.9902C110.043 11.4998 109.245 10.5978 107.925 10.5978C106.587 10.5978 105.737 11.5609 105.737 13.0774C105.737 14.594 106.57 15.5265 107.929 15.5265C109.014 15.5265 109.773 15.0036 109.986 14.1538H109.084Z" fill="white"/>
<path d="M25.7046 20.2949C25.729 18.365 26.7481 16.5389 28.3649 15.5281C27.3449 14.0468 25.6366 13.1075 23.8593 13.051C21.9636 12.8486 20.1258 14.2046 19.1598 14.2046C18.1751 14.2046 16.6878 13.0711 15.0862 13.1046C12.9986 13.1732 11.0525 14.3802 10.0368 16.2363C7.85355 20.0805 9.48208 25.7301 11.5735 28.8375C12.6198 30.3591 13.8427 32.0587 15.4429 31.9984C17.0087 31.9324 17.5935 30.983 19.4836 30.983C21.3562 30.983 21.9048 31.9984 23.5375 31.9601C25.2177 31.9324 26.2763 30.4318 27.2859 28.8958C28.0378 27.8116 28.6163 26.6134 29.0001 25.3454C27.0255 24.4961 25.7069 22.4752 25.7046 20.2949Z" fill="white"/>
<path d="M22.6208 11.0074C23.5369 9.88898 23.9883 8.45141 23.879 7C22.4794 7.1495 21.1865 7.82979 20.258 8.90533C19.35 9.95618 18.8775 11.3685 18.9669 12.7644C20.367 12.7791 21.7435 12.1172 22.6208 11.0074Z" fill="white"/>
</svg>
