<?xml version="1.0" encoding="UTF-8"?>
<!DOCTYPE svg PUBLIC "-//W3C//DTD SVG 1.1//EN" "http://www.w3.org/Graphics/SVG/1.1/DTD/svg11.dtd">
<svg xmlns="http://www.w3.org/2000/svg" version="1.1" width="98px" height="26px" style="shape-rendering:geometricPrecision; text-rendering:geometricPrecision; image-rendering:optimizeQuality; fill-rule:evenodd; clip-rule:evenodd" xmlns:xlink="http://www.w3.org/1999/xlink">
<g><path style="opacity:0.871" fill="#007c5f" d="M 15.5,5.5 C 17.3464,5.22216 18.6798,5.88882 19.5,7.5C 18.5741,11.0938 18.2408,14.7604 18.5,18.5C 17.5,18.5 16.5,18.5 15.5,18.5C 15.5,15.5 15.5,12.5 15.5,9.5C 14.1667,9.5 12.8333,9.5 11.5,9.5C 11.5,12.5 11.5,15.5 11.5,18.5C 10.5,18.5 9.5,18.5 8.5,18.5C 8.5,15.5 8.5,12.5 8.5,9.5C 7.5,9.5 6.5,9.5 5.5,9.5C 5.5,8.5 5.5,7.5 5.5,6.5C 9.04185,6.81277 12.3752,6.47944 15.5,5.5 Z"/></g>
<g><path style="opacity:0.683" fill="#019774" d="M 64.5,6.5 C 70.4372,5.91841 72.2706,8.25175 70,13.5C 66.946,15.1229 67.446,15.7895 71.5,15.5C 71.3505,14.448 71.5172,13.448 72,12.5C 73.7134,11.1218 75.0467,9.45515 76,7.5C 77.0113,6.66337 78.1779,6.33003 79.5,6.5C 79.907,10.2578 79.907,13.9244 79.5,17.5C 79,17.8333 78.5,18.1667 78,18.5C 76.7803,17.6119 75.4469,16.9452 74,16.5C 70.3258,18.0944 66.4925,18.761 62.5,18.5C 62.655,14.8507 64.3217,12.184 67.5,10.5C 66.3493,9.26899 65.1827,9.26899 64,10.5C 63.4209,9.07153 63.5876,7.7382 64.5,6.5 Z"/></g>
<g><path style="opacity:0.71" fill="#019774" d="M 81.5,6.5 C 84.1667,6.5 86.8333,6.5 89.5,6.5C 88.5,10.5 87.5,14.5 86.5,18.5C 85.0222,18.762 83.6888,18.4287 82.5,17.5C 83.4067,14.9433 84.4067,12.4433 85.5,10C 84.2068,9.50999 82.8734,9.34332 81.5,9.5C 81.5,8.5 81.5,7.5 81.5,6.5 Z"/></g>
<g><path style="opacity:0.862" fill="#007c5f" d="M 50.5,11.5 C 48.6565,13.2789 47.9898,15.6122 48.5,18.5C 45.8806,18.7683 43.3806,18.435 41,17.5C 40.5026,14.854 40.3359,12.1873 40.5,9.5C 41.5,9.5 42.5,9.5 43.5,9.5C 43.2479,6.0682 44.5812,5.0682 47.5,6.5C 46.4616,9.78761 47.1282,10.1209 49.5,7.5C 50.4287,8.68884 50.762,10.0222 50.5,11.5 Z M 44.5,9.5 C 45.7928,11.3635 45.7928,13.3635 44.5,15.5C 43.3058,13.4844 43.3058,11.4844 44.5,9.5 Z"/></g>
<g><path style="opacity:0.78" fill="#007b5f" d="M 35.5,7.5 C 37.1238,7.36007 38.2904,8.02674 39,9.5C 38.1866,12.5001 38.3532,15.5001 39.5,18.5C 37.8561,18.7135 36.3561,18.3802 35,17.5C 33.3467,13.8924 33.5134,10.5591 35.5,7.5 Z"/></g>
<g><path style="opacity:0.774" fill="#007b5f" d="M 19.5,9.5 C 22.1873,9.33591 24.854,9.50258 27.5,10C 28.4438,12.7191 28.7771,15.5525 28.5,18.5C 27.5,18.5 26.5,18.5 25.5,18.5C 24.3724,10.6989 23.7057,10.6989 23.5,18.5C 22.1667,18.5 20.8333,18.5 19.5,18.5C 19.5,15.5 19.5,12.5 19.5,9.5 Z"/></g>
<g><path style="opacity:0.843" fill="#007c5f" d="M 50.5,11.5 C 52.4786,9.83247 54.812,9.1658 57.5,9.5C 57.6567,10.8734 57.49,12.2068 57,13.5C 55.7025,12.2164 54.5358,12.3831 53.5,14C 54.5358,15.6169 55.7025,15.7836 57,14.5C 57.49,15.7932 57.6567,17.1266 57.5,18.5C 52.1667,19.1667 49.8333,16.8333 50.5,11.5 Z"/></g>
</svg>
