<svg width="22" height="17" viewBox="0 0 22 17" fill="none" xmlns="http://www.w3.org/2000/svg">
<path d="M3.36567 0C3.36508 0 3.36441 0 3.36382 0C3.15575 0 2.96005 0.0811105 2.81227 0.228517C2.66286 0.377553 2.58057 0.575996 2.58057 0.787254V12.592C2.58057 13.0249 2.93412 13.3779 3.36878 13.379C5.20122 13.3834 8.27127 13.7653 10.3892 15.9817V3.62768C10.3892 3.48094 10.3517 3.34309 10.281 3.22901C8.54268 0.429627 5.20225 0.00429627 3.36567 0Z" fill="#029875"/>
<path d="M19.4199 12.5921V0.787254C19.4199 0.575996 19.3376 0.377553 19.1882 0.228517C19.0404 0.0811105 18.8445 0 18.6367 0C18.636 0 18.6354 0 18.6348 0C16.7983 0.00437034 13.4578 0.429701 11.7195 3.22909C11.6487 3.34316 11.6113 3.48101 11.6113 3.62775V15.9817C13.7292 13.7653 16.7993 13.3834 18.6317 13.379C19.0663 13.3779 19.4199 13.0249 19.4199 12.5921Z" fill="#029875"/>
<path d="M21.213 2.72241H20.6422V12.592C20.6422 13.6973 19.7417 14.5986 18.6347 14.6013C17.0805 14.605 14.5177 14.9089 12.7026 16.6268C15.8417 15.8582 19.1509 16.3578 21.0368 16.7876C21.2723 16.8412 21.5156 16.7858 21.7043 16.6354C21.8923 16.4854 22.0001 16.2612 22.0001 16.0205V3.50952C22.0002 3.07552 21.647 2.72241 21.213 2.72241Z" fill="#029875"/>
<path d="M1.35792 12.592V2.72241H0.787106C0.353183 2.72241 0 3.07552 0 3.50952V16.0203C0 16.2611 0.107851 16.4852 0.29585 16.6352C0.484367 16.7855 0.727477 16.8411 0.963327 16.7874C2.84924 16.3575 6.15848 15.858 9.29742 16.6265C7.48247 14.9088 4.91967 14.6049 3.36538 14.6012C2.2585 14.5986 1.35792 13.6973 1.35792 12.592Z" fill="#029875"/>
</svg>
