<svg width="24" height="24" viewBox="0 0 24 24" fill="none" xmlns="http://www.w3.org/2000/svg">
<path d="M16.4001 7.59985H7.6001V16.3999H16.4001V7.59985Z" fill="#029875"/>
<path d="M21.9 13.1C22.56 13.1 23 12.66 23 12C23 11.45 22.56 10.9 21.9 10.9H20.8V8.7H21.9C22.56 8.7 23 8.26 23 7.6C23 7.05 22.56 6.5 21.9 6.5H20.8V5.4C20.8 4.19 19.81 3.2 18.6 3.2H17.5V2.1C17.5 1.55 17.06 1 16.4 1C15.85 1 15.3 1.44 15.3 2.1V3.2H13.1V2.1C13.1 1.55 12.66 1 12 1C11.34 1 10.9 1.44 10.9 2.1V3.2H8.7V2.1C8.7 1.55 8.26 1 7.6 1C6.94 1 6.5 1.44 6.5 2.1V3.2H5.4C4.19 3.2 3.2 4.19 3.2 5.4V6.5H2.1C1.44 6.5 1 6.94 1 7.6C1 8.15 1.44 8.7 2.1 8.7H3.2V10.9H2.1C1.44 10.9 1 11.34 1 12C1 12.55 1.44 13.1 2.1 13.1H3.2V15.3H2.1C1.44 15.3 1 15.74 1 16.4C1 16.95 1.44 17.5 2.1 17.5H3.2V18.6C3.2 19.81 4.19 20.8 5.4 20.8H6.5V21.9C6.5 22.45 6.94 23 7.6 23C8.26 23 8.7 22.56 8.7 21.9V20.8H10.9V21.9C10.9 22.45 11.34 23 12 23C12.66 23 13.1 22.56 13.1 21.9V20.8H15.3V21.9C15.3 22.45 15.74 23 16.4 23C16.95 23 17.5 22.56 17.5 21.9V20.8H18.6C19.81 20.8 20.8 19.81 20.8 18.6V17.5H21.9C22.56 17.5 23 17.06 23 16.4C23 15.85 22.56 15.3 21.9 15.3H20.8V13.1H21.9ZM18.6 18.6H5.4V5.4H18.6V18.6Z" fill="#029875"/>
</svg>
