<svg width="24" height="24" viewBox="0 0 24 24" fill="none" xmlns="http://www.w3.org/2000/svg">
<path d="M21.033 7.5771C18.1272 2.80304 13.7499 6.12441 13.7499 6.12441C13.466 6.33897 12.9425 6.51537 12.5868 6.51619L11.4143 6.51701C11.0586 6.51742 10.5352 6.34102 10.2517 6.12646C10.2517 6.12646 5.87393 2.80427 2.96773 7.57833C0.0623507 12.3507 1.2332 17.5482 1.2332 17.5482C1.43832 18.8208 2.11441 19.67 3.39029 19.5633C4.66247 19.4571 7.42385 16.1361 7.42385 16.1361C7.65195 15.8625 8.12988 15.6389 8.48475 15.6389L15.5139 15.6377C15.8692 15.6377 16.3468 15.8612 16.5744 16.1349C16.5744 16.1349 19.3362 19.4558 20.6105 19.5621C21.8847 19.6688 22.5624 18.8187 22.7663 17.547C22.7659 17.547 23.9388 12.3503 21.033 7.5771ZM9.35858 11.463H7.85133V12.9157C7.85133 12.9157 7.53215 13.1593 7.03821 13.1532C6.5451 13.1458 6.32192 12.8874 6.32192 12.8874V11.4634H4.89836C4.89836 11.4634 4.72072 11.2812 4.67313 10.8016C4.62636 10.3221 4.86964 9.93438 4.86964 9.93438H6.3773V8.42713C6.3773 8.42713 6.68745 8.26098 7.13339 8.2737C7.57974 8.28765 7.90671 8.45544 7.90671 8.45544L7.90056 9.93397H9.32412C9.32412 9.93397 9.57273 10.2531 9.59324 10.6388C9.61375 11.0248 9.35858 11.463 9.35858 11.463ZM16.2721 13.1187C15.612 13.1187 15.0799 12.585 15.0799 11.9257C15.0799 11.2652 15.612 10.7327 16.2721 10.7327C16.9293 10.7327 17.4655 11.2652 17.4655 11.9257C17.4655 12.5854 16.9293 13.1187 16.2721 13.1187ZM16.2721 9.83633C15.612 9.83633 15.0799 9.30301 15.0799 8.64374C15.0799 7.98324 15.612 7.45074 16.2721 7.45074C16.9293 7.45074 17.4655 7.98324 17.4655 8.64374C17.4655 9.30342 16.9293 9.83633 16.2721 9.83633ZM19.2431 11.5984C18.583 11.5984 18.0509 11.065 18.0509 10.4053C18.0509 9.74526 18.583 9.21235 19.2431 9.21235C19.9003 9.21235 20.4365 9.74526 20.4365 10.4053C20.4365 11.065 19.9003 11.5984 19.2431 11.5984Z" fill="#029875"/>
</svg>
