<svg width="24" height="24" viewBox="0 0 24 24" fill="none" xmlns="http://www.w3.org/2000/svg">
<path d="M11.0254 3.62714V4.14938C11.7502 4.1003 12.1382 4.15908 12.1785 4.16568C12.4117 4.20376 12.611 4.35446 12.7113 4.56834L13.7298 6.73896C13.853 6.76771 13.9704 6.8285 14.0674 6.92317C14.1903 7.04293 14.3374 7.13668 14.504 7.17733C14.8367 7.25845 15.1669 7.16598 15.4001 6.9391C15.6409 6.70508 16.0083 6.64557 16.2921 6.82502C16.6979 7.08138 16.7414 7.62449 16.4232 7.94274C15.9742 8.39192 15.3771 8.63931 14.7418 8.63931C14.701 8.63931 14.6604 8.63821 14.6197 8.63619L15.9888 11.5545C16.0467 11.6775 16.1015 11.8015 16.1535 11.926C17.6951 11.4398 19.4486 11.8009 20.6738 13.0122C20.9477 13.2829 20.9781 13.7249 20.7221 14.0128C20.5791 14.1735 20.3825 14.2539 20.1858 14.2539C20.0025 14.2539 19.819 14.184 19.6793 14.0441C18.8489 13.2138 17.6566 12.9613 16.6056 13.2852C17.0042 14.8747 16.9777 16.515 16.5662 18.0531C16.7599 18.1172 16.9571 18.1744 17.1575 18.2242C17.39 18.2818 17.633 18.2824 17.8658 18.2249C21.4487 17.3386 24.0002 14.1164 24.0002 10.3833V3.62714C24.0002 3.29259 23.7937 2.99265 23.4805 2.87491C22.4937 2.50411 20.5866 2 17.5131 2C14.4393 2 12.532 2.50429 11.5451 2.8751C11.2319 2.99265 11.0254 3.29259 11.0254 3.62714ZM18.9463 6.92958C19.2261 6.64978 19.6797 6.64978 19.9596 6.92958C20.138 7.10793 20.3751 7.20626 20.6275 7.20626C20.8798 7.20626 21.1171 7.10793 21.2955 6.92958C21.5753 6.6496 22.029 6.6496 22.3088 6.92958C22.5886 7.20938 22.5886 7.66295 22.3088 7.94274C21.8596 8.39192 21.2627 8.63931 20.6275 8.63931C19.9924 8.63931 19.3953 8.39192 18.9461 7.94274C18.6665 7.66295 18.6665 7.20938 18.9463 6.92958Z" fill="#029875"/>
<path d="M14.6924 12.1631L11.8074 6.01415C11.6747 5.73106 11.3806 5.56058 11.0688 5.58421C10.027 5.66294 8.07304 6.00848 5.25859 7.32891C2.47583 8.6345 0.963313 9.90109 0.227383 10.6559C-0.00608575 10.8954 -0.0657806 11.2547 0.076315 11.5575L2.94588 17.674C4.53145 21.0536 8.21037 22.8871 11.8307 22.1675C12.0647 22.1209 12.2837 22.0182 12.469 21.8679C15.3366 19.5438 16.278 15.5428 14.6924 12.1631ZM8.89466 11.7048C9.34018 10.4717 10.7058 9.83078 11.9389 10.2765C12.311 10.4109 12.5036 10.8216 12.3692 11.1939C12.2348 11.566 11.8241 11.7588 11.4518 11.6242C10.962 11.4473 10.4194 11.7018 10.2424 12.1916C10.1369 12.4835 9.86186 12.665 9.56852 12.665C9.48758 12.665 9.40536 12.6513 9.32498 12.6221C8.95289 12.4876 8.76007 12.0768 8.89466 11.7048ZM6.12362 14.124C5.8863 14.0383 5.62976 14.0501 5.40124 14.1574C5.17289 14.2645 4.99985 14.4542 4.91416 14.6915C4.80868 14.9834 4.53346 15.1649 4.24012 15.1649C4.15936 15.1649 4.07715 15.1509 3.99676 15.122C3.62449 14.9876 3.43186 14.5769 3.56626 14.2046C3.78215 13.6073 4.21759 13.1297 4.79257 12.86C5.36773 12.5903 6.0132 12.5604 6.61051 12.7763C6.98278 12.9107 7.17542 13.3215 7.04101 13.6937C6.90642 14.0658 6.4957 14.2584 6.12362 14.124ZM8.52954 18.8077C8.02323 18.8077 7.50886 18.7216 7.00585 18.5398C6.63358 18.4054 6.44095 17.9947 6.57536 17.6224C6.70994 17.2503 7.12048 17.0575 7.49275 17.1921C9.08162 17.7662 10.8413 16.9405 11.4154 15.3518C11.5498 14.9795 11.9605 14.7869 12.3328 14.9213C12.7049 15.0559 12.8975 15.4666 12.7631 15.8389C12.1022 17.6676 10.3707 18.8077 8.52954 18.8077Z" fill="#029875"/>
</svg>
