<svg width="24" height="24" viewBox="0 0 24 24" fill="none" xmlns="http://www.w3.org/2000/svg">
<path d="M13.4119 15.2306C13.0204 15.4708 12.5189 15.6031 11.9999 15.6031C11.4809 15.6031 10.9795 15.4708 10.5879 15.2306L4.19517 11.3099C4.19517 11.3099 3.61816 10.9563 3.61816 11.7575C3.61816 12.6673 3.61816 15.3968 3.61816 15.3968C3.61816 15.4332 3.61816 15.6159 3.61816 15.6725C3.61816 17.735 7.37074 19.9583 11.9997 19.9583C16.6287 19.9583 20.3813 17.735 20.3813 15.6725C20.3813 15.6159 20.3813 15.4332 20.3813 15.3968C20.3813 15.3968 20.3813 12.5018 20.3813 11.5367C20.3813 10.8936 19.9711 11.2079 19.9711 11.2079L13.4119 15.2306Z" fill="#029875"/>
<path d="M22.6316 8.1913C23.1228 7.89006 23.1228 7.39709 22.6316 7.09579L12.8931 2.22593C12.4019 1.92469 11.5981 1.92469 11.1069 2.22593L1.3684 7.09579C0.877199 7.39704 0.877199 7.89001 1.3684 8.1913L11.1069 14.164C11.5981 14.4652 12.4019 14.4652 12.8931 14.164" fill="#029875"/>
<path d="M22.2289 17.0443C22.2289 15.3952 22.2289 10.4479 22.2289 10.4479C22.2289 10.4479 22.2335 10.1355 22.0481 10.2387C21.8993 10.3214 21.5348 10.5246 21.4064 10.6364C21.2581 10.7652 21.2915 11.0545 21.2915 11.0545C21.2915 11.0545 21.2915 15.5469 21.2915 17.0443C21.2915 17.1293 21.2185 17.1699 21.1836 17.1904C20.847 17.3883 20.6206 17.7536 20.6206 18.1725C20.6206 18.8018 21.1308 19.3121 21.7602 19.3121C22.3896 19.3121 22.8998 18.8018 22.8998 18.1725C22.8998 17.7521 22.6718 17.3856 22.333 17.1882C22.2993 17.1685 22.2289 17.1293 22.2289 17.0443Z" fill="#029875"/>
</svg>
