<svg width="22" height="18" viewBox="0 0 22 18" fill="none" xmlns="http://www.w3.org/2000/svg">
<path fill-rule="evenodd" clip-rule="evenodd" d="M21.0371 8.35909C20.1784 11.7376 16.7245 14.3843 12.3701 14.973C13.2758 15.3044 14.3033 15.4914 15.3922 15.4914C16.07 15.4925 16.7457 15.418 17.4069 15.2692L19.5397 17.1549L18.9136 14.7686C20.7675 13.9377 21.9998 12.471 21.9998 10.7992C21.9998 9.90544 21.6479 9.07005 21.0371 8.35909Z" fill="#029875"/>
<path fill-rule="evenodd" clip-rule="evenodd" d="M0 6.93742C0 3.10598 4.37411 0 9.7698 0C15.1655 0 19.54 3.10598 19.54 6.93742C19.54 10.7689 15.1653 13.8748 9.77015 13.8748C8.76802 13.8762 7.76887 13.7656 6.79128 13.5452L3.58561 16.2587L4.56337 12.8066C1.82214 11.5778 0 9.40942 0 6.93742ZM6.78253 6.54523C6.78253 7.14964 6.29255 7.63962 5.68813 7.63962C5.08371 7.63962 4.59373 7.14964 4.59373 6.54523C4.59373 5.9408 5.08371 5.45083 5.68813 5.45083C6.29255 5.45083 6.78253 5.9408 6.78253 6.54523ZM9.47569 7.63964C10.0801 7.63964 10.5701 7.14966 10.5701 6.54524C10.5701 5.94082 10.0801 5.45085 9.47569 5.45085C8.87127 5.45085 8.38129 5.94082 8.38129 6.54524C8.38129 7.14966 8.87127 7.63964 9.47569 7.63964ZM14.3572 6.54524C14.3572 7.14966 13.8672 7.63964 13.2628 7.63964C12.6584 7.63964 12.1684 7.14966 12.1684 6.54524C12.1684 5.94082 12.6584 5.45085 13.2628 5.45085C13.8672 5.45085 14.3572 5.94082 14.3572 6.54524Z" fill="#029875"/>
</svg>
