<svg width="24" height="24" viewBox="0 0 24 24" fill="none" xmlns="http://www.w3.org/2000/svg">
<path fill-rule="evenodd" clip-rule="evenodd" d="M16.158 8.23283C16.158 10.5825 14.2848 12.4666 11.9487 12.4666C9.61262 12.4666 7.73944 10.5825 7.73944 8.23283C7.73944 5.88226 9.61262 4 11.9487 4C14.2848 4 16.158 5.88226 16.158 8.23283ZM11.9488 20C8.51768 20 5.58794 19.456 5.58794 17.2802C5.58794 15.1034 8.49887 14.5396 11.9488 14.5396C15.38 14.5396 18.3097 15.0836 18.3097 17.2603C18.3097 19.4362 15.3988 20 11.9488 20ZM17.9571 8.30922C17.9571 9.50702 17.5998 10.6229 16.9731 11.5505C16.9086 11.646 16.9659 11.7747 17.0796 11.7945C17.2363 11.8216 17.3984 11.8369 17.5631 11.8414C19.2062 11.8846 20.6809 10.821 21.0883 9.21973C21.6918 6.84124 19.9198 4.70592 17.6634 4.70592C17.4181 4.70592 17.1835 4.73203 16.9552 4.77886C16.9238 4.78607 16.8907 4.80048 16.8728 4.8284C16.8513 4.86262 16.8674 4.90855 16.8889 4.93827C17.5667 5.89381 17.9571 7.05919 17.9571 8.30922ZM20.6783 13.5126C21.7823 13.7296 22.5085 14.1727 22.8093 14.8166C23.0636 15.3453 23.0636 15.9586 22.8093 16.4863C22.3491 17.4851 20.8654 17.8057 20.2888 17.8886C20.1697 17.9066 20.0739 17.803 20.0864 17.6832C20.381 14.9157 18.0378 13.6035 17.4316 13.3018C17.4056 13.2883 17.4002 13.2676 17.4029 13.255C17.4047 13.246 17.4155 13.2316 17.4352 13.2289C18.7469 13.2046 20.1572 13.3847 20.6783 13.5126ZM6.4371 11.8413C6.60185 11.8368 6.76302 11.8223 6.92061 11.7944C7.03433 11.7746 7.09163 11.6458 7.02717 11.5504C6.40039 10.6227 6.04312 9.50689 6.04312 8.30909C6.04312 7.05906 6.43352 5.89368 7.11133 4.93814C7.13282 4.90842 7.14804 4.86249 7.12745 4.82827C7.10954 4.80125 7.07552 4.78594 7.04507 4.77874C6.81585 4.7319 6.58126 4.70579 6.33592 4.70579C4.07952 4.70579 2.30753 6.84111 2.91192 9.2196C3.31932 10.8209 4.79404 11.8845 6.4371 11.8413ZM6.59691 13.2545C6.59959 13.268 6.59422 13.2878 6.56915 13.3022C5.96207 13.6039 3.61881 14.9161 3.9134 17.6827C3.92594 17.8034 3.83102 17.9061 3.71194 17.889C3.1353 17.8061 1.65163 17.4855 1.19139 16.4867C0.936203 15.9581 0.936203 15.3457 1.19139 14.817C1.49224 14.1731 2.21752 13.73 3.32154 13.512C3.84356 13.3851 5.25291 13.2049 6.56557 13.2293C6.58527 13.232 6.59512 13.2464 6.59691 13.2545Z" fill="#029875"/>
</svg>
