<svg width="24" height="24" viewBox="0 0 24 24" fill="none" xmlns="http://www.w3.org/2000/svg">
<path d="M21.4141 20.8281C6.2668 20.8281 6.37907 20.8281 2.58594 20.8281C2.26207 20.8281 2 21.0902 2 21.4141C2 21.7379 2.26207 22 2.58594 22H21.4141C21.738 22 22.0001 21.7379 22.0001 21.4141C22.0001 21.0902 21.738 20.8281 21.4141 20.8281Z" fill="#029875"/>
<path d="M7.35156 14.9688H3.75782C3.43395 14.9688 3.17188 15.2308 3.17188 15.5547V19.6563H7.93751V15.5547C7.93751 15.2308 7.67543 14.9688 7.35156 14.9688Z" fill="#029875"/>
<path d="M13.211 11.4531H9.69532C9.37145 11.4531 9.10938 11.7152 9.10938 12.0391V19.6563H13.7969V12.0391C13.7969 11.7152 13.5348 11.4531 13.211 11.4531Z" fill="#029875"/>
<path d="M21.8285 6.85916L17.727 2.17165C17.4981 1.94278 17.1273 1.94278 16.8984 2.17165L12.7968 6.85916C12.6291 7.02681 12.5788 7.27857 12.6698 7.49776C12.7602 7.7169 12.9742 7.8594 13.2111 7.8594H14.9689V19.6563H19.6564V7.8594H21.4143C21.6511 7.8594 21.8652 7.71694 21.9556 7.49776C22.0465 7.27861 21.9962 7.02681 21.8285 6.85916Z" fill="#029875"/>
</svg>
