<svg width="24" height="24" viewBox="0 0 24 24" fill="none" xmlns="http://www.w3.org/2000/svg">
<path d="M1.58594 21H12.2109C12.5346 21 12.7969 20.7377 12.7969 20.4141V19.7891C12.7969 19.1418 12.2723 18.6172 11.625 18.6172V17.9167C11.625 16.9891 10.8703 16.2344 9.94272 16.2344H3.85416C2.92657 16.2344 2.17188 16.9891 2.17188 17.9167V18.6172C1.5246 18.6172 1 19.1418 1 19.7891V20.4141C1 20.7375 1.26245 21 1.58594 21Z" fill="#029875"/>
<path d="M8.33269 13.904C8.72209 14.4208 9.45695 14.5241 9.97377 14.1345C10.4907 13.7451 10.5939 13.0103 10.2045 12.4933L6.67818 7.81388C6.28862 7.29691 5.55391 7.19376 5.03709 7.58317C4.52012 7.97273 4.41682 8.70744 4.80638 9.22441L8.33269 13.904Z" fill="#029875"/>
<path d="M16.7569 7.55672C17.1464 8.07353 17.8811 8.17683 18.3981 7.78728C18.9149 7.39787 19.0182 6.66316 18.6287 6.14619L15.1023 1.46678C14.7129 0.949812 13.9781 0.84651 13.4613 1.23607C12.9445 1.62562 12.8411 2.36033 13.2307 2.8773L16.7569 7.55672Z" fill="#029875"/>
<path d="M14.1859 10.9609C15.052 10.3083 15.7022 9.49792 16.1088 8.64465L12.0057 3.19971C11.0734 3.3555 10.1153 3.75696 9.24908 4.40973C8.383 5.06235 7.73282 5.87274 7.32617 6.72586L11.4293 12.1711C12.3616 12.0153 13.3197 11.6137 14.1859 10.9609Z" fill="#029875"/>
<path d="M15.7676 11.1135C15.4948 11.3915 15.2075 11.6581 14.8907 11.8969C14.5738 12.1356 14.2383 12.3383 13.896 12.524L14.66 13.538L16.5318 12.1276L15.7676 11.1135Z" fill="#029875"/>
<path d="M17.238 13.0635L15.3662 14.4738L18.8925 19.1534C19.2821 19.6704 20.0168 19.7735 20.5336 19.3841C21.0506 18.9946 21.1537 18.2599 20.7643 17.7429L17.238 13.0635Z" fill="#029875"/>
</svg>
