<svg width="24" height="24" viewBox="0 0 24 24" fill="none" xmlns="http://www.w3.org/2000/svg">
<path d="M12.494 4.74267C7.91666 0.739111 2.09662 4.25675 2.00118 9.02548C1.97686 10.2408 2.32768 11.4246 3.026 12.516H7.55231L8.35739 11.1742C8.59116 10.7846 9.15688 10.772 9.4039 11.1604L11.1025 13.8296L13.5786 8.60256C13.7945 8.14646 14.438 8.13199 14.6762 8.57426L16.7987 12.516H21.9621C25.787 6.53803 18.2277 -0.272135 12.494 4.74267Z" fill="#029875"/>
<path d="M15.8894 13.4226L14.1695 10.2285L11.7374 15.3629C11.5305 15.7997 10.9219 15.8376 10.6624 15.4298L8.90014 12.6605L8.42796 13.4475C8.31678 13.6328 8.11656 13.7461 7.90046 13.7461H3.99902C4.12132 13.8741 3.46951 13.2236 12.06 21.7696C12.2999 22.0083 12.6877 22.0083 12.9277 21.7696C21.386 13.3551 20.8666 13.8739 20.9886 13.7461H16.4311C16.2047 13.7462 15.9967 13.6219 15.8894 13.4226Z" fill="#029875"/>
</svg>
