<svg width="24" height="24" viewBox="0 0 24 24" fill="none" xmlns="http://www.w3.org/2000/svg">
<path d="M12 1C5.93488 1 1 5.93488 1 12C1 18.0651 5.93488 23 12 23C18.0651 23 23 18.0651 23 12C23 5.93488 18.0651 1 12 1ZM12.6985 4.57363L15.5269 3.05288C17.093 3.673 18.4598 4.68912 19.4993 5.98163L18.8255 9.09188L16.6681 10.1493L12.6985 7.25763V4.57363ZM8.4965 3.04463L11.3249 4.57087V7.25763L7.358 10.1493L5.18962 9.0905L4.51587 5.961C5.55813 4.67125 6.92763 3.66062 8.4965 3.04463ZM4.06625 17.4368C3.16838 16.1305 2.584 14.5946 2.42312 12.935L4.751 10.4064L6.874 11.4445L8.47312 15.9861L7.1215 17.6059L4.06625 17.4368ZM14.4516 21.2964C13.6665 21.504 12.8484 21.625 12 21.625C10.9742 21.625 9.987 21.46 9.05888 21.1616L8.194 18.4694L9.57312 16.8125H14.4324L15.7867 18.4158L14.4516 21.2964ZM16.8593 17.5591L15.5296 15.9847L17.1508 11.4445L19.2641 10.4091L21.5782 12.9364C21.4394 14.3677 20.9788 15.7029 20.2789 16.884L16.8593 17.5591Z" fill="#029875"/>
</svg>
