<svg width="24" height="24" viewBox="0 0 24 24" fill="none" xmlns="http://www.w3.org/2000/svg">
<path d="M12 1C5.9347 1 1 5.9347 1 12C1 18.0653 5.9347 23 12 23C18.0653 23 23 18.0653 23 12C23 5.9347 18.0653 1 12 1ZM12 21.1667C9.50283 21.1667 7.2382 20.1604 5.58335 18.5353V17.0417C5.58335 16.6057 5.77851 16.3251 6.0041 16.0001C6.23639 15.6658 6.5 15.2867 6.5 14.75C6.5 13.8758 5.71088 13.7872 5.28656 13.7398C4.98308 13.7058 4.69665 13.6735 4.53238 13.5093C4.40794 13.3848 4.2835 13.1588 4.15193 12.9198C3.89064 12.4444 3.53645 11.8157 2.86214 11.4307C3.15858 6.64162 7.13753 2.83335 12 2.83335C12.2516 2.83335 12.4989 2.85114 12.7455 2.87112C12.6953 2.90407 12.6338 2.92646 12.5926 2.96763C12.5036 3.0567 12.4548 3.1789 12.4584 3.3051C12.4624 3.43087 12.5179 3.54994 12.6119 3.63407C12.7766 3.78042 12.8084 3.85429 12.8146 3.85429C12.8043 3.8762 12.7202 4.01989 12.2511 4.25802C11.4768 4.65054 10.5825 5.45397 10.4496 6.2901C10.3887 6.66964 10.4988 7.0219 10.7593 7.28242C10.8452 7.36836 10.9616 7.4167 11.0834 7.4167C11.7198 7.4167 12.2117 7.18127 12.6875 6.95388C13.1758 6.72064 13.6373 6.5 14.2917 6.5C16.0905 6.5 17.5 6.90283 17.5 7.41665C17.5 7.60507 17.4414 7.66282 17.419 7.6843C17.1939 7.90585 16.4272 7.89154 15.7531 7.88123C15.5745 7.87809 15.3919 7.87496 15.2084 7.87496C14.5862 7.87496 14.3933 7.78408 14.1699 7.67846C13.9099 7.55583 13.6154 7.41661 12.9167 7.41661C12.1611 7.41661 10.757 7.55312 9.84258 8.46754C9.09467 9.21502 9.17386 10.1093 9.22581 10.7006C9.23788 10.8367 9.25 10.9656 9.25 11.0833C9.25 11.986 10.1725 12.4583 11.0834 12.4583C12.4843 12.4583 13.6955 12.7196 13.8334 12.9166C13.8334 13.4296 13.986 13.78 14.1086 14.0611C14.2107 14.2961 14.2917 14.4814 14.2917 14.7499C14.2917 14.9576 14.2576 15.0019 14.1659 15.1201C13.9909 15.3475 13.8333 15.595 13.8333 16.1249C13.8333 17.0895 14.7621 18.1476 14.8677 18.2653C14.9559 18.3629 15.0803 18.4166 15.2083 18.4166C15.2463 18.4166 15.2844 18.4121 15.322 18.4023C15.5919 18.3329 17.9583 17.6817 17.9583 16.125C17.9583 15.6371 18.11 15.5055 18.3401 15.3058C18.5657 15.1098 18.875 14.8417 18.875 14.2916C18.875 13.9241 19.5271 12.9757 20.1314 12.3074C20.2169 12.213 20.2594 12.0868 20.2482 11.9597C20.237 11.8326 20.1734 11.7157 20.0728 11.6378C19.7165 11.3617 18.7326 10.4624 18.4032 9.5901C18.5899 9.68768 18.8235 9.84658 19.0093 10.0323C19.1619 10.1859 19.3665 10.2593 19.5992 10.2499C19.9704 10.2287 20.4114 9.93539 20.8293 9.56956C21.0431 10.345 21.1667 11.1575 21.1667 12C21.1667 17.0546 17.0546 21.1667 12 21.1667Z" fill="#029875"/>
</svg>
