<svg width="22" height="22" viewBox="0 0 22 22" fill="none" xmlns="http://www.w3.org/2000/svg">
<path d="M11 0C4.94321 0 0 4.94351 0 11C0 17.0569 4.94351 22 11 22C17.0569 22 22 17.0565 22 11C22 4.94321 17.0565 0 11 0ZM11 2.62109C15.1818 2.62109 18.6578 5.70058 19.2797 9.71094H17.0445C15.6273 9.71094 14.2809 9.14225 13.3504 8.1507C12.0785 6.79521 9.92161 6.79478 8.64961 8.15066C7.71912 9.14225 6.37265 9.71094 4.95541 9.71094H2.72027C3.34215 5.70058 6.81815 2.62109 11 2.62109ZM11 13.5781C9.93386 13.5781 9.06641 12.7108 9.06641 11.6445C9.06641 10.5783 9.93386 9.71094 11 9.71094C12.0662 9.71094 12.9336 10.5783 12.9336 11.6445C12.9336 12.7108 12.0662 13.5781 11 13.5781ZM3.19773 14.0549C3.93551 13.7655 4.46823 13.5781 5.19922 13.5781C7.54909 13.5781 9.3766 15.6722 9.02262 18.025H9.02112C8.96852 18.3851 8.86506 18.734 8.71582 19.0624C6.19102 18.3462 4.14782 16.4731 3.19773 14.0549ZM13.2847 19.0623C13.1314 18.7252 13.0301 18.3763 12.9789 18.025H12.9774C12.5649 15.2833 15.0958 13.0212 17.7192 13.6879C17.9957 13.7582 18.3418 13.8744 18.8022 14.055C17.8522 16.4729 15.8092 18.3459 13.2847 19.0623Z" fill="#029875"/>
</svg>
