<svg width="24" height="24" viewBox="0 0 24 24" fill="none" xmlns="http://www.w3.org/2000/svg">
<path d="M4.36518 4.00012C4.36459 4.00012 4.36393 4.00012 4.36333 4.00012C4.15526 4.00012 3.95956 4.08123 3.81178 4.22864C3.66237 4.37767 3.58008 4.57612 3.58008 4.78738V16.5921C3.58008 17.025 3.93363 17.378 4.3683 17.3791C6.20073 17.3835 9.27079 17.7654 11.3887 19.9818V7.6278C11.3887 7.48106 11.3512 7.34321 11.2805 7.22914C9.54219 4.42975 6.20177 4.00442 4.36518 4.00012Z" fill="white"/>
<path d="M20.4199 16.5921V4.78725C20.4199 4.576 20.3376 4.37755 20.1882 4.22852C20.0404 4.08111 19.8445 4 19.6367 4C19.636 4 19.6354 4 19.6348 4C17.7983 4.00437 14.4578 4.4297 12.7195 7.22909C12.6487 7.34316 12.6113 7.48101 12.6113 7.62775V19.9817C14.7292 17.7653 17.7993 17.3834 19.6317 17.379C20.0663 17.3779 20.4199 17.0249 20.4199 16.5921Z" fill="white"/>
<path d="M22.2135 6.72229H21.6427V16.5919C21.6427 17.6972 20.7422 18.5984 19.6352 18.6012C18.0809 18.6049 15.5181 18.9088 13.7031 20.6266C16.8422 19.8581 20.1514 20.3577 22.0373 20.7875C22.2728 20.8411 22.5161 20.7857 22.7048 20.6353C22.8928 20.4853 23.0006 20.2611 23.0006 20.0204V7.5094C23.0007 7.0754 22.6475 6.72229 22.2135 6.72229Z" fill="white"/>
<path d="M2.35792 16.5919V6.72229H1.78711C1.35318 6.72229 1 7.0754 1 7.5094V20.0202C1 20.2609 1.10785 20.4851 1.29585 20.6351C1.48437 20.7854 1.72748 20.841 1.96333 20.7872C3.84924 20.3574 7.15848 19.8578 10.2974 20.6264C8.48247 18.9087 5.91967 18.6048 4.36538 18.6011C3.2585 18.5984 2.35792 17.6972 2.35792 16.5919Z" fill="white"/>
</svg>
