<svg width="24" height="24" viewBox="0 0 24 24" fill="none" xmlns="http://www.w3.org/2000/svg">
<path d="M13.4119 15.2308C13.0204 15.4709 12.5189 15.6032 11.9999 15.6032C11.4809 15.6032 10.9795 15.471 10.5879 15.2308L4.19517 11.3101C4.19517 11.3101 3.61816 10.9564 3.61816 11.7576C3.61816 12.6674 3.61816 15.397 3.61816 15.397C3.61816 15.4334 3.61816 15.616 3.61816 15.6727C3.61816 17.7351 7.37074 19.9585 11.9997 19.9585C16.6287 19.9585 20.3813 17.7351 20.3813 15.6727C20.3813 15.616 20.3813 15.4334 20.3813 15.397C20.3813 15.397 20.3813 12.5019 20.3813 11.5369C20.3813 10.8937 19.9711 11.208 19.9711 11.208L13.4119 15.2308Z" fill="white"/>
<path d="M22.6316 8.1913C23.1228 7.89006 23.1228 7.39709 22.6316 7.09579L12.8931 2.22593C12.4019 1.92469 11.5981 1.92469 11.1069 2.22593L1.3684 7.09579C0.877199 7.39704 0.877199 7.89001 1.3684 8.1913L11.1069 14.164C11.5981 14.4652 12.4019 14.4652 12.8931 14.164" fill="white"/>
<path d="M22.2294 17.0443C22.2294 15.3952 22.2294 10.4479 22.2294 10.4479C22.2294 10.4479 22.2339 10.1355 22.0486 10.2387C21.8998 10.3214 21.5353 10.5246 21.4069 10.6364C21.2586 10.7652 21.292 11.0545 21.292 11.0545C21.292 11.0545 21.292 15.5469 21.292 17.0443C21.292 17.1293 21.2189 17.1699 21.1841 17.1904C20.8475 17.3883 20.6211 17.7536 20.6211 18.1725C20.6211 18.8018 21.1313 19.3121 21.7607 19.3121C22.3901 19.3121 22.9003 18.8018 22.9003 18.1725C22.9003 17.7521 22.6723 17.3856 22.3335 17.1882C22.2998 17.1685 22.2294 17.1293 22.2294 17.0443Z" fill="white"/>
</svg>
