<svg width="24" height="24" viewBox="0 0 24 24" fill="none" xmlns="http://www.w3.org/2000/svg">
<path fill-rule="evenodd" clip-rule="evenodd" d="M15.6557 12.1204C15.2455 12.1716 14.7846 12.2229 14.3231 12.2241L14.3581 12.2242C14.8251 12.2242 15.2403 12.1723 15.6555 12.1204L15.6555 12.1204C15.014 12.5481 14.302 12.9405 13.5486 13.3558L13.5485 13.3558C13.3877 13.4445 13.2249 13.5342 13.0606 13.6255C7.61115 16.5837 2.68072 18.0888 2.05793 16.9989C1.85033 16.6356 2.21363 15.9609 2.94022 15.1825C2.52502 14.0926 2.26553 12.9508 2.26553 11.7052C2.26553 9.18324 3.23531 6.91649 4.76995 5.20865L4.75684 5.16586C6.57331 3.19368 9.16827 2 11.9708 2C15.1886 2 18.0431 3.55698 19.8076 5.94434C20.9494 5.73675 21.7279 5.78865 21.9355 6.15194C22.4545 7.08613 19.8076 9.57729 15.6557 12.1204ZM11.97 21.4622C14.9802 21.4622 17.6271 20.1128 19.3916 18.0368C18.4575 18.2963 17.4714 18.452 16.4334 18.5039C14.6169 18.5039 12.9042 17.9849 11.451 17.1545C9.27128 18.1925 7.29911 18.9191 5.74213 19.2305C7.45481 20.6318 9.58268 21.4622 11.97 21.4622ZM21.7271 11.7051C21.7271 14.0925 20.8448 16.3242 19.3917 17.985C18.4575 18.2445 17.4714 18.4002 16.4853 18.4002C14.6688 18.4002 12.9562 17.9331 11.503 17.0508C12.3853 16.6356 13.2675 16.1685 14.2017 15.5976C17.4714 13.6773 20.1702 11.6013 21.5714 9.94057C21.6752 10.5634 21.7271 11.1343 21.7271 11.7051ZM15.4478 6.04813C15.4478 6.99401 14.681 7.7608 13.7351 7.7608C12.7893 7.7608 12.0225 6.99401 12.0225 6.04813C12.0225 5.10224 12.7893 4.33545 13.7351 4.33545C14.681 4.33545 15.4478 5.10224 15.4478 6.04813Z" fill="white"/>
</svg>
