<svg width="24" height="24" viewBox="0 0 24 24" fill="none" xmlns="http://www.w3.org/2000/svg">
<path d="M9.50894 20.4326C10.0072 20.4497 12.2664 20.4677 14.8945 19.5485C16.6194 18.9453 18.1508 18.0617 19.4464 16.9224C20.9495 15.6006 22.1303 13.9365 22.9614 11.9703C23.0686 11.7168 22.9446 11.4248 22.6879 11.3258L21.8395 10.9987C21.5952 10.9045 21.3192 11.0199 21.2168 11.2608C20.4972 12.9537 19.4848 14.381 18.2029 15.5082C17.8537 15.8153 17.4837 16.101 17.0943 16.3647C17.9435 15.0194 18.4351 13.4259 18.4351 11.7175C18.4351 6.9181 14.5567 3.02455 9.76297 3.00011C4.95086 2.97556 1.00825 6.89009 1.00001 11.7023C0.991901 16.4541 4.7857 20.3216 9.50894 20.4326ZM14.5812 9.57304C15.7656 9.57304 16.7257 10.5332 16.7257 11.7176C16.7257 12.902 15.7656 13.8621 14.5812 13.8621C13.3968 13.8621 12.4367 12.902 12.4367 11.7176C12.4367 10.5332 13.3968 9.57304 14.5812 9.57304ZM9.71756 4.70947C10.9019 4.70947 11.8621 5.6696 11.8621 6.85399C11.8621 8.03838 10.9019 8.99851 9.71756 8.99851C8.53317 8.99851 7.57304 8.03838 7.57304 6.85399C7.57304 5.6696 8.53317 4.70947 9.71756 4.70947ZM9.71756 14.4366C10.9019 14.4366 11.8621 15.3968 11.8621 16.5812C11.8621 17.7656 10.9019 18.7257 9.71756 18.7257C8.53317 18.7257 7.57304 17.7656 7.57304 16.5812C7.57304 15.3968 8.53317 14.4366 9.71756 14.4366ZM2.70944 11.7176C2.70944 10.5332 3.66957 9.57304 4.85396 9.57304C6.03835 9.57304 6.99848 10.5332 6.99848 11.7176C6.99848 12.902 6.03835 13.8621 4.85396 13.8621C3.66957 13.8621 2.70944 12.902 2.70944 11.7176Z" fill="white"/>
</svg>
