<svg width="24" height="24" viewBox="0 0 24 24" fill="none" xmlns="http://www.w3.org/2000/svg">
<path fill-rule="evenodd" clip-rule="evenodd" d="M22.0371 11.3593C21.1784 14.7378 17.7245 17.3845 13.3701 17.9732C14.2758 18.3045 15.3033 18.4916 16.3922 18.4916C17.07 18.4927 17.7457 18.4181 18.4069 18.2693L20.5397 20.155L19.9136 17.7687C21.7675 16.9378 22.9998 15.4712 22.9998 13.7994C22.9998 12.9056 22.6479 12.0702 22.0371 11.3593Z" fill="white"/>
<path fill-rule="evenodd" clip-rule="evenodd" d="M1 9.93742C1 6.10598 5.37411 3 10.7698 3C16.1655 3 20.54 6.10598 20.54 9.93742C20.54 13.7689 16.1653 16.8748 10.7702 16.8748C9.76802 16.8762 8.76887 16.7656 7.79128 16.5452L4.58561 19.2587L5.56337 15.8066C2.82214 14.5778 1 12.4094 1 9.93742ZM7.78253 9.54523C7.78253 10.1496 7.29255 10.6396 6.68813 10.6396C6.08371 10.6396 5.59373 10.1496 5.59373 9.54523C5.59373 8.9408 6.08371 8.45083 6.68813 8.45083C7.29255 8.45083 7.78253 8.9408 7.78253 9.54523ZM10.4757 10.6396C11.0801 10.6396 11.5701 10.1497 11.5701 9.54524C11.5701 8.94082 11.0801 8.45085 10.4757 8.45085C9.87127 8.45085 9.38129 8.94082 9.38129 9.54524C9.38129 10.1497 9.87127 10.6396 10.4757 10.6396ZM15.3572 9.54524C15.3572 10.1497 14.8672 10.6396 14.2628 10.6396C13.6584 10.6396 13.1684 10.1497 13.1684 9.54524C13.1684 8.94082 13.6584 8.45085 14.2628 8.45085C14.8672 8.45085 15.3572 8.94082 15.3572 9.54524Z" fill="white"/>
</svg>
