<svg width="24" height="24" viewBox="0 0 24 24" fill="none" xmlns="http://www.w3.org/2000/svg">
<path d="M12 13.2891C12.356 13.2891 12.6445 13.0005 12.6445 12.6445C12.6445 12.2886 12.356 12 12 12C11.644 12 11.3555 12.2886 11.3555 12.6445C11.3555 13.0005 11.644 13.2891 12 13.2891Z" fill="white"/>
<path d="M12 1C5.94321 1 1 5.94351 1 12C1 18.0569 5.94351 23 12 23C18.0569 23 23 18.0565 23 12C23 5.94321 18.0565 1 12 1ZM12 3.62109C16.1818 3.62109 19.6578 6.70058 20.2797 10.7109H18.0445C16.6273 10.7109 15.2809 10.1422 14.3504 9.1507C13.0785 7.79521 10.9216 7.79478 9.64961 9.15066C8.71912 10.1422 7.37265 10.7109 5.95541 10.7109H3.72027C4.34215 6.70058 7.81815 3.62109 12 3.62109ZM12 14.5781C10.9339 14.5781 10.0664 13.7108 10.0664 12.6445C10.0664 11.5783 10.9339 10.7109 12 10.7109C13.0662 10.7109 13.9336 11.5783 13.9336 12.6445C13.9336 13.7108 13.0662 14.5781 12 14.5781ZM4.19773 15.0549C4.93551 14.7655 5.46823 14.5781 6.19922 14.5781C8.54909 14.5781 10.3766 16.6722 10.0226 19.025H10.0211C9.96852 19.3851 9.86506 19.734 9.71582 20.0624C7.19102 19.3462 5.14782 17.4731 4.19773 15.0549ZM14.2847 20.0623C14.1314 19.7252 14.0301 19.3763 13.9789 19.025H13.9774C13.5649 16.2833 16.0958 14.0212 18.7192 14.6879C18.9957 14.7582 19.3418 14.8744 19.8022 15.055C18.8522 17.4729 16.8092 19.3459 14.2847 20.0623Z" fill="white"/>
</svg>
